<svg width="64" height="92" viewBox="0 0 64 92" fill="none" xmlns="http://www.w3.org/2000/svg">
<path d="M43.0817 77.2771L43.4839 76.172C45.5552 70.4812 52.8473 72.8544 54.3221 68.8024C54.9624 67.0433 53.9452 65.3705 51.8177 64.5962C49.4873 63.748 47.5514 64.4822 46.8947 66.2864L46.7306 66.7374C46.5664 67.1885 46.2444 67.3012 45.7934 67.137L41.4784 65.3792C41.0649 65.2287 40.8531 64.9217 40.9571 64.636L41.1213 64.185C42.9244 59.2309 48.0928 57.264 53.8663 59.3654C59.512 61.4202 61.9951 65.9422 60.2522 70.7309C57.7896 77.4967 50.4354 74.8966 49.0919 78.5877L48.8183 79.3395C48.7951 79.4376 48.7498 79.5292 48.6859 79.6073C48.622 79.6853 48.5412 79.7478 48.4495 79.79C48.3578 79.8321 48.2578 79.8528 48.1569 79.8505C48.0561 79.8482 47.9571 79.8229 47.8674 79.7766L43.5298 78.1979C43.4339 78.1762 43.3442 78.1332 43.2671 78.0721C43.19 78.0111 43.1277 77.9335 43.0847 77.8451C43.0416 77.7567 43.019 77.6597 43.0185 77.5614C43.018 77.4631 43.0396 77.3659 43.0817 77.2771ZM40.3138 83.7359C40.5213 83.0154 40.9409 82.374 41.5179 81.8952C42.0948 81.4164 42.8025 81.1222 43.5489 81.051C44.2953 80.9798 45.0459 81.1348 45.703 81.4959C46.3601 81.857 46.8934 82.4075 47.2334 83.0757C47.5735 83.744 47.7046 84.4991 47.6097 85.2428C47.5149 85.9866 47.1984 86.6846 46.7015 87.2461C46.2046 87.8076 45.5502 88.2065 44.8235 88.3911C44.0968 88.5757 43.3313 88.5374 42.6267 88.2811C42.1759 88.1352 41.7584 87.9018 41.398 87.5942C41.0376 87.2866 40.7415 86.9109 40.5266 86.4887C40.3117 86.0664 40.1823 85.6059 40.1458 85.1335C40.1093 84.6611 40.1664 84.1862 40.3138 83.7359Z" fill="#8A88A0" fill-opacity="0.5"/>
<path d="M18.8989 42.7499L18.5134 40.5637C16.5255 29.2896 30.7159 26.2879 29.2989 18.2518C28.6842 14.7656 25.4478 12.9967 21.1935 13.7469C16.5728 14.5616 14.0976 17.5935 14.7269 21.1624L14.8832 22.0488C15.0416 22.9469 14.6279 23.4342 13.7298 23.5925L4.99932 24.803C4.18389 24.9467 3.54371 24.6331 3.44369 24.0659L3.28741 23.1795C1.55787 13.3709 8.15798 5.26156 19.5975 3.24446C30.7889 1.27112 39.1125 6.32249 40.7857 15.8121C43.1592 29.2724 28.6616 31.914 29.964 39.3001L30.2203 40.7537C30.2762 40.9367 30.2897 41.1301 30.2598 41.3191C30.2298 41.5081 30.1572 41.6878 30.0474 41.8446C29.9377 42.0014 29.7936 42.1311 29.6262 42.2239C29.4589 42.3167 29.2726 42.3701 29.0814 42.3802L20.5018 43.893C20.3199 43.9447 20.1287 43.9549 19.9424 43.9226C19.7561 43.8904 19.5794 43.8167 19.4255 43.7069C19.2715 43.5971 19.1443 43.4541 19.0531 43.2885C18.962 43.1228 18.9093 42.9387 18.8989 42.7499ZM20.4688 55.9377C20.1308 54.5617 20.2148 53.1159 20.71 51.7884C21.2052 50.4608 22.0886 49.3131 23.2451 48.4947C24.4017 47.6762 25.7779 47.2249 27.1945 47.1995C28.6112 47.174 30.0027 47.5757 31.1878 48.3522C32.373 49.1286 33.297 50.2439 33.8394 51.5528C34.3819 52.8618 34.5178 54.3036 34.2293 55.6908C33.9408 57.078 33.2414 58.3463 32.2221 59.3305C31.2028 60.3146 29.9108 60.9691 28.5144 61.2087C26.746 61.5796 24.9026 61.2333 23.3895 60.2456C21.8764 59.258 20.8174 57.71 20.4452 55.9418L20.4688 55.9377Z" fill="#8185E7" stroke="#2F2E41" stroke-width="1.5" stroke-miterlimit="10"/>
</svg>
