<svg width="256" height="227" viewBox="0 0 256 227" fill="none" xmlns="http://www.w3.org/2000/svg">
<path d="M218.232 55.3463C228.79 55.3463 237.348 46.7877 237.348 36.2303C237.348 25.6728 228.79 17.1143 218.232 17.1143C207.675 17.1143 199.116 25.6728 199.116 36.2303C199.116 46.7877 207.675 55.3463 218.232 55.3463Z" stroke="#2F2E41" stroke-miterlimit="10"/>
<path d="M218.232 62.1025V71.2585" stroke="#2F2E41" stroke-miterlimit="10"/>
<path d="M218.232 0.794434V9.95043" stroke="#2F2E41" stroke-miterlimit="10"/>
<path d="M244.308 36.0264H253.464" stroke="#2F2E41" stroke-miterlimit="10"/>
<path d="M183 36.0264H192.156" stroke="#2F2E41" stroke-miterlimit="10"/>
<path d="M236.67 17.5884L243.144 11.1084" stroke="#2F2E41" stroke-miterlimit="10"/>
<path d="M193.32 60.9384L199.794 54.4644" stroke="#2F2E41" stroke-miterlimit="10"/>
<path d="M199.794 17.5884L193.32 11.1084" stroke="#2F2E41" stroke-miterlimit="10"/>
<path d="M243.144 60.9384L236.67 54.4644" stroke="#2F2E41" stroke-miterlimit="10"/>
<path d="M169.255 76.9426C169.255 76.9426 171.715 74.8906 171.919 68.9446C172.123 62.9986 165.973 58.9006 165.973 58.9006C165.973 58.9006 166.795 54.8026 166.177 51.5266C165.559 48.2506 159.019 45.5566 159.019 45.5566C159.357 43.2286 159.216 40.8562 158.605 38.5846C157.579 35.3086 152.869 34.2826 152.869 34.2826C143.383 21.0826 132.385 24.5746 130.423 25.3426C128.461 24.5746 117.463 21.0766 107.977 34.2826C107.977 34.2826 103.261 35.3086 102.235 38.5846C101.628 40.8569 101.489 43.2289 101.827 45.5566C101.827 45.5566 95.269 48.2206 94.627 51.5026C93.985 54.7846 94.831 58.8766 94.831 58.8766C94.831 58.8766 88.687 62.9806 88.891 68.9206C89.095 74.8606 91.567 76.9426 91.567 76.9426C91.567 76.9426 87.877 79.1986 87.877 82.0666C87.877 84.9346 91.363 89.4466 94.435 90.2626C97.339 91.0366 127.081 90.3526 130.435 90.2626C133.759 90.3406 163.507 91.0246 166.405 90.2626C169.483 89.4466 172.969 84.9346 172.969 82.0666C172.969 79.1986 169.255 76.9426 169.255 76.9426Z" fill="#2F2E41" stroke="#2F2E41" stroke-miterlimit="10"/>
<path d="M117.019 72.1429C117.019 72.1429 97.3031 82.6729 94.1411 86.7409C90.9791 90.8089 101.065 134.447 101.341 136.097C101.617 137.747 102.247 142.871 121.507 144.377C140.767 145.883 150.103 141.821 151.459 140.315C152.264 139.415 153.117 138.56 154.015 137.753C154.015 137.753 169.363 90.1969 167.407 86.7529C165.451 83.3089 152.359 75.4609 148.297 73.5049C144.235 71.5489 142.429 71.3989 142.429 71.3989L117.019 72.1429Z" fill="#8185E7"/>
<path d="M117.019 72.1429C117.019 72.1429 97.3031 82.6729 94.1411 86.7409C90.9791 90.8089 101.065 134.447 101.341 136.097C101.617 137.747 102.247 142.871 121.507 144.377C140.767 145.883 150.103 141.821 151.459 140.315C152.264 139.415 153.117 138.56 154.015 137.753C154.015 137.753 169.363 90.1969 167.407 86.7529C165.451 83.3089 152.359 75.4609 148.297 73.5049C144.235 71.5489 142.429 71.3989 142.429 71.3989L117.019 72.1429Z" stroke="#2F2E41" stroke-miterlimit="10"/>
<path d="M92.971 188.837C92.971 188.837 89.635 189.197 87.865 190.709C86.095 192.221 84.805 197.513 84.805 197.513L77.815 212.837C76.555 215.615 77.311 218.135 78.067 218.387C78.823 218.639 82.357 218.639 82.357 218.639H100.141C100.519 217.899 102.298 219.203 102.141 218.387C101.685 216.803 93.985 212.909 94.717 211.595C95.977 209.327 100.939 201.203 98.917 195.149C96.895 189.095 92.971 188.837 92.971 188.837Z" fill="#2F2E41" stroke="#2F2E41" stroke-miterlimit="10"/>
<path d="M163.849 188.837C163.849 188.837 167.185 189.197 168.949 190.709C170.713 192.221 172.015 197.543 172.015 197.543C172.015 197.543 177.739 210.095 178.999 212.867C180.259 215.639 179.509 218.165 178.747 218.417C177.985 218.669 174.463 218.669 174.463 218.669H161.299C160.921 217.929 160.8 217.085 160.957 216.269C161.413 214.685 162.829 212.939 162.103 211.625C160.837 209.357 155.881 201.233 157.903 195.179C159.925 189.125 163.849 188.837 163.849 188.837Z" fill="#2F2E41" stroke="#2F2E41" stroke-miterlimit="10"/>
<path d="M98.419 219.107H159.133C159.625 218.171 166.045 208.097 166.441 195.983C166.654 187.206 165.97 178.431 164.401 169.793L91.555 176.447C91.555 176.447 89.899 185.327 91.105 197.519C92.245 209.087 96.775 217.625 98.419 219.107Z" fill="#8A88A0" stroke="#2F2E41" stroke-miterlimit="10"/>
<path d="M106.303 78.0286L112.021 135.665L102.421 132.353C102.421 132.353 93.391 164.411 91.735 175.097C90.079 185.783 93.535 198.419 98.509 205.493C103.483 212.567 118.675 217.685 128.905 217.085C139.135 216.485 148.471 213.623 154.039 205.949C159.607 198.275 164.125 187.589 164.575 172.085C165.025 156.581 156.295 133.559 156.295 133.559L146.095 135.815L157.459 78.8506L153.859 76.4506L150.007 101.813C150.007 101.813 144.439 103.469 131.347 103.469C118.255 103.469 111.931 99.8686 111.931 99.8686L109.531 76.3906L106.303 78.0286Z" fill="white" stroke="#2F2E41" stroke-miterlimit="10"/>
<path d="M127.219 186.383C127.219 186.383 126.469 182.321 123.763 179.609C121.057 176.897 117.763 176.609 115.333 175.847C113.599 175.206 111.979 174.292 110.533 173.141C110.533 173.141 113.395 179.741 115.201 182.015C117.007 184.289 119.401 185.783 120.919 186.083C122.437 186.383 127.219 186.383 127.219 186.383Z" fill="#8185E7" stroke="#2F2E41" stroke-miterlimit="10"/>
<path d="M131.737 161.699C131.737 161.699 131.737 157.937 133.243 156.131C134.749 154.325 142.723 151.769 142.723 151.769C142.723 151.769 140.467 156.437 137.323 158.969C134.179 161.501 131.737 161.699 131.737 161.699Z" fill="#8185E7" stroke="#2F2E41" stroke-miterlimit="10"/>
<path d="M129.619 164.861C129.619 164.861 127.819 164.711 127.219 159.893C126.619 155.075 129.481 146.201 129.481 146.201C129.481 146.201 132.481 153.401 132.037 157.937C131.593 162.473 131.137 162.305 129.619 164.861Z" fill="#8185E7" stroke="#2F2E41" stroke-miterlimit="10"/>
<path d="M132.019 177.803C132.019 177.803 132.319 171.485 136.381 169.229C139.559 167.547 142.826 166.039 146.167 164.711C146.167 164.711 144.511 170.279 142.255 172.685C139.999 175.091 137.737 177.953 135.655 178.685C135.027 178.896 134.353 178.925 133.71 178.769C133.066 178.613 132.48 178.278 132.019 177.803Z" fill="#8185E7" stroke="#2F2E41" stroke-miterlimit="10"/>
<path d="M126.169 167.267C124.841 164.123 122.722 161.376 120.019 159.293C115.501 155.831 112.945 155.693 112.945 155.693C112.945 155.693 113.995 162.017 117.607 165.173C121.219 168.329 126.169 167.267 126.169 167.267Z" fill="#8185E7" stroke="#2F2E41" stroke-miterlimit="10"/>
<path d="M130.006 198.794L129.781 160.349" stroke="#2F2E41" stroke-miterlimit="10"/>
<path d="M129.931 188.639L122.107 181.565" stroke="#2F2E41" stroke-miterlimit="10"/>
<path d="M130.081 180.059L138.511 172.385" stroke="#2F2E41" stroke-miterlimit="10"/>
<path d="M129.781 170.129L120.001 163.055" stroke="#2F2E41" stroke-miterlimit="10"/>
<path d="M130.081 163.355L135.049 158.543" stroke="#2F2E41" stroke-miterlimit="10"/>
<path d="M164.851 220.935C164.851 220.935 146.467 208.515 144.409 206.043C142.351 203.571 138.889 200.745 135.799 199.509C132.709 198.273 130.441 196.623 124.465 199.509C118.489 202.395 117.979 206.331 116.665 207.249L96.853 221.343L90.853 223.611C90.853 223.611 99.919 223.197 102.187 222.783C104.455 222.369 109.807 222.375 109.807 222.375C109.807 222.375 104.245 224.847 107.335 225.051C110.425 225.255 116.197 222.993 117.637 222.783C119.077 222.573 120.109 222.579 125.059 224.019C130.009 225.459 130.825 226.083 131.443 225.669C132.198 224.976 132.889 224.217 133.507 223.401C133.507 223.401 130.003 224.001 140.509 225.255C151.015 226.509 150.619 223.407 150.619 223.407C150.619 223.407 154.327 223.407 157.819 223.203C161.311 222.999 162.973 224.235 166.477 224.235C169.981 224.235 164.851 220.935 164.851 220.935Z" fill="#2F2E41" stroke="#2F2E41" stroke-miterlimit="10"/>
<path d="M135.799 91.4205L133.693 134.915L143.773 133.859L145.573 81.7905C145.573 81.7905 141.967 90.5205 135.799 91.4205Z" fill="#8A88A0" stroke="#2F2E41" stroke-miterlimit="10"/>
<path d="M117.289 69.143C117.289 69.143 115.183 71.099 115.333 72.143C115.483 73.187 114.133 73.799 114.883 76.505C115.633 79.211 122.857 94.715 124.813 96.071C126.769 97.427 132.187 99.071 134.899 97.121C137.611 95.171 145.279 85.235 146.185 80.117C147.091 74.999 147.541 72.143 144.829 68.831L142.123 65.543C142.123 65.543 141.217 70.661 133.543 73.217C125.869 75.773 117.289 69.143 117.289 69.143Z" fill="#8A88A0" stroke="#2F2E41" stroke-miterlimit="10"/>
<path d="M121.219 73.9429C121.219 73.9429 129.649 89.1409 131.905 87.9349C134.161 86.7289 138.379 72.5869 138.379 72.5869L121.219 73.9429Z" fill="white" stroke="#2F2E41" stroke-miterlimit="10"/>
<path d="M131.887 87.9588C131.887 87.9588 127.825 89.9148 125.719 89.9148C123.613 89.9148 119.719 83.9148 117.889 80.8848" stroke="#2F2E41" stroke-miterlimit="10"/>
<path d="M143.473 67.3428C143.473 67.3428 144.979 72.7428 143.773 78.0288C142.567 83.3148 140.617 88.7148 136.573 90.2148" stroke="#2F2E41" stroke-miterlimit="10"/>
<path d="M148.117 50.6388C148.117 50.6388 148.315 46.4388 150.805 47.9088C153.295 49.3788 150.427 56.0268 149.149 57.5088C148.293 58.4815 147.278 59.303 146.149 59.9388L147.433 51.8148L148.117 50.6388Z" fill="white" stroke="#2F2E41" stroke-miterlimit="10"/>
<path d="M110.533 48.9648C110.533 48.9648 112.471 62.5428 113.827 65.6868C115.183 68.8308 121.027 76.2348 125.425 78.2868C126.933 79.0492 128.624 79.3756 130.307 79.2293C131.99 79.083 133.599 78.4698 134.953 77.4588C136.669 76.2588 141.445 70.7988 144.067 66.2688C146.689 61.7388 147.667 47.7588 147.667 47.7588L146.623 37.8528C146.623 37.8528 125.521 25.2528 121.123 25.8528C116.725 26.4528 108.577 42.7788 109.087 44.7288C109.481 46.1693 109.964 47.584 110.533 48.9648Z" fill="white" stroke="#2F2E41" stroke-miterlimit="10"/>
<path d="M127.087 65.3745C127.087 65.3745 129.103 67.3125 132.655 65.4825" stroke="#2F2E41" stroke-miterlimit="10"/>
<path d="M125.371 69.7427C125.371 69.7427 129.295 72.8687 134.437 69.2207" stroke="#2F2E41" stroke-miterlimit="10"/>
<path d="M116.587 51.4788C116.587 51.4788 120.187 49.0428 123.871 50.3688" stroke="#2F2E41" stroke-miterlimit="10"/>
<path d="M134.107 50.5909C134.107 50.5909 138.859 48.9049 141.421 52.0369" stroke="#2F2E41" stroke-miterlimit="10"/>
<path d="M121.945 56.1708C121.897 57.1248 121.393 57.8988 120.805 57.9048C120.217 57.9108 119.791 57.1368 119.833 56.1828C119.875 55.2288 120.385 54.4548 120.973 54.4488C121.561 54.4428 121.987 55.2168 121.945 56.1708Z" fill="#2F2E41"/>
<path d="M137.917 56.0506C137.875 57.0046 137.365 57.7787 136.783 57.7847C136.201 57.7907 135.763 57.0166 135.811 56.0626C135.859 55.1086 136.363 54.3346 136.945 54.3286C137.527 54.3226 137.965 55.0906 137.917 56.0506Z" fill="#2F2E41"/>
<path d="M123.673 32.1887C123.673 32.1887 122.671 34.3007 121.273 37.7627C119.875 41.2247 116.425 44.7167 114.433 45.4787C113.145 45.9613 111.815 46.3249 110.461 46.5647C110.461 46.5647 111.709 48.9647 110.503 48.9647C109.297 48.9647 108.235 45.8267 108.235 45.8267C108.235 45.8267 104.209 35.3387 106.717 26.9027C107.434 24.4589 108.711 22.2157 110.446 20.3514C112.181 18.4871 114.327 17.0529 116.713 16.1627C116.713 16.1627 120.601 10.4207 131.539 11.6927C142.477 12.9647 147.991 17.4287 151.819 28.9667C155.647 40.5047 149.923 46.8647 149.131 47.6207C148.339 48.3767 148.861 50.1827 148.087 50.6207C147.313 51.0587 146.371 48.6767 146.371 48.6767C142.878 47.5866 139.563 45.9918 136.531 43.9427C132.157 40.8227 127.057 33.9467 125.917 32.4527C124.777 30.9587 123.673 32.1887 123.673 32.1887Z" fill="#2F2E41" stroke="#2F2E41" stroke-miterlimit="10"/>
<path d="M110.533 48.9649C110.533 48.9649 108.835 46.5649 107.533 48.6889C106.231 50.8129 106.819 54.2569 108.073 56.3509C109.327 58.4449 112.321 59.8189 112.321 59.8189L110.533 48.9649Z" fill="white" stroke="#2F2E41" stroke-miterlimit="10"/>
<path d="M105.097 79.5347C105.097 79.5347 85.9871 90.3707 84.9311 95.3327C83.8751 100.295 88.8491 130.247 88.8491 130.247L88.6931 153.425C88.6931 153.425 94.0931 150.563 98.6291 150.563C103.165 150.563 106.303 150.713 106.303 150.713C106.303 150.713 103.441 131.453 103.441 130.853C103.441 130.253 103.597 98.1947 103.597 98.1947" fill="#8185E7"/>
<path d="M105.097 79.5347C105.097 79.5347 85.9871 90.3707 84.9311 95.3327C83.8751 100.295 88.8491 130.247 88.8491 130.247L88.6931 153.425C88.6931 153.425 94.0931 150.563 98.6291 150.563C103.165 150.563 106.303 150.713 106.303 150.713C106.303 150.713 103.441 131.453 103.441 130.853C103.441 130.253 103.597 98.1947 103.597 98.1947" stroke="#2F2E41" stroke-miterlimit="10"/>
<path d="M95.7669 145.901C95.7669 145.901 89.7669 148.901 88.0929 150.563C86.4189 152.225 85.9869 152.825 86.4369 153.425C86.8869 154.025 87.7929 163.625 88.9989 164.711C90.2049 165.797 94.1109 167.573 100.585 165.461C107.059 163.349 108.709 161.099 108.985 159.593C109.261 158.087 108.529 156.887 107.785 152.393C107.041 147.899 105.097 144.095 95.7669 145.901Z" fill="#8A88A0" stroke="#2F2E41" stroke-miterlimit="10"/>
<path d="M106.003 159.293C106.003 159.293 103.291 158.393 98.029 158.993C92.767 159.593 91.855 162.455 91.855 162.455C91.855 162.455 100.585 186.233 102.541 190.595C104.497 194.957 101.941 200.981 101.641 202.637C101.341 204.293 101.335 210.011 101.335 210.011C101.335 210.011 103.597 215.579 103.441 217.385C103.285 219.191 105.241 218.891 105.403 217.535C105.565 216.179 104.203 211.535 104.203 211.535C104.203 211.535 110.203 216.335 110.671 216.797C111.139 217.259 112.933 216.797 112.027 215.447C111.146 214.236 110.192 213.08 109.171 211.985C109.171 211.985 112.933 214.691 113.971 214.385C114.104 214.365 114.231 214.316 114.344 214.243C114.457 214.169 114.552 214.072 114.624 213.958C114.696 213.844 114.742 213.716 114.76 213.583C114.778 213.449 114.766 213.314 114.727 213.185C114.727 213.185 116.227 213.185 116.383 211.985C116.539 210.785 114.271 206.117 114.121 205.061C113.971 204.005 115.921 199.943 115.921 199.943C115.921 199.943 119.833 202.805 121.039 202.943C122.245 203.081 125.557 202.037 124.801 200.543C124.045 199.049 122.695 199.487 120.289 197.543C118.293 196.033 115.974 195.006 113.515 194.543C112.459 194.393 111.115 192.743 111.115 192.743L106.003 159.293Z" fill="white" stroke="#2F2E41" stroke-miterlimit="10"/>
<path d="M110.971 200.225L109.165 204.293L114.733 213.167" stroke="#2F2E41" stroke-miterlimit="10"/>
<path d="M107.209 203.687C107.209 203.687 104.647 208.805 105.853 209.087C107.059 209.369 109.165 211.949 109.165 211.949" stroke="#2F2E41" stroke-miterlimit="10"/>
<path d="M104.347 205.193C104.347 205.193 101.947 207.905 102.547 208.955C103.147 210.005 104.203 211.517 104.203 211.517" stroke="#2F2E41" stroke-miterlimit="10"/>
<path d="M103.441 130.853L97.2729 113.993" stroke="#2F2E41" stroke-miterlimit="10"/>
<path d="M158.839 79.9067C158.839 79.9067 174.397 87.6587 175.453 92.6267C176.509 97.5947 169.693 130.247 169.693 130.247L169.843 153.425C169.843 153.425 164.443 150.563 159.907 150.563C155.371 150.563 152.233 150.713 152.233 150.713C152.233 150.713 155.095 131.453 155.095 130.853C155.095 130.253 154.945 98.1947 154.945 98.1947" fill="#8185E7"/>
<path d="M158.839 79.9067C158.839 79.9067 174.397 87.6587 175.453 92.6267C176.509 97.5947 169.693 130.247 169.693 130.247L169.843 153.425C169.843 153.425 164.443 150.563 159.907 150.563C155.371 150.563 152.233 150.713 152.233 150.713C152.233 150.713 155.095 131.453 155.095 130.853C155.095 130.253 154.945 98.1947 154.945 98.1947" stroke="#2F2E41" stroke-miterlimit="10"/>
<path d="M162.769 145.901C162.769 145.901 166.441 146.321 170.443 150.563C172.051 152.267 172.549 152.825 172.099 153.425C171.649 154.025 170.743 163.625 169.543 164.711C168.343 165.797 164.425 167.573 157.951 165.461C151.477 163.349 149.827 161.099 149.551 159.593C149.275 158.087 150.001 156.887 150.751 152.393C151.501 147.899 153.439 144.095 162.769 145.901Z" fill="#8A88A0" stroke="#2F2E41" stroke-miterlimit="10"/>
<path d="M152.533 159.293C152.533 159.293 155.245 158.393 160.513 158.993C165.781 159.593 166.681 162.455 166.681 162.455C166.681 162.455 157.951 186.233 155.995 190.595C154.039 194.957 156.595 200.981 156.901 202.637C157.207 204.293 157.201 210.011 157.201 210.011C157.201 210.011 154.945 215.579 155.095 217.385C155.245 219.191 153.295 218.891 153.139 217.535C152.983 216.179 154.339 211.535 154.339 211.535C154.339 211.535 148.339 216.335 147.871 216.797C147.403 217.259 145.615 216.797 146.515 215.447C147.399 214.237 148.355 213.081 149.377 211.985C149.377 211.985 145.615 214.691 144.577 214.385C144.444 214.365 144.317 214.317 144.204 214.243C144.092 214.169 143.996 214.072 143.925 213.958C143.854 213.844 143.808 213.716 143.791 213.582C143.774 213.449 143.786 213.313 143.827 213.185C143.827 213.185 142.321 213.185 142.171 211.985C142.021 210.785 144.277 206.117 144.427 205.061C144.577 204.005 142.627 199.943 142.627 199.943C142.627 199.943 138.715 202.805 137.509 202.943C136.303 203.081 132.997 202.037 133.747 200.543C134.497 199.049 135.853 199.487 138.265 197.543C140.259 196.034 142.576 195.007 145.033 194.543C146.089 194.393 147.433 192.743 147.433 192.743L152.533 159.293Z" fill="white" stroke="#2F2E41" stroke-miterlimit="10"/>
<path d="M147.571 200.225L149.377 204.293L143.809 213.167" stroke="#2F2E41" stroke-miterlimit="10"/>
<path d="M151.333 203.687C151.333 203.687 153.889 208.805 152.683 209.087C151.477 209.369 149.377 211.949 149.377 211.949" stroke="#2F2E41" stroke-miterlimit="10"/>
<path d="M154.219 205.193C154.219 205.193 156.619 207.905 156.019 208.955C155.419 210.005 154.363 211.517 154.363 211.517" stroke="#2F2E41" stroke-miterlimit="10"/>
<path d="M155.095 130.853L161.263 113.993" stroke="#2F2E41" stroke-miterlimit="10"/>
<path d="M76.2003 80.3675C76.2003 101 59.4742 117.726 38.8416 117.726C18.209 117.726 1.48291 101 1.48291 80.3675C1.48291 59.7348 18.209 43.0088 38.8416 43.0088C59.4742 43.0088 76.2003 59.7348 76.2003 80.3675Z" fill="#8185E7" stroke="#2F2E41"/>
<path d="M38.877 90.0373C44.2405 90.0373 48.5885 85.6893 48.5885 80.3258C48.5885 74.9622 44.2405 70.6143 38.877 70.6143C33.5135 70.6143 29.1655 74.9622 29.1655 80.3258C29.1655 85.6893 33.5135 90.0373 38.877 90.0373Z" fill="#2F2E41"/>
<path d="M39.2603 117.634C39.2603 117.634 38.3381 87.7769 9.84668 90.8017L39.2603 117.634Z" fill="#2F2E41"/>
<path d="M39.0437 219.335C39.0437 219.335 42.3705 164.715 10.1411 160.335" stroke="#2F2E41" stroke-width="1.2375" stroke-miterlimit="10"/>
<path d="M39.1411 80.335V219.335" stroke="#2F2E41"/>
<path d="M9.85261 169.758C15.2161 169.758 19.5641 165.41 19.5641 160.046C19.5641 154.683 15.2161 150.335 9.85261 150.335C4.4891 150.335 0.141113 154.683 0.141113 160.046C0.141113 165.41 4.4891 169.758 9.85261 169.758Z" fill="#2F2E41"/>
<path d="M255.358 156.367C255.358 177 238.632 193.726 218 193.726C197.367 193.726 180.641 177 180.641 156.367C180.641 135.735 197.367 119.009 218 119.009C238.632 119.009 255.358 135.735 255.358 156.367Z" fill="#8185E7" stroke="#2F2E41"/>
<path d="M217.967 165.832C223.33 165.832 227.678 161.484 227.678 156.121C227.678 150.757 223.33 146.409 217.967 146.409C212.603 146.409 208.255 150.757 208.255 156.121C208.255 161.484 212.603 165.832 217.967 165.832Z" fill="#2F2E41"/>
<path d="M217.554 154.229V219.229" stroke="#2F2E41"/>
<path d="M217.776 193.696C217.776 193.696 216.523 163.851 188.067 167.19L217.776 193.696Z" fill="#2F2E41"/>
</svg>
