<svg width="84" height="60" viewBox="0 0 84 60" fill="none" xmlns="http://www.w3.org/2000/svg">
<path d="M81.4289 25.7507L37.571 1.47991C36.9225 1.12102 36.1058 1.35581 35.7469 2.00434L19.3503 31.6333C18.9914 32.2819 19.2262 33.0985 19.8747 33.4574L63.7326 57.7282C64.3811 58.0871 65.1978 57.8523 65.5567 57.2038L81.9533 27.5748C82.3122 26.9263 82.0774 26.1096 81.4289 25.7507Z" fill="#8185E7" stroke="#2F2E41" stroke-width="1.125" stroke-linecap="round" stroke-linejoin="round"/>
<path d="M35.7419 2.00768L48.4156 31.6096C48.6088 32.0622 48.9499 32.4358 49.3831 32.6694C49.8163 32.9029 50.3159 32.9826 50.8002 32.8954L82.0239 27.2659" fill="#8185E7"/>
<path d="M35.7419 2.00768L48.4156 31.6096C48.6088 32.0622 48.9499 32.4358 49.3831 32.6694C49.8163 32.9029 50.3159 32.9826 50.8002 32.8954L82.0239 27.2659" stroke="#2F2E41" stroke-width="1.125" stroke-linecap="round" stroke-linejoin="round"/>
<path d="M23.5417 7.51002C16.9474 3.61266 10.812 2.97606 8.5686 3.14494" stroke="#2F2E41" stroke-width="1.125" stroke-linecap="square"/>
<path d="M19.6731 16.7358C11.5095 11.8099 3.91536 11.0031 1.13873 11.2154" stroke="#2F2E41" stroke-width="1.125" stroke-linecap="square"/>
<path d="M21.2905 11.457C17.7149 8.87963 14.3942 8.44832 13.1808 8.55484" stroke="#2F2E41" stroke-width="1.125" stroke-linecap="square"/>
</svg>
