<svg width="256" height="216" viewBox="0 0 256 216" fill="none" xmlns="http://www.w3.org/2000/svg">
<path d="M169.38 65.9032C169.38 65.9032 171.84 63.8521 172.044 57.9087C172.248 51.9652 166.098 47.869 166.098 47.869C166.098 47.869 166.92 43.7728 166.302 40.4982C165.684 37.2236 159.144 34.5308 159.144 34.5308C159.482 32.2038 159.342 29.8324 158.73 27.5618C157.704 24.2872 152.994 23.2617 152.994 23.2617C143.508 10.0674 132.51 13.5579 130.548 14.3255C128.586 13.5579 117.588 10.0614 108.102 23.2617C108.102 23.2617 103.386 24.2872 102.36 27.5618C101.753 29.8331 101.614 32.2042 101.952 34.5308C101.952 34.5308 95.3944 37.1936 94.7524 40.4742C94.1104 43.7548 94.9564 47.845 94.9564 47.845C94.9564 47.845 88.8124 51.9472 89.0164 57.8847C89.2204 63.8221 91.6924 65.9032 91.6924 65.9032C91.6924 65.9032 88.0024 68.1582 88.0024 71.025C88.0024 73.8917 91.4884 78.4018 94.5604 79.2174C97.4644 79.9911 127.206 79.3074 130.56 79.2174C133.884 79.2954 163.632 79.9791 166.53 79.2174C169.608 78.4018 173.094 73.8917 173.094 71.025C173.094 68.1582 169.38 65.9032 169.38 65.9032Z" fill="#2F2E41" stroke="#2F2E41" stroke-miterlimit="10"/>
<path d="M117.144 61.1055C117.144 61.1055 97.4283 71.6309 94.2663 75.6972C91.1043 79.7634 101.19 123.383 101.466 125.032C101.742 126.681 102.372 131.803 121.632 133.308C140.892 134.814 150.228 130.753 151.584 129.248C152.389 128.349 153.243 127.494 154.14 126.687C154.14 126.687 169.488 79.1517 167.532 75.7092C165.576 72.2667 152.484 64.4221 148.422 62.4669C144.36 60.5118 142.554 60.3618 142.554 60.3618L117.144 61.1055Z" fill="#8185E7"/>
<path d="M117.144 61.1055C117.144 61.1055 97.4283 71.6309 94.2663 75.6972C91.1043 79.7634 101.19 123.383 101.466 125.032C101.742 126.681 102.372 131.803 121.632 133.308C140.892 134.814 150.228 130.753 151.584 129.248C152.389 128.349 153.243 127.494 154.14 126.687C154.14 126.687 169.488 79.1517 167.532 75.7092C165.576 72.2667 152.484 64.4221 148.422 62.4669C144.36 60.5118 142.554 60.3618 142.554 60.3618L117.144 61.1055Z" stroke="#2F2E41" stroke-miterlimit="10"/>
<path d="M93.0965 177.748C93.0965 177.748 89.7605 178.107 87.9905 179.619C86.2205 181.13 84.9305 186.42 84.9305 186.42L77.9405 201.737C76.6805 204.514 77.4365 207.033 78.1925 207.285C78.9485 207.537 82.4825 207.537 82.4825 207.537H100.267C100.645 206.797 102.423 208.1 102.267 207.285C101.811 205.701 94.1105 201.809 94.8425 200.496C96.1025 198.229 101.065 190.108 99.0425 184.057C97.0205 178.005 93.0965 177.748 93.0965 177.748Z" fill="#2F2E41" stroke="#2F2E41" stroke-miterlimit="10"/>
<path d="M163.975 177.748C163.975 177.748 167.311 178.107 169.075 179.619C170.839 181.13 172.141 186.45 172.141 186.45C172.141 186.45 177.865 198.996 179.125 201.767C180.385 204.538 179.635 207.063 178.873 207.315C178.111 207.567 174.589 207.567 174.589 207.567H161.425C161.046 206.827 160.926 205.983 161.083 205.168C161.539 203.584 162.955 201.839 162.229 200.526C160.963 198.259 156.007 190.138 158.029 184.087C160.051 178.035 163.975 177.748 163.975 177.748Z" fill="#2F2E41" stroke="#2F2E41" stroke-miterlimit="10"/>
<path d="M98.5444 208.005H159.258C159.75 207.069 166.17 197 166.566 184.891C166.779 176.118 166.096 167.347 164.526 158.712L91.6804 165.364C91.6804 165.364 90.0244 174.24 91.2304 186.426C92.3704 197.989 96.9004 206.524 98.5444 208.005Z" fill="#8A88A0" stroke="#2F2E41" stroke-miterlimit="10"/>
<path d="M106.428 66.9888L112.146 124.599L102.546 121.289C102.546 121.289 93.5165 153.332 91.8605 164.014C90.2045 174.695 93.6605 187.325 98.6345 194.396C103.608 201.467 118.8 206.583 129.03 205.983C139.26 205.383 148.596 202.523 154.164 194.852C159.732 187.181 164.25 176.5 164.7 161.003C165.15 145.506 156.42 122.494 156.42 122.494L146.22 124.749L157.584 67.8105L153.984 65.4115L150.132 90.7623C150.132 90.7623 144.564 92.4175 131.472 92.4175C118.38 92.4175 112.056 88.8191 112.056 88.8191L109.656 65.3516L106.428 66.9888Z" fill="white" stroke="#2F2E41" stroke-miterlimit="10"/>
<path d="M127.345 175.295C127.345 175.295 126.595 171.235 123.889 168.524C121.183 165.813 117.889 165.525 115.459 164.764C113.725 164.123 112.104 163.21 110.659 162.059C110.659 162.059 113.521 168.656 115.327 170.929C117.133 173.202 119.527 174.696 121.045 174.995C122.563 175.295 127.345 175.295 127.345 175.295Z" fill="#8185E7" stroke="#2F2E41" stroke-miterlimit="10"/>
<path d="M131.862 150.623C131.862 150.623 131.862 146.862 133.368 145.057C134.874 143.251 142.848 140.696 142.848 140.696C142.848 140.696 140.592 145.362 137.448 147.894C134.304 150.425 131.862 150.623 131.862 150.623Z" fill="#8185E7" stroke="#2F2E41" stroke-miterlimit="10"/>
<path d="M129.744 153.782C129.744 153.782 127.944 153.632 127.344 148.816C126.744 144 129.606 135.13 129.606 135.13C129.606 135.13 132.606 142.327 132.162 146.861C131.718 151.395 131.262 151.227 129.744 153.782Z" fill="#8185E7" stroke="#2F2E41" stroke-miterlimit="10"/>
<path d="M132.145 166.72C132.145 166.72 132.445 160.404 136.507 158.149C139.685 156.468 142.951 154.961 146.293 153.633C146.293 153.633 144.637 159.199 142.381 161.604C140.125 164.009 137.863 166.87 135.781 167.601C135.153 167.812 134.479 167.841 133.835 167.685C133.192 167.529 132.606 167.194 132.145 166.72Z" fill="#8185E7" stroke="#2F2E41" stroke-miterlimit="10"/>
<path d="M126.294 156.187C124.966 153.045 122.847 150.299 120.144 148.216C115.626 144.756 113.07 144.618 113.07 144.618C113.07 144.618 114.12 150.939 117.732 154.094C121.344 157.249 126.294 156.187 126.294 156.187Z" fill="#8185E7" stroke="#2F2E41" stroke-miterlimit="10"/>
<path d="M130.131 187.701L129.907 149.272" stroke="#2F2E41" stroke-miterlimit="10"/>
<path d="M130.056 177.551L122.232 170.479" stroke="#2F2E41" stroke-miterlimit="10"/>
<path d="M130.207 168.974L138.637 161.303" stroke="#2F2E41" stroke-miterlimit="10"/>
<path d="M129.906 159.049L120.126 151.977" stroke="#2F2E41" stroke-miterlimit="10"/>
<path d="M130.207 152.277L135.175 147.466" stroke="#2F2E41" stroke-miterlimit="10"/>
<path d="M164.977 209.832C164.977 209.832 146.593 197.417 144.535 194.946C142.477 192.475 139.015 189.65 135.925 188.415C132.835 187.179 130.567 185.53 124.591 188.415C118.615 191.3 118.105 195.234 116.791 196.152L96.9785 210.24L90.9785 212.507C90.9785 212.507 100.045 212.093 102.313 211.68C104.581 211.266 109.933 211.272 109.933 211.272C109.933 211.272 104.371 213.743 107.461 213.947C110.551 214.151 116.323 211.889 117.763 211.68C119.203 211.47 120.235 211.476 125.185 212.915C130.135 214.354 130.951 214.978 131.569 214.564C132.323 213.872 133.014 213.113 133.633 212.297C133.633 212.297 130.129 212.897 140.635 214.151C151.141 215.404 150.745 212.303 150.745 212.303C150.745 212.303 154.453 212.303 157.945 212.099C161.437 211.895 163.099 213.131 166.603 213.131C170.107 213.131 164.977 209.832 164.977 209.832Z" fill="#2F2E41" stroke="#2F2E41" stroke-miterlimit="10"/>
<path d="M135.924 80.3749L133.818 123.85L143.898 122.794L145.698 70.749C145.698 70.749 142.092 79.4752 135.924 80.3749Z" fill="#8A88A0" stroke="#2F2E41" stroke-miterlimit="10"/>
<path d="M117.415 58.1072C117.415 58.1072 115.309 60.0624 115.459 61.1059C115.609 62.1495 114.259 62.7612 115.009 65.466C115.759 68.1709 122.983 83.6682 124.939 85.0236C126.895 86.379 132.313 88.0223 135.025 86.0731C137.737 84.124 145.405 74.1923 146.311 69.0765C147.217 63.9607 147.667 61.1059 144.955 57.7954L142.249 54.5088C142.249 54.5088 141.343 59.6246 133.669 62.1795C125.995 64.7344 117.415 58.1072 117.415 58.1072Z" fill="#8A88A0" stroke="#2F2E41" stroke-miterlimit="10"/>
<path d="M121.345 62.9048C121.345 62.9048 129.775 78.0967 132.031 76.8912C134.287 75.6857 138.505 61.5493 138.505 61.5493L121.345 62.9048Z" fill="white" stroke="#2F2E41" stroke-miterlimit="10"/>
<path d="M132.013 76.9156C132.013 76.9156 127.951 78.871 125.845 78.871C123.739 78.871 119.845 72.8728 118.015 69.8438" stroke="#2F2E41" stroke-miterlimit="10"/>
<path d="M143.599 56.3081C143.599 56.3081 145.105 61.7059 143.899 66.9898C142.693 72.2737 140.743 77.6716 136.699 79.171" stroke="#2F2E41" stroke-miterlimit="10"/>
<path d="M148.242 39.6112C148.242 39.6112 148.44 35.4129 150.93 36.8823C153.42 38.3517 150.552 44.997 149.274 46.4785C148.418 47.4508 147.404 48.272 146.274 48.9075L147.558 40.7867L148.242 39.6112Z" fill="white" stroke="#2F2E41" stroke-miterlimit="10"/>
<path d="M110.658 37.9377C110.658 37.9377 112.596 51.5098 113.952 54.6525C115.308 57.7951 121.152 65.1959 125.55 67.247C127.058 68.009 128.749 68.3353 130.432 68.1891C132.115 68.0428 133.725 67.43 135.078 66.4194C136.794 65.2199 141.57 59.7622 144.192 55.2342C146.814 50.7062 147.792 36.7322 147.792 36.7322L146.748 26.8305C146.748 26.8305 125.646 14.236 121.248 14.8357C116.85 15.4354 108.702 31.7544 109.212 33.7035C109.606 35.1434 110.089 36.5575 110.658 37.9377Z" fill="white" stroke="#2F2E41" stroke-miterlimit="10"/>
<path d="M127.212 54.3408C127.212 54.3408 129.228 56.2788 132.78 54.4488" stroke="#2F2E41" stroke-miterlimit="10"/>
<path d="M125.497 58.7061C125.497 58.7061 129.421 61.8321 134.563 58.1841" stroke="#2F2E41" stroke-miterlimit="10"/>
<path d="M116.712 40.4515C116.712 40.4515 120.312 38.0155 123.996 39.3415" stroke="#2F2E41" stroke-miterlimit="10"/>
<path d="M134.232 39.5635C134.232 39.5635 138.984 37.8775 141.546 41.0095" stroke="#2F2E41" stroke-miterlimit="10"/>
<path d="M122.07 45.14C122.022 46.0937 121.518 46.8675 120.93 46.8735C120.342 46.8795 119.916 46.1057 119.958 45.152C120 44.1983 120.51 43.4245 121.098 43.4185C121.686 43.4125 122.112 44.1863 122.07 45.14Z" fill="#2F2E41"/>
<path d="M138.043 45.0199C138.001 45.9736 137.491 46.7473 136.909 46.7533C136.327 46.7593 135.889 45.9856 135.937 45.0319C135.985 44.0781 136.489 43.3044 137.071 43.2984C137.653 43.2924 138.091 44.0601 138.043 45.0199Z" fill="#2F2E41"/>
<path d="M123.798 21.1685C123.798 21.1685 122.796 23.2796 121.398 26.7401C120 30.2006 116.55 33.6911 114.558 34.4528C113.27 34.9352 111.941 35.2986 110.586 35.5383C110.586 35.5383 111.834 37.9373 110.628 37.9373C109.422 37.9373 108.36 34.8006 108.36 34.8006C108.36 34.8006 104.334 24.3172 106.842 15.8848C107.559 13.442 108.836 11.1999 110.571 9.33637C112.306 7.47286 114.452 6.0393 116.838 5.14948C116.838 5.14948 120.726 -0.590033 131.664 0.681416C142.602 1.95287 148.116 6.41493 151.944 17.9479C155.772 29.4809 150.048 35.8382 149.256 36.5939C148.464 37.3495 148.986 39.1548 148.212 39.5926C147.438 40.0304 146.496 37.6494 146.496 37.6494C143.003 36.5598 139.688 34.9656 136.656 32.9174C132.282 29.7988 127.182 22.9258 126.042 21.4324C124.902 19.9391 123.798 21.1685 123.798 21.1685Z" fill="#2F2E41" stroke="#2F2E41" stroke-miterlimit="10"/>
<path d="M110.658 37.9381C110.658 37.9381 108.96 35.5391 107.658 37.6622C106.356 39.7854 106.944 43.228 108.198 45.3211C109.452 47.4143 112.446 48.7878 112.446 48.7878L110.658 37.9381Z" fill="white" stroke="#2F2E41" stroke-miterlimit="10"/>
<path d="M105.222 68.4941C105.222 68.4941 86.1123 79.3254 85.0563 84.2853C84.0003 89.2451 88.9743 119.184 88.9743 119.184L88.8183 142.352C88.8183 142.352 94.2183 139.491 98.7543 139.491C103.29 139.491 106.428 139.641 106.428 139.641C106.428 139.641 103.566 120.39 103.566 119.79C103.566 119.19 103.722 87.1461 103.722 87.1461" fill="#8185E7"/>
<path d="M105.222 68.4941C105.222 68.4941 86.1123 79.3254 85.0563 84.2853C84.0003 89.2451 88.9743 119.184 88.9743 119.184L88.8183 142.352C88.8183 142.352 94.2183 139.491 98.7543 139.491C103.29 139.491 106.428 139.641 106.428 139.641C106.428 139.641 103.566 120.39 103.566 119.79C103.566 119.19 103.722 87.1461 103.722 87.1461" stroke="#2F2E41" stroke-miterlimit="10"/>
<path d="M95.8926 134.83C95.8926 134.83 89.8926 137.829 88.2186 139.49C86.5446 141.152 86.1126 141.751 86.5626 142.351C87.0126 142.951 87.9186 152.547 89.1246 153.633C90.3306 154.718 94.2366 156.493 100.711 154.382C107.185 152.271 108.835 150.022 109.111 148.517C109.387 147.011 108.655 145.812 107.911 141.319C107.167 136.827 105.223 133.025 95.8926 134.83Z" fill="#8A88A0" stroke="#2F2E41" stroke-miterlimit="10"/>
<path d="M106.128 148.216C106.128 148.216 103.416 147.317 98.1545 147.917C92.8925 148.516 91.9805 151.377 91.9805 151.377C91.9805 151.377 100.71 175.145 102.666 179.505C104.622 183.865 102.066 189.886 101.766 191.542C101.466 193.197 101.46 198.913 101.46 198.913C101.46 198.913 103.722 204.478 103.566 206.283C103.41 208.089 105.366 207.789 105.528 206.433C105.69 205.078 104.328 200.436 104.328 200.436C104.328 200.436 110.328 205.234 110.796 205.696C111.264 206.157 113.058 205.696 112.152 204.346C111.272 203.136 110.318 201.98 109.296 200.886C109.296 200.886 113.058 203.59 114.096 203.285C114.23 203.265 114.357 203.216 114.47 203.143C114.582 203.069 114.678 202.972 114.75 202.858C114.821 202.744 114.868 202.616 114.885 202.483C114.903 202.349 114.892 202.214 114.852 202.085C114.852 202.085 116.352 202.085 116.508 200.886C116.664 199.686 114.396 195.02 114.246 193.965C114.096 192.909 116.046 188.849 116.046 188.849C116.046 188.849 119.958 191.71 121.164 191.848C122.37 191.986 125.682 190.942 124.926 189.449C124.17 187.955 122.82 188.393 120.414 186.45C118.419 184.941 116.1 183.914 113.64 183.451C112.584 183.301 111.24 181.652 111.24 181.652L106.128 148.216Z" fill="white" stroke="#2F2E41" stroke-miterlimit="10"/>
<path d="M111.097 189.13L109.291 193.196L114.859 202.067" stroke="#2F2E41" stroke-miterlimit="10"/>
<path d="M107.335 192.591C107.335 192.591 104.773 197.707 105.979 197.989C107.185 198.271 109.291 200.85 109.291 200.85" stroke="#2F2E41" stroke-miterlimit="10"/>
<path d="M104.472 194.096C104.472 194.096 102.072 196.807 102.672 197.857C103.272 198.907 104.328 200.418 104.328 200.418" stroke="#2F2E41" stroke-miterlimit="10"/>
<path d="M103.566 119.79L97.3984 102.937" stroke="#2F2E41" stroke-miterlimit="10"/>
<path d="M158.964 68.8662C158.964 68.8662 174.522 76.6149 175.578 81.5807C176.634 86.5466 169.818 119.184 169.818 119.184L169.968 142.352C169.968 142.352 164.568 139.492 160.032 139.492C155.496 139.492 152.358 139.642 152.358 139.642C152.358 139.642 155.22 120.39 155.22 119.79C155.22 119.19 155.07 87.1463 155.07 87.1463" fill="#8185E7"/>
<path d="M158.964 68.8662C158.964 68.8662 174.522 76.6149 175.578 81.5807C176.634 86.5466 169.818 119.184 169.818 119.184L169.968 142.352C169.968 142.352 164.568 139.492 160.032 139.492C155.496 139.492 152.358 139.642 152.358 139.642C152.358 139.642 155.22 120.39 155.22 119.79C155.22 119.19 155.07 87.1463 155.07 87.1463" stroke="#2F2E41" stroke-miterlimit="10"/>
<path d="M162.895 134.83C162.895 134.83 166.567 135.25 170.569 139.49C172.177 141.193 172.675 141.751 172.225 142.351C171.775 142.951 170.869 152.547 169.669 153.633C168.469 154.718 164.551 156.493 158.077 154.382C151.603 152.271 149.953 150.022 149.677 148.517C149.401 147.011 150.127 145.812 150.877 141.319C151.627 136.827 153.565 133.025 162.895 134.83Z" fill="#8A88A0" stroke="#2F2E41" stroke-miterlimit="10"/>
<path d="M152.659 148.216C152.659 148.216 155.371 147.317 160.639 147.917C165.907 148.516 166.807 151.377 166.807 151.377C166.807 151.377 158.077 175.145 156.121 179.505C154.165 183.865 156.721 189.886 157.027 191.542C157.333 193.197 157.327 198.913 157.327 198.913C157.327 198.913 155.071 204.478 155.221 206.283C155.371 208.089 153.421 207.789 153.265 206.433C153.109 205.078 154.465 200.436 154.465 200.436C154.465 200.436 148.465 205.234 147.997 205.696C147.529 206.157 145.741 205.696 146.641 204.346C147.525 203.137 148.481 201.981 149.503 200.886C149.503 200.886 145.741 203.59 144.703 203.285C144.57 203.265 144.442 203.216 144.33 203.143C144.217 203.069 144.122 202.972 144.051 202.858C143.98 202.744 143.934 202.616 143.917 202.482C143.9 202.349 143.912 202.213 143.953 202.085C143.953 202.085 142.447 202.085 142.297 200.886C142.147 199.686 144.403 195.02 144.553 193.965C144.703 192.909 142.753 188.849 142.753 188.849C142.753 188.849 138.841 191.71 137.635 191.848C136.429 191.986 133.123 190.942 133.873 189.449C134.623 187.955 135.979 188.393 138.391 186.45C140.385 184.942 142.701 183.915 145.159 183.451C146.215 183.301 147.559 181.652 147.559 181.652L152.659 148.216Z" fill="white" stroke="#2F2E41" stroke-miterlimit="10"/>
<path d="M147.697 189.13L149.503 193.196L143.935 202.067" stroke="#2F2E41" stroke-miterlimit="10"/>
<path d="M151.458 192.591C151.458 192.591 154.014 197.707 152.808 197.989C151.602 198.271 149.502 200.85 149.502 200.85" stroke="#2F2E41" stroke-miterlimit="10"/>
<path d="M154.345 194.096C154.345 194.096 156.745 196.807 156.145 197.857C155.545 198.907 154.489 200.418 154.489 200.418" stroke="#2F2E41" stroke-miterlimit="10"/>
<path d="M155.221 119.79L161.389 102.937" stroke="#2F2E41" stroke-miterlimit="10"/>
<path d="M76.3258 69.3267C76.3258 89.95 59.5999 106.669 38.9671 106.669C18.3342 106.669 1.6084 89.95 1.6084 69.3267C1.6084 48.7033 18.3342 31.9844 38.9671 31.9844C59.5999 31.9844 76.3258 48.7033 76.3258 69.3267Z" fill="#8185E7" stroke="#2F2E41"/>
<path d="M39.0025 78.9919C44.366 78.9919 48.714 74.6457 48.714 69.2843C48.714 63.9229 44.366 59.5767 39.0025 59.5767C33.639 59.5767 29.291 63.9229 29.291 69.2843C29.291 74.6457 33.639 78.9919 39.0025 78.9919Z" fill="#2F2E41"/>
<path d="M39.3858 106.577C39.3858 106.577 38.4636 76.7321 9.97217 79.7557L39.3858 106.577Z" fill="#2F2E41"/>
<path d="M39.1692 208.232C39.1692 208.232 42.496 153.636 10.2666 149.258" stroke="#2F2E41" stroke-width="1.2375" stroke-miterlimit="10"/>
<path d="M39.2666 69.2935V208.232" stroke="#2F2E41"/>
<path d="M9.9781 158.678C15.3416 158.678 19.6896 154.332 19.6896 148.97C19.6896 143.609 15.3416 139.263 9.9781 139.263C4.61459 139.263 0.266602 143.609 0.266602 148.97C0.266602 154.332 4.61459 158.678 9.9781 158.678Z" fill="#2F2E41"/>
<path d="M255.484 145.292C255.484 165.916 238.758 182.635 218.125 182.635C197.492 182.635 180.767 165.916 180.767 145.292C180.767 124.669 197.492 107.95 218.125 107.95C238.758 107.95 255.484 124.669 255.484 145.292Z" fill="#8185E7" stroke="#2F2E41"/>
<path d="M218.092 154.753C223.456 154.753 227.804 150.407 227.804 145.046C227.804 139.684 223.456 135.338 218.092 135.338C212.729 135.338 208.381 139.684 208.381 145.046C208.381 150.407 212.729 154.753 218.092 154.753Z" fill="#2F2E41"/>
<path d="M217.679 143.155V208.127" stroke="#2F2E41"/>
<path d="M217.901 182.605C217.901 182.605 216.649 152.772 188.192 156.11L217.901 182.605Z" fill="#2F2E41"/>
</svg>
