<svg width="256" height="226" viewBox="0 0 256 226" fill="none" xmlns="http://www.w3.org/2000/svg">
<path d="M218.232 54.8463C228.79 54.8463 237.348 46.2877 237.348 35.7303C237.348 25.1728 228.79 16.6143 218.232 16.6143C207.675 16.6143 199.116 25.1728 199.116 35.7303C199.116 46.2877 207.675 54.8463 218.232 54.8463Z" stroke="#2F2E41" stroke-miterlimit="10"/>
<path d="M218.232 61.6025V70.7585" stroke="#2F2E41" stroke-miterlimit="10"/>
<path d="M218.232 0.294434V9.45043" stroke="#2F2E41" stroke-miterlimit="10"/>
<path d="M244.308 35.5264H253.464" stroke="#2F2E41" stroke-miterlimit="10"/>
<path d="M183 35.5264H192.156" stroke="#2F2E41" stroke-miterlimit="10"/>
<path d="M236.67 17.0884L243.144 10.6084" stroke="#2F2E41" stroke-miterlimit="10"/>
<path d="M193.32 60.4384L199.794 53.9644" stroke="#2F2E41" stroke-miterlimit="10"/>
<path d="M199.794 17.0884L193.32 10.6084" stroke="#2F2E41" stroke-miterlimit="10"/>
<path d="M243.144 60.4384L236.67 53.9644" stroke="#2F2E41" stroke-miterlimit="10"/>
<path d="M169.255 76.4426C169.255 76.4426 171.715 74.3906 171.919 68.4446C172.123 62.4986 165.973 58.4006 165.973 58.4006C165.973 58.4006 166.795 54.3026 166.177 51.0266C165.559 47.7506 159.019 45.0566 159.019 45.0566C159.357 42.7286 159.216 40.3562 158.605 38.0846C157.579 34.8086 152.869 33.7826 152.869 33.7826C143.383 20.5826 132.385 24.0746 130.423 24.8426C128.461 24.0746 117.463 20.5766 107.977 33.7826C107.977 33.7826 103.261 34.8086 102.235 38.0846C101.628 40.3569 101.489 42.7289 101.827 45.0566C101.827 45.0566 95.269 47.7206 94.627 51.0026C93.985 54.2846 94.831 58.3766 94.831 58.3766C94.831 58.3766 88.687 62.4806 88.891 68.4206C89.095 74.3606 91.567 76.4426 91.567 76.4426C91.567 76.4426 87.877 78.6986 87.877 81.5666C87.877 84.4346 91.363 88.9466 94.435 89.7626C97.339 90.5366 127.081 89.8526 130.435 89.7626C133.759 89.8406 163.507 90.5246 166.405 89.7626C169.483 88.9466 172.969 84.4346 172.969 81.5666C172.969 78.6986 169.255 76.4426 169.255 76.4426Z" fill="#2F2E41" stroke="#2F2E41" stroke-miterlimit="10"/>
<path d="M117.019 71.6429C117.019 71.6429 97.3028 82.1729 94.1408 86.2409C90.9788 90.3089 101.065 133.947 101.341 135.597C101.617 137.247 102.247 142.371 121.507 143.877C140.767 145.383 150.103 141.321 151.459 139.815C152.264 138.915 153.117 138.06 154.015 137.253C154.015 137.253 169.363 89.6969 167.407 86.2529C165.451 82.8089 152.359 74.9609 148.297 73.0049C144.235 71.0489 142.429 70.8989 142.429 70.8989L117.019 71.6429Z" fill="#8185E7"/>
<path d="M117.019 71.6429C117.019 71.6429 97.3028 82.1729 94.1408 86.2409C90.9788 90.3089 101.065 133.947 101.341 135.597C101.617 137.247 102.247 142.371 121.507 143.877C140.767 145.383 150.103 141.321 151.459 139.815C152.264 138.915 153.117 138.06 154.015 137.253C154.015 137.253 169.363 89.6969 167.407 86.2529C165.451 82.8089 152.359 74.9609 148.297 73.0049C144.235 71.0489 142.429 70.8989 142.429 70.8989L117.019 71.6429Z" stroke="#2F2E41" stroke-miterlimit="10"/>
<path d="M92.971 188.337C92.971 188.337 89.635 188.697 87.865 190.209C86.095 191.721 84.805 197.013 84.805 197.013L77.815 212.337C76.555 215.115 77.311 217.635 78.067 217.887C78.823 218.139 82.357 218.139 82.357 218.139H100.141C100.519 217.399 102.298 218.702 102.141 217.887C101.685 216.303 93.985 212.409 94.717 211.095C95.977 208.827 100.939 200.703 98.917 194.649C96.895 188.595 92.971 188.337 92.971 188.337Z" fill="#2F2E41" stroke="#2F2E41" stroke-miterlimit="10"/>
<path d="M163.849 188.337C163.849 188.337 167.185 188.697 168.949 190.209C170.713 191.721 172.015 197.043 172.015 197.043C172.015 197.043 177.739 209.595 178.999 212.367C180.259 215.139 179.509 217.665 178.747 217.917C177.985 218.169 174.463 218.169 174.463 218.169H161.299C160.921 217.429 160.8 216.584 160.957 215.769C161.413 214.185 162.829 212.439 162.103 211.125C160.837 208.857 155.881 200.733 157.903 194.679C159.925 188.625 163.849 188.337 163.849 188.337Z" fill="#2F2E41" stroke="#2F2E41" stroke-miterlimit="10"/>
<path d="M98.419 218.607H159.133C159.625 217.671 166.045 207.597 166.441 195.483C166.654 186.706 165.97 177.931 164.401 169.293L91.555 175.947C91.555 175.947 89.899 184.827 91.105 197.019C92.245 208.587 96.775 217.125 98.419 218.607Z" fill="#8A88A0" stroke="#2F2E41" stroke-miterlimit="10"/>
<path d="M106.303 77.5286L112.021 135.165L102.421 131.853C102.421 131.853 93.391 163.911 91.735 174.597C90.079 185.283 93.535 197.919 98.509 204.993C103.483 212.067 118.675 217.185 128.905 216.585C139.135 215.985 148.471 213.123 154.039 205.449C159.607 197.775 164.125 187.089 164.575 171.585C165.025 156.081 156.295 133.059 156.295 133.059L146.095 135.315L157.459 78.3506L153.859 75.9506L150.007 101.313C150.007 101.313 144.439 102.969 131.347 102.969C118.255 102.969 111.931 99.3686 111.931 99.3686L109.531 75.8906L106.303 77.5286Z" fill="white" stroke="#2F2E41" stroke-miterlimit="10"/>
<path d="M127.219 185.883C127.219 185.883 126.469 181.821 123.763 179.109C121.057 176.397 117.763 176.109 115.333 175.347C113.599 174.706 111.979 173.792 110.533 172.641C110.533 172.641 113.395 179.241 115.201 181.515C117.007 183.789 119.401 185.283 120.919 185.583C122.437 185.883 127.219 185.883 127.219 185.883Z" fill="#8185E7" stroke="#2F2E41" stroke-miterlimit="10"/>
<path d="M131.737 161.199C131.737 161.199 131.737 157.437 133.243 155.631C134.749 153.825 142.723 151.269 142.723 151.269C142.723 151.269 140.467 155.937 137.323 158.469C134.179 161.001 131.737 161.199 131.737 161.199Z" fill="#8185E7" stroke="#2F2E41" stroke-miterlimit="10"/>
<path d="M129.619 164.361C129.619 164.361 127.819 164.211 127.219 159.393C126.619 154.575 129.481 145.701 129.481 145.701C129.481 145.701 132.481 152.901 132.037 157.437C131.593 161.973 131.137 161.805 129.619 164.361Z" fill="#8185E7" stroke="#2F2E41" stroke-miterlimit="10"/>
<path d="M132.019 177.303C132.019 177.303 132.319 170.985 136.381 168.729C139.559 167.047 142.826 165.539 146.167 164.211C146.167 164.211 144.511 169.779 142.255 172.185C139.999 174.591 137.737 177.453 135.655 178.185C135.027 178.396 134.353 178.425 133.71 178.269C133.066 178.112 132.48 177.778 132.019 177.303Z" fill="#8185E7" stroke="#2F2E41" stroke-miterlimit="10"/>
<path d="M126.169 166.767C124.84 163.623 122.722 160.876 120.019 158.793C115.501 155.331 112.945 155.193 112.945 155.193C112.945 155.193 113.995 161.517 117.607 164.673C121.219 167.829 126.169 166.767 126.169 166.767Z" fill="#8185E7" stroke="#2F2E41" stroke-miterlimit="10"/>
<path d="M130.006 198.294L129.781 159.849" stroke="#2F2E41" stroke-miterlimit="10"/>
<path d="M129.931 188.139L122.107 181.065" stroke="#2F2E41" stroke-miterlimit="10"/>
<path d="M130.081 179.559L138.511 171.885" stroke="#2F2E41" stroke-miterlimit="10"/>
<path d="M129.781 169.629L120.001 162.555" stroke="#2F2E41" stroke-miterlimit="10"/>
<path d="M130.081 162.855L135.049 158.043" stroke="#2F2E41" stroke-miterlimit="10"/>
<path d="M164.851 220.435C164.851 220.435 146.467 208.015 144.409 205.543C142.351 203.071 138.889 200.245 135.799 199.009C132.709 197.773 130.441 196.123 124.465 199.009C118.489 201.895 117.979 205.831 116.665 206.749L96.853 220.843L90.853 223.111C90.853 223.111 99.919 222.697 102.187 222.283C104.455 221.869 109.807 221.875 109.807 221.875C109.807 221.875 104.245 224.347 107.335 224.551C110.425 224.755 116.197 222.493 117.637 222.283C119.077 222.073 120.109 222.079 125.059 223.519C130.009 224.959 130.825 225.583 131.443 225.169C132.198 224.476 132.889 223.717 133.507 222.901C133.507 222.901 130.003 223.501 140.509 224.755C151.015 226.009 150.619 222.907 150.619 222.907C150.619 222.907 154.327 222.907 157.819 222.703C161.311 222.499 162.973 223.735 166.477 223.735C169.981 223.735 164.851 220.435 164.851 220.435Z" fill="#2F2E41" stroke="#2F2E41" stroke-miterlimit="10"/>
<path d="M135.799 90.9205L133.693 134.415L143.773 133.359L145.573 81.2905C145.573 81.2905 141.967 90.0205 135.799 90.9205Z" fill="#8A88A0" stroke="#2F2E41" stroke-miterlimit="10"/>
<path d="M117.289 68.643C117.289 68.643 115.183 70.599 115.333 71.643C115.483 72.687 114.133 73.299 114.883 76.005C115.633 78.711 122.857 94.215 124.813 95.571C126.769 96.927 132.187 98.571 134.899 96.621C137.611 94.671 145.279 84.735 146.185 79.617C147.091 74.499 147.541 71.643 144.829 68.331L142.123 65.043C142.123 65.043 141.217 70.161 133.543 72.717C125.869 75.273 117.289 68.643 117.289 68.643Z" fill="#8A88A0" stroke="#2F2E41" stroke-miterlimit="10"/>
<path d="M121.219 73.4429C121.219 73.4429 129.649 88.6409 131.905 87.4349C134.161 86.2289 138.379 72.0869 138.379 72.0869L121.219 73.4429Z" fill="white" stroke="#2F2E41" stroke-miterlimit="10"/>
<path d="M131.887 87.4588C131.887 87.4588 127.825 89.4148 125.719 89.4148C123.613 89.4148 119.719 83.4148 117.889 80.3848" stroke="#2F2E41" stroke-miterlimit="10"/>
<path d="M143.473 66.8428C143.473 66.8428 144.979 72.2428 143.773 77.5288C142.567 82.8148 140.617 88.2148 136.573 89.7148" stroke="#2F2E41" stroke-miterlimit="10"/>
<path d="M148.117 50.1388C148.117 50.1388 148.315 45.9388 150.805 47.4088C153.295 48.8788 150.427 55.5268 149.149 57.0088C148.293 57.9815 147.278 58.803 146.149 59.4388L147.433 51.3148L148.117 50.1388Z" fill="white" stroke="#2F2E41" stroke-miterlimit="10"/>
<path d="M110.533 48.4648C110.533 48.4648 112.471 62.0428 113.827 65.1868C115.183 68.3308 121.027 75.7348 125.425 77.7868C126.933 78.5492 128.623 78.8756 130.307 78.7293C131.99 78.583 133.599 77.9698 134.953 76.9588C136.669 75.7588 141.445 70.2988 144.067 65.7688C146.689 61.2388 147.667 47.2588 147.667 47.2588L146.623 37.3528C146.623 37.3528 125.521 24.7528 121.123 25.3528C116.725 25.9528 108.577 42.2788 109.087 44.2288C109.481 45.6693 109.964 47.084 110.533 48.4648Z" fill="white" stroke="#2F2E41" stroke-miterlimit="10"/>
<path d="M127.087 64.8745C127.087 64.8745 129.103 66.8125 132.655 64.9825" stroke="#2F2E41" stroke-miterlimit="10"/>
<path d="M125.371 69.2427C125.371 69.2427 129.295 72.3687 134.437 68.7207" stroke="#2F2E41" stroke-miterlimit="10"/>
<path d="M116.587 50.9788C116.587 50.9788 120.187 48.5428 123.871 49.8688" stroke="#2F2E41" stroke-miterlimit="10"/>
<path d="M134.107 50.0909C134.107 50.0909 138.859 48.4049 141.421 51.5369" stroke="#2F2E41" stroke-miterlimit="10"/>
<path d="M121.945 55.6708C121.897 56.6248 121.393 57.3988 120.805 57.4048C120.217 57.4108 119.791 56.6368 119.833 55.6828C119.875 54.7288 120.385 53.9548 120.973 53.9488C121.561 53.9428 121.987 54.7168 121.945 55.6708Z" fill="#2F2E41"/>
<path d="M137.917 55.5506C137.875 56.5046 137.365 57.2787 136.783 57.2847C136.201 57.2907 135.763 56.5166 135.811 55.5626C135.859 54.6086 136.363 53.8346 136.945 53.8286C137.527 53.8226 137.965 54.5906 137.917 55.5506Z" fill="#2F2E41"/>
<path d="M123.673 31.6887C123.673 31.6887 122.671 33.8007 121.273 37.2627C119.875 40.7247 116.425 44.2167 114.433 44.9787C113.145 45.4613 111.815 45.8249 110.461 46.0647C110.461 46.0647 111.709 48.4647 110.503 48.4647C109.297 48.4647 108.235 45.3267 108.235 45.3267C108.235 45.3267 104.209 34.8387 106.717 26.4027C107.434 23.9589 108.71 21.7157 110.446 19.8514C112.181 17.9871 114.327 16.5529 116.713 15.6627C116.713 15.6627 120.601 9.92073 131.539 11.1927C142.477 12.4647 147.991 16.9287 151.819 28.4667C155.647 40.0047 149.923 46.3647 149.131 47.1207C148.339 47.8767 148.861 49.6827 148.087 50.1207C147.313 50.5587 146.371 48.1767 146.371 48.1767C142.878 47.0866 139.563 45.4918 136.531 43.4427C132.157 40.3227 127.057 33.4467 125.917 31.9527C124.777 30.4587 123.673 31.6887 123.673 31.6887Z" fill="#2F2E41" stroke="#2F2E41" stroke-miterlimit="10"/>
<path d="M110.533 48.4649C110.533 48.4649 108.835 46.0649 107.533 48.1889C106.231 50.3129 106.819 53.7569 108.073 55.8509C109.327 57.9449 112.321 59.3189 112.321 59.3189L110.533 48.4649Z" fill="white" stroke="#2F2E41" stroke-miterlimit="10"/>
<path d="M105.097 79.0347C105.097 79.0347 85.9868 89.8707 84.9308 94.8327C83.8748 99.7947 88.8488 129.747 88.8488 129.747L88.6928 152.925C88.6928 152.925 94.0928 150.063 98.6288 150.063C103.165 150.063 106.303 150.213 106.303 150.213C106.303 150.213 103.441 130.953 103.441 130.353C103.441 129.753 103.597 97.6947 103.597 97.6947" fill="#8185E7"/>
<path d="M105.097 79.0347C105.097 79.0347 85.9868 89.8707 84.9308 94.8327C83.8748 99.7947 88.8488 129.747 88.8488 129.747L88.6928 152.925C88.6928 152.925 94.0928 150.063 98.6288 150.063C103.165 150.063 106.303 150.213 106.303 150.213C106.303 150.213 103.441 130.953 103.441 130.353C103.441 129.753 103.597 97.6947 103.597 97.6947" stroke="#2F2E41" stroke-miterlimit="10"/>
<path d="M95.7672 145.401C95.7672 145.401 89.7671 148.401 88.0931 150.063C86.4191 151.725 85.9871 152.325 86.4371 152.925C86.8871 153.525 87.7932 163.125 88.9992 164.211C90.2052 165.297 94.1112 167.073 100.585 164.961C107.059 162.849 108.709 160.599 108.985 159.093C109.261 157.587 108.529 156.387 107.785 151.893C107.041 147.399 105.097 143.595 95.7672 145.401Z" fill="#8A88A0" stroke="#2F2E41" stroke-miterlimit="10"/>
<path d="M106.003 158.793C106.003 158.793 103.291 157.893 98.029 158.493C92.767 159.093 91.855 161.955 91.855 161.955C91.855 161.955 100.585 185.733 102.541 190.095C104.497 194.457 101.941 200.481 101.641 202.137C101.341 203.793 101.335 209.511 101.335 209.511C101.335 209.511 103.597 215.079 103.441 216.885C103.285 218.691 105.241 218.391 105.403 217.035C105.565 215.679 104.203 211.035 104.203 211.035C104.203 211.035 110.203 215.835 110.671 216.297C111.139 216.759 112.933 216.297 112.027 214.947C111.146 213.736 110.192 212.58 109.171 211.485C109.171 211.485 112.933 214.191 113.971 213.885C114.104 213.865 114.231 213.816 114.344 213.743C114.457 213.669 114.552 213.572 114.624 213.458C114.696 213.344 114.742 213.216 114.76 213.083C114.778 212.949 114.766 212.813 114.727 212.685C114.727 212.685 116.227 212.685 116.383 211.485C116.539 210.285 114.271 205.617 114.121 204.561C113.971 203.505 115.921 199.443 115.921 199.443C115.921 199.443 119.833 202.305 121.039 202.443C122.245 202.581 125.557 201.537 124.801 200.043C124.045 198.549 122.695 198.987 120.289 197.043C118.293 195.533 115.974 194.506 113.515 194.043C112.459 193.893 111.115 192.243 111.115 192.243L106.003 158.793Z" fill="white" stroke="#2F2E41" stroke-miterlimit="10"/>
<path d="M110.971 199.725L109.165 203.793L114.733 212.667" stroke="#2F2E41" stroke-miterlimit="10"/>
<path d="M107.209 203.187C107.209 203.187 104.647 208.305 105.853 208.587C107.059 208.869 109.165 211.449 109.165 211.449" stroke="#2F2E41" stroke-miterlimit="10"/>
<path d="M104.347 204.693C104.347 204.693 101.947 207.405 102.547 208.455C103.147 209.505 104.203 211.017 104.203 211.017" stroke="#2F2E41" stroke-miterlimit="10"/>
<path d="M103.441 130.353L97.2729 113.493" stroke="#2F2E41" stroke-miterlimit="10"/>
<path d="M158.839 79.4067C158.839 79.4067 174.397 87.1587 175.453 92.1267C176.509 97.0947 169.693 129.747 169.693 129.747L169.843 152.925C169.843 152.925 164.443 150.063 159.907 150.063C155.371 150.063 152.233 150.213 152.233 150.213C152.233 150.213 155.095 130.953 155.095 130.353C155.095 129.753 154.945 97.6947 154.945 97.6947" fill="#8185E7"/>
<path d="M158.839 79.4067C158.839 79.4067 174.397 87.1587 175.453 92.1267C176.509 97.0947 169.693 129.747 169.693 129.747L169.843 152.925C169.843 152.925 164.443 150.063 159.907 150.063C155.371 150.063 152.233 150.213 152.233 150.213C152.233 150.213 155.095 130.953 155.095 130.353C155.095 129.753 154.945 97.6947 154.945 97.6947" stroke="#2F2E41" stroke-miterlimit="10"/>
<path d="M162.769 145.401C162.769 145.401 166.441 145.821 170.443 150.063C172.051 151.767 172.549 152.325 172.099 152.925C171.649 153.525 170.743 163.125 169.543 164.211C168.343 165.297 164.425 167.073 157.951 164.961C151.477 162.849 149.827 160.599 149.551 159.093C149.275 157.587 150.001 156.387 150.751 151.893C151.501 147.399 153.439 143.595 162.769 145.401Z" fill="#8A88A0" stroke="#2F2E41" stroke-miterlimit="10"/>
<path d="M152.533 158.793C152.533 158.793 155.245 157.893 160.513 158.493C165.781 159.093 166.681 161.955 166.681 161.955C166.681 161.955 157.951 185.733 155.995 190.095C154.039 194.457 156.595 200.481 156.901 202.137C157.207 203.793 157.201 209.511 157.201 209.511C157.201 209.511 154.945 215.079 155.095 216.885C155.245 218.691 153.295 218.391 153.139 217.035C152.983 215.679 154.339 211.035 154.339 211.035C154.339 211.035 148.339 215.835 147.871 216.297C147.403 216.759 145.615 216.297 146.515 214.947C147.399 213.737 148.355 212.581 149.377 211.485C149.377 211.485 145.615 214.191 144.577 213.885C144.444 213.865 144.317 213.816 144.204 213.743C144.092 213.669 143.997 213.572 143.925 213.458C143.854 213.344 143.808 213.215 143.791 213.082C143.774 212.948 143.787 212.813 143.827 212.685C143.827 212.685 142.321 212.685 142.171 211.485C142.021 210.285 144.277 205.617 144.427 204.561C144.577 203.505 142.627 199.443 142.627 199.443C142.627 199.443 138.715 202.305 137.509 202.443C136.303 202.581 132.997 201.537 133.747 200.043C134.497 198.549 135.853 198.987 138.265 197.043C140.259 195.534 142.576 194.507 145.033 194.043C146.089 193.893 147.433 192.243 147.433 192.243L152.533 158.793Z" fill="white" stroke="#2F2E41" stroke-miterlimit="10"/>
<path d="M147.571 199.725L149.377 203.793L143.809 212.667" stroke="#2F2E41" stroke-miterlimit="10"/>
<path d="M151.333 203.187C151.333 203.187 153.889 208.305 152.683 208.587C151.477 208.869 149.377 211.449 149.377 211.449" stroke="#2F2E41" stroke-miterlimit="10"/>
<path d="M154.219 204.693C154.219 204.693 156.619 207.405 156.019 208.455C155.419 209.505 154.363 211.017 154.363 211.017" stroke="#2F2E41" stroke-miterlimit="10"/>
<path d="M155.095 130.353L161.263 113.493" stroke="#2F2E41" stroke-miterlimit="10"/>
<path d="M76.2003 79.8675C76.2003 100.5 59.4742 117.226 38.8416 117.226C18.209 117.226 1.48291 100.5 1.48291 79.8675C1.48291 59.2348 18.209 42.5088 38.8416 42.5088C59.4742 42.5088 76.2003 59.2348 76.2003 79.8675Z" fill="#8185E7" stroke="#2F2E41"/>
<path d="M38.877 89.5373C44.2405 89.5373 48.5885 85.1893 48.5885 79.8258C48.5885 74.4622 44.2405 70.1143 38.877 70.1143C33.5135 70.1143 29.1655 74.4622 29.1655 79.8258C29.1655 85.1893 33.5135 89.5373 38.877 89.5373Z" fill="#2F2E41"/>
<path d="M39.2603 117.134C39.2603 117.134 38.3381 87.2769 9.84668 90.3017L39.2603 117.134Z" fill="#2F2E41"/>
<path d="M39.0437 218.835C39.0437 218.835 42.3705 164.215 10.1411 159.835" stroke="#2F2E41" stroke-width="1.2375" stroke-miterlimit="10"/>
<path d="M39.1411 79.835V218.835" stroke="#2F2E41"/>
<path d="M9.85261 169.258C15.2161 169.258 19.5641 164.91 19.5641 159.546C19.5641 154.183 15.2161 149.835 9.85261 149.835C4.4891 149.835 0.141113 154.183 0.141113 159.546C0.141113 164.91 4.4891 169.258 9.85261 169.258Z" fill="#2F2E41"/>
<path d="M255.358 155.867C255.358 176.5 238.632 193.226 218 193.226C197.367 193.226 180.641 176.5 180.641 155.867C180.641 135.235 197.367 118.509 218 118.509C238.632 118.509 255.358 135.235 255.358 155.867Z" fill="#8185E7" stroke="#2F2E41"/>
<path d="M217.967 165.332C223.33 165.332 227.678 160.984 227.678 155.621C227.678 150.257 223.33 145.909 217.967 145.909C212.603 145.909 208.255 150.257 208.255 155.621C208.255 160.984 212.603 165.332 217.967 165.332Z" fill="#2F2E41"/>
<path d="M217.554 153.729V218.729" stroke="#2F2E41"/>
<path d="M217.776 193.196C217.776 193.196 216.523 163.351 188.067 166.69L217.776 193.196Z" fill="#2F2E41"/>
</svg>
