<svg width="250" height="200" viewBox="0 0 250 200" fill="none" xmlns="http://www.w3.org/2000/svg">
<rect width="250" height="200" fill="white"/>
<g clip-path="url(#clip0_616_2663)">
<path d="M160.467 5.19909C160.467 5.19909 127.181 -6.64073 94.5034 12.206C61.8261 31.0526 45.3364 68.4622 31.1808 98.4256C17.0251 128.389 25.1716 158.874 50.1144 172.773C75.0572 186.673 92.0183 166.183 127.002 165.185C161.986 164.188 171.396 169.19 200.444 149.423C229.492 129.657 234.732 82.9703 211.826 48.4256C188.92 13.881 160.467 5.19909 160.467 5.19909Z" fill="#8185E7"/>
<path opacity="0.7" d="M160.467 5.19909C160.467 5.19909 127.181 -6.64073 94.5034 12.206C61.8261 31.0526 45.3364 68.4622 31.1808 98.4256C17.0251 128.389 25.1716 158.874 50.1144 172.773C75.0572 186.673 92.0183 166.183 127.002 165.185C161.986 164.188 171.396 169.19 200.444 149.423C229.492 129.657 234.732 82.9703 211.826 48.4256C188.92 13.881 160.467 5.19909 160.467 5.19909Z" fill="white"/>
<path d="M123.698 199.323V0.521736" stroke="#263238" stroke-width="0.5" stroke-linecap="round" stroke-linejoin="round"/>
<path d="M115.908 19.3547H104.49V23.9405H115.908V19.3547Z" stroke="#263238" stroke-width="0.5" stroke-linecap="round" stroke-linejoin="round"/>
<path d="M106.764 24.5995H95.3455V29.1854H106.764V24.5995Z" stroke="#263238" stroke-width="0.5" stroke-linecap="round" stroke-linejoin="round"/>
<path d="M80.5538 54.3387H69.135V58.9245H80.5538V54.3387Z" stroke="#263238" stroke-width="0.5" stroke-linecap="round" stroke-linejoin="round"/>
<path d="M86.2608 60.3936H74.842V64.9794H86.2608V60.3936Z" stroke="#263238" stroke-width="0.5" stroke-linecap="round" stroke-linejoin="round"/>
<path d="M121.62 97.4142H110.201V102H121.62V97.4142Z" stroke="#263238" stroke-width="0.5" stroke-linecap="round" stroke-linejoin="round"/>
<path d="M115.364 103.121H103.945V107.707H115.364V103.121Z" stroke="#263238" stroke-width="0.5" stroke-linecap="round" stroke-linejoin="round"/>
<path d="M48.8558 108.572H37.437V113.158H48.8558V108.572Z" stroke="#263238" stroke-width="0.5" stroke-linecap="round" stroke-linejoin="round"/>
<path d="M54.8878 114.677H43.469V119.263H54.8878V114.677Z" stroke="#263238" stroke-width="0.5" stroke-linecap="round" stroke-linejoin="round"/>
<path d="M118.014 138.645H106.595V143.231H118.014V138.645Z" stroke="#263238" stroke-width="0.5" stroke-linecap="round" stroke-linejoin="round"/>
<path d="M108.824 97.4142H97.405V102H108.824V97.4142Z" stroke="#263238" stroke-width="0.5" stroke-linecap="round" stroke-linejoin="round"/>
<path d="M54.5492 84.087C65.6476 84.2105 77.0892 84.2105 87.849 84.087" stroke="#263238" stroke-width="0.5" stroke-linecap="round" stroke-linejoin="round"/>
<path d="M49.9725 84.087H52.7643" stroke="#263238" stroke-width="0.5" stroke-linecap="round" stroke-linejoin="round"/>
<path d="M121.483 42.9153H123.689" stroke="#263238" stroke-width="0.5" stroke-linecap="round" stroke-linejoin="round"/>
<path d="M113.606 42.9153L119.982 42.9703" stroke="#263238" stroke-width="0.5" stroke-linecap="round" stroke-linejoin="round"/>
<path d="M107.103 131.428H105.529" stroke="#263238" stroke-width="0.5" stroke-linecap="round" stroke-linejoin="round"/>
<path d="M123.698 131.428H108.892" stroke="#263238" stroke-width="0.5" stroke-linecap="round" stroke-linejoin="round"/>
<path d="M34.7185 199.062H220.842" stroke="#263238" stroke-width="0.5" stroke-linecap="round" stroke-linejoin="round"/>
<path d="M140.728 199.24H90.3982L87.428 151.703H137.762L140.728 199.24Z" fill="#BFBFBF" stroke="#263238" stroke-width="0.5" stroke-miterlimit="10"/>
<path d="M142.558 199.24H92.2288L89.2585 151.703H139.593L142.558 199.24Z" fill="white"/>
<mask id="mask0_616_2663" style="mask-type:luminance" maskUnits="userSpaceOnUse" x="89" y="151" width="54" height="49">
<path d="M142.558 199.24H92.2288L89.2585 151.703H139.593L142.558 199.24Z" fill="white"/>
</mask>
<g mask="url(#mask0_616_2663)">
<path d="M94.6956 162.54C94.6956 162.54 98.1189 156.59 104.256 157.108C110.394 157.625 111.464 163.387 114.554 161.153C117.643 158.92 126.513 157.753 129.954 157.703C133.396 157.652 133.391 157.954 134.297 161.153C135.204 164.352 132.123 168.513 134.297 171.048C136.471 173.584 138.444 177.822 134.467 182.032C130.49 186.243 130.503 192.467 126.517 192.979C122.531 193.492 114.741 188.018 110.581 190.485C106.421 192.952 98.4484 196.522 99.1716 193.016C99.8947 189.51 101.172 182.398 97.7299 179.977C94.2883 177.556 92.4164 165.281 94.6956 162.54Z" fill="#263238"/>
<path opacity="0.8" d="M94.6956 162.54C94.6956 162.54 98.1189 156.59 104.256 157.108C110.394 157.625 111.464 163.387 114.554 161.153C117.643 158.92 126.513 157.753 129.954 157.703C133.396 157.652 133.391 157.954 134.297 161.153C135.204 164.352 132.123 168.513 134.297 171.048C136.471 173.584 138.444 177.822 134.467 182.032C130.49 186.243 130.503 192.467 126.517 192.979C122.531 193.492 114.741 188.018 110.581 190.485C106.421 192.952 98.4484 196.522 99.1716 193.016C99.8947 189.51 101.172 182.398 97.7299 179.977C94.2883 177.556 92.4164 165.281 94.6956 162.54Z" fill="white"/>
<path opacity="0.4" d="M118.97 167.789C114.622 164.751 115.414 170.137 112.302 171.62C109.19 173.103 107.103 173.368 105.13 174.366C103.158 175.364 105.789 180.064 107.309 183.574C108.828 187.085 106.197 190.243 109.808 191.812C113.419 193.382 118.503 192.069 121.341 190.49C124.178 188.911 128.746 187.474 128.023 182.037C127.3 176.6 121.616 172.252 121.867 170.082C122.119 167.913 120.215 168.664 118.97 167.789Z" fill="white"/>
<path opacity="0.4" d="M134.156 164.865C129.908 162.05 131.638 166.082 129.167 166.874C126.696 167.666 121.263 166.824 124.641 170.325C128.018 173.826 129.336 176.243 128.86 177.327C128.384 178.412 130.435 179.739 130.691 181.551C130.947 183.364 128.641 185.904 131.899 185.899C135.158 185.895 136.123 185.162 135.396 179.616C134.668 174.069 136.485 173.945 136.242 171.414C136 168.883 136.27 166.265 134.156 164.865Z" fill="white"/>
<path opacity="0.4" d="M107.863 168.879C110.197 169.3 111.927 167.048 113.515 165.378C115.103 163.707 117.277 164.169 119.693 165.378C122.11 166.586 124.764 165.378 125.185 163.881C125.606 162.384 126.229 159.561 123.565 157.703C120.902 155.844 118.242 154.256 115.588 154.87C112.934 155.483 113.657 162.6 108.828 160.307C104 158.014 102.554 167.913 107.863 168.879Z" fill="white"/>
<path opacity="0.4" d="M92.5354 171.895C92.4118 168.156 93.1395 163.199 97.112 162.842C101.085 162.485 100.856 168.792 103.629 169.373C106.403 169.954 106.284 172.979 103.172 173.346C100.059 173.712 101.117 178.183 103.172 179.986C105.226 181.789 102.256 189.085 99.0891 187.611C95.9221 186.137 92.8969 182.998 92.5354 171.895Z" fill="white"/>
<path opacity="0.4" d="M100.38 169.373C98.2654 165.41 101.327 161.899 105.62 163.881C109.913 165.863 112.412 164.302 113.515 163.272C114.618 162.243 120.517 168.879 114.554 173.341C108.59 177.803 115.368 182.494 109.808 184.805C104.247 187.117 101.615 187.341 100.091 180.581C98.5674 173.822 103.176 174.577 100.38 169.373Z" fill="white"/>
<path opacity="0.4" d="M120.348 181.551C118.032 175.849 124.037 171.172 128.746 174.192C133.455 177.213 127.638 178.975 131.281 182.041C134.924 185.108 137.437 186.755 132.609 191.817C127.78 196.879 119.108 197.725 116.261 193.501C113.414 189.277 122.206 186.137 120.348 181.551Z" fill="white"/>
<path opacity="0.4" d="M95.9542 189.757C95.4599 185.181 96.2746 179.991 103.158 179.986C110.041 179.982 115.57 181.963 114.554 187.611C113.538 193.259 117.423 194.828 109.808 196.215C102.192 197.602 96.9611 199.053 95.9542 189.757Z" fill="white"/>
<path opacity="0.4" d="M96.5171 158.375C96.5171 158.375 100.403 155.991 103.034 158.375C105.666 160.76 108.069 165.519 112.302 163.867C116.535 162.215 118.252 160.265 124.398 159.799C130.545 159.332 128.746 156.792 131.519 158.966C134.293 161.14 130.178 165.217 132.609 168.307C135.039 171.396 137.844 168.531 136.27 161.762C134.696 154.993 132.87 154.957 128.641 154.737C124.412 154.517 115.245 161.876 112.709 158.618C110.174 155.359 104.471 153.629 99.7117 154.737C94.9519 155.844 93.5652 158.709 96.5171 158.375Z" fill="white"/>
<path d="M109.789 199.24H90.3981L87.4279 151.703H93.9496L109.789 199.24Z" fill="black" fill-opacity="0.2"/>
</g>
<path d="M142.558 199.24H92.2288L89.2585 151.703H139.593L142.558 199.24Z" stroke="#263238" stroke-width="0.5" stroke-linecap="round" stroke-linejoin="round"/>
<path d="M46.3661 199.19H96.7002L88.3341 124.38H38L46.3661 199.19Z" fill="#BFBFBF" stroke="#263238" stroke-width="0.5" stroke-miterlimit="10"/>
<path d="M41.7849 141.858L48.1968 199.19H98.5309L90.1648 124.38H39.8307L40.4714 130.124" fill="white"/>
<path d="M41.7849 141.858L48.1968 199.19H98.5309L90.1648 124.38H39.8307L40.4714 130.124" stroke="#263238" stroke-width="0.5" stroke-linecap="round" stroke-linejoin="round"/>
<path d="M41.1167 135.863L41.4233 138.645" stroke="#263238" stroke-width="0.5" stroke-linecap="round" stroke-linejoin="round"/>
<path d="M49.3043 142.645C50.81 138.128 54.9153 138.114 58.7185 133.863C62.5217 129.611 61.254 127.62 68.3295 130.517C75.405 133.414 74.691 135.176 78.0274 138.641C81.3638 142.105 85.7574 141.844 84.0137 146.229C82.27 150.613 86.4164 155.501 88.238 158.586C90.0595 161.67 89.675 166.911 88.238 170.174C86.8009 173.437 93.1167 179.227 88.238 184.476C83.3592 189.725 75.016 189.78 69.675 190.389C64.3341 190.998 59.8032 189.547 57.2677 185.199C54.7322 180.851 49.3043 188.458 51.8352 178.682C54.3661 168.906 55.2769 159.963 52.2013 156.197C49.1258 152.43 48.2151 145.904 49.3043 142.645Z" fill="#8185E7"/>
<path opacity="0.6" d="M49.3043 142.645C50.81 138.128 54.9153 138.114 58.7185 133.863C62.5217 129.611 61.254 127.62 68.3295 130.517C75.405 133.414 74.691 135.176 78.0274 138.641C81.3638 142.105 85.7574 141.844 84.0137 146.229C82.27 150.613 86.4164 155.501 88.238 158.586C90.0595 161.67 89.675 166.911 88.238 170.174C86.8009 173.437 93.1167 179.227 88.238 184.476C83.3592 189.725 75.016 189.78 69.675 190.389C64.3341 190.998 59.8032 189.547 57.2677 185.199C54.7322 180.851 49.3043 188.458 51.8352 178.682C54.3661 168.906 55.2769 159.963 52.2013 156.197C49.1258 152.43 48.2151 145.904 49.3043 142.645Z" fill="white"/>
<path opacity="0.6" d="M76.9245 128.462L49.9039 161.785L50.9932 163.469L82.2563 130.879L76.9245 128.462Z" fill="white"/>
<path opacity="0.6" d="M83.0892 137.254L67.3501 157.071L71.5103 163.95L79.7208 154.897L81.5286 157.432L68.4943 172.398L72.5995 178.192L86.357 159.121L82.2563 152.604L86.357 141.378L83.0892 137.254Z" fill="white"/>
<path opacity="0.2" d="M76.5354 150.471C75.608 149.134 74.3453 148.064 72.8741 147.368C71.5423 146.737 70.0183 146.398 68.9244 145.405C67.405 144.032 67.1258 141.707 67.4233 139.67C67.5972 138.462 67.9359 137.236 67.6979 136.037C67.4599 134.838 66.3661 133.684 65.167 133.918C64.7349 134.027 64.337 134.243 64.0091 134.545C63.0759 135.413 62.2838 136.421 61.6613 137.533C59.4691 140.998 56.4164 143.835 54.064 147.249C52.8601 148.931 51.8123 150.718 50.9336 152.59C48.9586 157.082 48.6249 162.125 49.9908 166.838C51.4442 165.686 53.2702 165.11 55.1212 165.217C55.4312 165.206 55.7333 165.316 55.9633 165.524C56.0976 165.704 56.1713 165.922 56.1739 166.146C56.27 167.254 55.8032 168.325 55.5423 169.405C55.2636 170.569 55.2215 171.776 55.4187 172.957C55.5031 173.659 55.775 174.326 56.2059 174.888C56.5818 175.274 57.0464 175.563 57.5592 175.729C58.0721 175.895 58.6177 175.933 59.1487 175.84C60.2099 175.639 61.2219 175.233 62.1281 174.645C62.9468 174.254 63.6374 173.638 64.1189 172.87C64.4006 172.146 64.5554 171.38 64.5766 170.604C64.9427 167.753 66.4576 165.149 68.3661 162.998C70.2745 160.847 72.5858 159.094 74.8558 157.327C75.9633 156.462 77.1441 155.497 77.4599 154.124C77.794 152.86 77.2723 151.542 76.5354 150.471Z" fill="white"/>
<path opacity="0.2" d="M51.7163 171.314L63.3776 161.176L66.682 179.638L59.1991 187.634L56.8467 184.604L61.0115 177.469L59.1625 175.858L55.0939 179.638L51.7163 171.314Z" fill="white"/>
<path opacity="0.2" d="M83.5693 190.256C87.2404 186.585 87.2404 180.633 83.5693 176.962C79.8982 173.291 73.9462 173.291 70.2751 176.962C66.604 180.633 66.604 186.585 70.2751 190.256C73.9462 193.927 79.8982 193.927 83.5693 190.256Z" fill="white"/>
<path opacity="0.2" d="M78.5125 179.638L66.6819 194.366L68.4942 196.238L80.4439 181.455L78.5125 179.638Z" fill="white"/>
<path opacity="0.2" d="M91.016 173.364L79.7208 192.078L92.5812 194.49L91.016 173.364Z" fill="white"/>
<path opacity="0.2" d="M48.8604 129.149L65.1121 127.62L53.0434 143.19L48.8604 129.149Z" fill="white"/>
<path d="M177.748 86.2243L196.883 199.19H200.613L181.483 86.2243H177.748Z" fill="#757575" stroke="#263238" stroke-width="0.5" stroke-linecap="round" stroke-linejoin="round"/>
<path d="M198.746 199.19H196.883L177.748 86.2243H179.616L198.746 199.19Z" fill="#999999" stroke="#263238" stroke-width="0.5" stroke-linecap="round" stroke-linejoin="round"/>
<path d="M186.883 43.1076H183.153L172.009 199.062H175.739L186.883 43.1076Z" fill="#757575" stroke="#263238" stroke-width="0.5" stroke-linecap="round" stroke-linejoin="round"/>
<path d="M173.153 43.1076H169.423L142.989 199.19H146.719L173.153 43.1076Z" fill="#757575" stroke="#263238" stroke-width="0.5" stroke-linecap="round" stroke-linejoin="round"/>
<path d="M171.286 43.1076H169.423L142.989 199.19H144.856L171.286 43.1076Z" fill="#999999" stroke="#263238" stroke-width="0.5" stroke-linecap="round" stroke-linejoin="round"/>
<path d="M185.016 43.1076H183.153L172.009 199.062H173.872L185.016 43.1076Z" fill="#999999" stroke="#263238" stroke-width="0.5" stroke-linecap="round" stroke-linejoin="round"/>
<path d="M194.577 125.588H144.247L152.613 50.778H202.943L194.577 125.588Z" fill="#BFBFBF" stroke="#263238" stroke-width="0.5" stroke-miterlimit="10"/>
<path d="M199.158 68.2517L192.746 125.588H142.417L150.783 50.778H201.112L200.471 56.5217" fill="white"/>
<path d="M199.158 68.2517L192.746 125.588H142.417L150.783 50.778H201.112L200.471 56.5217" stroke="#263238" stroke-width="0.5" stroke-linecap="round" stroke-linejoin="round"/>
<path d="M199.831 62.2609L199.52 65.0435" stroke="#263238" stroke-width="0.5" stroke-linecap="round" stroke-linejoin="round"/>
<path d="M151.405 73.2265C152.691 69.3272 156.023 66.1556 156.54 62.0686C157.057 57.9817 157.748 55.7117 161.638 55.135C165.529 54.5584 168.384 61.4325 173.822 58.3799C179.259 55.3272 186.471 50.9519 189.217 57.5194C191.963 64.087 191.904 66.2151 194.407 67.1579C196.911 68.1007 196.362 78.627 192.883 79.913C189.405 81.1991 188.728 86.9748 190.975 91.0481C193.222 95.1213 192.783 102.6 189.79 106C186.796 109.4 190.311 112.522 187.625 117.373C184.938 122.224 174.81 123.368 167.812 121.57C160.815 119.771 159.973 113.176 155.753 112.293C151.533 111.41 148.59 105.858 148.911 100.687C149.231 95.5149 153.19 92.9062 152.87 87.0892C152.549 81.2723 150.119 77.135 151.405 73.2265Z" fill="#8185E7"/>
<path opacity="0.2" d="M151.405 73.2265C152.691 69.3272 156.023 66.1556 156.54 62.0686C157.057 57.9817 157.748 55.7117 161.638 55.135C165.529 54.5584 168.384 61.4325 173.822 58.3799C179.259 55.3272 186.471 50.9519 189.217 57.5194C191.963 64.087 191.904 66.2151 194.407 67.1579C196.911 68.1007 196.362 78.627 192.883 79.913C189.405 81.1991 188.728 86.9748 190.975 91.0481C193.222 95.1213 192.783 102.6 189.79 106C186.796 109.4 190.311 112.522 187.625 117.373C184.938 122.224 174.81 123.368 167.812 121.57C160.815 119.771 159.973 113.176 155.753 112.293C151.533 111.41 148.59 105.858 148.911 100.687C149.231 95.5149 153.19 92.9062 152.87 87.0892C152.549 81.2723 150.119 77.135 151.405 73.2265Z" fill="white"/>
<path d="M193.51 63.1304C193.597 60.9703 191.433 59.4691 189.538 58.4485L188.764 58.0275C188.339 57.7723 187.886 57.5665 187.414 57.4142C184.847 56.6728 182.531 59.0252 180.032 59.9725C178.497 60.5141 176.828 60.5432 175.275 60.0555C173.722 59.5678 172.369 58.5896 171.419 57.2677C170.476 55.8947 169.465 53.8902 167.826 54.2471C166.339 54.5721 165.826 56.7323 164.339 57.0343C162.966 57.3089 161.657 55.8444 160.343 56.2746C159.886 56.4211 159.542 56.7689 159.098 56.9245C158.151 57.2632 156.984 56.6682 156.137 57.2128C155.291 57.7574 155.378 58.9016 155.51 59.849C155.78 61.7254 156.073 63.0526 155.469 64.833C154.76 66.9153 153.79 68.8741 154.554 71.1167C154.856 72.032 155.414 72.9474 155.135 73.8307C154.962 74.2194 154.768 74.5983 154.554 74.9657C154 76.2288 154.741 77.643 155.011 78.9977C155.309 80.5538 154.957 82.1556 154.6 83.7025C154.457 84.6132 154.13 85.4853 153.638 86.2654C153.141 86.8327 152.61 87.3706 152.05 87.8764C151.406 88.6025 150.978 89.495 150.816 90.4523C150.655 91.4096 150.765 92.393 151.135 93.2906C152.05 95.4188 154.43 96.9016 154.636 99.2128C154.76 100.622 154 101.982 152.993 102.97C151.986 103.959 150.732 104.654 149.556 105.442C149.003 105.745 148.554 106.208 148.265 106.769C147.574 108.49 149.904 110.105 149.79 111.963C149.725 112.989 148.902 113.899 149.025 114.92C149.153 116.023 150.293 116.686 151.314 117.085C154.407 118.288 157.945 118.728 161.03 117.501C163.368 116.586 165.606 114.696 168.073 115.213C170.165 115.643 171.757 117.744 173.895 117.707C176.238 117.666 177.78 115.089 180.055 114.526C179.341 113.876 179.597 112.595 180.343 111.995C181.089 111.396 182.174 111.341 183.112 111.492C184.146 111.657 185.327 111.995 186.146 111.341C187.259 110.462 186.677 108.723 186.265 107.364C185.793 105.748 185.71 104.044 186.024 102.39C186.337 100.736 187.038 99.1797 188.069 97.849C188.7 97.0481 189.497 96.1465 189.24 95.1625C189.103 94.6499 188.696 94.2471 188.545 93.7391C188.055 92.1236 190.233 90.9291 190.558 89.2769C190.755 88.2883 190.256 87.3089 189.771 86.4256L187.314 81.9222C186.471 80.389 185.611 78.5675 186.316 76.9657C187.428 74.4531 191.629 74.2746 192.265 71.6064C192.586 70.2975 191.844 68.9474 191.973 67.6064C192.137 66.0137 193.446 64.7094 193.51 63.1304Z" fill="#8185E7"/>
<path opacity="0.2" d="M167.753 86.4165L170.169 102.577L186.119 96.2975L182.81 81.135L167.753 86.4165Z" fill="white"/>
<path opacity="0.6" d="M173.721 89.2265L190.032 99.4005L172.266 110.865L173.721 89.2265Z" fill="white"/>
<path opacity="0.4" d="M168.887 93.1917L166.235 93.0908L165.3 117.636L167.953 117.737L168.887 93.1917Z" fill="white"/>
<path opacity="0.2" d="M191.945 65.2899C192.292 61.7125 189.674 58.5306 186.096 58.183C182.519 57.8354 179.337 60.4537 178.99 64.0311C178.642 67.6085 181.26 70.7904 184.838 71.138C188.415 71.4856 191.597 68.8673 191.945 65.2899Z" fill="white"/>
<path opacity="0.2" d="M152.618 114.348L152.975 105.007L157.648 102.824L159.112 92.8192L155.227 90.2883L157.053 72.3616L165.021 70.1098L163.195 87.8444L170.586 91.6293L170.645 105.268L162.842 107.854L162.348 120.801L152.618 114.348Z" fill="white"/>
<path opacity="0.6" d="M155.776 63.524L172.421 65.0389L170.476 61.968L155.776 63.524Z" fill="white"/>
<path opacity="0.4" d="M172.169 71.73L178.709 70.9108L182.348 73.6842L172.169 71.73Z" fill="white"/>
<path opacity="0.6" d="M153.973 78.3844L170.146 76.3249L172.169 82.9657L166.284 84.7735L167.753 90.1785L160.009 91.8535L153.973 78.3844Z" fill="white"/>
<path d="M205.286 178.947C205.286 178.947 206.622 167.323 211.062 157.245C215.501 147.167 211.519 145.011 209.126 147.529C206.732 150.046 204.142 159.501 204.142 159.501C204.142 159.501 205.323 149.606 204.842 144.33C204.142 136.604 202.938 130.572 199.378 131.515C195.259 132.618 201.108 147.533 199.565 163.162C199.565 163.162 194.142 154.545 192.243 147.176C190.343 139.808 185.437 143.002 187.14 149.593C188.842 156.183 195.437 159.867 197.986 167.016C197.986 167.016 189.497 159.162 186.787 162.256C185.259 164 189.126 165.254 190.801 166.059C198.929 169.95 201.011 179.684 201.011 179.684L205.286 178.947Z" fill="#8185E7"/>
<mask id="mask1_616_2663" style="mask-type:luminance" maskUnits="userSpaceOnUse" x="186" y="131" width="28" height="49">
<path d="M205.286 178.947C205.286 178.947 206.622 167.323 211.062 157.245C215.501 147.167 211.519 145.011 209.126 147.529C206.732 150.046 204.142 159.501 204.142 159.501C204.142 159.501 205.323 149.606 204.842 144.33C204.142 136.604 202.938 130.572 199.378 131.515C195.259 132.618 201.108 147.533 199.565 163.162C199.565 163.162 194.142 154.545 192.243 147.176C190.343 139.808 185.437 143.002 187.14 149.593C188.842 156.183 195.437 159.867 197.986 167.016C197.986 167.016 189.497 159.162 186.787 162.256C185.259 164 189.126 165.254 190.801 166.059C198.929 169.95 201.011 179.684 201.011 179.684L205.286 178.947Z" fill="white"/>
</mask>
<g mask="url(#mask1_616_2663)">
<path opacity="0.2" d="M205.286 178.947C205.286 178.947 206.622 167.323 211.062 157.245C215.501 147.167 211.519 145.011 209.126 147.529C206.732 150.046 204.142 159.501 204.142 159.501C204.142 159.501 205.323 149.606 204.842 144.33C204.142 136.604 202.938 130.572 199.378 131.515C195.259 132.618 201.108 147.533 199.565 163.162C199.565 163.162 194.142 154.545 192.243 147.176C190.343 139.808 185.437 143.002 187.14 149.593C188.842 156.183 195.437 159.867 197.986 167.016C197.986 167.016 189.497 159.162 186.787 162.256C185.259 164 189.126 165.254 190.801 166.059C198.929 169.95 201.011 179.684 201.011 179.684L205.286 178.947Z" fill="black" fill-opacity="0.7"/>
</g>
<path d="M205.286 178.947C205.286 178.947 206.622 167.323 211.062 157.245C215.501 147.167 211.519 145.011 209.126 147.529C206.732 150.046 204.142 159.501 204.142 159.501C204.142 159.501 205.323 149.606 204.842 144.33C204.142 136.604 202.938 130.572 199.378 131.515C195.259 132.618 201.108 147.533 199.565 163.162C199.565 163.162 194.142 154.545 192.243 147.176C190.343 139.808 185.437 143.002 187.14 149.593C188.842 156.183 195.437 159.867 197.986 167.016C197.986 167.016 189.497 159.162 186.787 162.256C185.259 164 189.126 165.254 190.801 166.059C198.929 169.95 201.011 179.684 201.011 179.684L205.286 178.947Z" stroke="#263238" stroke-width="0.5" stroke-linecap="round" stroke-linejoin="round"/>
<path d="M200.348 176.444C200.348 176.444 201.021 164.279 196.581 154.201C192.142 144.124 196.124 143.336 198.481 145.854C200.837 148.371 202.668 161.414 202.668 161.414C202.668 161.414 204.755 149.725 203.808 141.643C202.86 133.561 202.924 129.007 206.256 129.007C210.508 129.007 209.51 148.792 206.069 160.65C206.069 160.65 211.492 152.037 213.391 144.668C215.291 137.3 220.215 140.503 218.508 147.098C216.801 153.693 210.215 157.368 207.661 164.522C207.661 164.522 216.151 156.668 218.86 159.762C220.389 161.506 216.522 162.76 214.847 163.561C206.719 167.455 204.636 177.19 204.636 177.19L200.348 176.444Z" fill="#8185E7" stroke="#263238" stroke-width="0.5" stroke-linecap="round" stroke-linejoin="round"/>
<path d="M206.522 148.741C206.805 145.697 206.805 142.633 206.522 139.588" stroke="#263238" stroke-width="0.5" stroke-linecap="round" stroke-linejoin="round"/>
<path d="M199.918 156.522C201.849 162.339 202.664 168.494 202.81 174.604C204.507 166.475 205.716 158.251 206.43 149.977" stroke="#263238" stroke-width="0.5" stroke-linecap="round" stroke-linejoin="round"/>
<path d="M198.828 153.693C199.048 154.188 199.249 154.691 199.442 155.195" stroke="#263238" stroke-width="0.5" stroke-linecap="round" stroke-linejoin="round"/>
<path d="M212.659 153.551C210.439 157.561 207.991 161.89 204.526 164.966" stroke="#263238" stroke-width="0.5" stroke-linecap="round" stroke-linejoin="round"/>
<path d="M215.121 148.805C214.531 150.046 213.895 151.268 213.245 152.467" stroke="#263238" stroke-width="0.5" stroke-linecap="round" stroke-linejoin="round"/>
<path d="M207.661 166.819C206.151 168.069 204.535 169.419 203.474 171.098" stroke="#263238" stroke-width="0.5" stroke-linecap="round" stroke-linejoin="round"/>
<path d="M215.121 161.391C212.87 162.851 210.673 164.416 208.568 166.087" stroke="#263238" stroke-width="0.5" stroke-linecap="round" stroke-linejoin="round"/>
<path d="M215.73 171.675H189.684L191.698 199.24H213.716L215.73 171.675Z" fill="#263238"/>
<path d="M103.341 170.082L114.851 194.352H120.348L111.199 166.883L103.341 170.082Z" fill="white" stroke="#263238" stroke-width="0.5" stroke-linecap="round" stroke-linejoin="round"/>
<path d="M114.554 176.659C114.554 176.659 110.101 178.806 106.481 178.032L105.108 175.638C105.108 175.638 101.684 172.801 98.2792 167.199C97.3277 165.629 96.4718 164.003 95.7162 162.33C91.73 153.506 87.7849 142.192 87.7849 142.192L78.7963 120.343L78.3387 119.195L74.8375 108.966L95.9497 97.9817C95.9497 97.9817 98.7963 112.554 98.6133 116.288C98.4302 120.023 108.682 151.913 109.799 155.716C110.915 159.519 114.549 170.526 113.643 174.073L114.554 176.659Z" fill="#8185E7"/>
<mask id="mask2_616_2663" style="mask-type:luminance" maskUnits="userSpaceOnUse" x="74" y="97" width="41" height="82">
<path d="M114.554 176.659C114.554 176.659 110.101 178.806 106.481 178.032L105.108 175.638C105.108 175.638 101.684 172.801 98.2792 167.199C97.3277 165.629 96.4718 164.003 95.7162 162.33C91.73 153.506 87.7849 142.192 87.7849 142.192L78.7963 120.343L78.3387 119.195L74.8375 108.966L95.9497 97.9817C95.9497 97.9817 98.7963 112.554 98.6133 116.288C98.4302 120.023 108.682 151.913 109.799 155.716C110.915 159.519 114.549 170.526 113.643 174.073L114.554 176.659Z" fill="white"/>
</mask>
<g mask="url(#mask2_616_2663)">
<path opacity="0.2" d="M98.5309 166.883C98.4531 166.993 98.3799 167.094 98.2975 167.195C97.346 165.624 96.4902 163.998 95.7346 162.325C91.7483 153.501 87.8033 142.188 87.8033 142.188L78.8147 120.339L86.8605 113.158L89.222 113.533C89.222 113.533 90.801 116.005 88.5447 117.423C86.2884 118.842 90.119 124.416 92.0229 128.462C93.9268 132.508 90.6499 136.435 90.6499 136.435C90.6499 136.435 93.666 142.81 97.3914 145.968C97.3914 145.968 94.444 145.185 95.9406 148.256C97.4371 151.327 101.643 162.412 98.5309 166.883Z" fill="black" fill-opacity="0.7"/>
</g>
<path d="M114.554 176.659C114.554 176.659 110.101 178.806 106.481 178.032L105.108 175.638C105.108 175.638 101.684 172.801 98.2792 167.199C97.3277 165.629 96.4718 164.003 95.7162 162.33C91.73 153.506 87.7849 142.192 87.7849 142.192L78.7963 120.343L78.3387 119.195L74.8375 108.966L95.9497 97.9817C95.9497 97.9817 98.7963 112.554 98.6133 116.288C98.4302 120.023 108.682 151.913 109.799 155.716C110.915 159.519 114.549 170.526 113.643 174.073L114.554 176.659Z" stroke="#263238" stroke-width="0.5" stroke-linecap="round" stroke-linejoin="round"/>
<path d="M107.295 175.359C107.295 175.359 110.819 175.533 112.288 174.366" stroke="#263238" stroke-width="0.5" stroke-linecap="round" stroke-linejoin="round"/>
<path d="M113.945 199.19C112.801 198.677 113.854 194.352 113.854 194.352C113.854 194.352 112.311 193.318 113.854 192.243C114.45 192.748 115.173 193.082 115.945 193.207C116.717 193.332 117.508 193.244 118.233 192.952C118.233 192.952 118.535 190.055 120.348 190.43C120.348 190.43 120.806 192.261 121.872 193.314C124.751 196.151 128.471 196.476 129.094 197.844C129.183 198.29 129.169 198.75 129.053 199.19H113.945Z" fill="#263238"/>
<path d="M111.616 60.4119L124.751 80.1419L142.6 66.0458L146.719 68.1144C146.719 68.1144 129.94 88.4989 124.389 89.1671C118.837 89.8352 105.529 70.6316 105.529 70.6316" fill="white"/>
<path d="M111.616 60.4119L124.751 80.1419L142.6 66.0458L146.719 68.1144C146.719 68.1144 129.94 88.4989 124.389 89.1671C118.837 89.8352 105.529 70.6316 105.529 70.6316" stroke="#263238" stroke-width="0.5" stroke-linecap="round" stroke-linejoin="round"/>
<path d="M109.652 57.3776C112.346 58.537 114.593 60.5355 116.059 63.0755C118.476 67.2998 121.025 70.9382 121.025 70.9382C121.025 70.9382 115.181 77.3455 110.499 79.1442L104.915 77.2128L109.652 57.3776Z" fill="#263238"/>
<path d="M78.151 171.286L84.4851 194.352H89.9359L87.5743 167.95L78.151 171.286Z" fill="white" stroke="#263238" stroke-width="0.5" stroke-linecap="round" stroke-linejoin="round"/>
<path d="M95.9542 105.08L71.8855 93.3135C71.8855 93.3135 67.5377 106.156 67.7665 116.966C67.9954 127.776 71.5926 142.595 71.8855 149.428C72.1784 156.261 71.7437 169.135 79.2082 178.027L80.1235 180.883C80.1235 180.883 87.016 181.849 89.1853 180.883L88.8237 178.192C88.8237 178.192 91.794 172.192 89.556 162.535C87.318 152.879 86.2425 117.515 86.2425 117.515C86.2425 117.515 88.929 115.227 90.0137 112.897" fill="#8185E7"/>
<path d="M95.9542 105.08L71.8855 93.3135C71.8855 93.3135 67.5377 106.156 67.7665 116.966C67.9954 127.776 71.5926 142.595 71.8855 149.428C72.1784 156.261 71.7437 169.135 79.2082 178.027L80.1235 180.883C80.1235 180.883 87.016 181.849 89.1853 180.883L88.8237 178.192C88.8237 178.192 91.794 172.192 89.556 162.535C87.318 152.879 86.2425 117.515 86.2425 117.515C86.2425 117.515 88.929 115.227 90.0137 112.897" stroke="#263238" stroke-width="0.5" stroke-linecap="round" stroke-linejoin="round"/>
<path d="M73.0892 90.2517C74.54 82.0824 76.4301 62.7597 82.9473 58.3478C89.4645 53.9359 100.65 53.5606 105.162 55.3455C114.009 58.8513 114.146 60.4989 112.7 67.1762C111.254 73.8536 101.744 94.3616 101.744 94.3616L99.5423 105.222C99.5423 105.222 91.2677 111.529 81.7803 108.883C70.6544 105.785 68.8512 98.7552 68.8512 98.7552L73.0892 90.2517Z" fill="#263238"/>
<path d="M106.165 50.8467C105.992 51.1482 105.778 51.424 105.529 51.6659C105.336 51.8533 105.152 52.0503 104.979 52.2563C104.356 52.9287 103.928 53.7575 103.739 54.6545C103.662 55.1119 103.687 55.5808 103.812 56.0275C104.006 56.6744 104.384 57.2504 104.902 57.6842C104.902 57.6842 105.007 60.595 101.396 60.9474C97.0526 61.3684 94.6133 56.8284 94.6133 56.8284C100.023 49.4005 95.9542 46.2609 95.9542 46.2609C101.204 43.373 108.156 47.3227 106.165 50.8467Z" fill="white" stroke="#263238" stroke-width="0.5" stroke-linecap="round" stroke-linejoin="round"/>
<path d="M104.979 52.2563C104.356 52.9287 103.928 53.7575 103.739 54.6545C100.833 53.222 100.65 51.1213 100.65 51.1213C101.883 51.3177 103.089 51.6587 104.243 52.1373C104.479 52.2196 104.729 52.2599 104.979 52.2563Z" fill="#263238"/>
<path d="M95.1349 42.9153C93.167 34.4851 97.2402 30.8284 99.913 29.7254C104.188 27.9542 109.748 30.7368 111.016 35.4233C112.284 40.1098 111.14 41.1716 111.199 43.0892C111.24 44.4348 112.069 45.0938 111.158 48.4668C110.554 50.6957 109.542 54.3066 105.744 53.6247C103.856 53.1832 102.087 52.3334 100.563 51.135" fill="white"/>
<path d="M95.1349 42.9153C93.167 34.4851 97.2402 30.8284 99.913 29.7254C104.188 27.9542 109.748 30.7368 111.016 35.4233C112.284 40.1098 111.14 41.1716 111.199 43.0892C111.24 44.4348 112.069 45.0938 111.158 48.4668C110.554 50.6957 109.542 54.3066 105.744 53.6247C103.856 53.1832 102.087 52.3334 100.563 51.135" stroke="#263238" stroke-width="0.5" stroke-linecap="round" stroke-linejoin="round"/>
<path d="M94.6132 30.3661C94.6132 30.3661 95.135 26.4622 99.0709 26.4622C100.828 26.4622 102.609 29.6659 105.14 28.5263C107.67 27.3867 110.174 27.524 110.929 28.4348C112.563 30.3661 110.719 32.238 112.65 32.6636C114.581 33.0893 115.199 34.9886 114.142 36.325C113.085 37.6613 114.311 39.0709 114.101 40.032C113.98 40.7055 113.626 41.3148 113.1 41.7527C112.574 42.1905 111.911 42.4288 111.227 42.4256C111.227 42.4256 112.288 36.5721 110.664 35.611C109.259 34.7735 108.087 35.9771 108.087 35.9771C105.922 34.7277 103.469 35.7071 102.783 36.5812C101.519 38.2014 102.375 40.087 101.062 41.1076C100.604 41.4828 99.2311 41.7208 99.4187 42.9382C99.6064 44.1556 98.5034 44.9794 98.5034 44.9794L97.6842 47.4874C97.6842 47.4874 98.6407 50.0732 96.9565 52.0641C96.4393 52.6819 95.4828 52.7552 93.7528 51.6522C94.1992 51.4293 94.5411 51.0413 94.706 50.5705C94.8709 50.0997 94.8458 49.5831 94.6361 49.1304C94.2105 48.1602 93.0251 48.9657 92.1235 47.7574C91.0892 46.3844 92.1235 44.3204 91.9771 43.1259C91.8535 42.1693 90.7322 42.7963 89.7711 40.7552C89.5057 40.1968 89.3135 37.3227 91.0389 35.6339C91.016 35.643 89.2128 31.7803 94.6132 30.3661Z" fill="#263238"/>
<path d="M99.9131 44.3936C99.9131 44.3936 98.3662 41.5103 96.7506 42.2151C95.135 42.9199 96.2563 46.3616 97.6659 47.4874C99.0756 48.6133 99.9177 47.4874 99.9177 47.4874" fill="white"/>
<path d="M99.9131 44.3936C99.9131 44.3936 98.3662 41.5103 96.7506 42.2151C95.135 42.9199 96.2563 46.3616 97.6659 47.4874C99.0756 48.6133 99.9177 47.4874 99.9177 47.4874" stroke="#263238" stroke-width="0.5" stroke-linecap="round" stroke-linejoin="round"/>
<path d="M106.238 40.1785C106.238 40.1785 104.654 39.5881 103.808 41.4462" stroke="#263238" stroke-width="0.5" stroke-linecap="round" stroke-linejoin="round"/>
<path d="M111.616 39.1945C111.616 39.1945 109.963 38.8375 109.259 40.032" stroke="#263238" stroke-width="0.5" stroke-linecap="round" stroke-linejoin="round"/>
<path d="M108.838 42.4256C108.838 42.4256 108.696 43.8993 109.259 44.1831C109.821 44.4668 110.7 43.8673 110.435 45.0435C110.169 46.2197 108.819 46.2883 108.819 46.2883" stroke="#263238" stroke-width="0.5" stroke-linecap="round" stroke-linejoin="round"/>
<path d="M105.922 42.8147C105.922 43.2037 105.748 43.524 105.529 43.524C105.309 43.524 105.14 43.2037 105.14 42.8147C105.14 42.4256 105.313 42.1053 105.529 42.1053C105.744 42.1053 105.922 42.4211 105.922 42.8147Z" fill="#263238" stroke="#263238" stroke-width="0.5" stroke-linecap="round" stroke-linejoin="round"/>
<path d="M110.439 42.4256C110.439 42.8192 110.261 43.135 110.046 43.135C109.831 43.135 109.652 42.8192 109.652 42.4256C109.652 42.032 109.831 41.7163 110.046 41.7163C110.261 41.7163 110.439 42.032 110.439 42.4256Z" fill="#263238" stroke="#263238" stroke-width="0.5" stroke-linecap="round" stroke-linejoin="round"/>
<path d="M105.922 47.4462C105.922 47.4462 107.648 48.4028 109.259 47.9863" stroke="#263238" stroke-width="0.5" stroke-linecap="round" stroke-linejoin="round"/>
<path d="M106.238 47.7666C106.238 47.7666 106.421 49.016 107.611 49.1396C107.762 49.161 107.915 49.1502 108.061 49.1078C108.208 49.0655 108.343 48.9926 108.459 48.8939C108.575 48.7953 108.669 48.6732 108.734 48.5357C108.799 48.3981 108.834 48.2483 108.837 48.0961" stroke="#263238" stroke-width="0.5" stroke-linecap="round" stroke-linejoin="round"/>
<path d="M108.087 35.9771C107.787 35.6077 107.372 35.3496 106.908 35.2442C106.444 35.1388 105.958 35.1922 105.529 35.3959C104.005 36.1327 104.503 37.8032 104.458 38.8467C104.412 39.8902 103.643 39.4737 102.874 40.087C102.105 40.7002 102.604 41.7162 102.604 41.7162C102.604 41.7162 100.993 41.4462 102.114 40.032C103.236 38.6179 104.142 38.8924 103.419 37.5789C103.235 37.2673 103.128 36.9167 103.107 36.5558C103.085 36.195 103.149 35.8341 103.294 35.5027C103.439 35.1714 103.66 34.8791 103.939 34.6497C104.219 34.4203 104.548 34.2604 104.902 34.1831C106.54 33.7757 108.046 34.6957 108.087 35.9771Z" fill="#263238"/>
<path d="M83.0115 199.19C83.0115 199.19 82.4485 197.034 83.1076 196.233C84.2929 194.801 82.9611 193.597 84.1556 193.098L84.6545 193.675C84.7506 193.089 84.4714 191.304 86.6819 191.071C89.3501 190.787 89.4005 192.732 89.5469 193.359L89.5012 192.467C90.6407 192.467 90.0503 193.602 91.7895 195.465C92.2415 195.965 92.5853 196.553 92.7995 197.193C93.0137 197.832 93.0936 198.509 93.0343 199.181L83.0115 199.19Z" fill="#263238"/>
<path d="M114.064 67.1808C113.121 70.9703 111.547 74.8192 108.819 77.7071" stroke="white" stroke-width="0.5" stroke-linecap="round" stroke-linejoin="round"/>
<path d="M114.654 64.1648C114.577 64.7552 114.471 65.341 114.352 65.9222" stroke="white" stroke-width="0.5" stroke-linecap="round" stroke-linejoin="round"/>
<path d="M86.151 100.444C85.4534 100.458 84.7565 100.393 84.0732 100.252" stroke="white" stroke-width="0.5" stroke-linecap="round" stroke-linejoin="round"/>
<path d="M100.567 94.4622C96.7597 97.2723 92.0824 99.849 87.3226 100.371" stroke="white" stroke-width="0.5" stroke-linecap="round" stroke-linejoin="round"/>
<path d="M73.9359 90.2334C73.9359 90.2334 75.9863 90.7506 79.1853 89.1671" stroke="white" stroke-width="0.5" stroke-linecap="round" stroke-linejoin="round"/>
<path d="M99.9954 62.2655C100.701 62.3433 101.414 62.3248 102.114 62.2105" stroke="white" stroke-width="0.5" stroke-linecap="round" stroke-linejoin="round"/>
<path d="M93.1075 57.3776C94.3432 59.5286 96.421 61.3913 98.8375 62.0504" stroke="white" stroke-width="0.5" stroke-linecap="round" stroke-linejoin="round"/>
<path d="M73.9359 143.538C73.9359 143.538 81.016 153.606 84.7826 154.746" stroke="#263238" stroke-width="0.5" stroke-linecap="round" stroke-linejoin="round"/>
<path d="M80.9611 178.192C80.9611 178.192 85.5835 179.03 87.826 178.192" stroke="#263238" stroke-width="0.5" stroke-linecap="round" stroke-linejoin="round"/>
<path d="M90.1373 138.906C93.881 142.851 97.8032 147.011 102.394 149.982C103.278 150.612 104.269 151.077 105.318 151.355" stroke="#263238" stroke-width="0.5" stroke-linecap="round" stroke-linejoin="round"/>
<path d="M87.849 136.435C88.3067 136.947 88.7643 137.451 89.2449 137.954" stroke="#263238" stroke-width="0.5" stroke-linecap="round" stroke-linejoin="round"/>
<path d="M91.1213 116.97C89.944 117.568 88.643 117.881 87.3226 117.886" stroke="#263238" stroke-width="0.5" stroke-linecap="round" stroke-linejoin="round"/>
<path d="M85.1121 117.876C85.1121 117.876 81.7803 113.803 78.6133 113.533" stroke="#263238" stroke-width="0.5" stroke-linecap="round" stroke-linejoin="round"/>
<path d="M81.8627 74.4485C81.8627 74.4485 70.5858 86.6407 67.8124 86.1831C65.0389 85.7254 63.6018 81.2266 64.2105 79.9817C64.8192 78.7368 74.9794 66.9291 74.9794 66.9291L81.8627 74.4485Z" fill="white" stroke="#263238" stroke-width="0.5" stroke-linecap="round" stroke-linejoin="round"/>
<path d="M86.1556 56.6316C86.1556 56.6316 79.4966 58.4897 76.1739 63.4417C72.8513 68.3936 71.2815 69.5973 71.2815 69.5973C71.2815 69.5973 74.6591 75.8719 77.6888 77.8032C80.7186 79.7346 87.103 76.2334 87.103 76.2334L86.1556 56.6316Z" fill="#263238"/>
<path d="M85.492 61.7849C85.1439 61.1748 84.6581 60.6545 84.0732 60.2654" stroke="white" stroke-width="0.5" stroke-linecap="round" stroke-linejoin="round"/>
<path d="M78.2792 78.3844C78.6323 78.632 79.0353 78.7991 79.4599 78.8741C81.2906 76.5858 84.8696 76.8879 85.7849 74.1419C87.6156 70.9382 87.1579 66.8192 86.0595 62.9886" stroke="white" stroke-width="0.5" stroke-linecap="round" stroke-linejoin="round"/>
<path d="M67.8123 86.1831C64.6407 85.6476 61.2631 85.4508 59.3317 73.4188L57.4095 61.3867L61.7528 60.087C61.7528 60.087 67.167 73.2723 68.8649 76.5629C70.5629 79.8535 69.5926 81.9222 69.5926 81.9222" fill="white"/>
<path d="M67.8123 86.1831C64.6407 85.6476 61.2631 85.4508 59.3317 73.4188L57.4095 61.3867L61.7528 60.087C61.7528 60.087 67.167 73.2723 68.8649 76.5629C70.5629 79.8535 69.5926 81.9222 69.5926 81.9222" stroke="#263238" stroke-width="0.5" stroke-linecap="round" stroke-linejoin="round"/>
<path d="M142.417 66.1922C142.417 66.1922 145.62 62.6636 147.199 61.7666C148.691 60.9062 150.188 60.3295 150.503 60.3936C151.3 60.5721 153.309 62.833 153.309 62.833C153.309 62.833 153.039 63.6156 151.725 63.0298C151.725 63.0298 153.249 64.9291 153.007 65.9176C152.764 66.9062 151.08 67.8261 150.654 68.27C150.608 68.3293 150.547 68.3769 150.479 68.4088C150.41 68.4407 150.335 68.4562 150.26 68.454C150.184 68.4518 150.11 68.4319 150.044 68.396C149.977 68.3601 149.92 68.3091 149.876 68.2471C149.876 68.2471 146.764 70.3753 144.659 69.8581" fill="white"/>
<path d="M142.417 66.1922C142.417 66.1922 145.62 62.6636 147.199 61.7666C148.691 60.9062 150.188 60.3295 150.503 60.3936C151.3 60.5721 153.309 62.833 153.309 62.833C153.309 62.833 153.039 63.6156 151.725 63.0298C151.725 63.0298 153.249 64.9291 153.007 65.9176C152.764 66.9062 151.08 67.8261 150.654 68.27C150.608 68.3293 150.547 68.3769 150.479 68.4088C150.41 68.4407 150.335 68.4562 150.26 68.454C150.184 68.4518 150.11 68.4319 150.044 68.396C149.977 68.3601 149.92 68.3091 149.876 68.2471C149.876 68.2471 146.764 70.3753 144.659 69.8581" stroke="#263238" stroke-width="0.5" stroke-linecap="round" stroke-linejoin="round"/>
<path d="M143.533 61.0389L161.684 65.1121V65.6568L143.259 61.9954C143.195 61.8277 143.188 61.644 143.237 61.4717C143.287 61.2993 143.391 61.1476 143.533 61.0389Z" fill="#757575" stroke="#263238" stroke-width="0.5" stroke-linecap="round" stroke-linejoin="round"/>
<path d="M165.195 64.1739C165.144 64.3066 164.554 65.7803 163.57 66.206C163.043 66.4394 162.407 66.3707 161.684 65.6568V65.1121C161.871 64.9066 162.106 64.7517 162.369 64.6621C162.631 64.5724 162.912 64.5509 163.185 64.5995C163.273 64.6156 163.359 64.6417 163.442 64.6774C163.75 64.7871 164.085 64.7976 164.399 64.7073C164.713 64.617 164.992 64.4305 165.195 64.1739Z" fill="#263238"/>
<path d="M165.194 64.1739C165.144 64.3066 164.554 65.7803 163.57 66.206C163.693 65.8902 163.858 65.4371 163.78 65.3913C163.702 65.3455 163.236 65.341 162.993 65.2449C162.751 65.1487 163.272 64.6179 163.19 64.5995C163.278 64.6156 163.364 64.6417 163.446 64.6774C163.754 64.7861 164.088 64.796 164.401 64.7057C164.714 64.6155 164.992 64.4295 165.194 64.1739Z" fill="#8185E7"/>
<path opacity="0.2" d="M165.194 64.1739C165.144 64.3066 164.554 65.7803 163.57 66.206C163.693 65.8902 163.858 65.4371 163.78 65.3913C163.702 65.3455 163.236 65.341 162.993 65.2449C162.751 65.1487 163.272 64.6179 163.19 64.5995C163.278 64.6156 163.364 64.6417 163.446 64.6774C163.754 64.7861 164.088 64.796 164.401 64.7057C164.714 64.6155 164.992 64.4295 165.194 64.1739Z" fill="#263238"/>
<path d="M144.247 68.2517C144.247 68.2517 147.538 67.9817 148.142 65.9268C148.347 65.4097 148.659 64.9418 149.057 64.5538C149.057 64.5538 152.046 64.8696 152.046 63.6385L148.142 62.7002C146.615 63.0252 145.243 63.8556 144.247 65.0572" fill="white"/>
<path d="M144.247 68.2517C144.247 68.2517 147.538 67.9817 148.142 65.9268C148.347 65.4097 148.659 64.9418 149.057 64.5538C149.057 64.5538 152.046 64.8696 152.046 63.6385L148.142 62.7002C146.615 63.0252 145.243 63.8556 144.247 65.0572" stroke="#263238" stroke-width="0.5" stroke-linecap="round" stroke-linejoin="round"/>
<path d="M149.858 68.2517C149.757 67.9691 149.757 67.6602 149.858 67.3776C149.858 67.3776 149.011 67.0847 149.231 66.3249C149.231 66.3249 147.963 65.9634 149.034 64.5721" stroke="#263238" stroke-width="0.5" stroke-linecap="round" stroke-linejoin="round"/>
<path d="M149.249 66.3249C149.249 66.3249 151.185 65.3089 151.474 64.7506" stroke="#263238" stroke-width="0.5" stroke-linecap="round" stroke-linejoin="round"/>
<path d="M149.858 67.3776C149.858 67.3776 151.886 66.5401 152.023 65.8856" stroke="#263238" stroke-width="0.5" stroke-linecap="round" stroke-linejoin="round"/>
<path d="M150.362 61.5103C150.469 61.8076 150.636 62.08 150.851 62.3113C151.067 62.5425 151.327 62.7277 151.616 62.8558" stroke="#263238" stroke-width="0.5" stroke-linecap="round" stroke-linejoin="round"/>
<path d="M150.59 61.968C150.255 62.0875 149.933 62.2408 149.629 62.4256" stroke="#263238" stroke-width="0.5" stroke-linecap="round" stroke-linejoin="round"/>
<path d="M40.6819 58.4394C38.7826 54.9428 39.675 45.2769 48.1052 44.0046C59.6933 42.2517 55.1533 50.8375 62.6224 52.4668C70.0915 54.0961 68.3478 64.3661 58.2425 65.6568C50.4576 66.6636 43.8489 64.2792 40.6819 58.4394Z" fill="#8A88A0" stroke="#263238" stroke-width="0.5" stroke-linecap="round" stroke-linejoin="round"/>
<path d="M61.2311 54.3433C61.2311 54.3433 60.3158 53.2998 59.6019 53.135C58.8879 52.9703 56.7048 53.7025 56.7048 53.7025C56.7048 53.7025 56.7964 54.7826 58.2426 54.8238C59.6888 54.865 58.9703 55.5927 58.9703 55.5927C58.9703 55.5927 60.9199 56.5355 61.2311 54.3433Z" fill="white" stroke="#263238" stroke-width="0.5" stroke-linecap="round" stroke-linejoin="round"/>
<path d="M53.5331 46.3616C52.6178 44.4623 50.6087 45.0526 49.826 45.762C48.3752 47.0709 49.1029 48.3478 49.826 48C50.5492 47.6522 54.4439 48.2563 53.5331 46.3616Z" fill="#EDEDED"/>
<path d="M44.6315 52.7094C44.7854 52.8054 44.9497 52.8837 45.1212 52.9428C45.3064 52.9919 45.4995 53.0034 45.6893 52.9766C45.879 52.9498 46.0614 52.8852 46.2256 52.7866C46.3899 52.688 46.5328 52.5575 46.6457 52.4027C46.7587 52.248 46.8394 52.0721 46.8832 51.8856C46.899 51.7608 46.922 51.637 46.9519 51.5149C47.0388 51.3186 47.1478 51.1328 47.2768 50.9611C47.3405 50.8732 47.3786 50.7693 47.3866 50.661C47.3947 50.5527 47.3725 50.4442 47.3226 50.3478C47.112 50.0412 46.5903 50.2151 46.2883 50C46.0594 49.8398 46.0182 49.5149 45.8306 49.2998C45.556 48.9657 45.0526 48.984 44.6223 49.0252C44.4759 49.0252 44.2928 49.0893 44.2608 49.2311C44.2288 49.373 44.2608 49.3913 44.2608 49.4691C44.2242 49.643 43.9953 49.6659 43.8031 49.6979C43.1029 49.8169 42.7596 50.659 42.9381 51.3044C43.1166 51.9497 44.0823 52.3936 44.6315 52.7094Z" fill="#EDEDED"/>
<path d="M47.524 57.8261C47.3043 57.4508 47.405 56.9565 47.1991 56.5721C46.9336 56.0778 46.2837 55.9542 45.7391 55.8993C45.0526 55.8307 44.3661 55.7849 43.675 55.7529C43.6339 55.746 43.5917 55.7541 43.556 55.7757C43.5011 55.8124 43.5057 55.8947 43.5057 55.9588C43.4632 56.2938 43.3592 56.6181 43.1991 56.9153C42.9153 57.6796 43.794 58.6316 44.302 59.1487C44.6643 59.5404 45.148 59.7984 45.675 59.881C46.4256 59.9588 47.135 59.5561 47.7803 59.1671C47.8762 59.1165 47.9604 59.0463 48.0274 58.9611C48.0747 58.8595 48.0907 58.7461 48.0736 58.6353C48.0565 58.5246 48.007 58.4213 47.9313 58.3387C47.7857 58.1759 47.6497 58.0047 47.524 57.8261Z" fill="#EDEDED"/>
<path d="M52.6361 59.849C52.0274 59.5469 51.2998 59.7712 50.6636 60C50.4931 60.0366 50.3436 60.1384 50.2471 60.2838C50.1373 60.508 50.302 60.7048 50.2975 60.9199C50.2975 61.2769 50.1373 61.2082 50.0274 61.492C49.9943 61.5911 49.9814 61.6959 49.9896 61.8C49.9978 61.9042 50.0269 62.0057 50.0751 62.0984C50.1234 62.1911 50.1899 62.2731 50.2705 62.3395C50.3512 62.406 50.4444 62.4555 50.5446 62.4851C51.4599 62.9428 52.3981 63.7986 53.3821 62.9794C53.5552 62.8179 53.687 62.6172 53.7666 62.3943C53.8463 62.1713 53.8713 61.9326 53.8398 61.6979C53.7795 61.2266 53.5893 60.7814 53.2906 60.4119C53.1181 60.177 52.8942 59.9844 52.6361 59.849Z" fill="#EDEDED"/>
<path d="M61.9863 60.4119C61.9506 60.3398 61.895 60.2795 61.8261 60.238C61.7459 60.2015 61.6574 60.1872 61.5698 60.1968C61.0979 60.2468 60.6211 60.2252 60.1556 60.1327C59.8993 60.0503 59.6659 59.9085 59.4142 59.8078C59.1689 59.6897 58.889 59.6653 58.627 59.7391C58.119 59.9268 58.3799 60.1968 58.389 60.5401C58.389 61.0252 57.9817 61.4096 58.0046 61.913C58.0318 62.1218 58.1216 62.3175 58.2621 62.4743C58.4026 62.6312 58.5872 62.7418 58.7918 62.7918C59.2037 62.8864 59.6307 62.8942 60.0458 62.8147C60.3628 62.8018 60.674 62.7255 60.9611 62.5904C61.1458 62.4807 61.3125 62.3434 61.4554 62.1831C61.6926 61.9536 61.8851 61.682 62.0229 61.3822C62.0896 61.2279 62.1209 61.0608 62.1146 60.8929C62.1082 60.725 62.0644 60.5607 61.9863 60.4119Z" fill="#EDEDED"/>
</g>
<defs>
<clipPath id="clip0_616_2663">
<rect width="202.288" height="200" fill="white" transform="translate(24)"/>
</clipPath>
</defs>
</svg>
