<svg width="250" height="200" viewBox="0 0 250 200" fill="none" xmlns="http://www.w3.org/2000/svg">
<rect width="250" height="200" fill="white"/>
<g clip-path="url(#clip0_616_3475)">
<path d="M214.358 181.604C216.794 180.142 218.988 178.313 220.863 176.179C234.684 160.189 234.542 137.627 233.599 118.189C232.476 95.2406 228.231 72.283 215.953 52.0425C204.123 32.5472 186.292 15.9576 163.976 7.07548C157.786 4.6292 151.37 2.79652 144.821 1.60378C132.671 -0.667937 120.162 -0.107833 108.264 3.24057C103.767 4.5502 99.3562 6.13817 95.0565 7.99529C65.6886 20.5142 61.6084 46.3208 50.2074 72.1226C42.1272 90.3868 23.1178 102.311 15.0565 120.613C6.01404 141.099 20.4905 163.481 38.9433 174.476C43.2072 176.996 47.7103 179.086 52.3867 180.717C96.2546 196.151 145.74 200.882 191.41 189.651C199.094 187.759 207.608 185.755 214.358 181.604Z" fill="#8185E7"/>
<path opacity="0.7" d="M214.358 181.604C216.794 180.142 218.988 178.313 220.863 176.179C234.684 160.189 234.542 137.627 233.599 118.189C232.476 95.2406 228.231 72.283 215.953 52.0425C204.123 32.5472 186.292 15.9576 163.976 7.07548C157.786 4.6292 151.37 2.79652 144.821 1.60378C132.671 -0.667937 120.162 -0.107833 108.264 3.24057C103.767 4.5502 99.3562 6.13817 95.0565 7.99529C65.6886 20.5142 61.6084 46.3208 50.2074 72.1226C42.1272 90.3868 23.1178 102.311 15.0565 120.613C6.01404 141.099 20.4905 163.481 38.9433 174.476C43.2072 176.996 47.7103 179.086 52.3867 180.717C96.2546 196.151 145.74 200.882 191.41 189.651C199.094 187.759 207.608 185.755 214.358 181.604Z" fill="white"/>
<path d="M25.8066 111.929L32.3727 174.868" stroke="#263238" stroke-miterlimit="10"/>
<path d="M31.3161 162.821L28.335 159.679" stroke="#263238" stroke-miterlimit="10"/>
<path d="M29.2407 160.618C29.2323 160.136 29.1205 159.661 28.9131 159.226C28.7056 158.79 28.4071 158.405 28.0378 158.094C27.2737 157.41 23.2501 155.736 22.8492 157.151C22.4718 158.679 26.5897 161.703 29.2407 160.618Z" fill="#8185E7" stroke="#263238" stroke-width="0.5" stroke-miterlimit="10"/>
<path d="M29.2406 160.618L25.4104 158.236" stroke="#263238" stroke-width="0.25" stroke-miterlimit="10"/>
<path d="M32.0614 169.981L29.085 166.835" stroke="#263238" stroke-miterlimit="10"/>
<path d="M29.9859 167.778C29.9814 167.297 29.8733 166.822 29.669 166.385C29.4648 165.949 29.169 165.562 28.8019 165.25C28.0378 164.571 24.0142 162.892 23.6368 164.307C23.2217 165.835 27.3349 168.868 29.9859 167.778Z" fill="#8185E7" stroke="#263238" stroke-width="0.5" stroke-miterlimit="10"/>
<path d="M29.9859 167.778L26.1604 165.392" stroke="#263238" stroke-width="0.25" stroke-miterlimit="10"/>
<path d="M29.4906 145.358L26.5142 142.212" stroke="#263238" stroke-miterlimit="10"/>
<path d="M27.4197 143.156C27.4134 142.674 27.3041 142.199 27.0991 141.763C26.894 141.327 26.5981 140.94 26.231 140.627C25.4669 139.948 21.448 138.269 21.0424 139.684C20.6509 141.212 24.7688 144.236 27.4197 143.156Z" fill="#8185E7" stroke="#263238" stroke-width="0.5" stroke-miterlimit="10"/>
<path d="M27.4198 143.156L23.5896 140.769" stroke="#263238" stroke-width="0.25" stroke-miterlimit="10"/>
<path d="M30.2407 152.514L27.2595 149.368" stroke="#263238" stroke-miterlimit="10"/>
<path d="M28.1651 150.311C28.1593 149.831 28.0507 149.357 27.8465 148.921C27.6423 148.486 27.3472 148.099 26.9812 147.788C26.217 147.104 22.1934 145.429 21.7925 146.844C21.3963 148.368 25.5142 151.415 28.1651 150.311Z" fill="#8185E7" stroke="#263238" stroke-width="0.5" stroke-miterlimit="10"/>
<path d="M28.1651 150.311L24.335 147.925" stroke="#263238" stroke-width="0.25" stroke-miterlimit="10"/>
<path d="M28.2784 133.731L25.302 130.585" stroke="#263238" stroke-miterlimit="10"/>
<path d="M26.2029 131.528C26.1984 131.047 26.0903 130.572 25.886 130.135C25.6818 129.699 25.386 129.312 25.0189 129C24.2548 128.321 20.2312 126.642 19.8302 128.057C19.4387 129.585 23.5519 132.608 26.2029 131.528Z" fill="#8185E7" stroke="#263238" stroke-width="0.5" stroke-miterlimit="10"/>
<path d="M26.2029 131.528L22.3774 129.142" stroke="#263238" stroke-width="0.25" stroke-miterlimit="10"/>
<path d="M27.0612 122.052L24.0801 118.906" stroke="#263238" stroke-miterlimit="10"/>
<path d="M24.9858 119.849C24.9789 119.368 24.8688 118.893 24.6629 118.458C24.4571 118.022 24.1602 117.636 23.7925 117.325C23.0283 116.642 19.0047 114.967 18.6038 116.382C18.217 117.925 22.3349 120.934 24.9858 119.849Z" fill="#8185E7" stroke="#263238" stroke-width="0.5" stroke-miterlimit="10"/>
<path d="M24.986 119.849L21.1558 117.462" stroke="#263238" stroke-width="0.25" stroke-miterlimit="10"/>
<path d="M30.8113 158.59L33.0754 154.896" stroke="#263238" stroke-miterlimit="10"/>
<path d="M32.3869 156.005C32.2948 155.535 32.3039 155.051 32.4137 154.585C32.5235 154.119 32.7315 153.681 33.0236 153.302C33.6321 152.476 37.217 150 37.8821 151.297C38.6086 152.708 35.2029 156.519 32.3869 156.005Z" fill="#8185E7" stroke="#263238" stroke-width="0.5" stroke-miterlimit="10"/>
<path d="M32.3867 156.005L35.8348 152.708" stroke="#263238" stroke-width="0.25" stroke-miterlimit="10"/>
<path d="M28.8491 139.755L31.1133 136.061" stroke="#263238" stroke-miterlimit="10"/>
<path d="M30.4199 137.17C30.3245 136.694 30.3324 136.204 30.4431 135.732C30.5538 135.26 30.7646 134.817 31.0614 134.434C31.6652 133.608 35.2548 131.132 35.9199 132.429C36.6416 133.873 33.2265 137.679 30.4199 137.17Z" fill="#8185E7" stroke="#263238" stroke-width="0.5" stroke-miterlimit="10"/>
<path d="M30.4199 137.17L33.868 133.873" stroke="#263238" stroke-width="0.25" stroke-miterlimit="10"/>
<path d="M27.9858 131.476L30.25 127.783" stroke="#263238" stroke-miterlimit="10"/>
<path d="M29.5567 128.892C29.4638 128.419 29.4725 127.933 29.5823 127.464C29.6921 126.996 29.9005 126.556 30.1935 126.175C30.802 125.349 34.3869 122.873 35.0567 124.17C35.7784 125.594 32.3775 129.406 29.5567 128.892Z" fill="#8185E7" stroke="#263238" stroke-width="0.5" stroke-miterlimit="10"/>
<path d="M29.5566 128.892L33.0048 125.594" stroke="#263238" stroke-width="0.25" stroke-miterlimit="10"/>
<path d="M26.717 119.34L28.9812 115.646" stroke="#263238" stroke-miterlimit="10"/>
<path d="M28.2924 116.759C28.1982 116.287 28.2063 115.801 28.3162 115.332C28.426 114.863 28.635 114.424 28.9292 114.042C29.5377 113.217 33.1226 110.741 33.7877 112.038C34.5141 113.458 31.1084 117.269 28.2924 116.759Z" fill="#8185E7" stroke="#263238" stroke-width="0.5" stroke-miterlimit="10"/>
<path d="M28.2925 116.759L31.7406 113.462" stroke="#263238" stroke-width="0.25" stroke-miterlimit="10"/>
<path d="M25.7501 111.58C25.656 111.109 25.6641 110.623 25.774 110.155C25.8838 109.687 26.0928 109.248 26.3869 108.868C26.9954 108.042 30.5803 105.566 31.2454 106.863C31.9718 108.283 28.5661 112.094 25.7501 111.58Z" fill="#8185E7" stroke="#263238" stroke-width="0.5" stroke-miterlimit="10"/>
<path d="M25.75 111.58L29.1981 108.288" stroke="#263238" stroke-width="0.25" stroke-miterlimit="10"/>
<path d="M25.9481 111.726C25.4699 111.769 24.9882 111.709 24.5351 111.55C24.082 111.392 23.668 111.138 23.3208 110.807C22.5613 110.113 20.4906 106.288 21.8349 105.764C23.3208 105.189 26.7547 108.962 25.9481 111.726Z" fill="#8185E7" stroke="#263238" stroke-width="0.5" stroke-miterlimit="10"/>
<path d="M25.9481 111.726L23.033 107.948" stroke="#263238" stroke-width="0.25" stroke-miterlimit="10"/>
<path d="M43.1274 120.599L36.5991 183.538" stroke="#263238" stroke-miterlimit="10"/>
<path d="M38.0425 171.533L35.7737 167.844" stroke="#263238" stroke-miterlimit="10"/>
<path d="M36.4669 168.953C36.5595 168.48 36.5502 167.994 36.4396 167.525C36.329 167.057 36.1196 166.617 35.8254 166.236C35.2169 165.41 31.632 162.934 30.9669 164.236C30.2405 165.656 33.6462 169.467 36.4669 168.953Z" fill="#8185E7" stroke="#263238" stroke-width="0.5" stroke-miterlimit="10"/>
<path d="M36.4669 168.953L33.2122 165.83" stroke="#263238" stroke-width="0.25" stroke-miterlimit="10"/>
<path d="M39.8538 154.066L37.585 150.377" stroke="#263238" stroke-miterlimit="10"/>
<path d="M38.2782 151.486C38.3708 151.013 38.3615 150.527 38.2509 150.058C38.1403 149.59 37.9309 149.15 37.6367 148.769C37.033 147.943 33.4433 145.467 32.7782 146.769C32.0565 148.189 35.4622 152 38.2782 151.486Z" fill="#8185E7" stroke="#263238" stroke-width="0.5" stroke-miterlimit="10"/>
<path d="M38.2784 151.486L35.0237 148.363" stroke="#263238" stroke-width="0.25" stroke-miterlimit="10"/>
<path d="M39.1084 161.226L36.8442 157.533" stroke="#263238" stroke-miterlimit="10"/>
<path d="M37.5377 158.642C37.6306 158.17 37.6213 157.684 37.5107 157.216C37.4 156.748 37.1905 156.309 36.8962 155.929C36.2877 155.104 32.7028 152.627 32.0377 153.925C31.3113 155.349 34.717 159.156 37.5377 158.642Z" fill="#8185E7" stroke="#263238" stroke-width="0.5" stroke-miterlimit="10"/>
<path d="M37.5378 158.642L34.2783 155.519" stroke="#263238" stroke-width="0.25" stroke-miterlimit="10"/>
<path d="M41.0613 142.439L38.7925 138.75" stroke="#263238" stroke-miterlimit="10"/>
<path d="M39.486 139.858C39.5786 139.386 39.5693 138.899 39.4586 138.431C39.348 137.962 39.1386 137.523 38.8445 137.141C38.236 136.316 34.6511 133.84 33.986 135.142C33.2596 136.561 36.6652 140.373 39.486 139.858Z" fill="#8185E7" stroke="#263238" stroke-width="0.5" stroke-miterlimit="10"/>
<path d="M39.4859 139.858L36.2312 136.736" stroke="#263238" stroke-width="0.25" stroke-miterlimit="10"/>
<path d="M42.2735 130.759L40.0046 127.071" stroke="#263238" stroke-miterlimit="10"/>
<path d="M40.6981 128.179C40.7893 127.708 40.7793 127.223 40.6687 126.756C40.5581 126.29 40.3495 125.852 40.0566 125.472C39.4481 124.646 35.8632 122.17 35.1981 123.472C34.4717 124.882 37.8774 128.693 40.6981 128.179Z" fill="#8185E7" stroke="#263238" stroke-width="0.5" stroke-miterlimit="10"/>
<path d="M40.6981 128.179L37.4434 125.057" stroke="#263238" stroke-width="0.25" stroke-miterlimit="10"/>
<path d="M38.4246 167.288L41.401 164.142" stroke="#263238" stroke-miterlimit="10"/>
<path d="M40.4954 165.094C40.5014 164.613 40.6101 164.138 40.8143 163.702C41.0185 163.266 41.3134 162.879 41.6793 162.566C42.4435 161.882 46.4623 160.208 46.868 161.623C47.2642 163.137 43.1322 166.165 40.4954 165.094Z" fill="#8185E7" stroke="#263238" stroke-width="0.5" stroke-miterlimit="10"/>
<path d="M40.4954 165.085L44.5472 162.566" stroke="#263238" stroke-width="0.25" stroke-miterlimit="10"/>
<path d="M40.3774 148.448L43.3539 145.302" stroke="#263238" stroke-miterlimit="10"/>
<path d="M42.448 146.226C42.4538 145.746 42.5624 145.272 42.7666 144.836C42.9709 144.401 43.2659 144.015 43.632 143.703C44.3961 143.019 48.4197 141.344 48.8206 142.759C49.2169 144.297 45.1037 147.325 42.448 146.226Z" fill="#8185E7" stroke="#263238" stroke-width="0.5" stroke-miterlimit="10"/>
<path d="M42.448 146.245L46.4999 143.731" stroke="#263238" stroke-width="0.25" stroke-miterlimit="10"/>
<path d="M41.2358 140.175L44.2123 137.024" stroke="#263238" stroke-miterlimit="10"/>
<path d="M43.3066 137.967C43.3124 137.486 43.4211 137.012 43.6253 136.577C43.8295 136.142 44.1246 135.755 44.4906 135.443C45.2548 134.759 49.2783 133.085 49.6793 134.5C50.0755 136.024 45.9623 139.052 43.3066 137.967Z" fill="#8185E7" stroke="#263238" stroke-width="0.5" stroke-miterlimit="10"/>
<path d="M43.3066 137.967L47.3632 135.453" stroke="#263238" stroke-width="0.25" stroke-miterlimit="10"/>
<path d="M42.4954 128.038L45.4718 124.892" stroke="#263238" stroke-miterlimit="10"/>
<path d="M44.5471 125.835C44.5531 125.353 44.6619 124.879 44.866 124.443C45.0702 124.007 45.3651 123.619 45.7311 123.307C46.4952 122.623 50.5188 120.948 50.9198 122.363C51.3349 123.887 47.2216 126.915 44.5471 125.835Z" fill="#8185E7" stroke="#263238" stroke-width="0.5" stroke-miterlimit="10"/>
<path d="M44.5659 125.835L48.6225 123.316" stroke="#263238" stroke-width="0.25" stroke-miterlimit="10"/>
<path d="M43.1321 120.245C43.1381 119.764 43.2468 119.289 43.451 118.853C43.6552 118.417 43.9501 118.03 44.316 117.717C45.0802 117.038 49.0991 115.358 49.4811 116.774C49.9151 118.297 45.7972 121.325 43.1321 120.245Z" fill="#8185E7" stroke="#263238" stroke-width="0.5" stroke-miterlimit="10"/>
<path d="M43.1462 120.245L47.1981 117.731" stroke="#263238" stroke-width="0.25" stroke-miterlimit="10"/>
<path d="M43.3114 120.425C42.8341 120.368 42.3743 120.211 41.9627 119.963C41.5511 119.715 41.1972 119.382 40.9246 118.986C40.3256 118.151 39.0614 113.976 40.5096 113.745C42.085 113.491 44.6652 117.925 43.3114 120.425Z" fill="#8185E7" stroke="#263238" stroke-width="0.5" stroke-miterlimit="10"/>
<path d="M43.3113 120.425L41.2358 116.132" stroke="#263238" stroke-width="0.25" stroke-miterlimit="10"/>
<path d="M35.6416 94.9717V174.561" stroke="#263238" stroke-miterlimit="10"/>
<path d="M35.7076 162.594L33.0708 159.156" stroke="#263238" stroke-miterlimit="10"/>
<path d="M33.8725 160.189C33.918 159.709 33.8599 159.224 33.702 158.768C33.5441 158.313 33.2902 157.896 32.9574 157.547C32.2829 156.792 28.4433 154.717 27.915 156.061C27.3442 157.547 31.1225 160.991 33.8725 160.189Z" fill="#8185E7" stroke="#263238" stroke-width="0.5" stroke-miterlimit="10"/>
<path d="M33.8726 160.189L30.3113 157.415" stroke="#263238" stroke-width="0.25" stroke-miterlimit="10"/>
<path d="M35.7076 147.637L33.0708 144.198" stroke="#263238" stroke-miterlimit="10"/>
<path d="M33.8725 145.231C33.9173 144.752 33.8588 144.268 33.701 143.813C33.5431 143.359 33.2896 142.943 32.9574 142.594C32.2687 141.835 28.4433 139.736 27.915 141.104C27.3442 142.594 31.1225 146.033 33.8725 145.231Z" fill="#8185E7" stroke="#263238" stroke-width="0.5" stroke-miterlimit="10"/>
<path d="M33.8726 145.231L30.3113 142.458" stroke="#263238" stroke-width="0.25" stroke-miterlimit="10"/>
<path d="M35.7076 130.075L33.0708 126.637" stroke="#263238" stroke-miterlimit="10"/>
<path d="M33.8725 127.67C33.9173 127.19 33.8588 126.707 33.701 126.252C33.5431 125.797 33.2896 125.382 32.9574 125.033C32.2687 124.278 28.4433 122.175 27.915 123.547C27.3442 125.033 31.1225 128.472 33.8725 127.67Z" fill="#8185E7" stroke="#263238" stroke-width="0.5" stroke-miterlimit="10"/>
<path d="M33.8726 127.67L30.3113 124.901" stroke="#263238" stroke-width="0.25" stroke-miterlimit="10"/>
<path d="M35.7076 118.387L33.0708 114.948" stroke="#263238" stroke-miterlimit="10"/>
<path d="M33.8725 115.981C33.9173 115.502 33.8588 115.018 33.701 114.563C33.5431 114.109 33.2896 113.693 32.9574 113.344C32.2687 112.585 28.4433 110.486 27.915 111.854C27.3442 113.344 31.1225 116.783 33.8725 115.981Z" fill="#8185E7" stroke="#263238" stroke-width="0.5" stroke-miterlimit="10"/>
<path d="M33.8726 115.981L30.3113 113.208" stroke="#263238" stroke-width="0.25" stroke-miterlimit="10"/>
<path d="M35.7076 106.646L33.0708 103.208" stroke="#263238" stroke-miterlimit="10"/>
<path d="M33.8725 104.245C33.9173 103.766 33.8588 103.282 33.701 102.828C33.5431 102.373 33.2896 101.957 32.9574 101.608C32.2687 100.849 28.4433 98.75 27.915 100.118C27.3442 101.604 31.1225 105.042 33.8725 104.245Z" fill="#8185E7" stroke="#263238" stroke-width="0.5" stroke-miterlimit="10"/>
<path d="M33.8726 104.241L30.3113 101.467" stroke="#263238" stroke-width="0.25" stroke-miterlimit="10"/>
<path d="M35.6509 167.16L38.283 163.722" stroke="#263238" stroke-miterlimit="10"/>
<path d="M37.4718 164.755C37.4319 164.273 37.4954 163.789 37.6582 163.334C37.8209 162.879 38.079 162.465 38.4152 162.118C39.1038 161.363 42.9293 159.259 43.4529 160.632C44.0142 162.118 40.2312 165.566 37.4718 164.755Z" fill="#8185E7" stroke="#263238" stroke-width="0.5" stroke-miterlimit="10"/>
<path d="M37.4812 164.755L41.2548 161.835" stroke="#263238" stroke-width="0.25" stroke-miterlimit="10"/>
<path d="M35.6509 143.373L38.283 139.934" stroke="#263238" stroke-miterlimit="10"/>
<path d="M37.4717 140.967C37.4315 140.486 37.4949 140.001 37.6576 139.546C37.8204 139.092 38.0786 138.677 38.4151 138.33C39.1038 137.571 42.9292 135.472 43.4528 136.84C44.0141 138.33 40.2311 141.769 37.4717 140.967Z" fill="#8185E7" stroke="#263238" stroke-width="0.5" stroke-miterlimit="10"/>
<path d="M37.4812 140.967L41.2548 138.047" stroke="#263238" stroke-width="0.25" stroke-miterlimit="10"/>
<path d="M35.6509 131.632L38.283 128.193" stroke="#263238" stroke-miterlimit="10"/>
<path d="M37.4717 129.245C37.4288 128.761 37.4908 128.273 37.6536 127.815C37.8164 127.356 38.0762 126.938 38.4151 126.59C39.1038 125.83 42.9293 123.731 43.4528 125.099C44.0142 126.59 40.2311 130.028 37.4717 129.245Z" fill="#8185E7" stroke="#263238" stroke-width="0.5" stroke-miterlimit="10"/>
<path d="M37.4812 129.226L41.2548 126.307" stroke="#263238" stroke-width="0.25" stroke-miterlimit="10"/>
<path d="M35.6509 116.113L38.283 112.675" stroke="#263238" stroke-miterlimit="10"/>
<path d="M37.4717 113.708C37.4315 113.226 37.4949 112.742 37.6576 112.287C37.8204 111.832 38.0786 111.417 38.4151 111.071C39.1038 110.311 42.9292 108.212 43.4528 109.58C44.0141 111.071 40.2311 114.509 37.4717 113.708Z" fill="#8185E7" stroke="#263238" stroke-width="0.5" stroke-miterlimit="10"/>
<path d="M37.4812 113.708L41.2548 110.788" stroke="#263238" stroke-width="0.25" stroke-miterlimit="10"/>
<path d="M35.6509 103.91L38.283 100.476" stroke="#263238" stroke-miterlimit="10"/>
<path d="M37.4716 101.505C37.4315 101.024 37.495 100.54 37.6577 100.086C37.8205 99.6323 38.0787 99.2184 38.415 98.8726C39.1037 98.1132 42.9292 96.0141 43.4528 97.3821C44.0141 98.8726 40.2311 102.307 37.4716 101.505Z" fill="#8185E7" stroke="#263238" stroke-width="0.5" stroke-miterlimit="10"/>
<path d="M37.4812 101.505L41.2548 98.5849" stroke="#263238" stroke-width="0.25" stroke-miterlimit="10"/>
<path d="M35.4905 96.0943C35.4473 95.6151 35.5065 95.1321 35.6643 94.6774C35.8221 94.2228 36.0748 93.807 36.4056 93.4576C37.099 92.7028 40.9198 90.5991 41.4481 91.9717C42.0236 93.4575 38.2405 96.8962 35.4905 96.0943Z" fill="#8185E7" stroke="#263238" stroke-width="0.5" stroke-miterlimit="10"/>
<path d="M35.4905 96.0943L39.2641 93.1745" stroke="#263238" stroke-width="0.25" stroke-miterlimit="10"/>
<path d="M35.6746 96.2547C35.1938 96.2489 34.7198 96.1403 34.2845 95.9361C33.8492 95.7319 33.4627 95.4368 33.151 95.0708C32.467 94.3019 30.7925 90.2783 32.2076 89.8821C33.7406 89.4858 36.7595 93.6085 35.6746 96.2547Z" fill="#8185E7" stroke="#263238" stroke-width="0.5" stroke-miterlimit="10"/>
<path d="M35.6745 96.2547L33.165 92.1981" stroke="#263238" stroke-width="0.25" stroke-miterlimit="10"/>
<path d="M38.9199 195.203H30.4907L29.4341 173.915H39.9718L38.9199 195.203Z" fill="#263238" stroke="#263238" stroke-width="0.5" stroke-miterlimit="10"/>
<g opacity="0.3">
<path d="M103.736 20.0283H64.7642V76.2264H103.736V20.0283Z" stroke="black" stroke-width="0.5" stroke-miterlimit="10"/>
<path d="M103.741 29.8255V76.2311H64.7642V75C69.2716 73.5431 73.4756 71.2765 77.1698 68.3113C85.2594 61.7453 83.4906 57.1934 88.5425 44.0566C92.4906 33.7736 99.5236 30.6038 103.741 29.8255Z" stroke="black" stroke-width="0.5" stroke-miterlimit="10"/>
<path d="M81.1415 20.0283C80.9953 26.2217 78.783 38.7547 64.7642 48.0896V20.0283H81.1415Z" stroke="black" stroke-width="0.5" stroke-miterlimit="10"/>
<path d="M99.7641 20.0283C97.5518 24.7547 93.6037 30.6604 87.533 30.6604C81.2594 30.6604 82.9717 24.6274 85.1745 20.0424L99.7641 20.0283Z" stroke="black" stroke-width="0.5" stroke-miterlimit="10"/>
<path d="M77.5143 56.742C78.2526 53.7606 76.4343 50.7452 73.453 50.0068C70.4716 49.2685 67.4562 51.0868 66.7178 54.0681C65.9794 57.0495 67.7977 60.0649 70.7791 60.8033C73.7605 61.5416 76.7759 59.7233 77.5143 56.742Z" stroke="black" stroke-width="0.5" stroke-miterlimit="10"/>
<path d="M99.4104 49.599C99.4104 50.0991 99.2621 50.5879 98.9843 51.0037C98.7065 51.4195 98.3116 51.7435 97.8496 51.9349C97.3876 52.1263 96.8793 52.1763 96.3888 52.0788C95.8984 51.9812 95.4479 51.7404 95.0943 51.3868C94.7407 51.0332 94.4999 50.5827 94.4023 50.0923C94.3048 49.6019 94.3549 49.0935 94.5462 48.6315C94.7376 48.1695 95.0616 47.7747 95.4774 47.4968C95.8932 47.219 96.382 47.0707 96.8821 47.0707C97.2141 47.0707 97.5429 47.1362 97.8496 47.2632C98.1564 47.3903 98.4351 47.5765 98.6698 47.8113C98.9046 48.046 99.0908 48.3248 99.2179 48.6315C99.345 48.9383 99.4104 49.267 99.4104 49.599Z" stroke="black" stroke-width="0.5" stroke-miterlimit="10"/>
<path d="M92.9671 70.066C94.2931 70.066 95.3681 68.9911 95.3681 67.6651C95.3681 66.3391 94.2931 65.2641 92.9671 65.2641C91.6411 65.2641 90.5662 66.3391 90.5662 67.6651C90.5662 68.9911 91.6411 70.066 92.9671 70.066Z" stroke="black" stroke-width="0.5" stroke-miterlimit="10"/>
<path d="M153.269 20.0283H114.292V76.2264H153.269V20.0283Z" stroke="black" stroke-width="0.5" stroke-miterlimit="10"/>
<path d="M153.274 20.0283V66.0943C144.703 61.6604 130.693 47.8962 125.184 35.1934C121.675 27.0896 117.943 22.5236 115.236 20.0283H153.274Z" stroke="black" stroke-width="0.5" stroke-miterlimit="10"/>
<path d="M153.274 72.0424V76.2311H114.292V74.6274C121.722 69.6887 133.198 63.3538 140.854 65.2641C145.783 66.5094 150 69.2311 153.274 72.0424Z" stroke="black" stroke-width="0.5" stroke-miterlimit="10"/>
<path d="M124.684 54.4009C123.377 59.4528 117.967 62.7217 114.307 64.4009V35.1038C119.146 40.4953 126.009 49.25 124.684 54.4009Z" stroke="black" stroke-width="0.5" stroke-miterlimit="10"/>
<path d="M136.627 20.0283H153.274V33.0189C144.769 31.2311 139.052 23.8255 136.627 20.0283Z" stroke="black" stroke-width="0.5" stroke-miterlimit="10"/>
<path d="M143.009 45.6563C145.7 43.9078 146.125 39.7861 143.958 36.4503C141.791 33.1144 137.852 31.8276 135.161 33.5761C132.469 35.3246 132.044 39.4462 134.212 42.7821C136.379 46.118 140.317 47.4048 143.009 45.6563Z" stroke="black" stroke-width="0.5" stroke-miterlimit="10"/>
<path d="M202.797 20.0283H163.825V76.2264H202.797V20.0283Z" stroke="black" stroke-width="0.5" stroke-miterlimit="10"/>
<path d="M202.797 48.2783V76.2311H163.825V73.0189C166.019 69.967 170.75 66.3774 180.783 63.75C189.42 61.4858 196.934 55.0849 202.797 48.2783Z" stroke="black" stroke-width="0.5" stroke-miterlimit="10"/>
<path d="M181.811 51.6226C174.014 56.9151 167.825 61.7453 163.844 65.0141V35.066C170.542 29.7736 182.151 19.6368 189.141 22.8019C197.457 26.6038 195.962 42.0141 181.811 51.6226Z" stroke="black" stroke-width="0.5" stroke-miterlimit="10"/>
<path d="M202.797 20.0283V28.8632C199.793 27.1651 197.646 23.467 196.194 20.0283H202.797Z" stroke="black" stroke-width="0.5" stroke-miterlimit="10"/>
<path d="M183.816 36.2075C185.77 36.2075 187.354 34.6236 187.354 32.6698C187.354 30.716 185.77 29.1321 183.816 29.1321C181.862 29.1321 180.278 30.716 180.278 32.6698C180.278 34.6236 181.862 36.2075 183.816 36.2075Z" stroke="black" stroke-width="0.5" stroke-miterlimit="10"/>
<path d="M197.967 71.3302C199.921 71.3302 201.505 69.7463 201.505 67.7925C201.505 65.8386 199.921 64.2547 197.967 64.2547C196.013 64.2547 194.429 65.8386 194.429 67.7925C194.429 69.7463 196.013 71.3302 197.967 71.3302Z" stroke="black" stroke-width="0.5" stroke-miterlimit="10"/>
<path d="M192.91 52.6321C192.91 53.1321 192.762 53.6209 192.484 54.0367C192.206 54.4525 191.812 54.7766 191.35 54.9679C190.888 55.1593 190.379 55.2093 189.889 55.1118C189.398 55.0142 188.948 54.7734 188.594 54.4198C188.241 54.0663 188 53.6158 187.902 53.1253C187.805 52.6349 187.855 52.1265 188.046 51.6645C188.238 51.2025 188.562 50.8077 188.977 50.5299C189.393 50.2521 189.882 50.1038 190.382 50.1038C191.053 50.1038 191.696 50.3701 192.17 50.8443C192.644 51.3184 192.91 51.9615 192.91 52.6321Z" stroke="black" stroke-width="0.5" stroke-miterlimit="10"/>
<path d="M170.797 52.1273C171.844 52.1273 172.693 51.2784 172.693 50.2311C172.693 49.1839 171.844 48.3349 170.797 48.3349C169.75 48.3349 168.901 49.1839 168.901 50.2311C168.901 51.2784 169.75 52.1273 170.797 52.1273Z" stroke="black" stroke-width="0.5" stroke-miterlimit="10"/>
</g>
<path d="M152.594 117.019H113.241C110.2 117.019 107.736 119.483 107.736 122.524V159.226C107.736 162.267 110.2 164.731 113.241 164.731H152.594C155.634 164.731 158.099 162.267 158.099 159.226V122.524C158.099 119.483 155.634 117.019 152.594 117.019Z" fill="white" stroke="#263238" stroke-width="0.5" stroke-miterlimit="10"/>
<path d="M102.236 117.019H62.8822C59.842 117.019 57.3774 119.483 57.3774 122.524V159.226C57.3774 162.267 59.842 164.731 62.8822 164.731H102.236C105.276 164.731 107.741 162.267 107.741 159.226V122.524C107.741 119.483 105.276 117.019 102.236 117.019Z" fill="white" stroke="#263238" stroke-width="0.5" stroke-miterlimit="10"/>
<path d="M85.9623 137.91C85.9623 137.91 67.4906 143.005 64.3066 144.599C61.1227 146.193 58.5755 147.462 59.8491 148.42C61.1227 149.377 68.1321 156.698 73.8632 159.269C79.5944 161.84 89.151 159.269 98.3915 159.906C107.632 160.542 112.401 159.269 112.401 158.311C112.401 157.354 108.58 149.712 102.528 145.255C98.4158 142.317 94.0458 139.758 89.4717 137.608C89.4717 137.608 86.5991 135.377 85.9623 137.91Z" fill="#A8A8A8" stroke="#263238" stroke-width="0.5" stroke-miterlimit="10"/>
<path d="M58.8776 137.59L61.6794 158.792H57.9294L58.8776 137.59Z" fill="#263238" stroke="#263238" stroke-width="0.5" stroke-miterlimit="10"/>
<path d="M202.958 117.019H163.604C160.564 117.019 158.099 119.483 158.099 122.524V159.226C158.099 162.267 160.564 164.731 163.604 164.731H202.958C205.998 164.731 208.462 162.267 208.462 159.226V122.524C208.462 119.483 205.998 117.019 202.958 117.019Z" fill="white" stroke="#263238" stroke-width="0.5" stroke-miterlimit="10"/>
<path d="M207.542 135.849C207.542 135.849 199.264 134.434 195.019 133.491C190.774 132.547 182.726 132.075 182.726 132.075C182.726 132.075 181.071 132.547 181.311 133.491C181.473 134.425 181.552 135.372 181.547 136.321C181.547 136.321 179.42 143.868 177.302 148.618C175.184 153.368 173.528 156.637 173.528 156.637C173.528 156.637 170.458 157.816 172.349 158.764C174.241 159.712 179.203 159.708 179.203 159.708H208.991L209.462 139.142L207.542 135.849Z" fill="#A8A8A8" stroke="#263238" stroke-width="0.5" stroke-miterlimit="10"/>
<path d="M56.2407 194.722H209.92V163.226H57.6417L56.2407 194.722Z" fill="white" stroke="#263238" stroke-width="0.5" stroke-miterlimit="10"/>
<path d="M55.2783 168.835C55.2783 168.835 94.3538 168.387 108.538 168.387C122.722 168.387 149.009 168.986 155.519 168.986C162.028 168.986 207.406 169.274 207.406 169.274L207.481 166.618L54.3679 165.538L55.2783 168.835Z" fill="#263238" stroke="#263238" stroke-width="0.5" stroke-miterlimit="10"/>
<path d="M54.7642 167.363C54.7642 167.363 164.349 168.307 171.052 168.307C177.755 168.307 207.193 167.802 207.193 167.802V158.962C207.193 158.962 131.123 159.84 128.208 159.84C125.292 159.84 64.3821 157.953 62.0519 157.774C59.7217 157.594 54.7642 157.774 54.7642 157.774V167.363Z" fill="white" stroke="#263238" stroke-width="0.5" stroke-miterlimit="10"/>
<path d="M217.514 135.618H210.028C208.205 135.618 206.727 137.096 206.727 138.92V191.981C206.727 193.805 208.205 195.283 210.028 195.283H217.514C219.338 195.283 220.816 193.805 220.816 191.981V138.92C220.816 137.096 219.338 135.618 217.514 135.618Z" fill="white" stroke="#263238" stroke-width="0.5" stroke-miterlimit="10"/>
<path d="M55.5756 135.618H48.0897C46.2661 135.618 44.7878 137.096 44.7878 138.92V191.981C44.7878 193.805 46.2661 195.283 48.0897 195.283H55.5756C57.3992 195.283 58.8775 193.805 58.8775 191.981V138.92C58.8775 137.096 57.3992 135.618 55.5756 135.618Z" fill="white" stroke="#263238" stroke-width="0.5" stroke-miterlimit="10"/>
<path d="M14.8301 195.203H238.514" stroke="#263238" stroke-width="0.5" stroke-linecap="round" stroke-linejoin="round"/>
<path d="M41.1416 88.9387C41.1416 88.9387 51.868 98.1132 80.0614 97.5189C108.255 96.9245 132.156 81.6038 165.557 88.9387C198.958 96.2736 205.396 101.5 222.849 96.2924" stroke="#263238" stroke-width="0.5" stroke-miterlimit="10"/>
<path d="M41.1416 94.4528C41.1416 94.4528 51.868 103.646 80.0614 103.033C108.255 102.42 132.156 87.0991 165.557 94.4528C198.958 101.807 205.396 107.019 222.849 101.807" stroke="#263238" stroke-width="0.5" stroke-miterlimit="10"/>
<path d="M41.1416 99.967C41.1416 99.967 51.868 109.16 80.0614 108.547C108.255 107.934 132.156 92.6132 165.557 99.967C198.958 107.321 205.396 112.533 222.849 107.321" stroke="#263238" stroke-width="0.5" stroke-miterlimit="10"/>
<path d="M174.642 87.434C175.477 89.4481 176.274 91.3774 177.076 93.3019C177.722 94.8585 178.307 96.4434 179.038 97.9575C179.769 99.4717 178.415 101.363 177.071 101.698C176.882 101.766 176.679 101.785 176.481 101.754C176.283 101.723 176.096 101.643 175.937 101.521C175.778 101.399 175.652 101.239 175.57 101.056C175.489 100.872 175.455 100.672 175.472 100.472C175.415 99.1179 176.472 97.9575 178.217 97.533C177.439 95.6462 176.67 93.8066 175.859 91.8491C173.453 93.3915 171.142 94.8679 168.83 96.3915C168.675 96.4953 168.665 97.0142 168.764 97.2689C169.51 99.1557 170.307 101.042 171.076 102.929C171.234 103.276 171.318 103.653 171.321 104.035C171.324 104.416 171.247 104.794 171.094 105.144C170.942 105.494 170.717 105.808 170.435 106.065C170.153 106.322 169.82 106.517 169.458 106.637C169.229 106.724 168.983 106.759 168.739 106.741C168.494 106.723 168.257 106.652 168.043 106.533C167.876 106.34 167.753 106.115 167.68 105.871C167.608 105.627 167.588 105.37 167.623 105.118C167.892 103.745 168.816 102.92 170.288 102.627L166.269 93L174.642 87.434ZM168.01 95.4151L175.326 90.566L174.882 89.5472L167.505 94.2641C167.684 94.684 167.83 95.0189 168.01 95.4151Z" fill="#263238"/>
<path d="M105.363 90.6557L95.3445 91.0047C94.802 94.467 94.2737 97.8679 93.736 101.316C92.3209 100.792 91.1087 101.009 90.1653 102.042C89.9994 102.24 89.8781 102.472 89.8097 102.721C89.7413 102.97 89.7275 103.231 89.769 103.486C89.8894 103.698 90.0541 103.881 90.252 104.024C90.4498 104.166 90.676 104.264 90.9153 104.311C91.2862 104.396 91.6707 104.402 92.0441 104.328C92.4174 104.255 92.7711 104.104 93.0824 103.885C93.3936 103.667 93.6555 103.385 93.851 103.058C94.0465 102.732 94.1712 102.368 94.2171 101.991C94.5473 99.9858 94.8492 97.9717 95.1983 95.9717C95.2502 95.7028 95.5285 95.2641 95.7124 95.2594C98.4483 95.1557 101.189 95.1132 104.024 95.0566C103.709 97.0377 103.395 99.022 103.08 101.009C101.665 100.486 100.453 100.703 99.5096 101.736C99.3919 101.877 99.2979 102.036 99.2313 102.208C99.1127 102.37 99.0367 102.56 99.0104 102.759C98.984 102.958 99.008 103.161 99.0803 103.349C99.1526 103.537 99.2707 103.703 99.424 103.833C99.5773 103.964 99.7608 104.053 99.9577 104.094C101.278 104.509 103.415 103.66 103.585 101.934C103.623 101.561 103.67 101.189 103.722 100.821C104 99.1038 104.264 97.3821 104.566 95.6698C104.613 95.4009 104.892 94.9623 105.076 94.9575C107.83 94.8538 110.59 94.8113 113.444 94.7547C113.113 96.8491 112.797 98.8349 112.5 100.835C110.793 100.283 109.283 100.722 108.628 101.901C108.509 102.063 108.433 102.252 108.406 102.451C108.38 102.651 108.403 102.853 108.475 103.041C108.547 103.228 108.664 103.395 108.817 103.525C108.97 103.656 109.153 103.746 109.349 103.788C110.67 104.203 112.807 103.354 112.981 101.627C113.156 99.9009 113.481 98.2972 113.741 96.6321L114.731 90.3538L105.363 90.6557ZM95.5426 93.9575L95.703 92.7311L104.429 92.5519C104.368 92.9198 104.311 93.2877 104.255 93.6509L95.5426 93.9575ZM113.689 93.3443L104.915 93.6509C104.967 93.283 105.01 92.9528 105.057 92.5943C105.057 92.5377 105.057 92.4811 105.08 92.4245L113.84 92.2453C113.788 92.6509 113.741 92.9811 113.689 93.3632V93.3443Z" fill="#263238"/>
<path d="M204.038 95.0236C204.118 95.316 204.325 95.6368 204.264 95.8962C204.014 97.0236 204.429 97.9434 205.005 98.8585C205.537 99.648 206.01 100.476 206.42 101.335C207.16 103 206.807 104.538 205.533 105.948C207.278 103.014 205.887 101.061 203.542 99.3443C203.466 99.5206 203.401 99.7019 203.349 99.8868C202.689 102.896 202.038 105.91 201.377 108.92C201.286 109.355 201.104 109.766 200.845 110.127C200.585 110.487 200.254 110.79 199.87 111.016C199.487 111.241 199.062 111.384 198.62 111.436C198.179 111.488 197.731 111.447 197.307 111.316C195.948 110.92 195.613 109.646 196.656 108.684C197.844 107.59 199.241 107.429 200.821 108.052C201.764 103.722 202.708 99.412 203.651 95.1226L204.038 95.0236Z" fill="#263238"/>
<path d="M64.9153 87.0566C65.0002 87.3491 65.203 87.6651 65.1464 87.9245C64.8917 89.0566 65.3115 89.9764 65.8869 90.8915C66.4155 91.6815 66.8884 92.5074 67.302 93.3632C68.0379 95.033 67.6888 96.5708 66.4153 97.9811C68.1605 95.0472 66.769 93.0943 64.4247 91.3774C64.3482 91.5537 64.2836 91.7349 64.2313 91.9198C63.5709 94.9292 62.92 97.9434 62.2549 100.953C62.1625 101.387 61.9807 101.798 61.7211 102.158C61.4614 102.519 61.1297 102.821 60.7468 103.047C60.364 103.272 59.9384 103.415 59.4973 103.467C59.0561 103.519 58.6089 103.479 58.1841 103.349C56.8303 102.948 56.4907 101.679 57.5379 100.717C58.7266 99.6226 60.1181 99.4623 61.703 100.085C62.6464 95.7547 63.5898 91.445 64.5332 87.1557L64.9153 87.0566Z" fill="#263238"/>
<path d="M189.047 98.1651L189.703 95.1368C189.71 94.9779 189.733 94.82 189.769 94.6651C189.825 94.4057 189.623 94.0849 189.538 93.7972L189.16 93.9057C188.217 98.2028 187.274 102.5 186.33 106.835C184.745 106.208 183.354 106.363 182.165 107.462C181.118 108.429 181.458 109.698 182.811 110.099C183.236 110.229 183.683 110.269 184.124 110.217C184.566 110.165 184.991 110.022 185.374 109.797C185.757 109.571 186.089 109.269 186.348 108.908C186.608 108.548 186.79 108.137 186.882 107.703C187.547 104.689 188.198 101.675 188.858 98.6651C188.909 98.4939 188.972 98.3268 189.047 98.1651Z" fill="#263238"/>
<path d="M84.0143 98.4811L84.67 95.4528C84.6827 95.2944 84.7047 95.1369 84.736 94.9811C84.7973 94.7217 84.5898 94.4009 84.5096 94.1085L84.1275 94.217C83.1841 98.5189 82.2407 102.816 81.2973 107.146C79.7171 106.524 78.3209 106.675 77.1322 107.778C76.0898 108.722 76.4247 110.014 77.7832 110.41C78.2079 110.542 78.6554 110.584 79.0972 110.533C79.5389 110.482 79.9651 110.339 80.3486 110.114C80.7321 109.889 81.0645 109.586 81.3245 109.226C81.5845 108.865 81.7664 108.454 81.8586 108.019C82.519 105.009 83.17 101.995 83.8303 98.9859C83.8801 98.8136 83.9416 98.645 84.0143 98.4811Z" fill="#263238"/>
<path d="M135.443 47.4858C132.633 46.7777 129.666 47.0575 127.038 48.2783C122.632 50.3302 120.99 53.9387 116.071 56.3774C111.151 58.816 102.953 62.8302 98.8537 61.1934C94.7546 59.5566 94.1367 58.5283 94.5518 59.9623C94.9669 61.3962 96.0895 63.3443 97.9339 64.0613C98.7906 64.4288 99.684 64.7039 100.599 64.8821C100.599 64.8821 101.519 65.5991 98.2405 66.1132C96.2044 66.412 94.1332 66.3769 92.1084 66.0094C92.1084 66.0094 92.7263 72.8726 101.745 75.0283C110.764 77.184 113.118 76.1557 113.118 76.1557C113.118 76.1557 108.816 79.3302 107.457 80.2547C106.099 81.1792 109.509 82.9151 115.863 83.1226C122.217 83.3302 128.16 77.8962 131.641 77.8962C135.123 77.8962 139.33 80.5613 143.325 79.5377C147.321 78.5141 148.962 73.184 148.656 71.9528C148.35 70.9033 147.973 69.8758 147.528 68.8774C147.528 68.8774 148.858 68.8774 149.783 71.2358C150.707 73.5943 151.009 74.717 151.321 73.5943C151.632 72.4717 153.061 70.7217 149.986 65.1887C146.91 59.6557 146.811 60.066 145.58 55.4528C144.349 50.8396 141.684 49 139.123 49L135.443 47.4858Z" fill="#263238" stroke="#263238" stroke-width="0.5" stroke-linecap="round" stroke-linejoin="round"/>
<path d="M128.388 66.7353C130.169 66.2873 131.183 64.216 130.653 62.109C130.123 60.0019 128.25 58.6571 126.469 59.1051C124.688 59.5532 123.673 61.6245 124.203 63.7315C124.733 65.8385 126.607 67.1834 128.388 66.7353Z" fill="white" stroke="#263238" stroke-width="0.5" stroke-linecap="round" stroke-linejoin="round"/>
<path d="M120.297 101.561C120.297 101.561 116.524 106.929 114.637 119.552C112.75 132.175 115.797 146.392 117.245 150.307C118.693 154.222 124.646 173.085 125.953 177.434C127.259 181.783 127.566 189.042 127.566 189.042C127.566 189.042 124.665 194.991 123.792 196.59C122.92 198.189 121.618 199.203 122.778 199.491C123.939 199.778 128.439 198.476 129.594 197.17C130.75 195.863 130.759 194.561 131.774 193.396C132.788 192.231 134.962 191.217 134.962 190.203C134.962 189.189 133.66 187.882 133.075 187.448C132.65 187.102 132.261 186.713 131.915 186.288C131.915 186.288 133.943 171.925 132.783 167.278C131.623 162.632 129.009 157.415 129.009 156.401C129.009 155.387 128.722 146.245 128.722 142.618C128.802 139.657 129.046 136.703 129.453 133.769C129.453 133.769 132.061 125.934 135.113 122.448C138.165 118.962 143.094 117.66 143.382 114.321C143.545 111.713 143.545 109.098 143.382 106.491L120.297 101.561Z" fill="#8185E7" stroke="#263238" stroke-width="0.5" stroke-linecap="round" stroke-linejoin="round"/>
<path d="M124.599 119.486C124.845 119.932 125.127 120.356 125.443 120.755" stroke="#263238" stroke-width="0.5" stroke-linecap="round" stroke-linejoin="round"/>
<path d="M122.009 112.736C122.524 114.718 123.216 116.65 124.075 118.509" stroke="#263238" stroke-width="0.5" stroke-linecap="round" stroke-linejoin="round"/>
<path d="M131.906 117.373C131.906 117.373 119.863 126.807 114.495 132.467C109.127 138.127 103.325 145.811 106.368 148.278C109.41 150.745 138.887 158.868 141.623 160.608C144.358 162.349 146.264 165.25 147.571 167.571C148.877 169.892 149.75 171.344 150.038 172.646C150.325 173.948 152.212 172.358 152.212 169.458C152.212 166.557 151.778 161.33 151.778 159.448C151.778 157.566 150.184 157.561 149.17 157.708C148.088 157.93 147.022 158.22 145.976 158.575C142.042 157.433 138.358 155.562 135.113 153.061C129.599 148.854 130.396 148.896 127.278 146.679C122.783 143.486 119.448 143.344 119.448 143.344C119.448 143.344 134.542 134.057 139.033 129.561C143.524 125.066 144.255 117.953 144.255 115.486C144.226 113.865 143.982 112.255 143.528 110.698" fill="#8185E7"/>
<path d="M131.906 117.373C131.906 117.373 119.863 126.807 114.495 132.467C109.127 138.127 103.325 145.811 106.368 148.278C109.41 150.745 138.887 158.868 141.623 160.608C144.358 162.349 146.264 165.25 147.571 167.571C148.877 169.892 149.75 171.344 150.038 172.646C150.325 173.948 152.212 172.358 152.212 169.458C152.212 166.557 151.778 161.33 151.778 159.448C151.778 157.566 150.184 157.561 149.17 157.708C148.088 157.93 147.022 158.22 145.976 158.575C142.042 157.433 138.358 155.562 135.113 153.061C129.599 148.854 130.396 148.896 127.278 146.679C122.783 143.486 119.448 143.344 119.448 143.344C119.448 143.344 134.542 134.057 139.033 129.561C143.524 125.066 144.255 117.953 144.255 115.486C144.226 113.865 143.982 112.255 143.528 110.698" stroke="#263238" stroke-width="0.5" stroke-linecap="round" stroke-linejoin="round"/>
<path d="M113.858 143.458C113.479 143.545 113.105 143.657 112.74 143.792" stroke="#263238" stroke-width="0.5" stroke-linecap="round" stroke-linejoin="round"/>
<path d="M119.429 143.344C118.227 143.167 117.01 143.115 115.797 143.189" stroke="#263238" stroke-width="0.5" stroke-linecap="round" stroke-linejoin="round"/>
<path d="M149.17 157.708C148.088 157.93 147.022 158.22 145.976 158.575C142.042 157.433 138.358 155.562 135.113 153.061C134.297 152.439 133.623 151.91 133.047 151.453C132.792 152.755 132.038 154.571 130.019 156.571C135.788 158.392 140.604 159.953 141.641 160.608C144.401 162.349 146.283 165.25 147.59 167.571C148.896 169.892 149.769 171.344 150.057 172.646C150.344 173.948 152.231 172.358 152.231 169.458C152.231 166.557 151.797 161.33 151.797 159.448C151.797 157.566 150.207 157.547 149.17 157.708Z" fill="white" stroke="#263238" stroke-width="0.5" stroke-linecap="round" stroke-linejoin="round"/>
<path d="M149.17 157.708C148.706 157.783 148.247 157.888 147.797 158.024C148.387 159.297 149.495 162.019 149.604 164.67C149.698 167.028 148.816 168.151 148.189 168.656C149.132 170.363 149.802 171.561 150.042 172.646C150.335 173.953 152.217 172.358 152.217 169.458C152.217 166.557 151.783 161.33 151.783 159.448C151.783 157.566 150.207 157.547 149.17 157.708Z" fill="#263238" stroke="#263238" stroke-width="0.5" stroke-linecap="round" stroke-linejoin="round"/>
<path d="M133.066 187.448C132.64 187.102 132.252 186.713 131.906 186.288C131.906 186.288 133.094 177.844 133.132 171.811C130.778 173.487 128.04 174.542 125.17 174.877C125.505 175.953 125.773 176.835 125.957 177.434C127.259 181.788 127.552 189.042 127.552 189.042C127.552 189.042 124.651 194.991 123.778 196.59C122.906 198.189 121.604 199.203 122.764 199.491C123.924 199.778 128.424 198.476 129.58 197.17C130.736 195.863 130.745 194.561 131.759 193.396C132.773 192.231 134.948 191.217 134.948 190.203C134.948 189.189 133.646 187.882 133.066 187.448Z" fill="white" stroke="#263238" stroke-width="0.5" stroke-linecap="round" stroke-linejoin="round"/>
<path d="M133.066 187.448L132.972 187.373C132.825 187.623 132.665 187.887 132.5 188.17C130.901 190.637 129.453 193.83 127.712 195.137C127.235 195.505 126.669 195.743 126.072 195.825C125.475 195.908 124.866 195.833 124.306 195.608C124.104 196.009 123.924 196.349 123.792 196.59C122.924 198.189 121.618 199.203 122.778 199.491C123.938 199.778 128.438 198.476 129.594 197.17C130.75 195.863 130.759 194.561 131.773 193.396C132.788 192.231 134.962 191.217 134.962 190.203C134.962 189.189 133.646 187.882 133.066 187.448Z" fill="#263238" stroke="#263238" stroke-width="0.5" stroke-linecap="round" stroke-linejoin="round"/>
<path d="M128.778 67.75C128.778 67.75 122.222 65.0943 121.906 64.8821C121.589 64.6698 114.632 58.1179 114.632 58.1179L126.424 42.1321C126.424 42.1321 130.321 41.9245 131.755 41.4151C133.189 40.9057 134.523 40.6981 134.726 40.2877C134.929 39.8774 136.264 37.8255 136.877 36.9858C137.49 36.1462 136.264 35.6509 135.934 36.0425C135.604 36.434 135.42 36.7594 135.42 36.7594C135.42 36.7594 133.472 34.4009 132.858 34.4009C132.245 34.4009 130.91 36.3443 130.91 36.3443C130.91 36.3443 126.302 37.1651 125.788 38.0896C125.273 39.0141 107.344 57.25 107.033 58.9953C106.722 60.7406 114.618 68.5236 118.825 71.599C123.033 74.6745 127.023 78.3632 127.023 78.3632C127.023 78.3632 125.278 83.1792 125.278 85.3302C125.278 87.4811 125.589 90.1462 125.382 90.967C125.174 91.7877 119.132 102.033 119.132 102.033C119.132 102.033 123.538 105.807 132.66 107.462C141.783 109.118 144.646 107.873 144.646 107.873C144.646 107.873 145.056 101.009 145.363 99.2642C145.67 97.5189 149.976 88.0943 149.976 88.0943L151.104 100.292C151.104 100.292 153.665 101.83 155 102.75C156.335 103.67 159.302 105.519 159.302 105.519C159.302 105.519 157.457 89.0094 156.74 84.6132C156.023 80.217 156.127 79.0802 154.075 77.3349C152.023 75.5896 144.547 73.8538 144.547 73.8538L128.778 67.75Z" fill="white" stroke="#263238" stroke-width="0.5" stroke-linecap="round" stroke-linejoin="round"/>
<path d="M126.415 40.2453C126.984 39.5083 127.803 39.0049 128.717 38.8302C130.156 38.6132 134.113 39.1179 134.113 39.1179C134.486 38.316 134.93 37.5489 135.439 36.8255" stroke="#263238" stroke-width="0.5" stroke-linecap="round" stroke-linejoin="round"/>
<path d="M133.321 34.7783C133.321 34.7783 131.882 36.1934 131.811 36.934" stroke="#263238" stroke-width="0.5" stroke-linecap="round" stroke-linejoin="round"/>
<path d="M134.17 35.4953C133.481 36.1273 132.92 36.8844 132.514 37.7264" stroke="#263238" stroke-width="0.5" stroke-linecap="round" stroke-linejoin="round"/>
<path d="M135.193 36.5047C135.193 36.5047 133.033 37.8726 133.104 38.5189L130.929 36.3915" stroke="#263238" stroke-width="0.5" stroke-linecap="round" stroke-linejoin="round"/>
<path d="M154.09 77.3821C152.042 75.6415 144.561 73.9009 144.561 73.9009L128.778 67.7689C128.778 67.7689 127.25 67.1509 125.637 66.4858L126.156 77.6321L127.038 78.4292C127.038 78.4292 125.292 83.2453 125.292 85.3962C125.292 87.5472 125.604 90.2123 125.396 91.033C125.189 91.8538 119.146 102.099 119.146 102.099C119.146 102.099 123.552 105.873 132.675 107.528C141.797 109.184 144.66 107.939 144.66 107.939C144.66 107.939 145.071 101.075 145.377 99.3302C145.684 97.5849 149.991 88.1604 149.991 88.1604L150.184 90.2311L156.627 83.8632C156.042 80.1038 156.009 79.0141 154.09 77.3821Z" fill="white" stroke="#263238" stroke-width="0.5" stroke-linecap="round" stroke-linejoin="round"/>
<path d="M127.038 78.4104L128.792 72.4764" stroke="#263238" stroke-width="0.5" stroke-linecap="round" stroke-linejoin="round"/>
<path d="M127.377 77.4575V72.0613" stroke="#263238" stroke-width="0.5" stroke-linecap="round" stroke-linejoin="round"/>
<path d="M148.722 84.7641L149.991 88.1462L148.222 85.9245" fill="white"/>
<path d="M148.722 84.7641L149.991 88.1462L148.222 85.9245" stroke="#263238" stroke-width="0.5" stroke-linecap="round" stroke-linejoin="round"/>
<path d="M138.17 95.2924L139.17 95.8915" stroke="#263238" stroke-width="0.5" stroke-linecap="round" stroke-linejoin="round"/>
<path d="M129.288 89.9953L137.476 94.8821" stroke="#263238" stroke-width="0.5" stroke-linecap="round" stroke-linejoin="round"/>
<path d="M129.373 91.3255L134.189 94.1462" stroke="#263238" stroke-width="0.5" stroke-linecap="round" stroke-linejoin="round"/>
<path d="M133.085 52.0283C133.085 52.0283 130.806 52.4292 127.854 55.3821C124.901 58.3349 124.637 59.5377 125.174 60.2075C125.712 60.8774 126.382 64.7689 128.122 67.5849C129.863 70.4009 133.49 72.1698 133.49 72.1698C133.957 73.2376 134.677 74.175 135.589 74.9002C136.501 75.6254 137.576 76.1164 138.722 76.3302C139.805 76.5452 140.924 76.4851 141.978 76.1555C143.032 75.8259 143.987 75.2372 144.755 74.4434C144.755 74.4434 142.608 70.9528 142.075 67.8679C141.542 64.783 141.269 59.283 141.269 59.283L140.599 55.6604C140.599 55.6604 135.231 55.783 133.085 52.0283Z" fill="white" stroke="#263238" stroke-width="0.5" stroke-linecap="round" stroke-linejoin="round"/>
<path d="M135.292 74.6321C137.755 72.0283 139.538 66.1038 139.538 66.1038C137.207 70.8915 133.49 72.1698 133.49 72.1698C133.911 73.1081 134.525 73.9472 135.292 74.6321Z" fill="#263238" stroke="#263238" stroke-width="0.5" stroke-linecap="round" stroke-linejoin="round"/>
<path d="M129.467 58.8679L130.538 64.3679L132.014 63.9623" stroke="#263238" stroke-width="0.5" stroke-linecap="round" stroke-linejoin="round"/>
<path d="M131.613 66.6462C131.613 66.6462 135.505 66.6462 135.505 63" stroke="#263238" stroke-width="0.5" stroke-linecap="round" stroke-linejoin="round"/>
<path d="M134.891 62.8538H136.382" stroke="#263238" stroke-width="0.5" stroke-linecap="round" stroke-linejoin="round"/>
<path d="M132.651 60.0047C133.115 60.0869 133.591 60.0688 134.048 59.9516C134.504 59.8345 134.93 59.621 135.297 59.3255" stroke="#263238" stroke-width="0.5" stroke-linecap="round" stroke-linejoin="round"/>
<path d="M127.094 62.1792C127.094 62.1792 128.108 62.5142 129.127 61.1604" stroke="#263238" stroke-width="0.5" stroke-linecap="round" stroke-linejoin="round"/>
<path d="M131.703 57.3585C131.703 57.3585 132.514 56.1368 134.486 56.9528" stroke="#263238" stroke-width="0.5" stroke-linecap="round" stroke-linejoin="round"/>
<path d="M128.646 58.6509C128.646 58.6509 127.358 58.4434 126.547 60.2075" stroke="#263238" stroke-width="0.5" stroke-linecap="round" stroke-linejoin="round"/>
<path d="M141.203 55.3774C140.597 53.5832 139.66 51.9191 138.439 50.4717C137.498 49.4171 136.498 48.4171 135.443 47.4764C135.443 47.4764 138.325 48.4198 139.877 49.9528C141.429 51.4858 142.297 55.0802 142.297 55.0802L141.203 55.3774Z" fill="white" stroke="#263238" stroke-width="0.5" stroke-linecap="round" stroke-linejoin="round"/>
<path d="M141.075 61.7924C141.075 61.7924 141.722 67.7877 139.778 73.4575C137.835 79.1274 133.137 83.9623 132.491 84.9481C131.844 85.934 122.769 104.877 129.085 105.038C135.401 105.198 140.774 96.4528 140.774 96.4528" stroke="#263238" stroke-width="0.5" stroke-linecap="round" stroke-linejoin="round"/>
<path d="M130.222 70.0472C130.222 70.0472 130.056 81.2217 132.49 84.9481" stroke="#263238" stroke-width="0.5" stroke-linecap="round" stroke-linejoin="round"/>
<path d="M142.633 62.2588C144.415 61.8107 145.429 59.7394 144.899 57.6324C144.369 55.5254 142.495 54.1805 140.714 54.6285C138.933 55.0766 137.919 57.1479 138.449 59.2549C138.979 61.3619 140.852 62.7068 142.633 62.2588Z" fill="white" stroke="#263238" stroke-width="0.5" stroke-linecap="round" stroke-linejoin="round"/>
<path d="M149.302 85.6462L140.604 95.8443L141.325 96.684L150.141 86.1887L149.302 85.6462Z" fill="#263238" stroke="#263238" stroke-width="0.5" stroke-linecap="round" stroke-linejoin="round"/>
<path d="M159.675 104.42C159.377 103.703 158.84 102.274 158.84 102.274C158.84 102.274 147.953 96.5849 147.849 96.2264C147.745 95.8679 147.123 95.0189 147.486 94.1698C147.849 93.3207 148.575 89.5755 148.575 89.5755C148.575 89.5755 146.156 87.2783 145.792 87.1557C145.429 87.033 144.825 88.2453 144.825 88.2453C144.825 88.2453 144.632 88.4623 144.415 88.75C143.821 89.184 142.41 90.2453 142.41 90.5896C142.41 91.0236 142.986 90.8302 143.321 90.783C143.678 90.7065 144.029 90.6056 144.373 90.4811C144.766 90.6168 145.117 90.8525 145.391 91.1651L145.792 91.6368C145.792 91.6368 144.104 90.7547 143.203 90.934C143.086 90.949 142.974 90.988 142.874 91.0484C142.773 91.1089 142.687 91.1895 142.619 91.2853C142.551 91.381 142.504 91.4897 142.48 91.6046C142.456 91.7195 142.457 91.8381 142.481 91.9528L142.604 92.316C142.604 92.316 141.104 93.1557 141.104 93.6934C141.104 94.2311 142.047 93.6321 142.722 93.5755C143.396 93.5189 143.665 93.5141 143.665 93.5141C143.665 93.5141 143.123 96.5141 144.203 97.533C144.764 98.1054 145.467 98.5188 146.241 98.7311C146.241 98.7311 152.722 105.991 154.458 107.608C156.193 109.226 158.476 110.368 159.198 109.349C159.92 108.33 159.976 105.142 159.675 104.42Z" fill="white" stroke="#263238" stroke-width="0.5" stroke-linecap="round" stroke-linejoin="round"/>
<path d="M142.585 92.3066C142.883 92.1738 143.202 92.0924 143.528 92.066C143.939 92.0917 144.327 92.2622 144.625 92.5472C144.922 92.8321 145.108 93.2132 145.151 93.6226" stroke="#263238" stroke-width="0.5" stroke-linecap="round" stroke-linejoin="round"/>
<path d="M144.698 88.6792C144.698 88.6792 146.962 89.4434 147.203 90.1651C147.353 90.7115 147.413 91.2786 147.382 91.8443" stroke="#263238" stroke-width="0.5" stroke-linecap="round" stroke-linejoin="round"/>
<path d="M145.773 91.6274C146.021 92.0061 146.144 92.4534 146.122 92.9057" stroke="#263238" stroke-width="0.5" stroke-linecap="round" stroke-linejoin="round"/>
</g>
<defs>
<clipPath id="clip0_616_3475">
<rect width="226.887" height="200" fill="white" transform="translate(12)"/>
</clipPath>
</defs>
</svg>
