<svg width="250" height="200" viewBox="0 0 250 200" fill="none" xmlns="http://www.w3.org/2000/svg">
<rect width="250" height="200" fill="white"/>
<g clip-path="url(#clip0_616_920)">
<path d="M209.425 15.4533C209.425 15.4533 187.924 -4.74241 156.69 1.32953C125.456 7.40147 110.18 31.9597 90.983 48.2245C80.9347 56.7425 67.1089 59.1597 55.553 65.4504C18.604 85.5482 18.6326 136.604 43.4526 157.617C64.9364 175.81 93.6886 179.586 132.564 170.032C171.439 160.478 199.113 155.068 225.997 121.721C252.88 88.3741 235.684 42.6648 209.425 15.4533Z" fill="#8185E7"/>
<path opacity="0.75" d="M209.425 15.4533C209.425 15.4533 187.924 -4.74241 156.69 1.32953C125.456 7.40147 110.18 31.9597 90.983 48.2245C80.9347 56.7425 67.1089 59.1597 55.553 65.4504C18.604 85.5482 18.6326 136.604 43.4526 157.617C64.9364 175.81 93.6886 179.586 132.564 170.032C171.439 160.478 199.113 155.068 225.997 121.721C252.88 88.3741 235.684 42.6648 209.425 15.4533Z" fill="white"/>
<path d="M220.437 66.6417C217.484 65.0244 216.137 66.377 215.066 65.0244C213.994 63.6719 218.018 60.1726 209.958 56.6618C209.958 56.6618 209.425 49.1108 198.408 48.8403C187.391 48.5698 190.349 56.4029 187.408 58.2849C184.468 60.1669 183.642 57.2029 180.69 59.0906C177.738 60.9784 179.08 64.7539 176.678 65.2949C174.276 65.8359 171.037 62.8662 168.08 64.7539C165.122 66.6417 165.128 68.2647 163.781 68.2647C162.434 68.2647 159.768 67.1827 158.14 68.2647C156.512 69.3467 154.649 70.6878 154.649 70.6878H222.586C222.586 70.6878 223.394 68.2647 220.437 66.6417Z" fill="#8185E7"/>
<g opacity="0.5">
<path d="M220.437 66.6417C217.484 65.0244 216.137 66.377 215.066 65.0244C213.994 63.6719 218.018 60.1726 209.958 56.6618C209.958 56.6618 209.425 49.1108 198.408 48.8403C187.391 48.5698 190.349 56.4029 187.408 58.2849C184.468 60.1669 183.642 57.2029 180.69 59.0906C177.738 60.9784 179.08 64.7539 176.678 65.2949C174.276 65.8359 171.037 62.8662 168.08 64.7539C165.122 66.6417 165.128 68.2647 163.781 68.2647C162.434 68.2647 159.768 67.1827 158.14 68.2647C156.512 69.3467 154.649 70.6878 154.649 70.6878H222.586C222.586 70.6878 223.394 68.2647 220.437 66.6417Z" fill="white"/>
</g>
<path d="M176.168 147.799C171.393 145.18 169.22 147.361 167.489 145.18C165.758 142.999 172.258 137.335 159.241 131.672C159.241 131.672 158.369 119.471 140.577 119.01C122.785 118.55 127.554 131.212 122.779 134.262C118.004 137.312 116.703 132.535 111.934 135.574C107.165 138.613 109.326 144.748 105.439 145.612C101.553 146.475 96.3254 141.692 91.5506 144.742C86.7757 147.793 86.7757 150.406 84.6033 150.406C82.4308 150.406 78.0916 148.679 75.4893 150.406C72.8869 152.132 69.8489 154.331 69.8489 154.331H179.641C179.641 154.331 180.942 150.412 176.168 147.799Z" fill="#8185E7"/>
<g opacity="0.5">
<path d="M176.168 147.799C171.393 145.18 169.22 147.361 167.489 145.18C165.758 142.999 172.258 137.335 159.241 131.672C159.241 131.672 158.369 119.471 140.577 119.01C122.785 118.55 127.554 131.212 122.779 134.262C118.004 137.312 116.703 132.535 111.934 135.574C107.165 138.613 109.326 144.748 105.439 145.612C101.553 146.475 96.3254 141.692 91.5506 144.742C86.7757 147.793 86.7757 150.406 84.6033 150.406C82.4308 150.406 78.0916 148.679 75.4893 150.406C72.8869 152.132 69.8489 154.331 69.8489 154.331H179.641C179.641 154.331 180.942 150.412 176.168 147.799Z" fill="white"/>
</g>
<path d="M70.3533 97.0647C68.7197 96.1669 67.9745 96.9151 67.3784 96.1669C66.7822 95.4187 69.012 93.4791 64.5524 91.5626C64.5524 91.5626 64.2544 87.3784 58.1554 87.2288C52.0565 87.0791 53.6959 91.4129 52.0622 92.4547C50.4286 93.4964 49.9757 91.8791 48.3421 92.9036C46.7085 93.928 47.4479 96.0403 46.1123 96.3568C44.7767 96.6734 42.9883 95.0158 41.3547 96.0575C39.721 97.0993 39.7153 97.9568 38.9472 97.9568C38.1791 97.9568 36.7174 97.3813 35.829 97.9568C34.9405 98.5324 33.8915 99.3036 33.8915 99.3036H71.5227C71.5227 99.3036 71.987 97.9568 70.3533 97.0647Z" fill="#8185E7"/>
<g opacity="0.5">
<path d="M70.3533 97.0647C68.7197 96.1669 67.9745 96.9151 67.3784 96.1669C66.7822 95.4187 69.012 93.4791 64.5524 91.5626C64.5524 91.5626 64.2544 87.3784 58.1554 87.2288C52.0565 87.0791 53.6959 91.4129 52.0622 92.4547C50.4286 93.4964 49.9757 91.8791 48.3421 92.9036C46.7085 93.928 47.4479 96.0403 46.1123 96.3568C44.7767 96.6734 42.9883 95.0158 41.3547 96.0575C39.721 97.0993 39.7153 97.9568 38.9472 97.9568C38.1791 97.9568 36.7174 97.3813 35.829 97.9568C34.9405 98.5324 33.8915 99.3036 33.8915 99.3036H71.5227C71.5227 99.3036 71.987 97.9568 70.3533 97.0647Z" fill="white"/>
</g>
<path d="M79.1347 184.858C79.1347 184.858 83.3765 176.063 80.2812 170.227C77.1858 164.391 73.3052 169.836 67.8826 162.832C62.4601 155.827 62.4601 148.052 57.8056 147.292C53.1512 146.532 50.4456 148.443 46.9605 147.292C43.4754 146.141 47.7344 136.012 40.3686 133.675C33.0029 131.338 28.3312 137.18 23.3214 131.73C18.3116 126.279 10.9229 123.948 10.5331 126.676C10.1433 129.404 16.3455 129.007 18.6727 132.898C20.9999 136.788 27.9701 143.793 27.9701 151.183C27.9701 158.573 34.5563 155.073 39.2107 157.019C43.8652 158.964 43.4697 163.246 43.8595 169.105C44.2493 174.964 54.3205 169.105 55.8969 171.827C57.4732 174.55 53.9594 175.332 55.123 181.554C56.2866 187.776 67.6763 188.081 67.6763 188.081" fill="#2F2E41"/>
<path d="M79.1347 184.858C79.1347 184.858 83.3765 176.063 80.2812 170.227C77.1858 164.391 73.3052 169.836 67.8826 162.832C62.4601 155.827 62.4601 148.052 57.8056 147.292C53.1512 146.532 50.4456 148.443 46.9605 147.292C43.4754 146.141 47.7344 136.012 40.3686 133.675C33.0029 131.338 28.3312 137.18 23.3214 131.73C18.3116 126.279 10.9229 123.948 10.5331 126.676C10.1433 129.404 16.3455 129.007 18.6727 132.898C20.9999 136.788 27.9701 143.793 27.9701 151.183C27.9701 158.573 34.5563 155.073 39.2107 157.019C43.8652 158.964 43.4697 163.246 43.8595 169.105C44.2493 174.964 54.3205 169.105 55.8969 171.827C57.4732 174.55 53.9594 175.332 55.123 181.554C56.2866 187.776 67.6763 188.081 67.6763 188.081" stroke="#2F2E41" stroke-width="0.8" stroke-linecap="round" stroke-linejoin="round"/>
<path d="M71.7518 186.176C71.7518 186.176 63.5951 167.114 51.6036 155.05C39.612 142.987 31.4553 142.21 26.4168 137.934" stroke="white" stroke-width="0.8" stroke-linecap="round" stroke-linejoin="round"/>
<path d="M33.4042 150.015L42.736 147.96L38.8668 139.05" stroke="white" stroke-width="0.8" stroke-linecap="round" stroke-linejoin="round"/>
<path d="M49.7921 163.269L57.9431 162.74L57.3011 155.73" stroke="white" stroke-width="0.8" stroke-linecap="round" stroke-linejoin="round"/>
<path d="M62.3053 179.039L68.9087 180.178L70.0436 170.584" stroke="white" stroke-width="0.8" stroke-linecap="round" stroke-linejoin="round"/>
<path d="M46.9719 124C46.9719 124 43.8307 124.42 40.4717 116.42C37.7089 109.83 41.4806 104.53 42.9021 102.855C42.9574 102.79 43.0274 102.74 43.1061 102.708C43.1849 102.677 43.27 102.665 43.3544 102.673C43.4388 102.682 43.5199 102.71 43.5908 102.757C43.6618 102.804 43.7205 102.867 43.7619 102.941C44.8568 104.915 48.0954 111.027 48.4451 114.521C48.8635 118.734 46.9719 124 46.9719 124Z" fill="#8185E7"/>
<path d="M78.6532 151.591C78.6532 151.591 76.7616 149.911 76.3603 146.331C75.9591 142.751 78.8767 135.799 80.5562 136.852C82.2357 137.905 82.8491 145.698 82.2357 148.432C81.6224 151.165 78.6532 151.591 78.6532 151.591Z" fill="#8185E7"/>
<path d="M88.7246 163.81C88.7246 163.81 86.833 162.124 86.4318 158.544C86.0305 154.964 88.9482 148.012 90.6277 149.065C92.3072 150.118 92.9205 157.911 92.3072 160.65C91.6938 163.39 88.7246 163.81 88.7246 163.81Z" fill="#8185E7"/>
<path d="M94.0151 172.115C94.0151 172.115 93.1954 169.715 94.5883 166.389C95.9812 163.062 101.937 158.463 102.883 160.207C103.828 161.951 100.59 169.047 98.6753 171.142C96.7608 173.237 94.0151 172.115 94.0151 172.115Z" fill="#8185E7"/>
<path d="M80.2182 160C80.2182 160 78.4355 161.796 74.853 162.02C71.2704 162.245 64.5352 158.906 65.6817 157.283C66.8281 155.66 74.6065 155.465 77.2949 156.248C79.9832 157.03 80.2182 160 80.2182 160Z" fill="#8185E7"/>
<path d="M88.7246 173.082C88.7246 173.082 86.9419 174.878 83.3593 175.096C79.7768 175.315 73.0416 171.989 74.188 170.365C75.3344 168.742 83.1128 168.547 85.8012 169.329C88.4895 170.112 88.7246 173.082 88.7246 173.082Z" fill="#8185E7"/>
<path d="M65.8534 137.479C65.8534 137.479 63.7555 137.479 62.5002 132.426C61.2448 127.373 63.7555 121.894 65.0165 122.947C66.2776 124 68.794 130.532 68.3755 133.692C67.9571 136.852 65.8534 137.479 65.8534 137.479Z" fill="#8185E7"/>
<path d="M53.4779 136.219C53.2581 135.171 52.7774 134.197 52.0807 133.387C51.384 132.576 50.4941 131.957 49.4941 131.586C45.923 130.106 39.4228 132.006 39.4228 132.846C39.4228 133.686 42.1513 136.219 46.972 137.272C51.7927 138.325 53.4779 136.219 53.4779 136.219Z" fill="#8185E7"/>
<path d="M68.5821 149.485C68.5821 149.485 68.3757 147.804 64.1799 145.456C59.984 143.108 55.3352 144.484 55.5817 145.393C55.8282 146.302 60.0069 148.403 63.5723 149.882C67.1376 151.361 68.5821 149.485 68.5821 149.485Z" fill="#8185E7"/>
<path d="M52.8474 128.213C52.8474 128.213 50.9616 126.527 50.5546 122.947C50.1476 119.367 53.071 112.414 54.7505 113.468C56.43 114.521 57.0433 122.314 56.4242 125.053C55.8052 127.793 52.8474 128.213 52.8474 128.213Z" fill="#8185E7"/>
<path d="M93.3618 181.761C93.3618 181.761 95.5056 176.38 84.7637 162.038C74.0218 147.695 47.2587 133.347 44.0659 116.132" stroke="#2F2E41" stroke-width="0.8" stroke-linecap="round" stroke-linejoin="round"/>
<path d="M58.3043 137.059L46.1351 134.319" stroke="#2F2E41" stroke-width="0.8" stroke-linecap="round" stroke-linejoin="round"/>
<path d="M66.4839 144.645L64.8044 130.953" stroke="#2F2E41" stroke-width="0.8" stroke-linecap="round" stroke-linejoin="round"/>
<path d="M74.8757 151.804L62.0817 147.384" stroke="#2F2E41" stroke-width="0.8" stroke-linecap="round" stroke-linejoin="round"/>
<path d="M52.6411 131.373L53.2659 121.26" stroke="#2F2E41" stroke-width="0.8" stroke-linecap="round" stroke-linejoin="round"/>
<path d="M78.4411 154.751L79.0716 144.645" stroke="#2F2E41" stroke-width="0.8" stroke-linecap="round" stroke-linejoin="round"/>
<path d="M88.5125 166.97L89.1431 156.858" stroke="#2F2E41" stroke-width="0.8" stroke-linecap="round" stroke-linejoin="round"/>
<path d="M92.2899 174.763L97.7869 166.268" stroke="#2F2E41" stroke-width="0.8" stroke-linecap="round" stroke-linejoin="round"/>
<path d="M83.3592 160.403L73.3396 159.206" stroke="#2F2E41" stroke-width="0.8" stroke-linecap="round" stroke-linejoin="round"/>
<path d="M91.8544 173.468L81.8347 172.271" stroke="#2F2E41" stroke-width="0.8" stroke-linecap="round" stroke-linejoin="round"/>
<path d="M203.521 185.997C203.521 185.997 209.861 181.024 209.683 175.557C209.505 170.089 204.645 172.714 203.166 165.531C201.687 158.348 204.513 152.576 201.343 150.291C198.173 148.006 195.456 148.46 193.318 146.319C191.18 144.178 197.99 138.233 193.375 133.801C188.761 129.37 183.189 132 181.43 126.112C179.67 120.224 175.056 115.799 173.777 117.681C172.499 119.563 177.245 121.537 177.555 125.278C177.864 129.019 180.501 136.789 177.813 142.25C175.124 147.712 181.286 147.551 184.032 150.699C186.778 153.848 184.932 156.881 183.098 161.353C181.263 165.824 190.847 165.18 191.002 167.77C191.157 170.36 188.291 169.658 186.892 174.705C185.494 179.753 193.834 184.173 193.834 184.173" fill="#2F2E41"/>
<path d="M203.521 185.997C203.521 185.997 209.861 181.024 209.683 175.557C209.505 170.089 204.645 172.714 203.166 165.531C201.687 158.348 204.513 152.576 201.343 150.291C198.173 148.006 195.456 148.46 193.318 146.319C191.18 144.178 197.99 138.233 193.375 133.801C188.761 129.37 183.189 132 181.43 126.112C179.67 120.224 175.056 115.799 173.777 117.681C172.499 119.563 177.245 121.537 177.555 125.278C177.864 129.019 180.501 136.789 177.813 142.25C175.124 147.712 181.286 147.551 184.032 150.699C186.778 153.848 184.932 156.881 183.098 161.353C181.263 165.824 190.847 165.18 191.002 167.77C191.157 170.36 188.291 169.658 186.892 174.705C185.494 179.753 193.834 184.173 193.834 184.173" stroke="#2F2E41" stroke-width="0.8" stroke-linecap="round" stroke-linejoin="round"/>
<path d="M197.56 184.271C197.56 184.271 198.448 167.148 193.914 153.796C189.38 140.443 183.631 136.892 181.447 131.868" stroke="white" stroke-width="0.8" stroke-linecap="round" stroke-linejoin="round"/>
<path d="M182.244 143.396L189.913 145.284L190.28 137.255" stroke="white" stroke-width="0.8" stroke-linecap="round" stroke-linejoin="round"/>
<path d="M189.586 159.229L195.828 161.825L197.898 156.386" stroke="white" stroke-width="0.8" stroke-linecap="round" stroke-linejoin="round"/>
<path d="M193.146 175.517L197.629 178.78L201.956 172.075" stroke="white" stroke-width="0.8" stroke-linecap="round" stroke-linejoin="round"/>
<path d="M211.85 132.34C209.849 129.98 210.291 127.131 211.173 123.741C211.896 120.944 215.306 116.581 218.992 116.098C219.611 116.017 219.622 116.098 219.565 116.564C219.347 119.522 218.637 123.966 217.341 126.4C215.799 129.33 214.097 130.291 211.85 132.34Z" fill="#8185E7"/>
<path d="M221.388 163.787C220.924 162.216 221.422 160.57 221.961 159.131C222.5 157.692 227.24 152.075 228.696 154.204C230.152 156.334 226.535 161.399 225.257 162.866C223.979 164.334 222.855 164.029 221.388 163.787Z" fill="#8185E7"/>
<path d="M223.348 176.691C222.93 175.096 223.446 173.387 224.008 171.942C224.569 170.498 229.31 165.036 230.737 167.188C232.164 169.341 228.542 174.406 227.263 175.862C225.985 177.318 224.81 176.996 223.348 176.691Z" fill="#8185E7"/>
<path d="M223.342 184.904C223.79 183.298 225.108 182.095 226.323 181.122C227.538 180.15 234.348 177.876 234.514 180.455C234.681 183.033 229.006 185.542 227.166 186.153C225.326 186.763 224.472 185.899 223.342 184.904Z" fill="#8185E7"/>
<path d="M219.003 170.36C217.387 170.745 215.765 170.141 214.338 169.537C212.91 168.932 207.792 163.931 209.953 162.63C212.114 161.33 216.928 165.18 218.361 166.452C219.795 167.724 219.33 168.95 219.003 170.36Z" fill="#8185E7"/>
<path d="M219.25 183.211C217.634 183.534 216.011 182.901 214.618 182.227C213.226 181.554 208.216 176.38 210.44 175.119C212.664 173.859 217.381 177.859 218.723 179.24C220.064 180.622 219.646 181.773 219.25 183.211Z" fill="#8185E7"/>
<path d="M218.31 149.37C216.888 148.858 218.012 145.617 218.281 144.558C218.55 143.499 222.838 137.122 224.105 139.379C225.372 141.635 222.89 146.481 221.812 147.914C220.734 149.347 219.731 149.882 218.31 149.37Z" fill="#8185E7"/>
<path d="M210.491 143.545C211.276 141.934 210.864 140.092 209.952 138.601C209.041 137.111 204.346 133.422 202.822 134.872C201.297 136.322 204.616 140.052 205.642 141.203C206.668 142.354 208.726 144.046 210.491 143.545Z" fill="#8185E7"/>
<path d="M214.991 158.44C215.593 157.042 214.091 155.079 213.604 153.991C213.116 152.904 208.835 148.662 207.872 150.354C206.909 152.046 210.382 155.378 211.225 156.65C212.067 157.922 213.569 158.791 214.991 158.44Z" fill="#8185E7"/>
<path d="M213.868 137.922C213.535 136.305 214.143 134.665 214.802 133.255C215.461 131.845 220.534 126.786 221.852 129.007C223.171 131.229 219.187 135.977 217.84 137.335C216.493 138.694 215.306 138.291 213.868 137.922Z" fill="#8185E7"/>
<path d="M218.528 191.827C222.059 183.77 222.5 183.638 221.107 172.374C219.714 161.111 207.218 139.615 213.713 126.095" stroke="#2F2E41" stroke-width="0.8" stroke-linecap="round" stroke-linejoin="round"/>
<path d="M213.34 146.13C210.944 143.787 208.686 141.324 206.433 138.849" stroke="#2F2E41" stroke-width="0.8" stroke-linecap="round" stroke-linejoin="round"/>
<path d="M215.581 154.371C217.192 151.096 218.906 147.879 220.545 144.622" stroke="#2F2E41" stroke-width="0.8" stroke-linecap="round" stroke-linejoin="round"/>
<path d="M218.602 162.383C216.223 159.666 213.673 157.111 211.3 154.383" stroke="#2F2E41" stroke-width="0.8" stroke-linecap="round" stroke-linejoin="round"/>
<path d="M212.234 139.943L217.433 133.41" stroke="#2F2E41" stroke-width="0.8" stroke-linecap="round" stroke-linejoin="round"/>
<path d="M219.921 165.905C221.48 163.603 223.056 161.33 224.604 159.027" stroke="#2F2E41" stroke-width="0.8" stroke-linecap="round" stroke-linejoin="round"/>
<path d="M221.801 178.837C223.446 176.535 225.034 174.233 226.621 171.931" stroke="#2F2E41" stroke-width="0.8" stroke-linecap="round" stroke-linejoin="round"/>
<path d="M220.958 185.98C223.511 184.829 226.058 183.649 228.599 182.44" stroke="#2F2E41" stroke-width="0.8" stroke-linecap="round" stroke-linejoin="round"/>
<path d="M221.044 171.966C218.862 170.266 216.655 168.593 214.423 166.947" stroke="#2F2E41" stroke-width="0.8" stroke-linecap="round" stroke-linejoin="round"/>
<path d="M221.228 184.875C219.091 183.102 216.944 181.343 214.785 179.597" stroke="#2F2E41" stroke-width="0.8" stroke-linecap="round" stroke-linejoin="round"/>
<path d="M39.8469 199.246C39.8469 199.246 132.07 149.445 236.698 199.246" stroke="#2F2E41" stroke-width="0.8" stroke-linecap="round" stroke-linejoin="round"/>
<path d="M170.676 182.014C170.676 184.288 157.767 186.135 141.844 186.135C125.92 186.135 113.017 184.288 113.017 182.014C113.017 179.741 125.926 177.893 141.844 177.893C157.762 177.893 170.676 179.741 170.676 182.014Z" fill="#8185E7"/>
<path opacity="0.5" d="M170.676 182.014C170.676 184.288 157.767 186.135 141.844 186.135C125.92 186.135 113.017 184.288 113.017 182.014C113.017 179.741 125.926 177.893 141.844 177.893C157.762 177.893 170.676 179.741 170.676 182.014Z" fill="white"/>
<path d="M147.742 52.5237C150.763 51.8791 152.97 50.9007 152.672 48.1208C152.374 45.341 149.009 43.4877 148.659 42.0662C148.31 40.6446 150.631 38.5093 150.127 35.7928C149.622 33.0762 146.928 30.0374 144.223 30.5208C144.223 30.5208 143.776 31.4187 143.334 29.4906C142.893 27.5626 141.448 25.1741 138.789 26.1007C135.997 27.0733 135.997 28.7021 135.177 28.9784C132.908 29.9446 130.69 31.0301 128.534 32.2302C126.384 33.4215 126.035 37.1568 125.714 38.4633C125.393 39.7698 124.367 40.0805 122.848 39.8215C121.329 39.5626 119.741 39.2805 119.408 40.7769C119.076 42.2733 118.904 43.7122 117.849 43.6259C116.795 43.5395 115.614 41.9683 114.8 43.2921C113.986 44.6158 112.392 47.1597 110.684 46.3769C108.976 45.5942 106.998 42.423 104.253 43.7007C101.507 44.9784 100.986 48.5928 102.052 49.1626C103.118 49.7323 103.645 50.6129 103.387 51.5395C103.129 52.4662 99.885 51.6144 98.8647 53.5827C97.8443 55.551 100.258 57.3295 100.269 58.4C100.28 59.4705 99.6958 60.4489 97.7813 60.9899C95.8668 61.5309 94.5197 63.0561 95.798 64.0575C97.0762 65.059 96.9043 63.8561 97.2196 63.1367C97.5348 62.4172 98.5322 62.2906 99.6901 62.8777C100.848 63.4647 101.547 62.2273 101.547 62.2273C101.547 62.2273 101.381 63.7582 102.694 64.1784C104.006 64.5985 104.218 66.0028 102.694 66.4172C101.169 66.8316 100.114 68.9899 101.255 70.2618C102.396 71.5338 104.201 72.328 107.251 71.4935C110.3 70.659 116.875 65.7381 121.105 68.2475C125.335 70.7568 132.908 70.6877 136.628 69.3985C140.348 68.1093 141.311 64.1669 144.24 63.5108C147.169 62.8546 146.389 61.1568 145.896 59.482C145.403 57.8072 144.721 53.1683 147.742 52.5237ZM149.869 49.7726C150.291 49.3312 150.559 48.7634 150.631 48.1554C150.783 48.2431 150.916 48.3608 151.022 48.5012C151.128 48.6416 151.204 48.802 151.247 48.9728C151.29 49.1436 151.298 49.3213 151.271 49.4953C151.244 49.6693 151.182 49.836 151.09 49.9856C150.488 51.246 148.917 50.7798 148.917 50.7798L149.869 49.7726ZM106.643 47.2403C105.984 47.1251 104.602 49.5424 104.241 48.7712C103.88 48 104.706 44.9554 106.185 44.823C107.663 44.6906 109.217 47.4935 109.217 47.4935C109.022 48.6273 107.302 47.3554 106.643 47.2403ZM138.491 28.9381C138.239 28.8674 137.976 28.8513 137.718 28.891C137.46 28.9307 137.213 29.0253 136.994 29.1683C137.008 28.919 137.073 28.6752 137.185 28.4524C137.297 28.2295 137.454 28.0323 137.646 27.8734C137.837 27.7144 138.06 27.597 138.299 27.5287C138.538 27.4603 138.789 27.4425 139.035 27.4762C140.256 27.6892 140.531 29.4906 140.531 29.4906C139.867 29.2513 139.185 29.0665 138.491 28.9381Z" fill="#2F2E41"/>
<path d="M73.7466 110.245L82.2874 106.112C82.5473 107.247 82.559 108.425 82.3218 109.565C81.9549 111.712 81.3703 114.066 79.4557 114.026C77.5412 113.986 73.7466 110.245 73.7466 110.245Z" fill="#2F2E41" stroke="#2F2E41" stroke-width="0.8" stroke-linecap="round" stroke-linejoin="round"/>
<path d="M102.676 125.249C102.676 125.249 105.835 117.583 106.5 116.414C107.165 115.246 111.997 114.918 111.166 118.883C110.334 122.849 107.612 124.938 105.886 125.214C104.824 125.39 103.742 125.402 102.676 125.249Z" fill="#2F2E41" stroke="#2F2E41" stroke-width="0.8" stroke-linecap="round" stroke-linejoin="round"/>
<path d="M62.5747 77.9625C61.5127 78.9504 60.6335 80.1196 59.9781 81.4158C59.1871 83.2287 58.2585 85.4446 58.2585 85.4446C58.2585 85.4446 67.5387 77.2489 72.5887 76.9208C77.6387 76.5928 78.894 76.6273 78.894 76.6273C78.894 76.6273 72.6346 73.6978 69.2927 74.5956C67.0021 75.2991 64.8441 76.3805 62.9072 77.7956L62.5747 77.9625Z" fill="#2F2E41" stroke="#2F2E41" stroke-width="0.8" stroke-linecap="round" stroke-linejoin="round"/>
<path d="M128.987 64.3971C128.987 64.3971 116.88 67.4071 104.791 69.8359C92.7025 72.2647 81.1007 69.5309 74.3713 71.3036C67.6418 73.0762 62.5746 77.9625 62.5746 77.9625C62.5746 77.9625 68.9659 74.0719 72.8924 77.387C76.8189 80.7021 76.4061 82.8316 73.649 86.8028C70.8919 90.7741 68.4901 96.6733 72.6344 98.8892C76.7787 101.105 80.8313 108.846 80.7969 110.573C80.7625 112.299 80.1893 112.299 80.1893 112.299L73.7293 110.245C73.7293 110.245 77.3863 118.383 85.5775 119.517C93.7686 120.65 97.8499 117.473 103.003 117.79C108.156 118.106 107.87 122.688 107.87 122.688C107.87 122.688 102.871 124.121 102.659 125.266C102.447 126.411 103.949 127.401 109.91 125.801C115.872 124.201 118.835 119.47 121.638 122.406C124.441 125.341 126.103 128.063 129.164 128.127C132.225 128.19 134.203 124.587 138.026 115.649C141.849 106.711 155.658 94.9295 156.254 84.7597C156.85 74.5899 151.193 61.8129 151.193 61.8129L128.987 64.3971Z" fill="#8185E7" stroke="#2F2E41" stroke-width="0.8" stroke-linecap="round" stroke-linejoin="round"/>
<path d="M125.072 68.7309C125.072 68.7309 116.044 70.8431 108.879 75.2978C101.713 79.7525 87.9278 80.9956 84.0701 82.6417C82.1022 83.4229 80.2229 84.4127 78.4641 85.5942" stroke="#2F2E41" stroke-width="0.8" stroke-linecap="round" stroke-linejoin="round"/>
<path d="M80.2181 112.299C83.1391 109.396 85.5362 106.005 87.303 102.279C90.6596 95.2052 96.0503 89.3034 102.78 85.3352C110.134 81.0762 113.768 80.9611 120.549 76.5007" stroke="#2F2E41" stroke-width="0.8" stroke-linecap="round" stroke-linejoin="round"/>
<path d="M107.887 122.67C107.887 122.67 113.046 105.508 117.161 99.6489" stroke="#2F2E41" stroke-width="0.8" stroke-linecap="round" stroke-linejoin="round"/>
<path d="M122.343 162.504C121.685 165.986 120.452 169.333 118.698 172.409C115.717 177.715 114.92 179.234 114.146 179.793C113.372 180.351 111.819 181.283 113.344 181.698C114.868 182.112 119.076 182.198 120.606 181.657C122.137 181.116 121.976 179.96 122.595 177.865C122.718 177.298 123.006 176.781 123.423 176.379C123.839 175.978 124.365 175.709 124.934 175.609L124.802 181.939H125.949L126.442 176.575C126.442 176.575 127.25 174.486 127.089 173.122C126.929 171.758 125.421 170.59 125.421 170.59L127.307 162.763L122.343 162.504Z" fill="#D9D9D9" stroke="#2F2E41" stroke-width="0.8" stroke-linecap="round" stroke-linejoin="round"/>
<path d="M125.949 181.963L126.442 176.599C126.442 176.599 127.25 174.509 127.089 173.145C126.963 172.098 126.035 171.154 125.622 170.786C124.378 172.34 122.859 176.414 120.675 178.187C119.895 178.787 118.985 179.193 118.018 179.373C117.052 179.553 116.058 179.501 115.115 179.223L114.8 179.085C114.617 179.347 114.397 179.579 114.146 179.776C113.372 180.351 111.819 181.266 113.344 181.681C114.868 182.095 119.076 182.181 120.606 181.64C122.137 181.099 121.976 179.942 122.595 177.847C122.718 177.281 123.006 176.764 123.423 176.362C123.839 175.961 124.365 175.692 124.934 175.591L124.802 181.922L125.949 181.963Z" fill="#2F2E41" stroke="#2F2E41" stroke-width="0.8" stroke-linecap="round" stroke-linejoin="round"/>
<path d="M165.082 163.407C165.593 166.914 166.686 170.311 168.315 173.456C171.066 178.883 171.8 180.437 172.551 181.03C173.302 181.623 174.809 182.613 173.273 182.964C171.737 183.315 167.541 183.223 166.022 182.619C164.503 182.014 164.721 180.863 164.188 178.74C164.088 178.169 163.821 177.642 163.422 177.224C163.023 176.806 162.509 176.516 161.946 176.391L161.814 182.722L160.668 182.693L160.399 177.318C160.399 177.318 159.676 175.194 159.894 173.865C160.112 172.535 161.665 171.407 161.665 171.407L160.112 163.505L165.082 163.407Z" fill="#D9D9D9" stroke="#2F2E41" stroke-width="0.8" stroke-linecap="round" stroke-linejoin="round"/>
<path d="M160.668 182.693L160.399 177.318C160.399 177.318 159.676 175.194 159.894 173.865C160.066 172.829 161.041 171.925 161.465 171.562C162.64 173.174 163.987 177.318 166.091 179.171C166.846 179.803 167.739 180.247 168.697 180.467C169.655 180.687 170.651 180.677 171.605 180.437L171.926 180.316C172.097 180.587 172.307 180.829 172.551 181.036C173.302 181.611 174.809 182.619 173.273 182.97C171.737 183.321 167.541 183.229 166.022 182.624C164.503 182.02 164.721 180.869 164.188 178.745C164.088 178.175 163.821 177.647 163.422 177.229C163.023 176.811 162.509 176.522 161.946 176.397L161.814 182.728L160.668 182.693Z" fill="#2F2E41" stroke="#2F2E41" stroke-width="0.8" stroke-linecap="round" stroke-linejoin="round"/>
<path d="M134.467 89.2431C134.467 89.2431 126.551 107.522 125.45 114.601C124.349 121.68 120.784 164.029 120.784 164.029L128.419 164.386L139.763 115.683L141.861 106.705L159.527 166.371L166.039 165.934C166.039 165.934 159.16 120.886 156.506 110.106C154.662 102.906 152.312 95.8453 149.473 88.9783L134.467 89.2431Z" fill="#2F2E41" stroke="#2F2E41" stroke-width="0.8" stroke-linecap="round" stroke-linejoin="round"/>
<path d="M137.86 49.9108C137.86 49.9108 137.889 58.3712 137.86 59.4014C137.831 60.4316 128.368 63.223 128.368 63.223L134.495 89.2432C134.495 89.2432 142.52 89.928 149.502 88.9439L154.088 61.1914L145.489 59.4647L145.833 52.6676C145.833 52.6676 140.405 52.5468 137.86 49.9108Z" fill="#D9D9D9" stroke="#2F2E41" stroke-width="0.8" stroke-linecap="round" stroke-linejoin="round"/>
<path d="M148.43 60.0575C147.805 62.4114 145.764 68.3222 141.07 67.7237C137.011 67.2057 134.535 63.1884 133.664 61.4963C131.107 62.4114 128.327 63.2229 128.327 63.2229L134.455 89.2431C134.455 89.2431 142.48 89.928 149.462 88.9438L154.047 61.1913L148.43 60.0575Z" fill="white" stroke="#2F2E41" stroke-width="0.8" stroke-linecap="round" stroke-linejoin="round"/>
<path d="M135.384 60.1783C135.384 60.1783 137.677 72.7078 138.25 79.7467C138.823 86.7855 138.823 91.62 138.697 92.5467C138.571 93.4733 132.306 118.095 132.306 118.095L121.415 113.324L132.403 88.9035C132.403 88.9035 126.098 65.151 126.138 64.3222C126.178 63.4934 135.384 60.1783 135.384 60.1783Z" fill="#707070" stroke="#2F2E41" stroke-width="0.8" stroke-linecap="round" stroke-linejoin="round"/>
<path d="M133.315 61.059L132.294 70.5266L134.587 72.3338L132.867 75.39L138.6 90.354C138.6 90.354 138.548 83.0274 138.135 78.1698C137.722 73.3123 135.326 60.1669 135.326 60.1669L133.315 61.059Z" stroke="#2F2E41" stroke-width="0.8" stroke-linecap="round" stroke-linejoin="round"/>
<path d="M146.802 59.5914C146.802 59.5914 145.22 91.1252 145.208 91.4303C145.197 91.7353 153.807 118.02 153.807 118.02L162.29 115.309L151.049 87.9482C151.049 87.9482 156.415 62.2677 156.323 61.7554C156.231 61.2432 146.802 59.5914 146.802 59.5914Z" fill="#707070" stroke="#2F2E41" stroke-width="0.8" stroke-linecap="round" stroke-linejoin="round"/>
<path d="M149.261 60.2648L150.396 71.131L147.541 72.731L150.218 75.0389L145.208 91.4302L146.802 59.5914L149.261 60.2648Z" fill="#707070" stroke="#2F2E41" stroke-width="0.8" stroke-linecap="round" stroke-linejoin="round"/>
<path d="M146.813 38.4287C146.792 38.3194 146.763 38.2118 146.727 38.1064C146.527 37.4848 145.931 36.2359 144.435 36.9553C142.503 37.8762 141.408 39.9654 139.969 40.2244C139.368 40.3504 138.759 40.4331 138.146 40.4719C138.146 40.4719 135.94 45.3237 134.868 46.164C134.12 46.7056 133.266 47.0804 132.363 47.2632C132.363 47.2632 132.672 50.6301 133.618 51.1309C133.925 51.2671 134.26 51.3247 134.594 51.2986C134.928 51.2725 135.251 51.1634 135.533 50.9812C135.533 50.9812 138.238 54.3021 140.038 55.1999C141.838 56.0978 143.838 56.351 144.899 55.7755C145.959 55.1999 149.003 51.7467 149.043 49.8129C149.083 47.8791 148.229 43.0733 148.074 41.1798C148.07 40.6577 147.955 40.1426 147.738 39.6683C147.521 39.1941 147.205 38.7716 146.813 38.4287Z" fill="#D9D9D9" stroke="#2F2E41" stroke-width="0.8" stroke-linecap="round" stroke-linejoin="round"/>
<path d="M140.629 36.8345C140.629 36.8345 140.91 37.0301 140.514 37.6978C140.184 38.1891 139.789 38.6326 139.339 39.0158C139.339 39.0158 141.253 38.8661 142.05 37.4388C142.847 36.0114 141.798 35.8273 140.629 36.8345Z" fill="white"/>
<path d="M141.144 43.6316C141.23 44.1266 141.07 44.5697 140.783 44.6215C140.497 44.6733 140.21 44.3107 140.113 43.8158C140.015 43.3208 140.187 42.8776 140.474 42.8258C140.76 42.774 141.058 43.1654 141.144 43.6316Z" fill="#2F2E41"/>
<path d="M146.04 42.9698C146.126 43.4648 145.959 43.9079 145.673 43.9597C145.386 44.0115 145.1 43.6432 145.002 43.1482C144.905 42.6532 145.077 42.2101 145.363 42.1583C145.65 42.1065 145.948 42.4691 146.04 42.9698Z" fill="#2F2E41"/>
<path d="M138.989 42.1064L141.775 41.4906" stroke="#2F2E41" stroke-width="0.8" stroke-linecap="round" stroke-linejoin="round"/>
<path d="M144.182 40.6791C144.182 40.6791 145.077 39.1597 146.309 39.5683" stroke="#2F2E41" stroke-width="0.8" stroke-linecap="round" stroke-linejoin="round"/>
<path d="M144.102 49.0302C144.102 49.0302 140.933 49.6346 140.09 47.7928" stroke="#2F2E41" stroke-width="0.8" stroke-linecap="round" stroke-linejoin="round"/>
<path d="M144.589 44.6906C144.589 44.6906 145.1 46.4748 143.489 46.6474" stroke="#2F2E41" stroke-width="0.8" stroke-linecap="round" stroke-linejoin="round"/>
<path d="M158.014 93.3525C158.014 93.3525 153.211 96.9669 153.193 97.8935C153.176 98.8201 154.07 100.196 154.368 100.495C154.666 100.794 155.578 101.646 155.578 101.646C155.578 101.646 158.054 101.07 157.974 100.046C157.894 99.0216 157.601 98.9928 157.601 98.9928L159.625 95.5395L158.014 93.3525Z" fill="#D9D9D9" stroke="#2F2E41" stroke-width="0.8" stroke-linecap="round" stroke-linejoin="round"/>
<path d="M157.584 99.0159L156.432 100.127" stroke="#2F2E41" stroke-width="0.8" stroke-linecap="round" stroke-linejoin="round"/>
<path d="M153.669 70.1583L165.443 82.0604L157.298 93.0302L159.906 96.0748C159.906 96.0748 172.929 82.5266 172.952 81.3928C172.975 80.259 158.444 62.9353 157.533 62.2964C156.621 61.6576 154.575 61.3007 154.575 61.3007" fill="#707070"/>
<path d="M153.669 70.1583L165.443 82.0604L157.298 93.0302L159.906 96.0748C159.906 96.0748 172.929 82.5266 172.952 81.3928C172.975 80.259 158.444 62.9353 157.533 62.2964C156.621 61.6576 154.575 61.3007 154.575 61.3007" stroke="#2F2E41" stroke-width="0.8" stroke-linecap="round" stroke-linejoin="round"/>
<path d="M126.287 92.8058C126.287 92.8058 131.411 95.9367 131.52 96.8345C131.629 97.7324 130.873 99.2 130.603 99.5396C130.334 99.8791 129.514 100.835 129.514 100.835C129.514 100.835 126.998 100.512 126.975 99.4763C126.952 98.4403 127.261 98.4058 127.261 98.4058L124.928 95.154L126.287 92.8058Z" fill="#D9D9D9" stroke="#2F2E41" stroke-width="0.8" stroke-linecap="round" stroke-linejoin="round"/>
<path d="M127.256 98.4057L128.511 99.3957" stroke="#2F2E41" stroke-width="0.8" stroke-linecap="round" stroke-linejoin="round"/>
<path d="M130.122 71.2058L118.285 82.095L126.963 92.4144L124.67 95.7007C124.67 95.7007 110.879 83.2921 110.747 82.164C110.615 81.036 125.651 63.7871 126.596 63.1712C127.542 62.5554 129.594 62.3079 129.594 62.3079" fill="#707070"/>
<path d="M130.122 71.2058L118.285 82.095L126.963 92.4144L124.67 95.7007C124.67 95.7007 110.879 83.2921 110.747 82.164C110.615 81.036 125.651 63.7871 126.596 63.1712C127.542 62.5554 129.594 62.3079 129.594 62.3079" stroke="#2F2E41" stroke-width="0.8" stroke-linecap="round" stroke-linejoin="round"/>
<path d="M136.261 65.5424C136.261 65.5424 137.934 61.3295 137.699 59.9942C137.464 58.659 135.206 59.0101 133.87 59.5165C132.535 60.023 130.643 61.9741 130.643 61.9741C130.643 61.9741 134.22 61.7784 134.753 61.5252C135.286 61.2719 136.14 65.036 136.261 65.5424Z" fill="#8185E7" stroke="#2F2E41" stroke-width="0.8" stroke-linecap="round" stroke-linejoin="round"/>
<path d="M145.472 59.459L146.429 66.2906C146.429 66.2906 147.415 63.4129 148.636 61.951C149.191 61.224 149.877 60.6088 150.66 60.1381C150.66 60.1381 147.817 58.9467 145.472 59.459Z" fill="#8185E7" stroke="#2F2E41" stroke-width="0.8" stroke-linecap="round" stroke-linejoin="round"/>
</g>
<defs>
<clipPath id="clip0_616_920">
<rect width="230" height="200" fill="white" transform="translate(10)"/>
</clipPath>
</defs>
</svg>
