<svg width="250" height="200" viewBox="0 0 250 200" fill="none" xmlns="http://www.w3.org/2000/svg">
<rect width="250" height="200" fill="white"/>
<path d="M213.386 94.4162C213.863 91.6802 214.629 88.9746 215.178 86.1878C216.169 80.8078 216.247 75.299 215.406 69.8933C213.808 59.5198 209.684 49.6984 203.396 41.2944C196.705 32.3197 186.645 25.0507 175.832 27.7969C164.584 30.6395 155.061 39.3147 144.122 43.2741C125.594 49.9746 106.837 37.7614 88.1674 38.1979C72.0456 38.5482 55.1319 44.335 44.5126 58.6446C40.1776 64.4873 37.1573 72.3502 38.1826 80.0862C39.4364 89.5126 46.3552 96.6852 51.5126 103.66C59.4212 114.35 62.4161 125.995 55.7613 138.472C51.2639 146.929 45.2131 154.401 45.7359 164.903C46.5735 181.706 62.0862 191.853 74.8781 196.376C87.873 200.975 102.629 201.452 115.548 196.274C127.025 191.655 135.035 181.553 145.497 175.107C154.669 169.425 165.505 167.047 176.213 168.365C187.269 169.685 198.919 172.01 209.604 167.244C219.827 162.675 224.67 150.467 225.051 138.766C225.266 132.929 224.386 127.102 222.457 121.589C220.086 114.959 214.843 109.787 213.365 102.756C212.836 100.001 212.843 97.1691 213.386 94.4162Z" fill="#8185E7"/>
<path opacity="0.7" d="M213.386 94.4162C213.863 91.6802 214.629 88.9746 215.178 86.1878C216.169 80.8078 216.247 75.299 215.406 69.8933C213.808 59.5198 209.684 49.6984 203.396 41.2944C196.705 32.3197 186.645 25.0507 175.832 27.7969C164.584 30.6395 155.061 39.3147 144.122 43.2741C125.594 49.9746 106.837 37.7614 88.1674 38.1979C72.0456 38.5482 55.1319 44.335 44.5126 58.6446C40.1776 64.4873 37.1573 72.3502 38.1826 80.0862C39.4364 89.5126 46.3552 96.6852 51.5126 103.66C59.4212 114.35 62.4161 125.995 55.7613 138.472C51.2639 146.929 45.2131 154.401 45.7359 164.903C46.5735 181.706 62.0862 191.853 74.8781 196.376C87.873 200.975 102.629 201.452 115.548 196.274C127.025 191.655 135.035 181.553 145.497 175.107C154.669 169.425 165.505 167.047 176.213 168.365C187.269 169.685 198.919 172.01 209.604 167.244C219.827 162.675 224.67 150.467 225.051 138.766C225.266 132.929 224.386 127.102 222.457 121.589C220.086 114.959 214.843 109.787 213.365 102.756C212.836 100.001 212.843 97.1691 213.386 94.4162Z" fill="white"/>
<path d="M184.279 12.3248C184.31 12.3248 185.218 9.9289 185.259 9.78676C185.721 7.94412 185.523 4.11164 183.736 2.98981C183.431 2.81706 183.093 2.70944 182.745 2.67372C182.396 2.638 182.043 2.67496 181.709 2.78227C181.375 2.88958 181.067 3.06492 180.805 3.29721C180.542 3.52951 180.33 3.81373 180.183 4.13194C179.518 5.4822 179.985 7.27407 180.625 8.54311C181.345 10.005 184.279 12.3198 184.279 12.3248Z" fill="#8185E7"/>
<path d="M226.396 29.8934C224.909 28.3705 221.127 29 219.427 29.8477C219.279 29.9188 217.112 31.3249 217.142 31.3706L217.173 31.401C216.579 31.4975 215.934 31.6041 215.239 31.736C213.954 31.9949 212.503 32.2944 210.949 32.7513C209.266 33.1971 207.612 33.7447 205.995 34.3909C204.179 35.1007 202.429 35.9705 200.767 36.9898L200.711 37.0304C201.117 36.5584 202.203 35.1929 202.279 35.0812C203.295 33.4721 204.31 29.7716 202.934 28.1421C202.696 27.882 202.407 27.6743 202.084 27.5322C201.762 27.3901 201.413 27.3167 201.061 27.3167C200.709 27.3167 200.36 27.3901 200.038 27.5322C199.715 27.6743 199.426 27.882 199.188 28.1421C198.137 29.2183 198.02 31.0609 198.234 32.467C198.477 34.0457 200.371 36.9543 200.523 37.1878C198.857 38.2631 197.266 39.4503 195.762 40.7411C194.878 41.4924 194.015 42.2639 193.157 43.066C193.493 42.6447 193.792 42.269 193.828 42.2081C194.843 40.599 195.858 36.8985 194.487 35.269C194.25 35.0089 193.96 34.8012 193.638 34.6591C193.315 34.517 192.967 34.4436 192.614 34.4436C192.262 34.4436 191.913 34.517 191.591 34.6591C191.268 34.8012 190.979 35.0089 190.741 35.269C189.69 36.3452 189.574 38.1929 189.787 39.5939C190 40.9949 191.569 43.5279 191.99 44.1624L191.015 45.0812C189.457 46.5634 187.909 48.0508 186.345 49.4619C185.797 49.9695 185.234 50.4315 184.675 50.9035C184.975 50.5279 185.223 50.2132 185.259 50.1624C186.274 48.5533 187.289 44.8528 185.914 43.2183C185.678 42.9566 185.39 42.7469 185.068 42.6026C184.747 42.4583 184.399 42.3826 184.046 42.3802C183.694 42.3778 183.345 42.4488 183.021 42.5887C182.698 42.7287 182.407 42.9344 182.168 43.1929C181.122 44.269 181 46.1167 181.213 47.5178C181.427 48.9188 182.848 51.2081 183.345 51.9949C182.762 52.4619 182.173 52.9289 181.584 53.3553C181.173 53.6345 180.797 53.934 180.371 54.1929L179.132 54.9848C178.325 55.4568 177.498 55.9492 176.701 56.3959C176.147 56.7056 175.614 56.9898 175.081 57.2843C175.635 56.7766 176.696 55.8122 176.777 55.7208C177.827 54.418 178.526 52.8679 178.807 51.2183C178.931 51.0796 179.04 50.9282 179.132 50.7665C179.318 50.4672 179.439 50.1325 179.488 49.7838C179.537 49.4351 179.513 49.0799 179.418 48.7409C179.322 48.402 179.157 48.0866 178.933 47.8148C178.709 47.543 178.431 47.3209 178.117 47.1624C176.65 46.4873 174.396 47.4467 172.833 48.5584C172.899 47.4771 172.868 46.8122 172.868 46.8122L172.457 46.8528L172.756 46.137C172.96 45.6903 173.112 45.1929 173.289 44.7157C173.685 43.599 174.031 42.4467 174.355 41.2843C175.091 41.6396 177.716 42.8832 179.142 42.934C180.569 42.9848 182.381 42.6599 183.33 41.4924C183.56 41.2249 183.731 40.9125 183.834 40.575C183.936 40.2375 183.967 39.8824 183.925 39.5324C183.882 39.1823 183.767 38.8449 183.587 38.5417C183.407 38.2386 183.165 37.9763 182.878 37.7716C181.102 36.6041 177.538 38.0304 176.056 39.2183C175.965 39.2944 174.995 40.269 174.477 40.8122C174.665 40.1117 174.858 39.4112 175.025 38.6903C175.508 36.6244 175.934 34.5127 176.371 32.4112C176.503 31.7665 176.645 31.1269 176.782 30.4822C177.041 30.6142 180.132 32.1574 181.726 32.2132C183.147 32.264 184.965 31.9391 185.914 30.7716C186.143 30.5042 186.314 30.1921 186.416 29.8552C186.517 29.5182 186.548 29.1637 186.506 28.8143C186.463 28.4648 186.348 28.128 186.169 27.8253C185.989 27.5226 185.748 27.2605 185.462 27.0558C183.685 25.8832 180.122 27.3096 178.64 28.5025C178.528 28.5888 177.117 29.9898 176.807 30.3655C177.107 28.9543 177.427 27.5482 177.792 26.1726C178.277 24.3172 178.884 22.496 179.609 20.7208C179.731 20.7817 182.949 22.4061 184.584 22.4619C186 22.5178 187.822 22.1878 188.772 21.0203C189 20.7526 189.171 20.4402 189.272 20.1031C189.374 19.7659 189.404 19.4113 189.361 19.0619C189.318 18.7124 189.203 18.3757 189.023 18.0732C188.843 17.7706 188.602 17.5089 188.315 17.3046C186.538 16.132 182.98 17.5584 181.498 18.7513C181.381 18.8426 179.888 20.3502 179.635 20.6447C179.68 20.5431 179.711 20.4315 179.756 20.3299C180.528 18.5579 181.457 16.859 182.533 15.2538C183.117 14.3655 183.721 13.5431 184.33 12.7614C184.899 13.1269 187.513 14.7614 188.98 14.9797C190.447 15.198 192.229 15.0558 193.3 14.0051C193.557 13.7641 193.761 13.4722 193.899 13.148C194.037 12.8238 194.107 12.4743 194.102 12.1219C194.098 11.7695 194.02 11.4218 193.874 11.1011C193.728 10.7803 193.517 10.4935 193.254 10.2589C191.619 8.89847 187.924 9.92893 186.32 10.9492C186.234 11 185.406 11.665 184.797 12.1523C185.076 11.8071 185.355 11.4416 185.63 11.1117C186.645 9.87309 187.66 8.80202 188.584 7.86293C189.091 7.35532 189.599 6.84771 190.041 6.42639C190.787 6.49238 193.787 6.7208 195.163 6.24872C196.538 5.77664 198.086 4.82233 198.548 3.39085C198.666 3.05879 198.713 2.70591 198.686 2.35468C198.66 2.00344 198.561 1.66154 198.395 1.35071C198.23 1.03989 198.001 0.766955 197.724 0.549268C197.447 0.331581 197.128 0.173908 196.787 0.0862854C194.706 -0.365491 191.899 2.2538 190.944 3.89339C190.863 4.03552 189.833 6.40608 189.868 6.43146H189.914C189.467 6.83755 188.995 7.28426 188.487 7.77664C187.553 8.7005 186.513 9.75126 185.442 10.9746C184.287 12.2779 183.209 13.6474 182.213 15.0761C181.092 16.6782 180.115 18.377 179.295 20.1523L179.264 20.2183C179.345 19.599 179.503 17.8629 179.498 17.7259C179.457 15.8274 178.259 12.1827 176.218 11.5736C175.878 11.4849 175.523 11.4679 175.176 11.5238C174.828 11.5796 174.496 11.707 174.201 11.8979C173.905 12.0889 173.653 12.3391 173.459 12.6328C173.266 12.9265 173.135 13.2573 173.076 13.6041C172.797 15.0761 173.716 16.6802 174.67 17.736C175.741 18.9239 178.929 20.2741 179.183 20.4112C178.388 22.2245 177.718 24.0901 177.178 25.9949C176.853 27.1066 176.564 28.2335 176.284 29.3706C176.335 28.8325 176.376 28.3553 176.371 28.2843C176.33 26.3858 175.132 22.7411 173.091 22.132C172.751 22.0441 172.397 22.0277 172.05 22.0839C171.703 22.1402 171.372 22.2677 171.077 22.4586C170.782 22.6494 170.53 22.8994 170.337 23.1927C170.144 23.486 170.014 23.8162 169.954 24.1624C169.67 25.6345 170.594 27.2386 171.543 28.2944C172.493 29.3502 175.203 30.5888 175.919 30.9086C175.817 31.3452 175.711 31.7766 175.609 32.2132C175.127 34.3096 174.66 36.4061 174.132 38.4416C173.949 39.1624 173.741 39.8629 173.538 40.5634C173.579 40.0914 173.609 39.6853 173.609 39.6244C173.569 37.7259 172.371 34.0812 170.33 33.4721C169.99 33.3842 169.635 33.3678 169.289 33.424C168.942 33.4803 168.611 33.6078 168.316 33.7987C168.021 33.9895 167.769 34.2395 167.576 34.5328C167.382 34.8261 167.252 35.1563 167.193 35.5025C166.909 36.9797 167.828 38.5837 168.782 39.6396C169.736 40.6954 172.178 41.8122 173.025 42.1777C172.797 42.8934 172.564 43.6041 172.305 44.2843C172.122 44.7462 171.975 45.203 171.762 45.6548L171.178 46.9645C170.726 47.0406 170.203 47.1421 169.619 47.2741C169.467 45.3604 168.751 43.0254 167.295 42.335C166.97 42.1956 166.62 42.1254 166.267 42.1289C165.915 42.1324 165.566 42.2094 165.245 42.3551C164.923 42.5008 164.636 42.712 164.4 42.9751C164.165 43.2382 163.987 43.5475 163.878 43.8832C163.371 45.2995 164.046 47.0254 164.828 48.2081C164.942 48.3877 165.071 48.5575 165.213 48.7157C162.719 49.7332 160.475 51.2818 158.64 53.2538C153.376 59.1421 153.772 68.0863 153.772 68.0863C153.772 68.0863 161.239 67.5787 166.543 63.0101C168.173 62.2386 170.279 61.2132 172.69 59.9188C173.594 59.4416 174.548 58.9035 175.523 58.3502C175.782 58.67 177.878 61.269 179.274 61.9746C180.543 62.6193 182.32 63.0812 183.68 62.4213C183.999 62.2744 184.284 62.063 184.517 61.8005C184.749 61.538 184.925 61.2301 185.033 60.8962C185.141 60.5623 185.178 60.2097 185.143 59.8606C185.107 59.5115 185 59.1735 184.828 58.868C183.706 57.0609 179.873 56.868 178.031 57.3452C177.924 57.3756 176.777 57.802 176.056 58.0812C176.452 57.8528 176.843 57.6345 177.249 57.3909C178.056 56.9188 178.848 56.4264 179.701 55.8985L180.924 55.0812C181.335 54.8172 181.741 54.4873 182.152 54.1878C183.097 53.4771 184.02 52.7056 184.934 51.9137C185.35 52.6193 186.858 55.1015 188.015 55.9289C189.173 56.7563 190.868 57.4873 192.305 57.0406C192.644 56.9437 192.959 56.7772 193.23 56.5518C193.501 56.3263 193.722 56.0468 193.88 55.7311C194.037 55.4155 194.126 55.0705 194.143 54.7182C194.159 54.366 194.102 54.0142 193.975 53.6853C193.142 51.731 189.381 50.9543 187.493 51.1472C187.371 51.1472 186.031 51.4365 185.295 51.6041C185.838 51.1218 186.386 50.6396 186.924 50.137C188.447 48.6751 189.97 47.1523 191.493 45.6396C191.96 45.1726 192.432 44.7157 192.899 44.2589C193.041 44.5076 194.772 47.5025 196.071 48.4315C197.223 49.2589 198.924 49.9848 200.355 49.5381C200.694 49.4416 201.009 49.2757 201.281 49.0508C201.552 48.826 201.773 48.5471 201.931 48.2319C202.089 47.9168 202.179 47.5723 202.196 47.2203C202.213 46.8684 202.157 46.5168 202.031 46.1878C201.193 44.2284 197.462 43.4568 195.543 43.6497C195.401 43.6497 193.472 44.066 193.005 44.1929C194.02 43.1777 195.076 42.1624 196.137 41.2436C197.568 39.962 199.08 38.7751 200.665 37.6903C200.731 37.8071 202.523 40.9391 203.853 41.8883C205.005 42.7157 206.706 43.4467 208.137 42.9949C208.476 42.8985 208.791 42.7326 209.062 42.5077C209.334 42.2828 209.555 42.0039 209.713 41.6888C209.87 41.3736 209.961 41.0291 209.978 40.6772C209.995 40.3253 209.938 39.9736 209.812 39.6447C208.975 37.6853 205.218 36.9137 203.325 37.1066C203.178 37.1066 201.102 37.5584 200.726 37.665C200.822 37.599 200.909 37.5279 201 37.467C202.619 36.4229 204.328 35.526 206.107 34.7868C207.081 34.3655 208.036 34.0152 208.975 33.7005C209.249 34.3147 210.528 37.1218 211.635 38.1117C212.741 39.1015 214.3 39.9695 215.772 39.6853C216.12 39.6265 216.451 39.4958 216.746 39.3015C217.041 39.1073 217.291 38.8537 217.482 38.5571C217.673 38.2605 217.801 37.9273 217.856 37.5787C217.911 37.2302 217.892 36.8741 217.802 36.533C217.183 34.5025 213.533 33.3147 211.635 33.2843C211.528 33.2843 210.477 33.3756 209.711 33.4619C210.137 33.3249 210.574 33.1726 210.985 33.0508C212.508 32.5837 213.965 32.2538 215.244 31.9695C215.97 31.8122 216.63 31.6853 217.274 31.5787C217.858 32.0406 220.239 33.8883 221.645 34.2538C223.051 34.6193 224.868 34.6751 226.046 33.7462C226.347 33.5343 226.598 33.2595 226.782 32.9408C226.966 32.6222 227.079 32.2673 227.112 31.9008C227.145 31.5343 227.099 31.1649 226.975 30.8183C226.851 30.4717 226.654 30.1561 226.396 29.8934ZM172.132 58.7716C171.026 59.335 169.98 59.8477 169.015 60.2944C170.649 57.9256 171.771 55.2425 172.31 52.4162C172.599 52.4873 172.894 52.5482 173.188 52.6041C173.274 54.203 174.548 57.0457 174.711 57.4112C173.828 57.8985 172.96 58.3756 172.132 58.7716Z" fill="#8185E7"/>
<path d="M211.406 31.6295C212.807 30.3453 214.762 27.061 213.873 25.1118C213.715 24.7972 213.493 24.5191 213.221 24.2951C212.949 24.0711 212.634 23.9062 212.295 23.8107C211.956 23.7152 211.601 23.6913 211.252 23.7405C210.903 23.7897 210.568 23.911 210.269 24.0965C208.975 24.858 208.371 26.6041 208.208 28.0153C208.015 29.6701 209.183 33.2184 209.183 33.2184C209.183 33.2184 211.289 31.7412 211.406 31.6295Z" fill="#8185E7"/>
<path d="M149.934 15.8325C149.934 15.8325 139.096 26.8274 139.04 40.4517C138.985 54.0761 149.7 65.1573 149.7 65.1573C149.7 65.1573 160.548 54.1624 160.594 40.5431C160.639 26.9238 149.934 15.8325 149.934 15.8325Z" fill="#8185E7"/>
<path d="M126.112 46.99C126.112 46.99 126.046 55.9443 131.523 61.6347C137 67.325 145.944 67.5991 145.944 67.5991C145.944 67.5991 146.015 58.6448 140.538 52.9545C135.061 47.2641 126.112 46.99 126.112 46.99Z" fill="#8185E7"/>
<g opacity="0.5">
<path d="M184.279 12.3248C184.31 12.3248 185.218 9.9289 185.259 9.78676C185.721 7.94412 185.523 4.11164 183.736 2.98981C183.431 2.81706 183.093 2.70944 182.745 2.67372C182.396 2.638 182.043 2.67496 181.709 2.78227C181.375 2.88958 181.067 3.06492 180.805 3.29721C180.542 3.52951 180.33 3.81373 180.183 4.13194C179.518 5.4822 179.985 7.27407 180.625 8.54311C181.345 10.005 184.279 12.3198 184.279 12.3248Z" fill="white"/>
<path d="M226.396 29.8934C224.909 28.3705 221.127 29 219.427 29.8477C219.279 29.9188 217.112 31.3249 217.142 31.3706L217.173 31.401C216.579 31.4975 215.934 31.6041 215.239 31.736C213.954 31.9949 212.503 32.2944 210.949 32.7513C209.266 33.1971 207.612 33.7447 205.995 34.3909C204.179 35.1007 202.429 35.9705 200.767 36.9898L200.711 37.0304C201.117 36.5584 202.203 35.1929 202.279 35.0812C203.295 33.4721 204.31 29.7716 202.934 28.1421C202.696 27.882 202.407 27.6743 202.084 27.5322C201.762 27.3901 201.413 27.3167 201.061 27.3167C200.709 27.3167 200.36 27.3901 200.038 27.5322C199.715 27.6743 199.426 27.882 199.188 28.1421C198.137 29.2183 198.02 31.0609 198.234 32.467C198.477 34.0457 200.371 36.9543 200.523 37.1878C198.857 38.2631 197.266 39.4503 195.762 40.7411C194.878 41.4924 194.015 42.2639 193.157 43.066C193.493 42.6447 193.792 42.269 193.828 42.2081C194.843 40.599 195.858 36.8985 194.487 35.269C194.25 35.0089 193.96 34.8012 193.638 34.6591C193.315 34.517 192.967 34.4436 192.614 34.4436C192.262 34.4436 191.913 34.517 191.591 34.6591C191.268 34.8012 190.979 35.0089 190.741 35.269C189.69 36.3452 189.574 38.1929 189.787 39.5939C190 40.9949 191.569 43.5279 191.99 44.1624L191.015 45.0812C189.457 46.5634 187.909 48.0508 186.345 49.4619C185.797 49.9695 185.234 50.4315 184.675 50.9035C184.975 50.5279 185.223 50.2132 185.259 50.1624C186.274 48.5533 187.289 44.8528 185.914 43.2183C185.678 42.9566 185.39 42.7469 185.068 42.6026C184.747 42.4583 184.399 42.3826 184.046 42.3802C183.694 42.3778 183.345 42.4488 183.021 42.5887C182.698 42.7287 182.407 42.9344 182.168 43.1929C181.122 44.269 181 46.1167 181.213 47.5178C181.427 48.9188 182.848 51.2081 183.345 51.9949C182.762 52.4619 182.173 52.9289 181.584 53.3553C181.173 53.6345 180.797 53.934 180.371 54.1929L179.132 54.9848C178.325 55.4568 177.498 55.9492 176.701 56.3959C176.147 56.7056 175.614 56.9898 175.081 57.2843C175.635 56.7766 176.696 55.8122 176.777 55.7208C177.827 54.418 178.526 52.8679 178.807 51.2183C178.931 51.0796 179.04 50.9282 179.132 50.7665C179.318 50.4672 179.439 50.1325 179.488 49.7838C179.537 49.4351 179.513 49.0799 179.418 48.7409C179.322 48.402 179.157 48.0866 178.933 47.8148C178.709 47.543 178.431 47.3209 178.117 47.1624C176.65 46.4873 174.396 47.4467 172.833 48.5584C172.899 47.4771 172.868 46.8122 172.868 46.8122L172.457 46.8528L172.756 46.137C172.96 45.6903 173.112 45.1929 173.289 44.7157C173.685 43.599 174.031 42.4467 174.355 41.2843C175.091 41.6396 177.716 42.8832 179.142 42.934C180.569 42.9848 182.381 42.6599 183.33 41.4924C183.56 41.2249 183.731 40.9125 183.834 40.575C183.936 40.2375 183.967 39.8824 183.925 39.5324C183.882 39.1823 183.767 38.8449 183.587 38.5417C183.407 38.2386 183.165 37.9763 182.878 37.7716C181.102 36.6041 177.538 38.0304 176.056 39.2183C175.965 39.2944 174.995 40.269 174.477 40.8122C174.665 40.1117 174.858 39.4112 175.025 38.6903C175.508 36.6244 175.934 34.5127 176.371 32.4112C176.503 31.7665 176.645 31.1269 176.782 30.4822C177.041 30.6142 180.132 32.1574 181.726 32.2132C183.147 32.264 184.965 31.9391 185.914 30.7716C186.143 30.5042 186.314 30.1921 186.416 29.8552C186.517 29.5182 186.548 29.1637 186.506 28.8143C186.463 28.4648 186.348 28.128 186.169 27.8253C185.989 27.5226 185.748 27.2605 185.462 27.0558C183.685 25.8832 180.122 27.3096 178.64 28.5025C178.528 28.5888 177.117 29.9898 176.807 30.3655C177.107 28.9543 177.427 27.5482 177.792 26.1726C178.277 24.3172 178.884 22.496 179.609 20.7208C179.731 20.7817 182.949 22.4061 184.584 22.4619C186 22.5178 187.822 22.1878 188.772 21.0203C189 20.7526 189.171 20.4402 189.272 20.1031C189.374 19.7659 189.404 19.4113 189.361 19.0619C189.318 18.7124 189.203 18.3757 189.023 18.0732C188.843 17.7706 188.602 17.5089 188.315 17.3046C186.538 16.132 182.98 17.5584 181.498 18.7513C181.381 18.8426 179.888 20.3502 179.635 20.6447C179.68 20.5431 179.711 20.4315 179.756 20.3299C180.528 18.5579 181.457 16.859 182.533 15.2538C183.117 14.3655 183.721 13.5431 184.33 12.7614C184.899 13.1269 187.513 14.7614 188.98 14.9797C190.447 15.198 192.229 15.0558 193.3 14.0051C193.557 13.7641 193.761 13.4722 193.899 13.148C194.037 12.8238 194.107 12.4743 194.102 12.1219C194.098 11.7695 194.02 11.4218 193.874 11.1011C193.728 10.7803 193.517 10.4935 193.254 10.2589C191.619 8.89847 187.924 9.92893 186.32 10.9492C186.234 11 185.406 11.665 184.797 12.1523C185.076 11.8071 185.355 11.4416 185.63 11.1117C186.645 9.87309 187.66 8.80202 188.584 7.86293C189.091 7.35532 189.599 6.84771 190.041 6.42639C190.787 6.49238 193.787 6.7208 195.163 6.24872C196.538 5.77664 198.086 4.82233 198.548 3.39085C198.666 3.05879 198.713 2.70591 198.686 2.35468C198.66 2.00344 198.561 1.66154 198.395 1.35071C198.23 1.03989 198.001 0.766955 197.724 0.549268C197.447 0.331581 197.128 0.173908 196.787 0.0862854C194.706 -0.365491 191.899 2.2538 190.944 3.89339C190.863 4.03552 189.833 6.40608 189.868 6.43146H189.914C189.467 6.83755 188.995 7.28426 188.487 7.77664C187.553 8.7005 186.513 9.75126 185.442 10.9746C184.287 12.2779 183.209 13.6474 182.213 15.0761C181.092 16.6782 180.115 18.377 179.295 20.1523L179.264 20.2183C179.345 19.599 179.503 17.8629 179.498 17.7259C179.457 15.8274 178.259 12.1827 176.218 11.5736C175.878 11.4849 175.523 11.4679 175.176 11.5238C174.828 11.5796 174.496 11.707 174.201 11.8979C173.905 12.0889 173.653 12.3391 173.459 12.6328C173.266 12.9265 173.135 13.2573 173.076 13.6041C172.797 15.0761 173.716 16.6802 174.67 17.736C175.741 18.9239 178.929 20.2741 179.183 20.4112C178.388 22.2245 177.718 24.0901 177.178 25.9949C176.853 27.1066 176.564 28.2335 176.284 29.3706C176.335 28.8325 176.376 28.3553 176.371 28.2843C176.33 26.3858 175.132 22.7411 173.091 22.132C172.751 22.0441 172.397 22.0277 172.05 22.0839C171.703 22.1402 171.372 22.2677 171.077 22.4586C170.782 22.6494 170.53 22.8994 170.337 23.1927C170.144 23.486 170.014 23.8162 169.954 24.1624C169.67 25.6345 170.594 27.2386 171.543 28.2944C172.493 29.3502 175.203 30.5888 175.919 30.9086C175.817 31.3452 175.711 31.7766 175.609 32.2132C175.127 34.3096 174.66 36.4061 174.132 38.4416C173.949 39.1624 173.741 39.8629 173.538 40.5634C173.579 40.0914 173.609 39.6853 173.609 39.6244C173.569 37.7259 172.371 34.0812 170.33 33.4721C169.99 33.3842 169.635 33.3678 169.289 33.424C168.942 33.4803 168.611 33.6078 168.316 33.7987C168.021 33.9895 167.769 34.2395 167.576 34.5328C167.382 34.8261 167.252 35.1563 167.193 35.5025C166.909 36.9797 167.828 38.5837 168.782 39.6396C169.736 40.6954 172.178 41.8122 173.025 42.1777C172.797 42.8934 172.564 43.6041 172.305 44.2843C172.122 44.7462 171.975 45.203 171.762 45.6548L171.178 46.9645C170.726 47.0406 170.203 47.1421 169.619 47.2741C169.467 45.3604 168.751 43.0254 167.295 42.335C166.97 42.1956 166.62 42.1254 166.267 42.1289C165.915 42.1324 165.566 42.2094 165.245 42.3551C164.923 42.5008 164.636 42.712 164.4 42.9751C164.165 43.2382 163.987 43.5475 163.878 43.8832C163.371 45.2995 164.046 47.0254 164.828 48.2081C164.942 48.3877 165.071 48.5575 165.213 48.7157C162.719 49.7332 160.475 51.2818 158.64 53.2538C153.376 59.1421 153.772 68.0863 153.772 68.0863C153.772 68.0863 161.239 67.5787 166.543 63.0101C168.173 62.2386 170.279 61.2132 172.69 59.9188C173.594 59.4416 174.548 58.9035 175.523 58.3502C175.782 58.67 177.878 61.269 179.274 61.9746C180.543 62.6193 182.32 63.0812 183.68 62.4213C183.999 62.2744 184.284 62.063 184.517 61.8005C184.749 61.538 184.925 61.2301 185.033 60.8962C185.141 60.5623 185.178 60.2097 185.143 59.8606C185.107 59.5115 185 59.1735 184.828 58.868C183.706 57.0609 179.873 56.868 178.031 57.3452C177.924 57.3756 176.777 57.802 176.056 58.0812C176.452 57.8528 176.843 57.6345 177.249 57.3909C178.056 56.9188 178.848 56.4264 179.701 55.8985L180.924 55.0812C181.335 54.8172 181.741 54.4873 182.152 54.1878C183.097 53.4771 184.02 52.7056 184.934 51.9137C185.35 52.6193 186.858 55.1015 188.015 55.9289C189.173 56.7563 190.868 57.4873 192.305 57.0406C192.644 56.9437 192.959 56.7772 193.23 56.5518C193.501 56.3263 193.722 56.0468 193.88 55.7311C194.037 55.4155 194.126 55.0705 194.143 54.7182C194.159 54.366 194.102 54.0142 193.975 53.6853C193.142 51.731 189.381 50.9543 187.493 51.1472C187.371 51.1472 186.031 51.4365 185.295 51.6041C185.838 51.1218 186.386 50.6396 186.924 50.137C188.447 48.6751 189.97 47.1523 191.493 45.6396C191.96 45.1726 192.432 44.7157 192.899 44.2589C193.041 44.5076 194.772 47.5025 196.071 48.4315C197.223 49.2589 198.924 49.9848 200.355 49.5381C200.694 49.4416 201.009 49.2757 201.281 49.0508C201.552 48.826 201.773 48.5471 201.931 48.2319C202.089 47.9168 202.179 47.5723 202.196 47.2203C202.213 46.8684 202.157 46.5168 202.031 46.1878C201.193 44.2284 197.462 43.4568 195.543 43.6497C195.401 43.6497 193.472 44.066 193.005 44.1929C194.02 43.1777 195.076 42.1624 196.137 41.2436C197.568 39.962 199.08 38.7751 200.665 37.6903C200.731 37.8071 202.523 40.9391 203.853 41.8883C205.005 42.7157 206.706 43.4467 208.137 42.9949C208.476 42.8985 208.791 42.7326 209.062 42.5077C209.334 42.2828 209.555 42.0039 209.713 41.6888C209.87 41.3736 209.961 41.0291 209.978 40.6772C209.995 40.3253 209.938 39.9736 209.812 39.6447C208.975 37.6853 205.218 36.9137 203.325 37.1066C203.178 37.1066 201.102 37.5584 200.726 37.665C200.822 37.599 200.909 37.5279 201 37.467C202.619 36.4229 204.328 35.526 206.107 34.7868C207.081 34.3655 208.036 34.0152 208.975 33.7005C209.249 34.3147 210.528 37.1218 211.635 38.1117C212.741 39.1015 214.3 39.9695 215.772 39.6853C216.12 39.6265 216.451 39.4958 216.746 39.3015C217.041 39.1073 217.291 38.8537 217.482 38.5571C217.673 38.2605 217.801 37.9273 217.856 37.5787C217.911 37.2302 217.892 36.8741 217.802 36.533C217.183 34.5025 213.533 33.3147 211.635 33.2843C211.528 33.2843 210.477 33.3756 209.711 33.4619C210.137 33.3249 210.574 33.1726 210.985 33.0508C212.508 32.5837 213.965 32.2538 215.244 31.9695C215.97 31.8122 216.63 31.6853 217.274 31.5787C217.858 32.0406 220.239 33.8883 221.645 34.2538C223.051 34.6193 224.868 34.6751 226.046 33.7462C226.347 33.5343 226.598 33.2595 226.782 32.9408C226.966 32.6222 227.079 32.2673 227.112 31.9008C227.145 31.5343 227.099 31.1649 226.975 30.8183C226.851 30.4717 226.654 30.1561 226.396 29.8934ZM172.132 58.7716C171.026 59.335 169.98 59.8477 169.015 60.2944C170.649 57.9256 171.771 55.2425 172.31 52.4162C172.599 52.4873 172.894 52.5482 173.188 52.6041C173.274 54.203 174.548 57.0457 174.711 57.4112C173.828 57.8985 172.96 58.3756 172.132 58.7716Z" fill="white"/>
<path d="M211.406 31.6294C212.807 30.3451 214.762 27.0609 213.873 25.1116C213.715 24.7971 213.493 24.519 213.221 24.295C212.949 24.071 212.634 23.906 212.295 23.8105C211.956 23.7151 211.601 23.6912 211.252 23.7404C210.903 23.7896 210.568 23.9108 210.269 24.0964C208.975 24.8578 208.371 26.604 208.208 28.0152C208.015 29.67 209.183 33.2182 209.183 33.2182C209.183 33.2182 211.289 31.7411 211.406 31.6294Z" fill="white"/>
<path d="M149.934 15.8325C149.934 15.8325 139.097 26.8274 139.041 40.4517C138.985 54.0761 149.701 65.1573 149.701 65.1573C149.701 65.1573 160.548 54.1624 160.594 40.5431C160.64 26.9238 149.934 15.8325 149.934 15.8325Z" fill="white"/>
<path d="M126.112 46.9899C126.112 46.9899 126.046 55.9442 131.523 61.6345C137 67.3249 145.944 67.599 145.944 67.599C145.944 67.599 146.015 58.6447 140.538 52.9543C135.061 47.264 126.112 46.9899 126.112 46.9899Z" fill="white"/>
</g>
<path d="M156.746 52.7969L156.401 52.3502L150.025 57.3553L150.076 46.3451L158.934 38.5076L158.558 38.0863L150.076 45.5888L150.132 33.4974L156.096 28.3299L155.731 27.9035L150.132 32.7462L150.208 15.8325H149.645L149.533 40.7512L142.518 30.4924L142.051 30.8071L149.487 41.6751L149.533 41.6446L149.487 52L141.071 44.4314L140.695 44.8528L149.482 52.7563V52.7512L149.431 65.1573L149.995 65.1624L150.025 58.071L156.746 52.7969Z" fill="white"/>
<path d="M173.071 46.9391L172.655 46.5634L163.274 57.0507L164.127 50.2741L163.568 50.2081L162.614 57.7817H162.619L158.847 62L158.137 55.7411L157.578 55.802L158.345 62.5634L153.583 67.8832L154.005 68.2589L156.71 65.2386L161.599 65.533L161.629 64.9695L157.188 64.7005L161.243 60.1675L168.051 60.1726V59.6091L161.746 59.599L166.208 54.6142L170.731 54.67L170.741 54.1066L166.71 54.0558L173.071 46.9391Z" fill="white"/>
<path d="M143.995 59.6294L143.437 59.5533L142.838 63.9644L138.619 59.5786L139.137 52.7918L138.574 52.7512L138.096 59.0355L133.452 54.2132L133.848 49.7056L133.284 49.6599L132.934 53.6751L126.315 46.7969L125.909 47.1878L135.665 57.3248L128.975 55.9644L128.863 56.5177L136.345 58.0355V58.0253L140.269 62.1066L133.975 62.3451L133.995 62.9086L140.792 62.6497L145.741 67.7918L146.147 67.401L143.34 64.4822L143.995 59.6294Z" fill="white"/>
<path d="M148.112 194.249L212.929 169.929L213.396 164.746L149.056 189.061L148.112 194.249Z" fill="#8185E7" stroke="#2F2E41" stroke-width="0.567965" stroke-linecap="round" stroke-linejoin="round"/>
<path d="M137.198 108.279C136.059 108.271 134.958 107.869 134.081 107.142C132.979 106.233 132.255 104.947 132.051 103.533C132.025 103.281 132.097 103.028 132.253 102.827C132.408 102.626 132.635 102.493 132.885 102.455C133.136 102.416 133.392 102.476 133.601 102.621C133.809 102.766 133.954 102.985 134.005 103.234C134.137 104.161 134.61 105.006 135.33 105.604C135.643 105.874 136.011 106.073 136.409 106.187C136.807 106.301 137.224 106.327 137.633 106.264C138.042 106.201 138.432 106.05 138.777 105.821C139.121 105.592 139.412 105.291 139.629 104.939C139.779 104.732 140.003 104.59 140.254 104.545C140.506 104.499 140.765 104.552 140.978 104.693C141.191 104.834 141.342 105.052 141.398 105.301C141.454 105.55 141.411 105.812 141.279 106.031C140.909 106.612 140.419 107.107 139.842 107.484C139.265 107.862 138.615 108.112 137.934 108.218C137.691 108.259 137.444 108.279 137.198 108.279Z" fill="#2F2E41"/>
<path d="M127.843 111.168C125.34 111.168 123.101 109.178 122.68 106.426C122.66 106.298 122.665 106.168 122.696 106.042C122.726 105.916 122.781 105.797 122.857 105.692C122.934 105.588 123.03 105.499 123.141 105.432C123.251 105.364 123.374 105.319 123.502 105.299C123.761 105.265 124.023 105.332 124.234 105.486C124.445 105.64 124.588 105.87 124.634 106.127C124.929 108.061 126.558 109.421 128.259 109.173C128.667 109.106 129.056 108.954 129.401 108.725C129.746 108.497 130.038 108.198 130.259 107.848C130.408 107.64 130.632 107.499 130.884 107.453C131.135 107.407 131.395 107.46 131.608 107.601C131.821 107.742 131.971 107.96 132.027 108.21C132.083 108.459 132.041 108.72 131.909 108.939C131.538 109.52 131.048 110.016 130.471 110.393C129.895 110.77 129.244 111.02 128.563 111.127C128.325 111.16 128.084 111.174 127.843 111.168Z" fill="#2F2E41"/>
<path d="M119.285 114.452C118.146 114.444 117.046 114.044 116.168 113.32C115.067 112.41 114.344 111.124 114.137 109.711C114.112 109.458 114.184 109.205 114.339 109.005C114.495 108.804 114.721 108.671 114.972 108.632C115.223 108.594 115.479 108.653 115.688 108.798C115.896 108.943 116.041 109.163 116.092 109.411C116.224 110.338 116.696 111.183 117.417 111.782C117.733 112.047 118.102 112.243 118.499 112.356C118.896 112.47 119.312 112.499 119.721 112.442C120.129 112.375 120.517 112.222 120.861 111.994C121.205 111.766 121.497 111.467 121.716 111.117C121.882 110.956 122.098 110.857 122.328 110.835C122.558 110.814 122.789 110.871 122.981 110.998C123.174 111.126 123.318 111.315 123.389 111.535C123.46 111.755 123.453 111.992 123.371 112.208C122.999 112.789 122.508 113.284 121.93 113.661C121.353 114.038 120.702 114.289 120.021 114.396C119.777 114.435 119.531 114.454 119.285 114.452Z" fill="#2F2E41"/>
<path d="M109.929 117.132C107.427 117.132 105.188 115.137 104.767 112.391C104.74 112.26 104.741 112.125 104.768 111.994C104.796 111.864 104.849 111.74 104.926 111.63C105.002 111.521 105.1 111.428 105.213 111.357C105.327 111.287 105.453 111.24 105.585 111.219C105.717 111.198 105.852 111.205 105.981 111.238C106.11 111.271 106.232 111.329 106.338 111.41C106.444 111.491 106.533 111.593 106.599 111.709C106.664 111.825 106.706 111.954 106.721 112.086C107.02 114.02 108.645 115.381 110.345 115.132C110.753 115.065 111.142 114.913 111.486 114.686C111.831 114.459 112.124 114.161 112.345 113.812C112.412 113.694 112.502 113.591 112.611 113.51C112.719 113.428 112.843 113.37 112.975 113.338C113.106 113.306 113.243 113.302 113.377 113.325C113.51 113.348 113.638 113.399 113.751 113.473C113.864 113.548 113.961 113.645 114.035 113.758C114.109 113.872 114.159 113.999 114.182 114.133C114.205 114.267 114.2 114.403 114.168 114.535C114.136 114.667 114.077 114.791 113.995 114.899C113.624 115.479 113.134 115.975 112.557 116.353C111.981 116.731 111.331 116.983 110.65 117.091C110.411 117.122 110.17 117.136 109.929 117.132Z" fill="#2F2E41"/>
<path d="M100.35 120.939C97.853 120.939 95.6144 118.949 95.188 116.198C95.2035 115.967 95.2971 115.749 95.4533 115.579C95.6096 115.409 95.8192 115.297 96.0476 115.262C96.2759 115.227 96.5094 115.271 96.7093 115.387C96.9093 115.503 97.0638 115.683 97.1474 115.898C97.4418 117.832 99.0713 119.188 100.772 118.944C101.18 118.877 101.569 118.724 101.913 118.495C102.258 118.267 102.551 117.969 102.772 117.619C102.921 117.412 103.145 117.271 103.397 117.225C103.648 117.179 103.907 117.232 104.121 117.373C104.334 117.514 104.484 117.732 104.54 117.981C104.596 118.231 104.554 118.492 104.422 118.711C104.05 119.291 103.56 119.786 102.984 120.163C102.407 120.54 101.757 120.791 101.076 120.898C100.836 120.929 100.593 120.943 100.35 120.939Z" fill="#2F2E41"/>
<path d="M91.0763 124.335C89.938 124.328 88.837 123.928 87.9596 123.203C86.8589 122.293 86.1353 121.007 85.9291 119.594C85.9035 119.342 85.9758 119.089 86.1312 118.888C86.2866 118.687 86.5131 118.554 86.764 118.516C87.0148 118.477 87.2709 118.537 87.4792 118.682C87.6876 118.827 87.8323 119.046 87.8834 119.295C88.0159 120.222 88.488 121.067 89.2083 121.665C89.5216 121.935 89.8898 122.134 90.2874 122.248C90.6851 122.362 91.1028 122.388 91.5116 122.325C91.9204 122.262 92.3106 122.111 92.6552 121.882C92.9999 121.653 93.2908 121.352 93.5078 121C93.6738 120.839 93.8896 120.74 94.1197 120.718C94.3497 120.697 94.5802 120.755 94.7731 120.882C94.966 121.009 95.1098 121.198 95.1806 121.418C95.2514 121.638 95.2451 121.876 95.1626 122.091C94.7906 122.672 94.2996 123.168 93.7221 123.545C93.1446 123.922 92.4937 124.172 91.8124 124.279C91.569 124.318 91.3228 124.337 91.0763 124.335Z" fill="#2F2E41"/>
<path d="M149.888 191.086L203.528 171.325" stroke="#2F2E41" stroke-width="0.283982" stroke-linecap="round" stroke-linejoin="round"/>
<path d="M148.477 192.736L182.822 180.031" stroke="#2F2E41" stroke-width="0.283982" stroke-linecap="round" stroke-linejoin="round"/>
<path d="M83.5278 122.056V128.183L148.112 194.249L149.056 189.061L83.5278 122.056Z" fill="#8185E7" stroke="#2F2E41" stroke-width="0.567965" stroke-linecap="round" stroke-linejoin="round"/>
<path d="M84.4875 126.863L122.838 165.208" stroke="#2F2E41" stroke-width="0.283982" stroke-linecap="round" stroke-linejoin="round"/>
<path d="M102.604 143.33L142.594 184.264" stroke="#2F2E41" stroke-width="0.283982" stroke-linecap="round" stroke-linejoin="round"/>
<path d="M83.5278 122.056L149.056 189.061L213.396 164.746L146.71 100.838L83.5278 122.056Z" fill="white" stroke="#2F2E41" stroke-width="0.567965" stroke-linecap="round" stroke-linejoin="round"/>
<path d="M82.7259 121L22.0356 64.3554L84.2031 44.9696L146.234 99.8275L82.7259 121Z" fill="#8185E7" stroke="#2F2E41" stroke-width="0.567965" stroke-linecap="round" stroke-linejoin="round"/>
<path d="M31.3248 64.731L49.0913 59.198" stroke="#2F2E41" stroke-width="0.60526" stroke-linecap="round" stroke-linejoin="round"/>
<path d="M33.9491 66.7715L51.7156 61.2385" stroke="#2F2E41" stroke-width="0.60526" stroke-linecap="round" stroke-linejoin="round"/>
<path d="M94.3301 122.533C94.1369 122.534 93.9477 122.478 93.7869 122.371C93.5727 122.222 93.4237 121.997 93.3708 121.742C93.3179 121.487 93.3651 121.221 93.5026 121C94.0098 120.212 94.2053 119.264 94.0509 118.34C93.9647 117.64 93.672 116.981 93.2101 116.448C92.7481 115.914 92.1378 115.531 91.457 115.345C91.2111 115.278 91.0008 115.118 90.8696 114.9C90.7385 114.681 90.6967 114.421 90.753 114.172C90.8092 113.924 90.9592 113.706 91.1716 113.565C91.3841 113.425 91.6427 113.371 91.8935 113.416C92.9619 113.69 93.9243 114.276 94.6577 115.1C95.391 115.924 95.862 116.948 96.0103 118.041C96.2422 119.453 95.9381 120.902 95.1575 122.102C95.0641 122.234 94.9402 122.343 94.7963 122.418C94.6523 122.493 94.4924 122.533 94.3301 122.533Z" fill="#2F2E41"/>
<path d="M103.594 119.137C103.401 119.138 103.212 119.082 103.051 118.975C102.942 118.903 102.848 118.811 102.775 118.704C102.703 118.596 102.652 118.475 102.626 118.348C102.6 118.22 102.599 118.089 102.624 117.961C102.649 117.834 102.699 117.712 102.772 117.604C103.276 116.816 103.472 115.868 103.32 114.944C103.234 114.244 102.941 113.585 102.479 113.052C102.017 112.518 101.407 112.135 100.726 111.949C100.593 111.927 100.466 111.878 100.353 111.806C100.24 111.733 100.142 111.638 100.067 111.526C99.9917 111.415 99.94 111.289 99.915 111.156C99.89 111.024 99.8923 110.888 99.9217 110.757C99.9511 110.625 100.007 110.501 100.086 110.392C100.165 110.283 100.265 110.191 100.381 110.122C100.497 110.053 100.625 110.009 100.759 109.991C100.892 109.974 101.028 109.984 101.157 110.02C102.226 110.294 103.188 110.88 103.922 111.704C104.655 112.528 105.126 113.552 105.274 114.645C105.506 116.057 105.202 117.506 104.421 118.706C104.328 118.838 104.204 118.947 104.06 119.022C103.916 119.097 103.756 119.137 103.594 119.137Z" fill="#2F2E41"/>
<path d="M140.452 106.477C140.278 106.468 140.109 106.415 139.962 106.323C139.815 106.23 139.694 106.101 139.611 105.948C139.528 105.795 139.485 105.623 139.488 105.449C139.49 105.275 139.537 105.105 139.624 104.954C140.132 104.169 140.328 103.222 140.173 102.3C140.087 101.598 139.795 100.938 139.333 100.404C138.871 99.8697 138.26 99.4851 137.579 99.2996C137.452 99.272 137.332 99.2195 137.226 99.1452C137.119 99.0709 137.029 98.9762 136.96 98.8667C136.89 98.7571 136.843 98.6349 136.821 98.507C136.8 98.3792 136.803 98.2483 136.833 98.1219C136.895 97.8687 137.053 97.6494 137.274 97.5095C137.494 97.3696 137.759 97.3199 138.015 97.3706C139.084 97.6444 140.046 98.2307 140.779 99.0545C141.513 99.8783 141.984 100.902 142.132 101.995C142.365 103.408 142.058 104.857 141.274 106.056C141.182 106.188 141.059 106.296 140.916 106.37C140.772 106.443 140.613 106.48 140.452 106.477Z" fill="#2F2E41"/>
<path d="M131.081 109.355C130.888 109.357 130.699 109.3 130.538 109.193C130.429 109.122 130.335 109.03 130.262 108.922C130.189 108.814 130.139 108.693 130.113 108.566C130.087 108.438 130.086 108.307 130.111 108.179C130.136 108.052 130.186 107.93 130.259 107.822C130.764 107.034 130.959 106.086 130.807 105.162C130.721 104.462 130.428 103.803 129.966 103.27C129.504 102.737 128.894 102.353 128.213 102.168C128.08 102.146 127.953 102.097 127.84 102.024C127.727 101.951 127.629 101.856 127.554 101.744C127.479 101.633 127.427 101.507 127.402 101.375C127.377 101.242 127.379 101.106 127.409 100.975C127.438 100.844 127.494 100.719 127.573 100.61C127.652 100.501 127.752 100.41 127.868 100.341C127.984 100.272 128.112 100.227 128.246 100.21C128.379 100.192 128.515 100.202 128.644 100.239C129.713 100.511 130.677 101.097 131.41 101.921C132.144 102.745 132.614 103.77 132.761 104.863C132.993 106.276 132.689 107.724 131.908 108.924C131.815 109.057 131.691 109.165 131.547 109.24C131.403 109.315 131.243 109.355 131.081 109.355Z" fill="#2F2E41"/>
<path d="M122.523 112.655C122.329 112.654 122.14 112.596 121.98 112.487C121.766 112.339 121.617 112.114 121.564 111.859C121.511 111.604 121.558 111.338 121.695 111.117C122.205 110.33 122.403 109.381 122.249 108.457C122.163 107.757 121.87 107.098 121.408 106.564C120.946 106.031 120.336 105.647 119.655 105.462C119.522 105.44 119.395 105.391 119.282 105.318C119.168 105.246 119.071 105.15 118.996 105.039C118.921 104.927 118.869 104.801 118.844 104.669C118.819 104.537 118.821 104.401 118.851 104.269C118.88 104.138 118.936 104.014 119.015 103.905C119.094 103.796 119.194 103.704 119.31 103.635C119.426 103.566 119.554 103.522 119.688 103.504C119.821 103.486 119.957 103.496 120.086 103.533C121.155 103.807 122.117 104.393 122.851 105.217C123.584 106.041 124.055 107.064 124.203 108.157C124.435 109.57 124.131 111.018 123.35 112.218C123.258 112.352 123.134 112.462 122.99 112.538C122.846 112.614 122.686 112.654 122.523 112.655Z" fill="#2F2E41"/>
<path d="M113.168 115.33C112.975 115.329 112.787 115.272 112.625 115.168C112.516 115.096 112.422 115.004 112.349 114.897C112.276 114.789 112.226 114.668 112.2 114.541C112.174 114.413 112.173 114.282 112.198 114.154C112.223 114.027 112.273 113.905 112.346 113.797C112.85 113.009 113.046 112.061 112.894 111.137C112.808 110.437 112.515 109.778 112.053 109.245C111.591 108.711 110.981 108.328 110.3 108.142C110.148 108.142 109.998 108.108 109.86 108.042C109.723 107.977 109.603 107.881 109.507 107.762C109.412 107.643 109.345 107.505 109.311 107.357C109.276 107.209 109.275 107.054 109.309 106.906C109.342 106.758 109.408 106.618 109.502 106.499C109.596 106.379 109.716 106.283 109.852 106.216C109.989 106.149 110.139 106.113 110.291 106.112C110.443 106.111 110.594 106.144 110.731 106.208C111.801 106.48 112.764 107.066 113.498 107.89C114.232 108.714 114.702 109.739 114.848 110.833C115.081 112.245 114.776 113.694 113.995 114.894C113.903 115.027 113.779 115.137 113.635 115.213C113.491 115.289 113.331 115.329 113.168 115.33Z" fill="#2F2E41"/>
<path d="M201.01 163.198L203.508 162.279" stroke="#2F2E41" stroke-width="0.283982" stroke-linecap="round" stroke-linejoin="round"/>
<path d="M151.706 181.411L198.741 164.041" stroke="#2F2E41" stroke-width="0.283982" stroke-linecap="round" stroke-linejoin="round"/>
<path d="M153.025 173.558L197.914 156.98" stroke="#2F2E41" stroke-width="0.283982" stroke-linecap="round" stroke-linejoin="round"/>
<path d="M146.112 176.112L150.041 174.66" stroke="#2F2E41" stroke-width="0.283982" stroke-linecap="round" stroke-linejoin="round"/>
<path d="M140.518 170.812L192.325 151.68" stroke="#2F2E41" stroke-width="0.283982" stroke-linecap="round" stroke-linejoin="round"/>
<path d="M134.929 165.518L186.731 146.386" stroke="#2F2E41" stroke-width="0.283982" stroke-linecap="round" stroke-linejoin="round"/>
<path d="M178.964 141.888L181.137 141.086" stroke="#2F2E41" stroke-width="0.283982" stroke-linecap="round" stroke-linejoin="round"/>
<path d="M129.335 160.218L175.858 143.036" stroke="#2F2E41" stroke-width="0.283982" stroke-linecap="round" stroke-linejoin="round"/>
<path d="M123.741 154.919L175.548 135.787" stroke="#2F2E41" stroke-width="0.283982" stroke-linecap="round" stroke-linejoin="round"/>
<path d="M118.147 149.624L169.954 130.492" stroke="#2F2E41" stroke-width="0.283982" stroke-linecap="round" stroke-linejoin="round"/>
<path d="M112.558 144.325L164.36 125.193" stroke="#2F2E41" stroke-width="0.283982" stroke-linecap="round" stroke-linejoin="round"/>
<path d="M106.964 139.025L158.766 119.893" stroke="#2F2E41" stroke-width="0.283982" stroke-linecap="round" stroke-linejoin="round"/>
<path d="M151.34 115.274L153.177 114.594" stroke="#2F2E41" stroke-width="0.283982" stroke-linecap="round" stroke-linejoin="round"/>
<path d="M101.371 133.726L149.746 115.863" stroke="#2F2E41" stroke-width="0.283982" stroke-linecap="round" stroke-linejoin="round"/>
<path d="M111.244 122.716L147.584 109.3" stroke="#2F2E41" stroke-width="0.283982" stroke-linecap="round" stroke-linejoin="round"/>
<path d="M95.7819 128.431L105.787 124.736" stroke="#2F2E41" stroke-width="0.283982" stroke-linecap="round" stroke-linejoin="round"/>
<g style="mix-blend-mode:multiply">
<path d="M113.752 142.132C118.995 142.817 118.533 133.843 117.203 130.833C116.233 131.945 115.51 133.25 115.082 134.662C114.654 136.075 114.531 137.562 114.721 139.025C114.776 139.709 115.015 140.365 115.412 140.924C115.612 141.201 115.891 141.412 116.211 141.531C116.532 141.65 116.881 141.672 117.214 141.594C117.691 141.392 118.095 141.048 118.371 140.609C119.335 139.33 119.975 137.746 120.99 136.574C122.396 137.523 127.391 139.147 126.67 135.655C126.274 133.726 127.234 133.944 128.264 134.888C128.691 135.274 129.361 135.066 129.889 134.833L134.965 132.599C135.611 132.27 136.31 132.058 137.031 131.975C139.467 131.853 141.061 134.117 143.452 132.518C144.467 131.848 144.701 130.031 145.99 129.34C146.909 128.833 147.99 128.802 149.036 128.66C152.63 128.183 154.467 126.284 157.787 124.569" stroke="#8185E7" stroke-width="0.567965" stroke-linecap="round" stroke-linejoin="round"/>
</g>
<g style="mix-blend-mode:multiply">
<path d="M117.822 147.741C119.787 148.076 121.467 146.284 123.203 145.711C125.421 144.97 126.386 144.066 128.518 143.147C131.335 141.939 134.645 141.381 134.056 137.122C133.655 138.645 133.609 140.32 133.3 141.914C135.584 143.046 136.198 141.102 136.432 139.376C137.198 139.356 137.956 139.203 138.67 138.924C138.67 139.244 138.772 139.604 138.767 139.909C139.863 140.35 140.289 140.051 140.518 139.081C141.731 138.853 142.163 137.716 143.188 137.437C143.447 140.284 144.173 142.777 144.005 145.69C142.061 146.198 141.756 142.843 142.249 141.452C142.756 139.98 144.218 139.193 144.756 137.655C144.868 137.843 144.782 138.061 144.843 138.264C147.289 136.802 150.427 137.198 152.853 135.487C153.614 134.949 154.157 133.873 154.965 133.497C156.721 132.685 157.244 133.64 158.553 131.726" stroke="#8185E7" stroke-width="0.567965" stroke-linecap="round" stroke-linejoin="round"/>
</g>
<g style="mix-blend-mode:multiply">
<path d="M135.508 164.467C139.036 163.452 140.584 154.685 139.569 151.467C138.381 147.574 136.746 151.843 136.366 153.934C136.061 155.609 135.574 160.025 137.137 161.3C140.604 164.112 142.721 158.33 143.147 155.716C143.3 157.35 142.315 159.366 142.716 161.127C145.523 161.457 146.914 159.122 146.736 156.711C147.085 157.044 147.321 157.478 147.412 157.952C147.503 158.426 147.444 158.916 147.244 159.355C149.924 159.168 149.482 154.645 149.782 152.822C149.629 154.097 149.746 155.589 150.604 156.619C151.32 157.472 152.685 157.848 153.584 157.188C154.482 156.528 154.305 154.792 153.213 154.564V165.553C153.248 165.871 153.184 166.192 153.031 166.472C152.67 166.98 151.787 166.873 151.376 166.386C151.013 165.854 150.843 165.215 150.893 164.574C150.843 160.975 151.954 156.046 154.741 153.589C154.884 153.939 154.932 154.321 154.878 154.695C155.145 154.592 155.386 154.431 155.585 154.225C155.784 154.019 155.936 153.773 156.031 153.503C156.213 154.31 156.69 155.325 157.508 155.183C157.779 155.112 158.027 154.972 158.228 154.777C159.569 153.67 161.02 152.939 161.919 151.366C162.046 151.761 162.178 152.157 162.31 152.558C162.523 151.792 163.254 151.289 163.97 150.944C165.062 150.431 166.242 150.133 167.447 150.066C168.462 150.015 169.569 150.122 170.492 149.685C170.902 149.467 171.294 149.217 171.665 148.939C172.717 148.246 173.935 147.846 175.193 147.782" stroke="#8185E7" stroke-width="0.567965" stroke-linecap="round" stroke-linejoin="round"/>
</g>
<path d="M93.6855 68.066C93.6855 68.066 101.782 57.863 104.523 54.2132C107.264 50.5635 109.249 47.7564 109.249 47.7564C109.249 47.7564 110.711 48.9087 110.264 50.2183C109.817 51.5279 100.188 64.6802 98.0459 68.0203C95.9038 71.3604 96.2033 75.5889 96.3606 77.0457C96.518 78.5026 92.2692 73.7411 93.6855 68.066Z" fill="white" stroke="#2F2E41" stroke-width="0.636335" stroke-linecap="round" stroke-linejoin="round"/>
<path d="M109.249 47.7564C109.249 47.7564 114.289 40.7462 118.031 34.9087C121.772 29.0711 127.234 20.3046 128.533 19.1371C129.833 17.9696 130.147 21.0153 129.726 23.0559C129.305 25.0965 124.833 30.7919 121.812 35.462C118.792 40.132 116.924 43.4924 114.325 46.5584C111.726 49.6244 111.878 49.7716 110.264 50.2183C108.65 50.665 108.965 49.066 109.249 47.7564Z" fill="#2F2E41" stroke="#2F2E41" stroke-width="0.636335" stroke-linecap="round" stroke-linejoin="round"/>
<path d="M91.9444 69.0914C92.5028 65.3097 93.7667 58.325 96.6551 56.127C99.5434 53.929 108.285 55.6194 109.01 55.7513C109.736 55.8833 121.239 58.4315 124.746 60.5889C128.254 62.7463 130.609 68.9798 131.508 72.5889C132.406 76.198 134.335 82.3097 134.625 82.7412C134.625 82.7412 137.543 84.0255 139.142 83.8732C140.741 83.7209 142.868 76.2894 147.345 71.8986C151.823 67.5077 154.147 66.9087 159.092 67.33C164.036 67.7513 182.818 72.8427 184.721 74.7158C186.625 76.5889 187.812 80.8072 187.401 83.8529C186.99 86.8986 187.589 90.2488 187.589 90.8275C187.589 91.4062 189.351 93.2894 188.924 94.8884C188.498 96.4874 188.234 99.9645 186.929 100.426C185.625 100.888 176.026 100.645 168.899 99.6752C161.772 98.7057 151.858 94.4062 145.295 91.4011C138.731 88.396 135.528 87.1016 130.731 87.1371C125.934 87.1727 116.635 87.3757 108.046 85.396C99.4571 83.4163 93.6195 79.8123 92.0053 78.2336C90.3911 76.6549 91.3911 72.8782 91.9444 69.0914ZM143.376 86.9189C145.726 90.396 155.198 93.8224 160.295 95.2387C165.391 96.6549 177.614 99.193 180.802 97.4316C183.99 95.6701 185.665 85.1879 185.371 81.5534C185.076 77.9189 183.589 75.8986 183.589 75.8986C177.31 72.0153 157.66 67.929 153.599 69.5585C149.538 71.1879 145.655 76.4417 144.229 80.6651C142.802 84.8884 143.376 86.9189 143.376 86.9189ZM102.345 80.9442C108.62 84.6803 118.513 85.7767 122.437 85.8986C126.361 86.0204 130.127 83.9595 130.244 79.4519C130.361 74.9442 127.985 67.4011 127.097 65.2387C126.208 63.0762 123.295 61.7767 123.295 61.7767C119.361 59.9138 103.051 55.8072 100.29 56.264C97.5282 56.7209 95.1119 60.9138 94.5485 67.0407C93.985 73.1676 96.0713 77.2082 102.345 80.9442Z" fill="#2F2E41" stroke="#2F2E41" stroke-width="0.636335" stroke-linecap="round" stroke-linejoin="round"/>
<path d="M187.152 90.7006C187.152 90.7006 188.767 93.1625 189.919 91.4113C191.071 89.66 205.934 72.9899 205.934 72.9899C205.934 72.9899 206.513 72.8377 206.376 74.0052C206.239 75.1727 190.68 96.061 190.102 97.0813C189.523 98.1016 187.056 98.4113 186.477 97.9798C185.898 97.5483 187.152 90.7006 187.152 90.7006Z" fill="white" stroke="#2F2E41" stroke-width="0.636335" stroke-linecap="round" stroke-linejoin="round"/>
<path d="M204.919 73.5736C205.768 72.0616 206.534 70.5043 207.213 68.9086C208.787 65.4112 209.751 58.5736 210.005 51.4467C210.259 44.3198 210.513 40.1066 211.828 41.4061C213.142 42.7056 212.015 49.6954 211.772 55.2132C211.528 60.731 209.812 66.2741 209.396 69.1878C209.081 71.3858 207.396 74.868 206.234 74.8731C205.071 74.8782 205.218 74.5888 204.919 73.5736Z" fill="#2F2E41" stroke="#2F2E41" stroke-width="0.636335" stroke-linecap="round" stroke-linejoin="round"/>
<path d="M109.01 164.69L115.401 171.924L105.898 169.782L38.2842 128.416L41.4009 123.325L109.01 164.69Z" fill="white" stroke="#2F2E41" stroke-width="0.7182" stroke-linecap="round" stroke-linejoin="round"/>
<g style="mix-blend-mode:multiply" opacity="0.5">
<path d="M109.01 164.69L115.401 171.924L105.898 169.782L38.2842 128.416L41.4009 123.325L109.01 164.69Z" fill="#8185E7"/>
<path d="M109.01 164.69L115.401 171.924L105.898 169.782L38.2842 128.416L41.4009 123.325L109.01 164.69Z" stroke="#2F2E41" stroke-width="0.7182" stroke-linecap="round" stroke-linejoin="round"/>
</g>
<path d="M40.6932 124.484L38.995 127.259L106.608 168.627L108.306 165.852L40.6932 124.484Z" stroke="#2F2E41" stroke-width="0.359099" stroke-linecap="round" stroke-linejoin="round"/>
<path d="M109.025 164.706L105.913 169.787L115.401 171.924L109.025 164.706Z" fill="white" stroke="#2F2E41" stroke-width="0.7182" stroke-linecap="round" stroke-linejoin="round"/>
<path d="M110.654 170.853L115.401 171.924L112.213 168.315L110.654 170.853Z" fill="#8185E7" stroke="#2F2E41" stroke-width="0.7182" stroke-linecap="round" stroke-linejoin="round"/>
<path d="M32.274 121.239C32.069 121.572 31.9318 121.943 31.8703 122.33C31.8088 122.717 31.8243 123.113 31.9157 123.494C32.0072 123.875 32.1729 124.234 32.4034 124.551C32.6338 124.867 32.9245 125.136 33.2588 125.34L38.2842 128.416L41.4009 123.34L36.3755 120.264C35.7021 119.85 34.8922 119.721 34.1233 119.903C33.3544 120.086 32.6894 120.566 32.274 121.239Z" fill="white" stroke="#2F2E41" stroke-width="0.7182" stroke-linecap="round" stroke-linejoin="round"/>
<path d="M32.274 121.239C32.069 121.572 31.9318 121.943 31.8703 122.33C31.8088 122.717 31.8243 123.113 31.9157 123.494C32.0072 123.875 32.1729 124.234 32.4034 124.551C32.6338 124.867 32.9245 125.136 33.2588 125.34L35.6649 126.812L38.7816 121.736L36.3755 120.264C35.7021 119.85 34.8922 119.721 34.1233 119.903C33.3544 120.086 32.6894 120.566 32.274 121.239Z" fill="#2F2E41" stroke="#2F2E41" stroke-width="0.7182" stroke-linecap="round" stroke-linejoin="round"/>
<path d="M168.716 97L166.934 95.7462C166.659 95.5529 166.343 95.4241 166.011 95.3697C165.679 95.3152 165.338 95.3363 165.015 95.4315C163.132 95.9797 159.579 97.3757 158.564 98.4772C157.244 99.8376 156.828 102.3 157.462 103.457C158.097 104.614 160.701 106.091 160.701 106.091L171.609 99.4518L168.716 97Z" fill="white" stroke="#2F2E41" stroke-width="0.47365" stroke-miterlimit="10"/>
<g style="mix-blend-mode:multiply" opacity="0.5">
<path d="M168.716 97L166.934 95.7462C166.659 95.5529 166.343 95.4241 166.011 95.3697C165.679 95.3152 165.338 95.3363 165.015 95.4315C163.132 95.9797 159.579 97.3757 158.564 98.4772C157.244 99.8376 156.828 102.3 157.462 103.457C158.097 104.614 160.701 106.091 160.701 106.091L171.609 99.4518L168.716 97Z" fill="#8185E7"/>
<path d="M168.716 97L166.934 95.7462C166.659 95.5529 166.343 95.4241 166.011 95.3697C165.679 95.3152 165.338 95.3363 165.015 95.4315C163.132 95.9797 159.579 97.3757 158.564 98.4772C157.244 99.8376 156.828 102.3 157.462 103.457C158.097 104.614 160.701 106.091 160.701 106.091L171.609 99.4518L168.716 97Z" stroke="#2F2E41" stroke-width="0.47365" stroke-miterlimit="10"/>
</g>
<path d="M169.828 96.4873L161.198 100.431C161.198 100.431 158.279 102.081 159.203 107.132L209.736 144.34C209.736 144.34 211.493 145.619 214.665 144.538C217.838 143.457 221.086 139.716 221.772 136.553C222.457 133.391 220.249 132.396 219.838 132.046C219.427 131.695 171.533 96.863 171.533 96.863C171.027 96.5399 170.423 96.4068 169.828 96.4873Z" fill="white" stroke="#2F2E41" stroke-width="0.47365" stroke-miterlimit="10"/>
<g style="mix-blend-mode:multiply" opacity="0.5">
<path d="M169.828 96.4873L161.198 100.431C161.198 100.431 158.279 102.081 159.203 107.132L209.736 144.34C209.736 144.34 211.493 145.619 214.665 144.538C217.838 143.457 221.086 139.716 221.772 136.553C222.457 133.391 220.249 132.396 219.838 132.046C219.427 131.695 171.533 96.863 171.533 96.863C171.027 96.5399 170.423 96.4068 169.828 96.4873Z" fill="#8185E7"/>
<path d="M169.828 96.4873L161.198 100.431C161.198 100.431 158.279 102.081 159.203 107.132L209.736 144.34C209.736 144.34 211.493 145.619 214.665 144.538C217.838 143.457 221.086 139.716 221.772 136.553C222.457 133.391 220.249 132.396 219.838 132.046C219.427 131.695 171.533 96.863 171.533 96.863C171.027 96.5399 170.423 96.4068 169.828 96.4873Z" stroke="#2F2E41" stroke-width="0.47365" stroke-miterlimit="10"/>
</g>
<path d="M218.37 141.914C215.188 144.883 211.335 145.929 209.741 144.244C208.147 142.558 209.462 138.777 212.644 135.802C215.827 132.827 219.68 131.787 221.274 133.472C222.868 135.157 221.548 138.939 218.37 141.914Z" fill="white" stroke="#2F2E41" stroke-width="0.47365" stroke-miterlimit="10"/>
<g style="mix-blend-mode:multiply">
<path d="M218.37 141.914C215.188 144.883 211.335 145.929 209.741 144.244C208.147 142.558 209.462 138.777 212.644 135.802C215.827 132.827 219.68 131.787 221.274 133.472C222.868 135.157 221.548 138.939 218.37 141.914Z" fill="#8185E7"/>
<path d="M218.37 141.914C215.188 144.883 211.335 145.929 209.741 144.244C208.147 142.558 209.462 138.777 212.644 135.802C215.827 132.827 219.68 131.787 221.274 133.472C222.868 135.157 221.548 138.939 218.37 141.914Z" stroke="#2F2E41" stroke-width="0.47365" stroke-miterlimit="10"/>
</g>
<path d="M171.528 96.8629C171.023 96.5411 170.421 96.408 169.828 96.4873L161.198 100.431C161.198 100.431 158.279 102.081 159.203 107.132L194.147 132.863C193.899 131.675 193.944 129.939 195.279 127.878C196.518 125.954 202.081 122.853 205.086 121.279C190.863 110.929 171.528 96.8629 171.528 96.8629Z" fill="#2F2E41" stroke="#2F2E41" stroke-width="0.636335" stroke-linecap="round" stroke-linejoin="round"/>
<path d="M211.625 135.711L193.168 122.335C192.892 122.135 192.67 121.869 192.524 121.561C192.378 121.253 192.311 120.913 192.331 120.573C192.351 120.232 192.456 119.902 192.637 119.613C192.818 119.324 193.068 119.085 193.366 118.919L196.224 117.36C196.559 117.179 196.939 117.095 197.319 117.12C197.7 117.144 198.066 117.275 198.376 117.498L217.889 131.629" fill="white"/>
<path d="M211.625 135.711L193.168 122.335C192.892 122.135 192.67 121.869 192.524 121.561C192.378 121.253 192.311 120.913 192.331 120.573C192.351 120.232 192.456 119.902 192.637 119.613C192.818 119.324 193.068 119.085 193.366 118.919L196.224 117.36C196.559 117.179 196.939 117.095 197.319 117.12C197.7 117.144 198.066 117.275 198.376 117.498L217.889 131.629" stroke="#2F2E41" stroke-width="0.47365" stroke-miterlimit="10"/>
<g style="mix-blend-mode:multiply" opacity="0.5">
<path d="M211.625 135.711L193.168 122.335C192.892 122.135 192.67 121.869 192.524 121.561C192.378 121.253 192.311 120.913 192.331 120.573C192.351 120.232 192.456 119.902 192.637 119.613C192.818 119.324 193.068 119.085 193.366 118.919L196.224 117.36C196.559 117.179 196.939 117.095 197.319 117.12C197.7 117.144 198.066 117.275 198.376 117.498L217.889 131.629" fill="#8185E7"/>
<path d="M211.625 135.711L193.168 122.335C192.892 122.135 192.67 121.869 192.524 121.561C192.378 121.253 192.311 120.913 192.331 120.573C192.351 120.232 192.456 119.902 192.637 119.613C192.818 119.324 193.068 119.085 193.366 118.919L196.224 117.36C196.559 117.179 196.939 117.095 197.319 117.12C197.7 117.144 198.066 117.275 198.376 117.498L217.889 131.629" stroke="#2F2E41" stroke-width="0.47365" stroke-miterlimit="10"/>
</g>
</svg>
