<svg width="250" height="200" viewBox="0 0 250 200" fill="none" xmlns="http://www.w3.org/2000/svg">
<rect width="250" height="200" fill="white"/>
<g clip-path="url(#clip0_616_1443)">
<path opacity="0.7" d="M0.454559 166.504C0.454559 166.504 0.631326 159.13 0.631326 135.456C0.631326 108 32.1402 102.476 57.7841 99.143C83.428 95.8097 63.0114 61.5357 87.6073 31.542C112.203 1.54831 158.251 19.6417 164.527 45.8097C170.802 71.9776 164.527 83.8968 184.937 81.9965C205.347 80.0963 227.866 86.7566 232.828 108.177V169.591L0.454559 166.504Z" fill="#8185E7"/>
<path opacity="0.7" d="M0.454559 166.504C0.454559 166.504 0.631326 159.13 0.631326 135.456C0.631326 108 32.1402 102.476 57.7841 99.143C83.428 95.8097 63.0114 61.5357 87.6073 31.542C112.203 1.54831 158.251 19.6417 164.527 45.8097C170.802 71.9776 164.527 83.8968 184.937 81.9965C205.347 80.0963 227.866 86.7566 232.828 108.177V169.591L0.454559 166.504Z" fill="white"/>
<path d="M149.621 70.1342C146.288 68.316 144.773 69.8311 143.561 68.316C142.348 66.8008 146.894 62.8678 137.803 58.9284C137.803 58.9284 137.172 50.4435 124.779 50.1405C112.386 49.8375 115.688 58.6253 112.361 60.7465C109.034 62.8678 108.119 59.5344 104.785 61.6556C101.452 63.7769 102.967 68.013 100.24 68.6001C97.5126 69.1872 93.8826 65.8728 90.5492 67.9688C87.2159 70.0647 87.2159 71.9082 85.7008 71.9082C84.1856 71.9082 81.1553 70.696 79.3434 71.9082C77.5316 73.1203 75.4041 74.6354 75.4041 74.6354H152.058C152.058 74.6354 152.967 71.9524 149.621 70.1342Z" fill="white"/>
<path d="M72.8156 139.692C70.9217 138.663 70.0821 139.515 69.4002 138.663C68.7184 137.811 71.2942 135.589 66.1553 133.366C66.1553 133.366 65.8144 128.581 58.8068 128.411C51.7992 128.24 53.6806 133.196 51.8056 134.396C49.9306 135.595 49.4129 133.707 47.5316 134.907C45.6502 136.106 46.5088 138.493 44.9684 138.834C43.428 139.175 41.3826 137.3 39.5013 138.493C37.6199 139.686 37.6073 140.715 36.7677 140.715C35.928 140.715 34.2045 140.033 33.1818 140.715C32.1591 141.397 30.9596 142.249 30.9596 142.249H74.1856C74.1856 142.249 74.697 140.715 72.8156 139.692Z" fill="white"/>
<path d="M27.2538 198.468L37.0518 193.051L122.854 166.119H0.479797L0.719697 198.468H27.2538Z" fill="#8185E7"/>
<g opacity="0.49">
<path d="M58.4343 183.752C56.8974 183.721 55.3671 183.963 53.9141 184.465C51.1136 185.374 48.0973 185.374 45.2967 184.465C42.3604 183.514 39.1989 183.514 36.2626 184.465C33.462 185.374 30.4458 185.374 27.6452 184.465C24.7089 183.514 21.5474 183.514 18.6111 184.465C17.2259 184.947 15.7657 185.178 14.2992 185.147C12.8348 185.179 11.3765 184.948 9.99369 184.465C8.54071 183.963 7.01047 183.721 5.47348 183.752C3.93851 183.721 2.41023 183.962 0.959597 184.465L0.479797 184.61V185.33L1.16793 185.122C2.55129 184.641 4.00948 184.412 5.47348 184.446C6.9395 184.413 8.39964 184.642 9.78535 185.122C11.236 185.624 12.7643 185.866 14.2992 185.835C15.8362 185.865 17.3665 185.624 18.8194 185.122C21.6213 184.221 24.635 184.221 27.4369 185.122C30.3731 186.073 33.5347 186.073 36.471 185.122C39.2728 184.221 42.2865 184.221 45.0884 185.122C48.0247 186.073 51.1862 186.073 54.1225 185.122C55.5082 184.642 56.9683 184.413 58.4343 184.446C59.822 184.42 61.2038 184.634 62.5189 185.077L63.6932 184.711L62.9482 184.484C61.4988 183.975 59.9704 183.727 58.4343 183.752Z" fill="white"/>
<path d="M45.2967 189.01C42.3604 188.059 39.1989 188.059 36.2626 189.01C33.4608 189.911 30.4471 189.911 27.6452 189.01C24.7089 188.059 21.5474 188.059 18.6111 189.01C17.2254 189.49 15.7653 189.719 14.2992 189.686C12.8352 189.72 11.377 189.491 9.99369 189.01C8.54149 188.505 7.01069 188.264 5.47348 188.297C3.93829 188.263 2.40944 188.505 0.959597 189.01L0.479797 189.156V189.882L1.16793 189.673C2.54998 189.187 4.00885 188.956 5.47348 188.991C6.94013 188.957 8.40093 189.188 9.78535 189.673C11.2365 190.173 12.7647 190.413 14.2992 190.38C15.8358 190.412 17.3659 190.173 18.8194 189.673C21.62 188.764 24.6363 188.764 27.4369 189.673C30.3744 190.616 33.5334 190.616 36.471 189.673C39.2715 188.764 42.2878 188.764 45.0884 189.673C45.5366 189.812 45.9975 189.957 46.5278 190.077L48.0114 189.61C47.0868 189.513 46.1762 189.312 45.2967 189.01Z" fill="white"/>
<path d="M31.9571 194.231C30.4904 194.267 29.0295 194.036 27.6452 193.55C24.7077 192.607 21.5487 192.607 18.6111 193.55C17.2267 194.035 15.7659 194.266 14.2992 194.231C12.8338 194.263 11.3749 194.027 9.99369 193.537C8.54016 193.038 7.01005 192.798 5.47348 192.83C3.93893 192.797 2.41074 193.037 0.959597 193.537L0.479797 193.688V194.408C0.719696 194.345 0.940656 194.276 1.16793 194.2C2.55207 193.724 4.01024 193.499 5.47348 193.537C6.9395 193.504 8.39964 193.733 9.78535 194.212C11.2352 194.718 12.7641 194.96 14.2992 194.926C15.8364 194.959 17.3672 194.718 18.8194 194.212C21.6213 193.312 24.635 193.312 27.4369 194.212C28.8889 194.718 30.4198 194.96 31.9571 194.926C32.5884 194.926 33.0871 194.926 33.5606 194.856L35.8081 193.695C34.5621 194.082 33.2614 194.263 31.9571 194.231Z" fill="white"/>
<path d="M0.479797 168.587L1.16793 168.379C2.55129 167.899 4.00948 167.67 5.47348 167.704C6.9395 167.671 8.39964 167.899 9.78535 168.379C11.236 168.882 12.7643 169.123 14.2992 169.093C15.8362 169.123 17.3665 168.881 18.8194 168.379C21.6213 167.478 24.635 167.478 27.4369 168.379C30.3731 169.33 33.5347 169.33 36.471 168.379C39.2728 167.478 42.2865 167.478 45.0884 168.379C48.0247 169.33 51.1862 169.33 54.1225 168.379C56.9243 167.478 59.938 167.478 62.7399 168.379C65.6783 169.33 68.8419 169.33 71.7803 168.379C74.5822 167.478 77.5959 167.478 80.3977 168.379C83.3383 169.33 86.5039 169.33 89.4444 168.379C90.8278 167.899 92.286 167.67 93.75 167.704C93.8 167.71 93.8508 167.706 93.899 167.692C93.9473 167.677 93.9919 167.653 94.0299 167.619C94.0678 167.586 94.0982 167.545 94.1191 167.499C94.1399 167.453 94.1507 167.404 94.1507 167.353C94.1507 167.303 94.1399 167.253 94.1191 167.207C94.0982 167.161 94.0678 167.12 94.0299 167.087C93.9919 167.054 93.9473 167.029 93.899 167.015C93.8508 167 93.8 166.996 93.75 167.003C92.213 166.973 90.6828 167.214 89.2298 167.716C86.4271 168.625 83.4088 168.625 80.6061 167.716C77.6698 166.765 74.5082 166.765 71.572 167.716C68.7692 168.625 65.751 168.625 62.9482 167.716C60.012 166.765 56.8504 166.765 53.9141 167.716C51.1136 168.625 48.0973 168.625 45.2967 167.716C42.3604 166.765 39.1989 166.765 36.2626 167.716C33.462 168.625 30.4458 168.625 27.6452 167.716C24.7089 166.765 21.5474 166.765 18.6111 167.716C17.2259 168.199 15.7657 168.429 14.2992 168.398C12.8348 168.43 11.3765 168.199 9.99369 167.716C8.53955 167.221 7.00934 166.986 5.47348 167.022C3.93851 166.991 2.41023 167.232 0.959597 167.735L0.479797 167.88V168.587Z" fill="white"/>
<path d="M71.572 179.92C68.7692 180.828 65.751 180.828 62.9482 179.92C60.0107 178.977 56.8517 178.977 53.9141 179.92C51.1136 180.828 48.0973 180.828 45.2967 179.92C42.3592 178.977 39.2002 178.977 36.2626 179.92C33.462 180.828 30.4458 180.828 27.6452 179.92C24.7077 178.977 21.5487 178.977 18.6111 179.92C17.2267 180.405 15.7659 180.636 14.2992 180.601C12.8346 180.637 11.3757 180.406 9.99369 179.92C8.54016 179.42 7.01005 179.181 5.47348 179.212C3.93893 179.18 2.41074 179.419 0.959597 179.92L0.479797 180.071V180.791C0.719696 180.728 0.940656 180.658 1.16793 180.582C2.55129 180.102 4.00948 179.873 5.47348 179.907C6.9395 179.874 8.39964 180.103 9.78535 180.582C11.2352 181.088 12.7641 181.33 14.2992 181.296C15.8364 181.329 17.3672 181.088 18.8194 180.582C21.6213 179.682 24.635 179.682 27.4369 180.582C30.3731 181.533 33.5347 181.533 36.471 180.582C39.2728 179.682 42.2865 179.682 45.0884 180.582C48.0247 181.533 51.1862 181.533 54.1225 180.582C56.9243 179.682 59.938 179.682 62.7399 180.582C65.6783 181.534 68.8419 181.534 71.7803 180.582C73.1637 180.102 74.6219 179.873 76.0859 179.907C76.8574 179.897 77.6284 179.954 78.3901 180.077L79.7222 179.654C77.0334 178.985 74.2116 179.077 71.572 179.92Z" fill="white"/>
<path d="M93.75 174.667C92.2128 174.634 90.682 174.875 89.2298 175.38C86.4258 176.281 83.4101 176.281 80.6061 175.38C77.6698 174.429 74.5082 174.429 71.572 175.38C68.768 176.281 65.7522 176.281 62.9482 175.38C60.012 174.429 56.8504 174.429 53.9141 175.38C51.1123 176.281 48.0986 176.281 45.2967 175.38C42.3604 174.429 39.1989 174.429 36.2626 175.38C33.4608 176.281 30.4471 176.281 27.6452 175.38C24.7089 174.429 21.5474 174.429 18.6111 175.38C17.2254 175.86 15.7653 176.089 14.2992 176.056C12.8352 176.09 11.377 175.861 9.99369 175.38C8.54149 174.875 7.01069 174.634 5.47348 174.667C3.93829 174.633 2.40944 174.874 0.959597 175.38L0.479797 175.526V176.252L1.16793 176.043C2.54998 175.557 4.00885 175.326 5.47348 175.361C6.94013 175.327 8.40093 175.558 9.78535 176.043C11.2365 176.543 12.7647 176.783 14.2992 176.75C15.8358 176.782 17.3659 176.543 18.8194 176.043C21.62 175.134 24.6363 175.134 27.4369 176.043C30.3744 176.986 33.5334 176.986 36.471 176.043C39.2715 175.134 42.2878 175.134 45.0884 176.043C48.0259 176.986 51.1849 176.986 54.1225 176.043C56.9231 175.134 59.9393 175.134 62.7399 176.043C65.6797 176.986 68.8405 176.986 71.7803 176.043C74.5809 175.134 77.5972 175.134 80.3977 176.043C83.3396 176.986 86.5025 176.986 89.4444 176.043C90.7111 175.602 92.0424 175.373 93.3838 175.368L94.072 175.153C94.0922 175.11 94.1029 175.062 94.1035 175.014C94.1019 174.922 94.0639 174.833 93.9978 174.768C93.9317 174.703 93.8427 174.667 93.75 174.667Z" fill="white"/>
<path d="M5.47348 170.81C6.93991 170.778 8.40016 171.009 9.78535 171.491C11.236 171.994 12.7643 172.236 14.2992 172.205C15.8362 172.235 17.3665 171.994 18.8194 171.491C21.62 170.583 24.6363 170.583 27.4369 171.491C30.3731 172.443 33.5347 172.443 36.471 171.491C39.2715 170.583 42.2878 170.583 45.0884 171.491C48.0247 172.443 51.1862 172.443 54.1225 171.491C56.9231 170.583 59.9393 170.583 62.7399 171.491C65.6783 172.443 68.8419 172.443 71.7803 171.491C74.5809 170.583 77.5972 170.583 80.3977 171.491C83.3383 172.443 86.5039 172.443 89.4444 171.491C90.8273 171.008 92.2856 170.778 93.75 170.81C93.7961 170.811 93.842 170.802 93.8848 170.785C93.9277 170.768 93.9667 170.743 93.9996 170.71C94.0325 170.678 94.0587 170.639 94.0765 170.597C94.0944 170.554 94.1035 170.509 94.1035 170.462C94.1019 170.37 94.0639 170.281 93.9978 170.217C93.9317 170.152 93.8427 170.115 93.75 170.115C92.213 170.085 90.6828 170.327 89.2298 170.829C86.4271 171.738 83.4088 171.738 80.6061 170.829C77.6698 169.878 74.5082 169.878 71.572 170.829C68.7692 171.738 65.751 171.738 62.9482 170.829C60.012 169.878 56.8504 169.878 53.9141 170.829C51.1136 171.737 48.0973 171.737 45.2967 170.829C42.3604 169.878 39.1989 169.878 36.2626 170.829C33.462 171.737 30.4458 171.737 27.6452 170.829C24.7089 169.878 21.5474 169.878 18.6111 170.829C17.2259 171.311 15.7657 171.542 14.2992 171.51C12.8337 171.536 11.3753 171.299 9.99369 170.81C8.54071 170.308 7.01047 170.066 5.47348 170.096C3.93851 170.065 2.41023 170.307 0.959597 170.81L0.479797 170.955V171.681L1.16793 171.473C2.55194 170.996 4.01021 170.771 5.47348 170.81Z" fill="white"/>
</g>
<path d="M151.408 140.873C151.408 140.873 162.771 141.997 168.497 149.029C168.497 149.029 174.571 140.879 185.48 141.05C188.143 137.833 189.837 133.927 190.367 129.785C190.896 125.644 190.238 121.437 188.47 117.654C186.702 113.872 183.895 110.669 180.378 108.419C176.861 106.169 172.777 104.965 168.601 104.945C164.426 104.926 160.331 106.093 156.793 108.31C153.254 110.527 150.419 113.704 148.616 117.47C146.812 121.236 146.116 125.436 146.607 129.583C147.098 133.729 148.756 137.651 151.389 140.892L151.408 140.873Z" fill="#8185E7"/>
<path opacity="0.3" d="M151.408 140.873C151.408 140.873 162.771 141.997 168.497 149.029C168.497 149.029 174.571 140.879 185.48 141.05C188.143 137.833 189.837 133.927 190.367 129.785C190.896 125.644 190.238 121.437 188.47 117.654C186.702 113.872 183.895 110.669 180.378 108.419C176.861 106.169 172.777 104.965 168.601 104.945C164.426 104.926 160.331 106.093 156.793 108.31C153.254 110.527 150.419 113.704 148.616 117.47C146.812 121.236 146.116 125.436 146.607 129.583C147.098 133.729 148.756 137.651 151.389 140.892L151.408 140.873Z" fill="white"/>
<path d="M168.125 106.485L167.74 163.348H169.653L168.125 106.485Z" fill="#263238"/>
<path d="M168.7 146.883C168.7 146.883 172.525 139.989 179.432 137.887C179.432 137.887 172.159 139.61 168.516 145.545L168.7 146.883Z" fill="#263238"/>
<path d="M168.7 127.356C168.7 127.356 172.525 120.462 179.432 118.354C179.432 118.354 172.159 120.077 168.516 126.018L168.7 127.356Z" fill="#263238"/>
<path d="M168.7 137.117C168.7 137.117 172.525 130.229 179.432 128.12C179.432 128.12 172.159 129.844 168.516 135.778L168.7 137.117Z" fill="#263238"/>
<path d="M168.131 132.331C168.131 132.331 164.438 125.444 157.784 123.335C157.784 123.335 164.804 125.058 168.314 130.993L168.131 132.331Z" fill="#263238"/>
<path d="M168.131 141.908C168.131 141.908 164.438 135.014 157.784 132.931C157.784 132.931 164.804 134.654 168.314 140.589L168.131 141.908Z" fill="#263238"/>
<path d="M192.468 151.574C192.468 151.574 198.409 152.161 201.421 155.848C202.502 154.536 203.861 153.481 205.399 152.757C206.937 152.034 208.616 151.659 210.316 151.662C211.71 149.977 212.597 147.931 212.874 145.761C213.151 143.592 212.805 141.388 211.879 139.407C210.952 137.426 209.481 135.749 207.638 134.571C205.796 133.393 203.656 132.763 201.469 132.754C199.282 132.744 197.137 133.357 195.284 134.519C193.432 135.681 191.947 137.345 191.003 139.318C190.06 141.292 189.696 143.492 189.954 145.664C190.212 147.836 191.082 149.889 192.462 151.586L192.468 151.574Z" fill="#8185E7"/>
<path opacity="0.5" d="M192.468 151.574C192.468 151.574 198.409 152.161 201.421 155.848C202.502 154.536 203.861 153.481 205.399 152.757C206.937 152.034 208.616 151.659 210.316 151.662C211.71 149.977 212.597 147.931 212.874 145.761C213.151 143.592 212.805 141.388 211.879 139.407C210.952 137.426 209.481 135.749 207.638 134.571C205.796 133.393 203.656 132.763 201.469 132.754C199.282 132.744 197.137 133.357 195.284 134.519C193.432 135.681 191.947 137.345 191.003 139.318C190.06 141.292 189.696 143.492 189.954 145.664C190.212 147.836 191.082 149.889 192.462 151.586L192.468 151.574Z" fill="white"/>
<path d="M201.225 133.556L201.023 163.348H202.027L201.225 133.556Z" fill="#263238"/>
<path d="M201.522 154.724C201.522 154.724 203.529 151.113 207.14 150.008C207.14 150.008 203.352 150.911 201.427 154.023L201.522 154.724Z" fill="#263238"/>
<path d="M201.522 144.49C201.522 144.49 203.529 140.879 207.14 139.774C207.14 139.774 203.352 140.677 201.427 143.789L201.522 144.49Z" fill="#263238"/>
<path d="M201.522 149.604C201.522 149.604 203.529 145.993 207.14 144.894C207.14 144.894 203.352 145.797 201.427 148.903L201.522 149.604Z" fill="#263238"/>
<path d="M201.225 147.098C201.225 147.098 199.293 143.486 195.808 142.388C195.808 142.388 199.482 143.291 201.326 146.397L201.225 147.098Z" fill="#263238"/>
<path d="M201.225 152.117C201.225 152.117 199.293 148.505 195.808 147.401C195.808 147.401 199.482 148.303 201.326 151.409L201.225 152.117Z" fill="#263238"/>
<path d="M212.058 151.574C212.058 151.574 217.999 152.161 221.01 155.848C222.092 154.536 223.45 153.481 224.988 152.757C226.526 152.034 228.206 151.659 229.905 151.662C231.3 149.977 232.187 147.931 232.464 145.761C232.74 143.592 232.395 141.388 231.468 139.407C230.541 137.426 229.071 135.749 227.228 134.571C225.385 133.393 223.246 132.763 221.059 132.754C218.872 132.744 216.727 133.357 214.874 134.519C213.021 135.681 211.537 137.345 210.593 139.318C209.649 141.292 209.285 143.492 209.544 145.664C209.802 147.836 210.672 149.889 212.052 151.586L212.058 151.574Z" fill="#8185E7"/>
<path opacity="0.3" d="M212.058 151.574C212.058 151.574 217.999 152.161 221.01 155.848C222.092 154.536 223.45 153.481 224.988 152.757C226.526 152.034 228.206 151.659 229.905 151.662C231.3 149.977 232.187 147.931 232.464 145.761C232.74 143.592 232.395 141.388 231.468 139.407C230.541 137.426 229.071 135.749 227.228 134.571C225.385 133.393 223.246 132.763 221.059 132.754C218.872 132.744 216.727 133.357 214.874 134.519C213.021 135.681 211.537 137.345 210.593 139.318C209.649 141.292 209.285 143.492 209.544 145.664C209.802 147.836 210.672 149.889 212.052 151.586L212.058 151.574Z" fill="white"/>
<path d="M220.814 133.556L220.612 163.348H221.616L220.814 133.556Z" fill="#263238"/>
<path d="M221.117 154.724C221.117 154.724 223.119 151.113 226.73 150.008C226.73 150.008 222.942 150.911 221.016 154.023L221.117 154.724Z" fill="#263238"/>
<path d="M221.117 144.49C221.117 144.49 223.119 140.879 226.73 139.774C226.73 139.774 222.942 140.677 221.016 143.789L221.117 144.49Z" fill="#263238"/>
<path d="M221.117 149.604C221.117 149.604 223.119 145.993 226.73 144.894C226.73 144.894 222.942 145.797 221.016 148.903L221.117 149.604Z" fill="#263238"/>
<path d="M220.814 147.098C220.814 147.098 218.883 143.486 215.398 142.388C215.398 142.388 219.072 143.291 220.915 146.397L220.814 147.098Z" fill="#263238"/>
<path d="M220.814 152.117C220.814 152.117 218.883 148.505 215.398 147.401C215.398 147.401 219.072 148.303 220.915 151.409L220.814 152.117Z" fill="#263238"/>
<path d="M174.343 120.305C174.343 120.305 196.086 122.457 207.102 135.93C207.102 135.93 218.744 120.324 239.646 120.639C244.758 114.479 248.015 106.993 249.037 99.0535C250.059 91.114 248.805 83.0475 245.421 75.7931C242.036 68.5387 236.661 62.395 229.92 58.0772C223.179 53.7595 215.351 51.4454 207.346 51.4044C199.341 51.3634 191.489 53.5971 184.704 57.8456C177.92 62.094 172.481 68.1823 169.023 75.4017C165.564 82.621 164.227 90.6743 165.168 98.6238C166.109 106.573 169.289 114.092 174.337 120.305H174.343Z" fill="#8185E7"/>
<path opacity="0.3" d="M174.343 120.305C174.343 120.305 196.086 122.457 207.102 135.93C207.102 135.93 218.744 120.324 239.646 120.639C244.758 114.479 248.015 106.993 249.037 99.0535C250.059 91.114 248.805 83.0475 245.421 75.7931C242.036 68.5387 236.661 62.395 229.92 58.0772C223.179 53.7595 215.351 51.4454 207.346 51.4044C199.341 51.3634 191.489 53.5971 184.704 57.8456C177.92 62.094 172.481 68.1823 169.023 75.4017C165.564 82.621 164.227 90.6743 165.168 98.6238C166.109 106.573 169.289 114.092 174.337 120.305H174.343Z" fill="white"/>
<path d="M206.383 54.3703L205.65 163.348H209.318L206.383 54.3703Z" fill="#263238"/>
<path d="M207.481 131.795C207.481 131.795 214.823 118.587 228.03 114.547C228.03 114.547 214.085 117.849 207.115 129.225L207.481 131.795Z" fill="#263238"/>
<path d="M207.481 94.3703C207.481 94.3703 214.823 81.1632 228.03 77.1228C228.03 77.1228 214.085 80.4246 207.115 91.8008L207.481 94.3703Z" fill="#263238"/>
<path d="M207.481 113.082C207.481 113.082 214.823 99.869 228.03 95.8349C228.03 95.8349 214.085 99.1367 207.115 110.513L207.481 113.082Z" fill="#263238"/>
<path d="M206.395 103.89C206.395 103.89 199.312 90.6771 186.566 86.643C186.566 86.643 200.019 89.9448 206.768 101.321L206.395 103.89Z" fill="#263238"/>
<path d="M206.395 122.255C206.395 122.255 199.312 109.042 186.566 105.008C186.566 105.008 200.019 108.31 206.768 119.686L206.395 122.255Z" fill="#263238"/>
<path d="M159.722 129.143C159.722 129.143 176.989 130.854 185.739 141.555C185.739 141.555 194.981 129.156 211.578 129.408C215.633 124.514 218.215 118.569 219.022 112.265C219.83 105.961 218.83 99.5576 216.139 93.7998C213.448 88.042 209.177 83.1669 203.823 79.7423C198.469 76.3177 192.253 74.4843 185.897 74.4557C179.542 74.427 173.309 76.2043 167.924 79.5806C162.54 82.9569 158.225 87.7932 155.483 93.5265C152.74 99.2599 151.682 105.654 152.433 111.965C153.184 118.276 155.711 124.244 159.722 129.175V129.143Z" fill="#8185E7"/>
<path opacity="0.5" d="M159.722 129.143C159.722 129.143 176.989 130.854 185.739 141.555C185.739 141.555 194.981 129.156 211.578 129.408C215.633 124.514 218.215 118.569 219.022 112.265C219.83 105.961 218.83 99.5576 216.139 93.7998C213.448 88.042 209.177 83.1669 203.823 79.7423C198.469 76.3177 192.253 74.4843 185.897 74.4557C179.542 74.427 173.309 76.2043 167.924 79.5806C162.54 82.9569 158.225 87.7932 155.483 93.5265C152.74 99.2599 151.682 105.654 152.433 111.965C153.184 118.276 155.711 124.244 159.722 129.175V129.143Z" fill="white"/>
<path d="M185.17 76.8135L184.59 163.348H187.5L185.17 76.8135Z" fill="#263238"/>
<path d="M186.048 138.291C186.048 138.291 191.875 127.805 202.361 124.598C202.361 124.598 191.288 127.218 185.751 136.252L186.048 138.291Z" fill="#263238"/>
<path d="M186.048 108.575C186.048 108.575 191.875 98.0824 202.361 94.8816C202.361 94.8816 191.288 97.5016 185.751 106.536L186.048 108.575Z" fill="#263238"/>
<path d="M186.048 123.461C186.048 123.461 191.875 112.975 202.361 109.768C202.361 109.768 191.288 112.394 185.751 121.422L186.048 123.461Z" fill="#263238"/>
<path d="M185.183 116.151C185.183 116.151 179.558 105.658 169.438 102.457C169.438 102.457 180.12 105.077 185.461 114.111L185.183 116.151Z" fill="#263238"/>
<path d="M185.183 130.715C185.183 130.715 179.558 120.229 169.438 117.022C169.438 117.022 180.12 119.642 185.461 128.676L185.183 130.715Z" fill="#263238"/>
<path d="M232.544 198.228V160.444H80.8712C76.3286 160.444 71.9193 161.979 68.3586 164.8L26.1616 198.228H232.544Z" fill="white" stroke="#263238" stroke-linecap="round" stroke-linejoin="round"/>
<path d="M85.1452 160.444L72.601 169.875C72.2003 170.175 71.8866 170.576 71.6919 171.037L66.6856 182.805C66.4812 183.286 66.1479 183.702 65.7224 184.006C65.2969 184.31 64.7957 184.491 64.274 184.528L58.649 184.932C58.0373 184.976 57.4562 185.216 56.9929 185.618C56.5296 186.02 56.2091 186.561 56.0795 187.161L54.6401 193.89C54.5179 194.467 54.2176 194.99 53.7816 195.387L50.7007 198.202" stroke="#263238" stroke-linecap="round" stroke-linejoin="round"/>
<path d="M94.1098 160.444L85.505 170.462C84.9877 171.061 84.7229 171.838 84.7664 172.628L85.1768 180.557C85.2037 181.1 85.3746 181.626 85.672 182.081C85.9693 182.536 86.3823 182.903 86.8687 183.146L90.4419 184.938C90.854 185.145 91.211 185.447 91.4833 185.819C91.7555 186.192 91.9353 186.623 92.0076 187.079L92.8662 192.432C92.9433 192.916 92.8969 193.412 92.7314 193.873C92.5658 194.334 92.2865 194.746 91.9192 195.071L88.3459 198.228" stroke="#263238" stroke-linecap="round" stroke-linejoin="round"/>
<path d="M138.63 160.444L131.256 168.234C130.916 168.595 130.658 169.025 130.499 169.494C130.34 169.964 130.284 170.462 130.335 170.955L131.521 182.527C131.58 183.097 131.495 183.673 131.275 184.202C131.054 184.732 130.705 185.197 130.259 185.557L114.602 198.228" stroke="#263238" stroke-linecap="round" stroke-linejoin="round"/>
<path d="M155.303 160.444L157.083 164.181C157.284 164.596 157.387 165.052 157.386 165.513V179.97C157.383 180.461 157.495 180.945 157.715 181.384C157.934 181.823 158.254 182.204 158.649 182.495L167.614 189.118C168.124 189.495 168.506 190.018 168.71 190.618C168.915 191.219 168.931 191.867 168.756 192.476L167.14 198.158" stroke="#263238" stroke-linecap="round" stroke-linejoin="round"/>
<path d="M199.659 160.444L197.519 177.218C197.435 177.883 197.109 178.494 196.604 178.935L193.725 181.46C193.215 181.906 192.888 182.525 192.807 183.198C192.727 183.87 192.899 184.549 193.289 185.103L202.576 198.247" stroke="#263238" stroke-linecap="round" stroke-linejoin="round"/>
<path d="M217.229 160.444L217.178 166.668C217.172 167.217 217.083 167.762 216.913 168.284L212.753 181.22C212.396 182.318 212.401 183.502 212.769 184.596C213.136 185.691 213.845 186.639 214.792 187.3L230.429 198.272" stroke="#263238" stroke-linecap="round" stroke-linejoin="round"/>
<path d="M68.3586 164.8L66.1174 166.574C64.5202 168.089 63.1944 170.153 66.5341 170.993C72.0959 172.382 80.4229 163.341 83.9204 167.514C87.4179 171.687 95.0442 169.598 99.2171 168.903C99.7033 168.82 100.195 168.774 100.688 168.764C102.95 168.724 105.174 168.179 107.197 167.167C108.203 166.694 109.263 166.344 110.353 166.125C116.61 164.736 117.999 164.736 118.693 166.82C119.388 168.903 115.221 169.598 122.866 170.993C130.511 172.388 145.814 166.125 148.592 166.125C151.37 166.125 152.058 168.916 159.722 168.916C167.386 168.916 165.978 167.527 172.241 167.527C178.504 167.527 175.713 166.832 181.976 167.527C187.054 168.089 192.164 168.321 197.273 168.221H209.091C214.653 168.221 216.736 164.048 221.603 164.749C226.117 165.38 226.452 166.012 232.563 166.681V160.462H80.8712C76.3308 160.457 71.9217 161.986 68.3586 164.8Z" fill="#8185E7" stroke="#263238" stroke-linecap="round" stroke-linejoin="round"/>
<path d="M235.044 24.7238C231.932 23.0256 230.518 24.4397 229.362 23.0256C228.207 21.6114 232.475 17.9372 223.996 14.2693C223.996 14.2693 223.428 6.35261 211.843 6.0622C200.259 5.7718 203.371 13.9726 200.259 15.9486C197.146 17.9246 196.307 14.8185 193.194 16.7945C190.082 18.7705 191.503 22.7289 188.958 23.2971C186.414 23.8652 183.024 20.7718 179.918 22.7289C176.812 24.6859 176.806 26.4031 175.391 26.4031C173.977 26.4031 171.155 25.2731 169.457 26.4031C167.759 27.5332 165.789 28.9284 165.789 28.9284H237.304C237.304 28.9284 238.15 26.4157 235.044 24.7238Z" fill="#8185E7"/>
<path opacity="0.8" d="M235.044 24.7238C231.932 23.0256 230.518 24.4397 229.362 23.0256C228.207 21.6114 232.475 17.9372 223.996 14.2693C223.996 14.2693 223.428 6.35261 211.843 6.0622C200.259 5.7718 203.371 13.9726 200.259 15.9486C197.146 17.9246 196.307 14.8185 193.194 16.7945C190.082 18.7705 191.503 22.7289 188.958 23.2971C186.414 23.8652 183.024 20.7718 179.918 22.7289C176.812 24.6859 176.806 26.4031 175.391 26.4031C173.977 26.4031 171.155 25.2731 169.457 26.4031C167.759 27.5332 165.789 28.9284 165.789 28.9284H237.304C237.304 28.9284 238.15 26.4157 235.044 24.7238Z" fill="white"/>
<path d="M68.649 55.8602C66.7551 54.8311 65.9154 55.6897 65.2336 54.8311C64.5518 53.9725 67.1275 51.7566 61.9886 49.5344C61.9886 49.5344 61.6477 44.7491 54.6402 44.5786C47.6326 44.4082 49.5139 49.364 47.6326 50.5635C45.7513 51.763 45.2399 49.8753 43.3649 51.0748C41.4899 52.2743 42.3359 54.6607 40.8018 55.0016C39.2677 55.3425 37.2096 53.4675 35.3346 54.6607C33.4596 55.8539 33.4407 56.8829 32.601 56.8829C31.7614 56.8829 30.0379 56.2011 29.0088 56.8829C27.9798 57.5647 26.7929 58.4233 26.7929 58.4233H70.019C70.019 58.4233 70.5303 56.8829 68.649 55.8602Z" fill="#8185E7"/>
<path opacity="0.8" d="M68.649 55.8602C66.7551 54.8311 65.9154 55.6897 65.2336 54.8311C64.5518 53.9725 67.1275 51.7566 61.9886 49.5344C61.9886 49.5344 61.6477 44.7491 54.6402 44.5786C47.6326 44.4082 49.5139 49.364 47.6326 50.5635C45.7513 51.763 45.2399 49.8753 43.3649 51.0748C41.4899 52.2743 42.3359 54.6607 40.8018 55.0016C39.2677 55.3425 37.2096 53.4675 35.3346 54.6607C33.4596 55.8539 33.4407 56.8829 32.601 56.8829C31.7614 56.8829 30.0379 56.2011 29.0088 56.8829C27.9798 57.5647 26.7929 58.4233 26.7929 58.4233H70.019C70.019 58.4233 70.5303 56.8829 68.649 55.8602Z" fill="white"/>
<path d="M161.572 160.45H123.889L130.859 51.1569H154.659L161.572 160.45Z" fill="white"/>
<mask id="mask0_616_1443" style="mask-type:luminance" maskUnits="userSpaceOnUse" x="123" y="51" width="39" height="110">
<path d="M161.572 160.45H123.889L130.859 51.1569H154.659L161.572 160.45Z" fill="white"/>
</mask>
<g mask="url(#mask0_616_1443)">
<path d="M146.679 160.45H161.572L154.659 51.1569H146.679V160.45Z" fill="#8185E7"/>
<path opacity="0.5" d="M146.679 160.45H161.572L154.659 51.1569H146.679V160.45Z" fill="white"/>
</g>
<path d="M161.572 160.45H123.889L130.859 51.1569H154.659L161.572 160.45Z" stroke="#263238" stroke-linecap="round" stroke-linejoin="round"/>
<path d="M157.039 39.1114H128.479L130.859 51.1569H154.659L157.039 39.1114Z" fill="white"/>
<mask id="mask1_616_1443" style="mask-type:luminance" maskUnits="userSpaceOnUse" x="128" y="39" width="30" height="13">
<path d="M157.039 39.1114H128.479L130.859 51.1569H154.659L157.039 39.1114Z" fill="white"/>
</mask>
<g mask="url(#mask1_616_1443)">
<path d="M146.679 51.1569H154.659L157.039 39.1114H146.679V51.1569Z" fill="#8185E7"/>
<path opacity="0.5" d="M146.679 51.1569H154.659L157.039 39.1114H146.679V51.1569Z" fill="white"/>
</g>
<path d="M157.039 39.1114H128.479L130.859 51.1569H154.659L157.039 39.1114Z" stroke="#263238" stroke-linecap="round" stroke-linejoin="round"/>
<path d="M157.039 32.0471H128.479V39.042H157.039V32.0471Z" fill="white"/>
<mask id="mask2_616_1443" style="mask-type:luminance" maskUnits="userSpaceOnUse" x="128" y="32" width="30" height="8">
<path d="M157.039 32.0471H128.479V39.042H157.039V32.0471Z" fill="white"/>
</mask>
<g mask="url(#mask2_616_1443)">
<path d="M157.039 32.0471H146.679V39.042H157.039V32.0471Z" fill="#8185E7"/>
<path opacity="0.5" d="M157.039 32.0471H146.679V39.042H157.039V32.0471Z" fill="white"/>
</g>
<path d="M157.039 32.0471H128.479V39.042H157.039V32.0471Z" stroke="#263238" stroke-linecap="round" stroke-linejoin="round"/>
<path d="M126.78 22.9751V32.4006H127.816V23.84H157.702V32.4006H158.744V22.9751H126.78Z" fill="#263238" stroke="#263238" stroke-miterlimit="10"/>
<path d="M131.395 22.9751H129.558V32.4006H131.395V22.9751Z" fill="#263238" stroke="#263238" stroke-miterlimit="10"/>
<path d="M139.583 22.9751H137.746V32.4006H139.583V22.9751Z" fill="#263238" stroke="#263238" stroke-miterlimit="10"/>
<path d="M147.771 22.9751H145.934V32.4006H147.771V22.9751Z" fill="#263238" stroke="#263238" stroke-miterlimit="10"/>
<path d="M155.953 22.9751H154.116V32.4006H155.953V22.9751Z" fill="#263238" stroke="#263238" stroke-miterlimit="10"/>
<path d="M158.744 30.5508H126.78V32.4069H158.744V30.5508Z" fill="#263238" stroke="#263238" stroke-miterlimit="10"/>
<path d="M152.203 12.5521H133.321V30.5887H152.203V12.5521Z" fill="#263238" stroke="#263238" stroke-miterlimit="10"/>
<path d="M152.203 12.5521H133.321V20.6013H152.203V12.5521Z" fill="#8185E7" stroke="#263238" stroke-miterlimit="10"/>
<path d="M145.335 16.5799C145.336 16.0702 145.186 15.5716 144.904 15.1471C144.621 14.7227 144.219 14.3916 143.749 14.1957C143.278 13.9998 142.76 13.9479 142.26 14.0465C141.76 14.1452 141.301 14.39 140.94 14.75C140.579 15.11 140.333 15.5689 140.233 16.0687C140.133 16.5685 140.184 17.0868 140.379 17.5578C140.573 18.0288 140.903 18.4315 141.327 18.7148C141.751 18.9981 142.249 19.1493 142.759 19.1493C143.441 19.1493 144.095 18.8788 144.578 18.3971C145.061 17.9155 145.333 17.2619 145.335 16.5799Z" fill="white"/>
<path d="M137.727 12.5521H136.629V20.6013H137.727V12.5521Z" fill="#263238" stroke="#263238" stroke-miterlimit="10"/>
<path d="M149.274 12.5521H148.175V20.6013H149.274V12.5521Z" fill="#263238" stroke="#263238" stroke-miterlimit="10"/>
<path d="M142.74 4.61018L131.673 12.6594H153.851L142.74 4.61018Z" fill="#8185E7" stroke="#263238" stroke-linecap="round" stroke-linejoin="round"/>
<path d="M142.74 4.80589C143.315 4.80589 143.782 4.33952 143.782 3.76422C143.782 3.18893 143.315 2.72256 142.74 2.72256C142.165 2.72256 141.698 3.18893 141.698 3.76422C141.698 4.33952 142.165 4.80589 142.74 4.80589Z" fill="#8185E7" stroke="#263238" stroke-miterlimit="10"/>
<path d="M145.032 35.5887H140.429V45.494H145.032V35.5887Z" fill="#263238" stroke="#263238" stroke-miterlimit="10"/>
<path d="M144.312 36.2137H141.143V44.8753H144.312V36.2137Z" fill="white" stroke="#263238" stroke-miterlimit="10"/>
<path d="M145.032 39.9385H140.429V41.1443H145.032V39.9385Z" fill="#263238" stroke="#263238" stroke-miterlimit="10"/>
<path d="M145.032 76.0306H140.429V85.9359H145.032V76.0306Z" fill="#263238" stroke="#263238" stroke-linecap="round" stroke-linejoin="round"/>
<path d="M144.312 76.6556H141.143V85.3172H144.312V76.6556Z" fill="white" stroke="#263238" stroke-linecap="round" stroke-linejoin="round"/>
<path d="M145.032 80.3804H140.429V81.5862H145.032V80.3804Z" fill="#263238" stroke="#263238" stroke-linecap="round" stroke-linejoin="round"/>
<path d="M145.183 129.345H112.576V160.45H145.183V129.345Z" fill="#263238" stroke="#263238" stroke-linecap="round" stroke-linejoin="round"/>
<path d="M145.183 129.345H112.576V150.324H145.183V129.345Z" fill="white"/>
<mask id="mask3_616_1443" style="mask-type:luminance" maskUnits="userSpaceOnUse" x="112" y="129" width="34" height="22">
<path d="M145.183 129.345H112.576V150.324H145.183V129.345Z" fill="white"/>
</mask>
<g mask="url(#mask3_616_1443)">
<path d="M112.576 132.906H138.895V150.33H145.189V129.345H112.576V132.906Z" fill="#8185E7"/>
<path opacity="0.5" d="M112.576 132.906H138.895V150.33H145.189V129.345H112.576V132.906Z" fill="white"/>
</g>
<path d="M145.183 129.345H112.576V150.324H145.183V129.345Z" stroke="#263238" stroke-linecap="round" stroke-linejoin="round"/>
<path d="M128.851 115.627L109.729 129.534H148.03L128.851 115.627Z" fill="#8185E7" stroke="#263238" stroke-linecap="round" stroke-linejoin="round"/>
<path d="M130.789 131.586H126.187V141.491H130.789V131.586Z" fill="#263238" stroke="#263238" stroke-linecap="round" stroke-linejoin="round"/>
<path d="M130.069 132.211H126.9V140.873H130.069V132.211Z" fill="white" stroke="#263238" stroke-linecap="round" stroke-linejoin="round"/>
<path d="M130.789 135.936H126.187V137.142H130.789V135.936Z" fill="#263238" stroke="#263238" stroke-linecap="round" stroke-linejoin="round"/>
<path d="M148.03 129.534L128.851 115.627L139.634 129.534H148.03Z" fill="#8185E7" stroke="#263238" stroke-linecap="round" stroke-linejoin="round"/>
</g>
<defs>
<clipPath id="clip0_616_1443">
<rect width="250" height="196.97" fill="white" transform="translate(0 2)"/>
</clipPath>
</defs>
</svg>
