<svg width="250" height="200" viewBox="0 0 250 200" fill="none" xmlns="http://www.w3.org/2000/svg">
<rect width="250" height="200" fill="white"/>
<g clip-path="url(#clip0_616_1917)">
<path opacity="0.7" d="M43.2297 62.2027C43.2297 62.2027 30.6711 94.6351 48.3198 127.293C65.9684 159.95 102.32 177.203 131.414 191.955C160.509 206.707 190.721 199.523 205.077 175.36C219.432 151.198 199.743 133.95 199.716 99.4955C199.689 65.0405 204.874 55.9189 186.203 26.8108C167.531 -2.2973 121.761 -8.74324 87.1486 12.8468C52.536 34.4369 43.2297 62.2027 43.2297 62.2027Z" fill="white"/>
<path d="M99.1171 190.198C111.369 197.788 133.923 187.878 142.428 178.779C170.022 149.239 218.878 99.2973 208.27 48.4009C203.766 26.7793 181.991 20.527 173.261 19.3153C152.302 16.3964 130.964 19.491 110.284 23.964C88.6621 28.6396 65.9729 35.4234 49.4729 50.9099C43.2612 56.7568 37.7117 63.6486 34.8288 71.7973C31.9009 80.0766 31.3558 89.1577 32.8468 97.7838C35.2612 111.703 42.518 124.36 51.3468 135.405C60.1756 146.45 70.6036 156.045 80.5045 166.117C86.9549 172.689 88.7973 183.784 99.1171 190.198Z" fill="#8185E7"/>
<path opacity="0.7" d="M99.1171 190.198C111.369 197.788 133.923 187.878 142.428 178.779C170.022 149.239 218.878 99.2973 208.27 48.4009C203.766 26.7793 181.991 20.527 173.261 19.3153C152.302 16.3964 130.964 19.491 110.284 23.964C88.6621 28.6396 65.9729 35.4234 49.4729 50.9099C43.2612 56.7568 37.7117 63.6486 34.8288 71.7973C31.9009 80.0766 31.3558 89.1577 32.8468 97.7838C35.2612 111.703 42.518 124.36 51.3468 135.405C60.1756 146.45 70.6036 156.045 80.5045 166.117C86.9549 172.689 88.7973 183.784 99.1171 190.198Z" fill="white"/>
<path d="M45.2117 55.1036H37.2612C37.2612 55.1036 38.054 53.1351 44.2387 53.7883C44.2387 53.7883 47.3198 50.2613 51.8108 50.2613C51.8971 49.4268 52.2602 48.6453 52.8423 48.0412C53.4243 47.4371 54.1918 47.0452 55.0225 46.9279C58.0901 46.3378 58.6847 49.0721 58.6847 49.0721C59.5223 48.7099 60.4252 48.523 61.3378 48.523C62.2504 48.523 63.1533 48.7099 63.991 49.0721C67.0315 50.2703 66.4144 53.7793 66.4144 53.7793C66.4144 53.7793 75.1892 53.491 76.6982 55.1036H72.1937" stroke="#2F2E41" stroke-width="0.5" stroke-linecap="round" stroke-linejoin="round"/>
<path d="M46.5946 55.1036H47.9234" stroke="#2F2E41" stroke-width="0.5" stroke-linecap="round" stroke-linejoin="round"/>
<path d="M55.2477 55.0811H67.3963" stroke="#2F2E41" stroke-width="0.5" stroke-linecap="round" stroke-linejoin="round"/>
<path d="M112.977 99.4009H101.369C101.369 99.4009 102.05 97.7207 107.324 98.2793C107.324 98.2793 109.955 95.2703 113.784 95.2703C113.859 94.5581 114.169 93.8913 114.666 93.3756C115.163 92.8599 115.818 92.5248 116.527 92.4234C119.144 91.9234 119.653 94.2568 119.653 94.2568C120.368 93.9475 121.138 93.7879 121.917 93.7879C122.695 93.7879 123.466 93.9475 124.18 94.2568C126.775 95.2793 126.252 98.2748 126.252 98.2748C126.252 98.2748 133.739 98.027 135.023 99.4009H132.212" stroke="#2F2E41" stroke-width="0.5" stroke-linecap="round" stroke-linejoin="round"/>
<path d="M115.721 99.3153H117.383" stroke="#2F2E41" stroke-width="0.5" stroke-linecap="round" stroke-linejoin="round"/>
<path d="M112.153 21.0676H100.522C100.522 21.0676 101.203 19.3874 106.477 19.9504C106.477 19.9504 109.104 16.9369 112.937 16.9369C113.011 16.225 113.322 15.5584 113.819 15.0433C114.316 14.5282 114.971 14.1943 115.68 14.0946C118.297 13.5901 118.806 15.9234 118.806 15.9234C119.518 15.6173 120.284 15.4594 121.059 15.4594C121.833 15.4594 122.599 15.6173 123.311 15.9234C125.905 16.9459 125.378 19.9414 125.378 19.9414C125.378 19.9414 132.869 19.6937 134.153 21.0676H131.342" stroke="#2F2E41" stroke-width="0.5" stroke-linecap="round" stroke-linejoin="round"/>
<path d="M114.892 20.982H116.559" stroke="#2F2E41" stroke-width="0.5" stroke-linecap="round" stroke-linejoin="round"/>
<path d="M75.6621 120.631H46.6711C48.8333 118.32 61.4369 118.73 61.4369 118.73C61.4369 118.73 60.536 113.694 64.9234 111.973C69.3108 110.252 72.545 111.973 72.545 111.973C72.545 111.973 73.4009 108.045 77.8063 108.892C82.2117 109.739 82.4234 113.68 82.4234 113.68C88.8783 113.68 93.3018 118.752 93.3018 118.752C102.185 117.806 103.329 120.635 103.329 120.635H100.09" stroke="#2F2E41" stroke-width="0.5" stroke-linecap="round" stroke-linejoin="round"/>
<path d="M97.6621 120.631H96.4324" stroke="#2F2E41" stroke-width="0.5" stroke-linecap="round" stroke-linejoin="round"/>
<path d="M80.6802 120.631H84.9144" stroke="#2F2E41" stroke-width="0.5" stroke-linecap="round" stroke-linejoin="round"/>
<path d="M175.009 51.0405H140.324C140.324 51.0405 141.761 47.4955 152.896 48.6802C152.896 48.6802 158.446 42.3198 166.532 42.3198C166.532 42.3198 166.802 37.3649 172.324 36.3153C177.847 35.2658 178.919 40.1802 178.919 40.1802C178.919 40.1802 183 38.018 188.477 40.1802C193.955 42.3423 192.847 48.6622 192.847 48.6622C192.847 48.6622 208.653 48.1441 211.365 51.0405H203.351" stroke="#2F2E41" stroke-width="0.5" stroke-linecap="round" stroke-linejoin="round"/>
<path d="M178.324 51.0405H181.55" stroke="#2F2E41" stroke-width="0.5" stroke-linecap="round" stroke-linejoin="round"/>
<path d="M184.703 129.468H212.365C212.365 129.468 211.221 126.644 202.338 127.586C202.338 127.586 197.914 122.514 191.464 122.514C191.464 122.514 191.248 118.572 186.842 117.725C182.437 116.878 181.581 120.806 181.581 120.806C181.581 120.806 178.329 119.081 173.959 120.806C169.59 122.532 170.477 127.563 170.477 127.563C170.477 127.563 157.865 127.149 155.707 129.459H164.077" stroke="#2F2E41" stroke-width="0.5" stroke-linecap="round" stroke-linejoin="round"/>
<path d="M166.338 129.468H170.419" stroke="#2F2E41" stroke-width="0.5" stroke-linecap="round" stroke-linejoin="round"/>
<path d="M127.878 140.221V118.441H131.468V127.221H135V140.351" stroke="#2F2E41" stroke-width="0.5" stroke-linecap="round" stroke-linejoin="round"/>
<path d="M141.928 127.014V106.608H149.108V97.7613H162.887V100.901H166.338V121.676" stroke="#2F2E41" stroke-width="0.5" stroke-linecap="round" stroke-linejoin="round"/>
<path d="M181.55 113.779V93.3694H186.171V84.1261H187.991V68.2387H189.5V75.8829L193.207 79.5901V88.8423H197.446V109.113H201.302V114.698" stroke="#2F2E41" stroke-width="0.5" stroke-linecap="round" stroke-linejoin="round"/>
<path d="M168.378 110.806H171.919V88.6261H174.766V56.7342H175.842V78.1396H178.324V100.45H180.09" stroke="#2F2E41" stroke-width="0.5" stroke-linecap="round" stroke-linejoin="round"/>
<path d="M140.324 114.698H137.338V108.104H135.748V114.698H133.522V124.59" stroke="#2F2E41" stroke-width="0.5" stroke-linecap="round" stroke-linejoin="round"/>
<path d="M145.892 104.351V88.8423H150.734V75.8829H152.41V88.8423H155.712V95.6306" stroke="#2F2E41" stroke-width="0.5" stroke-linecap="round" stroke-linejoin="round"/>
<path d="M150.802 106.608H158.509V123.95" stroke="#2F2E41" stroke-width="0.5" stroke-linecap="round" stroke-linejoin="round"/>
<path d="M147.505 139.257V128.955H138.73V150.739" stroke="#2F2E41" stroke-width="0.5" stroke-linecap="round" stroke-linejoin="round"/>
<path d="M131.468 144.95V142.027H122.495V165.541H120.122" stroke="#2F2E41" stroke-width="0.5" stroke-linecap="round" stroke-linejoin="round"/>
<path d="M187.991 100.221H194.054" stroke="#2F2E41" stroke-width="0.5" stroke-linecap="round" stroke-linejoin="round"/>
<path d="M187.991 103.419H194.054" stroke="#2F2E41" stroke-width="0.5" stroke-linecap="round" stroke-linejoin="round"/>
<path d="M187.991 106.977H193.59" stroke="#2F2E41" stroke-width="0.5" stroke-linecap="round" stroke-linejoin="round"/>
<path d="M160.626 99.4009H152.41" stroke="#2F2E41" stroke-width="0.5" stroke-linecap="round" stroke-linejoin="round"/>
<path d="M144.716 110.36H154.131" stroke="#2F2E41" stroke-width="0.5" stroke-linecap="round" stroke-linejoin="round"/>
<path d="M144.716 112.387H154.131" stroke="#2F2E41" stroke-width="0.5" stroke-linecap="round" stroke-linejoin="round"/>
<path d="M144.716 114.698H154.131" stroke="#2F2E41" stroke-width="0.5" stroke-linecap="round" stroke-linejoin="round"/>
<path d="M174.234 92.8784V113.779" stroke="#2F2E41" stroke-width="0.5" stroke-linecap="round" stroke-linejoin="round"/>
<path d="M175.842 92.8784V113.779" stroke="#2F2E41" stroke-width="0.5" stroke-linecap="round" stroke-linejoin="round"/>
<path d="M67.7567 61.5901C67.7567 61.5901 72.5135 57.2207 75.8063 57.7432C76.3558 57.8288 73.5315 63.2072 73.5315 63.2072L67.7567 61.5901Z" fill="#8185E7"/>
<mask id="mask0_616_1917" style="mask-type:luminance" maskUnits="userSpaceOnUse" x="67" y="57" width="9" height="7">
<path d="M67.7567 61.5901C67.7567 61.5901 72.5135 57.2207 75.8063 57.7432C76.3558 57.8288 73.5315 63.2072 73.5315 63.2072L67.7567 61.5901Z" fill="white"/>
</mask>
<g mask="url(#mask0_616_1917)">
<path opacity="0.5" d="M67.7567 61.5901C67.7567 61.5901 72.5135 57.2207 75.8063 57.7432C76.3558 57.8288 73.5315 63.2072 73.5315 63.2072L67.7567 61.5901Z" fill="#8A88A0" fill-opacity="0.7"/>
</g>
<path d="M67.7567 61.5901C67.7567 61.5901 72.5135 57.2207 75.8063 57.7432C76.3558 57.8288 73.5315 63.2072 73.5315 63.2072L67.7567 61.5901Z" stroke="#2F2E41" stroke-width="0.5" stroke-linecap="round" stroke-linejoin="round"/>
<path d="M111.329 80.5631C111.329 80.5631 111.509 94.8784 112.041 97.2658C112.526 99.038 113.246 100.738 114.18 102.32C114.18 102.32 112.631 133.685 113.135 135.135C113.64 136.586 115.784 146.514 115.784 146.514L118.279 184.527H117.378C117.378 184.527 113.982 148.649 113.982 147.586C113.982 146.523 111.311 137.171 111.311 137.171C111.311 137.171 110.955 106.063 111.311 104.288C111.667 102.514 109.221 97.8243 109.221 97.8243C109.221 97.8243 109.252 83.4369 108.5 82.009C108.518 82.0045 110.081 80.7252 111.329 80.5631Z" fill="#8A88A0" stroke="#2F2E41" stroke-width="0.5" stroke-linecap="round" stroke-linejoin="round"/>
<path d="M75.8063 97.2658C75.8063 97.2658 70.9684 105.396 72.5135 112.581C72.5135 112.581 70.6711 137.257 69.9549 138.86C69.2387 140.464 64.4324 147.554 62.9549 157.878C62.0616 164.126 60.7066 170.299 58.9009 176.347H65.3333C65.3333 176.347 74.9369 145.955 76.9054 144.365C78.8739 142.775 82.4955 132.144 85.054 122.658C85.054 122.658 88.5045 139.486 89.8784 142.698C91.2522 145.91 90.1036 155.185 92.0675 161.113C94.009 166.968 93.8693 176.365 93.8693 176.365C93.8693 176.365 100.559 178.023 100.495 176.365C100.045 164.896 102.365 154.968 99.4955 144.761C98.1441 139.995 100.847 112.144 95.9189 97.2883L75.8063 97.2658Z" fill="#8A88A0"/>
<mask id="mask1_616_1917" style="mask-type:luminance" maskUnits="userSpaceOnUse" x="58" y="97" width="43" height="81">
<path d="M75.8063 97.2658C75.8063 97.2658 70.9684 105.396 72.5135 112.581C72.5135 112.581 70.6711 137.257 69.9549 138.86C69.2387 140.464 64.4324 147.554 62.9549 157.878C62.0616 164.126 60.7066 170.299 58.9009 176.347H65.3333C65.3333 176.347 74.9369 145.955 76.9054 144.365C78.8739 142.775 82.4955 132.144 85.054 122.658C85.054 122.658 88.5045 139.486 89.8784 142.698C91.2522 145.91 90.1036 155.185 92.0675 161.113C94.009 166.968 93.8693 176.365 93.8693 176.365C93.8693 176.365 100.559 178.023 100.495 176.365C100.045 164.896 102.365 154.968 99.4955 144.761C98.1441 139.995 100.847 112.144 95.9189 97.2883L75.8063 97.2658Z" fill="white"/>
</mask>
<g mask="url(#mask1_616_1917)">
<path opacity="0.3" d="M84.9144 120.631C84.9144 120.955 84.964 121.775 85.0226 122.793C82.464 132.252 78.8694 142.748 76.9144 144.342C74.9595 145.937 65.3424 176.324 65.3424 176.324H58.9189C60.7246 170.277 62.0797 164.104 62.973 157.856C64.437 147.532 69.2793 140.459 69.973 138.851C70.6667 137.243 72.5135 112.613 72.5135 112.613C72.1426 110.745 72.106 108.826 72.4054 106.946C72.7478 109.392 74.2072 112.428 79.1622 113.212C78.8594 112.27 78.7734 111.272 78.9107 110.292C79.048 109.312 79.405 108.376 79.955 107.554C79.955 107.554 78.9955 112.613 83.0586 114.982C83.2388 115.086 83.1802 115.802 83.1802 115.802C83.1802 115.802 84.8964 119.455 84.9144 120.631Z" fill="#8A88A0" fill-opacity="0.7"/>
<path opacity="0.3" d="M96.5586 99.3243C94.9145 100.32 91.3514 101.482 83.7658 101.176C82.5172 102.201 81.4708 103.451 80.6803 104.86L79.955 104.284C79.955 104.284 76.4821 106.261 72.7073 105.293C73.3521 102.482 74.3957 99.777 75.8064 97.2613H95.964C96.1667 97.9234 96.3694 98.6126 96.5586 99.3243Z" fill="#8A88A0" fill-opacity="0.7"/>
</g>
<path d="M75.8063 97.2658C75.8063 97.2658 70.9684 105.396 72.5135 112.581C72.5135 112.581 70.6711 137.257 69.9549 138.86C69.2387 140.464 64.4324 147.554 62.9549 157.878C62.0616 164.126 60.7066 170.299 58.9009 176.347H65.3333C65.3333 176.347 74.9369 145.955 76.9054 144.365C78.8739 142.775 82.4955 132.144 85.054 122.658C85.054 122.658 88.5045 139.486 89.8784 142.698C91.2522 145.91 90.1036 155.185 92.0675 161.113C94.009 166.968 93.8693 176.365 93.8693 176.365C93.8693 176.365 100.559 178.023 100.495 176.365C100.045 164.896 102.365 154.968 99.4955 144.761C98.1441 139.995 100.847 112.144 95.9189 97.2883L75.8063 97.2658Z" stroke="#2F2E41" stroke-width="0.5" stroke-linecap="round" stroke-linejoin="round"/>
<path d="M81.2116 103.626C81.2116 103.626 77.8783 109.991 81.5044 113.775C81.5044 113.775 86.0855 118.077 91.0269 117.045" stroke="#2F2E41" stroke-width="0.5" stroke-linecap="round" stroke-linejoin="round"/>
<path d="M85.063 122.635C85.063 122.635 84.6126 119.167 83.7522 117.68C82.8918 116.194 83.1801 115.788 83.1801 115.788C83.1801 115.788 79.2792 116.991 76.7567 116.072" stroke="#2F2E41" stroke-width="0.5" stroke-linecap="round" stroke-linejoin="round"/>
<path d="M72.5134 112.613C73.3967 113.445 74.445 114.082 75.5903 114.483C76.7357 114.885 77.9525 115.041 79.1621 114.941" stroke="#2F2E41" stroke-width="0.5" stroke-linecap="round" stroke-linejoin="round"/>
<path d="M81.2117 59.545C81.572 59.3964 99.5495 58.0541 100.446 56.2027C99.5636 54.5274 98.9005 52.7455 98.4729 50.9009C97.3502 46.6441 95.5445 42.5975 93.1261 38.9189L97.6306 38.0946C100.333 45.6892 106.712 52.4279 106.599 59.473C106.599 59.473 96.8693 66.0901 86.9639 67.1667C84.1126 67.4685 81.2117 59.545 81.2117 59.545Z" fill="white" stroke="#2F2E41" stroke-width="0.5" stroke-linecap="round" stroke-linejoin="round"/>
<path d="M87.2027 54.5405C86.5929 54.4558 85.9723 54.5745 85.4369 54.8784C83.6081 55.9865 83.9414 59.2928 83.9414 59.2928L75.8063 57.7432C77.581 55.1622 77.1261 49.2387 77.1261 49.2387C84.7477 42.0946 86.5856 48.6396 87.036 52.3919C87.1756 53.4504 87.1982 54.2838 87.2027 54.5405Z" fill="white" stroke="#2F2E41" stroke-width="0.5" stroke-linecap="round" stroke-linejoin="round"/>
<path d="M87.2027 54.5405C86.593 54.4558 85.9723 54.5745 85.437 54.8784C84.7852 53.789 84.3751 52.5724 84.2343 51.3108L87.0496 52.3964C87.1757 53.4505 87.1982 54.2838 87.2027 54.5405Z" fill="#2F2E41"/>
<path d="M72.8874 37.045C72.8874 37.045 72.1937 32.991 79.0045 32.3694C85.8153 31.7477 92.0676 33.6261 92.0676 38.5901C92.0676 43.5541 87.9594 53.8063 79.7838 49.2387C71.6081 44.6712 72.8874 37.045 72.8874 37.045Z" fill="#2F2E41"/>
<path d="M76.8423 49.8018C76.1396 48.9009 74.2838 45.6667 73.9865 44.4324C72.1486 36.8423 76.3018 36.2928 79.3919 34.7568C85.2703 31.8423 90.6171 37.7522 90.1576 43.0135C89.6982 48.2748 92.1802 47.6531 92.0676 48.3784C91.973 48.991 90.3964 49.6126 90.3964 49.6126C90.3711 50.0634 90.3847 50.5155 90.4369 50.964L90.0495 51.3198C89.8468 52.3198 89.3874 54.8423 89.0585 54.9234C88.4009 55.1216 84.7117 53.8333 84.1036 52.4685" fill="white"/>
<path d="M76.8423 49.8018C76.1396 48.9009 74.2838 45.6667 73.9865 44.4324C72.1486 36.8423 76.3018 36.2928 79.3919 34.7568C85.2703 31.8423 90.6171 37.7522 90.1576 43.0135C89.6982 48.2748 92.1802 47.6531 92.0676 48.3784C91.973 48.991 90.3964 49.6126 90.3964 49.6126C90.3711 50.0634 90.3847 50.5155 90.4369 50.964L90.0495 51.3198C89.8468 52.3198 89.3874 54.8423 89.0585 54.9234C88.4009 55.1216 84.7117 53.8333 84.1036 52.4685" stroke="#2F2E41" stroke-width="0.5" stroke-linecap="round" stroke-linejoin="round"/>
<path d="M89.5901 45.2342C89.536 45.6171 89.3198 45.9009 89.1081 45.8739C88.8964 45.8468 88.7612 45.509 88.8108 45.1261C88.8603 44.7432 89.0811 44.4595 89.2973 44.491C89.5135 44.5225 89.6576 44.8514 89.5901 45.2342Z" fill="#2F2E41"/>
<path d="M89.8784 42.2432C89.8784 42.2432 88.8964 42.0766 87.9099 43.1441" stroke="#2F2E41" stroke-width="0.5" stroke-linecap="round" stroke-linejoin="round"/>
<path d="M87.8559 34.7838C85.1532 32.7162 70.0721 30.5901 72.5766 42.509C72.2432 43.9865 73.2568 46.4775 76.6306 50.518C76.6306 50.518 78.2658 49.2387 80.018 50.3378C80.018 50.3378 81.0766 47.0586 82.9009 46.3153C83.2952 46.1427 83.6449 45.8823 83.9234 45.5541C88.7523 44.3468 89.3649 39.7658 89.3018 38.1622C89.5901 37.7252 90.1081 36.4865 87.8559 34.7838Z" fill="#2F2E41"/>
<path d="M75.8063 35.1351C75.8063 35.1351 71.8783 30.7207 67.063 33.1847C62.2477 35.6486 63.536 42.5315 66.2027 46.2477C68.8693 49.964 65.5991 52.9595 66.6306 54.982C67.6621 57.0045 69.8378 56.1712 69.8378 56.1712C69.4797 55.9541 69.1769 55.6568 68.9533 55.3027C68.7297 54.9485 68.5915 54.5473 68.5495 54.1306C68.3738 52.6712 71.3018 51.982 71.3018 47.8514C71.3018 43.7207 70.3558 40.0225 73.7973 41.7432C77.2387 43.464 75.8063 35.1351 75.8063 35.1351Z" fill="#2F2E41"/>
<path d="M90.0541 51.3063C90.0541 51.3063 88.5496 51.3829 87.9099 50.7883" stroke="#2F2E41" stroke-width="0.5" stroke-linecap="round" stroke-linejoin="round"/>
<g opacity="0.2">
<path d="M75.8062 35.1351C75.8062 35.1351 78.1486 38.1261 75.3333 40.6036" stroke="white" stroke-width="0.5" stroke-linecap="round" stroke-linejoin="round"/>
<path d="M87.8558 34.7838C87.8558 34.7838 91.4594 38.7162 84.2522 43.1216" stroke="white" stroke-width="0.5" stroke-linecap="round" stroke-linejoin="round"/>
<path d="M86.5044 34.0946C86.5044 34.0946 87.9098 35.446 84.7026 38.0991C81.4954 40.7523 79.099 41.4415 76.7341 41.3198" stroke="white" stroke-width="0.5" stroke-linecap="round" stroke-linejoin="round"/>
<path d="M74.7297 37.4505C74.7297 37.4505 72.6531 34.0721 69.3603 36.3874C66.0675 38.7027 66.7792 41.8919 68.5585 45.5541C70.3378 49.2162 69.1306 51.6216 69.1306 51.6216" stroke="white" stroke-width="0.5" stroke-linecap="round" stroke-linejoin="round"/>
<path d="M68.4864 33.536C68.4864 33.536 64.4324 33.6532 64.7432 38.9414C65.054 44.2297 66.9414 44.1982 67.3558 46.7478" stroke="white" stroke-width="0.5" stroke-linecap="round" stroke-linejoin="round"/>
<path d="M79.4775 45.5541C79.4775 45.5541 75.4234 46.455 73.9009 43.1216" stroke="white" stroke-width="0.5" stroke-linecap="round" stroke-linejoin="round"/>
</g>
<path d="M83.3873 46.0586C83.3873 46.0586 82.7207 43.6261 80.9549 44.4459C79.1891 45.2658 80.7342 47.5991 81.6081 48.7072C81.7239 48.8871 81.8894 49.0295 82.0845 49.1174C82.2795 49.2053 82.4959 49.2348 82.7074 49.2024C82.9189 49.1701 83.1164 49.0771 83.2763 48.9349C83.4361 48.7927 83.5513 48.6072 83.6081 48.4009" fill="white"/>
<path d="M83.3873 46.0586C83.3873 46.0586 82.7207 43.6261 80.9549 44.4459C79.1891 45.2658 80.7342 47.5991 81.6081 48.7072C81.7239 48.8871 81.8894 49.0295 82.0845 49.1174C82.2795 49.2053 82.4959 49.2348 82.7074 49.2024C82.9189 49.1701 83.1164 49.0771 83.2763 48.9349C83.4361 48.7927 83.5513 48.6072 83.6081 48.4009" stroke="#2F2E41" stroke-width="0.5" stroke-linecap="round" stroke-linejoin="round"/>
<path d="M75.2432 56.482L75.054 57.8559C68.1035 64.3559 72.6936 79.6306 77.0585 89.3874L74.2702 98.1982C74.2702 98.1982 86.1621 102.158 96.9999 99.0586L95.9639 88.7117L94.7612 80.6306C94.7612 80.6306 95.7522 77.8784 95.9459 72.5225C96.1396 67.1667 86.054 53.473 75.2432 56.482Z" fill="#2F2E41"/>
<path d="M95.0631 40.3018C95.0631 40.3018 93.2613 41.2658 92.491 41.0045C92.491 41.0045 88.6126 41.2252 88.5045 39.5856C89.1695 39.4703 89.8051 39.2246 90.3748 38.8629C90.9446 38.5011 91.4372 38.0303 91.8243 37.4775C92.473 36.5766 98.0676 36.5766 97.7388 38.4459C97.6842 38.7471 97.5606 39.0315 97.3777 39.2769C97.1949 39.5223 96.9577 39.722 96.6847 39.8604" fill="white"/>
<path d="M95.0631 40.3018C95.0631 40.3018 93.2613 41.2658 92.491 41.0045C92.491 41.0045 88.6126 41.2252 88.5045 39.5856C89.1695 39.4703 89.8051 39.2246 90.3748 38.8629C90.9446 38.5011 91.4372 38.0303 91.8243 37.4775C92.473 36.5766 98.0676 36.5766 97.7388 38.4459C97.6842 38.7471 97.5606 39.0315 97.3777 39.2769C97.1949 39.5223 96.9577 39.722 96.6847 39.8604" stroke="#2F2E41" stroke-width="0.5" stroke-linecap="round" stroke-linejoin="round"/>
<path d="M91.8198 37.4775C92.6171 37.3514 92.2252 37.7568 92.7928 37.7162C93.3604 37.6757 93.4099 37.3108 93.8243 37.8514C94.2387 38.3919 94.6982 37.8514 95.1261 38.0315" fill="white"/>
<path d="M91.8198 37.4775C92.6171 37.3514 92.2252 37.7568 92.7928 37.7162C93.3604 37.6757 93.4099 37.3108 93.8243 37.8514C94.2387 38.3919 94.6982 37.8514 95.1261 38.0315" stroke="#2F2E41" stroke-width="0.5" stroke-linecap="round" stroke-linejoin="round"/>
<path d="M92.4865 40.991C92.5405 40.5405 94.1216 39.6892 94.536 39.1306Z" fill="white"/>
<path d="M92.4865 40.991C92.5405 40.5405 94.1216 39.6892 94.536 39.1306" stroke="#2F2E41" stroke-width="0.5" stroke-linecap="round" stroke-linejoin="round"/>
<path d="M91.1441 40.991C90.6531 40.3964 91.7883 40.1261 92.8738 39.0631Z" fill="white"/>
<path d="M91.1441 40.991C90.6531 40.3964 91.7883 40.1261 92.8738 39.0631" stroke="#2F2E41" stroke-width="0.5" stroke-linecap="round" stroke-linejoin="round"/>
<path d="M89.8333 40.7613C89.2207 40.1532 89.4774 39.9369 90.4369 39.491C90.9654 39.2679 91.4299 38.9165 91.7882 38.4685" fill="white"/>
<path d="M89.8333 40.7613C89.2207 40.1532 89.4774 39.9369 90.4369 39.491C90.9654 39.2679 91.4299 38.9165 91.7882 38.4685" stroke="#2F2E41" stroke-width="0.5" stroke-linecap="round" stroke-linejoin="round"/>
<path d="M91.4189 172.658C91.4189 172.658 95.4415 171.351 98.6532 172.532L99.6532 176.342L101.82 172.658C101.82 172.658 101.095 177.293 101.82 178.712C102.545 180.131 106.865 180.802 107.572 181.725C108.279 182.649 108.509 184.527 108.509 184.527H91.7207L93.027 178.712L91.4189 172.658Z" fill="#8185E7" stroke="#2F2E41" stroke-width="0.5" stroke-linecap="round" stroke-linejoin="round"/>
<path d="M57.9323 172.658C57.9323 172.658 61.0855 171.351 64.2972 172.532L63.9909 176.342L67.9053 172.658C67.9053 172.658 65.4414 177.293 66.1666 178.712C66.8918 180.131 71.2116 180.802 71.9188 181.725C72.626 182.649 72.8558 184.527 72.8558 184.527H56.0585L57.7972 178.712L57.9323 172.658Z" fill="#8185E7"/>
<mask id="mask2_616_1917" style="mask-type:luminance" maskUnits="userSpaceOnUse" x="56" y="172" width="17" height="13">
<path d="M57.9323 172.658C57.9323 172.658 61.0855 171.351 64.2972 172.532L63.9909 176.342L67.9053 172.658C67.9053 172.658 65.4414 177.293 66.1666 178.712C66.8918 180.131 71.2116 180.802 71.9188 181.725C72.626 182.649 72.8558 184.527 72.8558 184.527H56.0585L57.7972 178.712L57.9323 172.658Z" fill="white"/>
</mask>
<g mask="url(#mask2_616_1917)">
<path opacity="0.3" d="M57.9323 172.658C57.9323 172.658 61.0855 171.351 64.2972 172.532L63.9909 176.342L67.9053 172.658C67.9053 172.658 65.4414 177.293 66.1666 178.712C66.8918 180.131 71.2116 180.802 71.9188 181.725C72.626 182.649 72.8558 184.527 72.8558 184.527H56.0585L57.7972 178.712L57.9323 172.658Z" fill="#8A88A0" fill-opacity="0.7"/>
</g>
<path d="M57.9323 172.658C57.9323 172.658 61.0855 171.351 64.2972 172.532L63.9909 176.342L67.9053 172.658C67.9053 172.658 65.4414 177.293 66.1666 178.712C66.8918 180.131 71.2116 180.802 71.9188 181.725C72.626 182.649 72.8558 184.527 72.8558 184.527H56.0585L57.7972 178.712L57.9323 172.658Z" stroke="#2F2E41" stroke-width="0.5" stroke-linecap="round" stroke-linejoin="round"/>
<path d="M91.7252 86.2117C91.7252 86.2117 94.1532 82.964 94.5856 81.1486L95.0856 82.7252C95.0856 82.7252 93.8018 86.3288 91.7252 88.1982V86.2117Z" fill="#8A88A0" stroke="#2F2E41" stroke-width="0.5" stroke-linecap="round" stroke-linejoin="round"/>
<path d="M82.0946 87.7658C82.0946 87.7658 85.491 89.045 87.8964 88.2432C89.4806 87.6506 90.9098 86.7065 92.0766 85.482L92.8604 86.9054C92.8604 86.9054 87.4324 96.3649 82.0946 94.9324" fill="#8185E7"/>
<path d="M82.0946 87.7658C82.0946 87.7658 85.491 89.045 87.8964 88.2432C89.4806 87.6506 90.9098 86.7065 92.0766 85.482L92.8604 86.9054C92.8604 86.9054 87.4324 96.3649 82.0946 94.9324" stroke="#2F2E41" stroke-width="0.5" stroke-linecap="round" stroke-linejoin="round"/>
<path d="M82.4504 100.221C80.6846 104.86 63.5765 103.793 60.2477 101.185C59.5135 100.608 58.8333 99.4955 58.2387 98.0901C57.0563 95.0861 56.2617 91.9437 55.8738 88.7387C55.7702 87.9054 55.6982 87.1171 55.6666 86.4099C55.5901 84.8243 55.7027 83.6306 56.0405 83.1982C57.3919 81.482 58.9009 79.8198 58.9009 79.8198C58.9009 79.8198 56.2702 65.7658 58.9009 64.4234C61.0716 63.1278 63.4484 62.2137 65.9279 61.7207C69.7297 61.0496 76.1261 59.1577 78.991 63.0721C79.1374 63.2781 79.2627 63.4985 79.3648 63.7297C82.063 69.455 84.1396 95.7793 82.4504 100.221Z" fill="#8185E7"/>
<mask id="mask3_616_1917" style="mask-type:luminance" maskUnits="userSpaceOnUse" x="55" y="60" width="29" height="44">
<path d="M82.4504 100.221C80.6846 104.86 63.5765 103.793 60.2477 101.185C59.5135 100.608 58.8333 99.4955 58.2387 98.0901C57.0563 95.0861 56.2617 91.9437 55.8738 88.7387C55.7702 87.9054 55.6982 87.1171 55.6666 86.4099C55.5901 84.8243 55.7027 83.6306 56.0405 83.1982C57.3919 81.482 58.9009 79.8198 58.9009 79.8198C58.9009 79.8198 56.2702 65.7658 58.9009 64.4234C61.0716 63.1278 63.4484 62.2137 65.9279 61.7207C69.7297 61.0496 76.1261 59.1577 78.991 63.0721C79.1374 63.2781 79.2627 63.4985 79.3648 63.7297C82.063 69.455 84.1396 95.7793 82.4504 100.221Z" fill="white"/>
</mask>
<g mask="url(#mask3_616_1917)">
<path opacity="0.3" d="M82.4505 100.221C80.6847 104.86 63.5766 103.793 60.2478 101.185C59.5135 100.608 58.8334 99.4955 58.2388 98.0901C57.3018 94.8874 56.437 91.1892 55.8964 88.7387C55.5586 87.1937 55.3424 86.1486 55.3243 86.036C55.4109 86.1907 55.5367 86.3196 55.6892 86.4099C56.4955 86.9865 59.0361 88.0631 66.9505 88.5856C66.9505 88.5856 61.1937 90.1847 56.6802 88.2072C56.6802 88.2072 58.2252 97.5225 59.8874 99.3604C61.5496 101.198 69.0946 102.748 70.8784 101.739C72.6622 100.73 71.4505 91.2613 71.8198 90.2928C72.1892 89.3243 73.6216 88.518 73.6982 88.2072C73.7748 87.8964 74.0856 83.3513 74.0856 83.3513C74.0856 83.3513 62.9775 81.0721 59.8874 81.1577C56.7973 81.2432 61.1937 79.045 64.2838 79.4009C67.3739 79.7568 73.5496 81.0721 73.6982 81.1577C73.8469 81.2432 72.4144 67.5721 70.8153 65.527C69.2162 63.482 72.8334 63.5721 73.6982 66.8243C74.527 69.9775 76.6036 81.4189 76.7523 82.2072C76.7162 81.5811 76.3018 74.8649 75.8784 72.3604C75.4505 69.7342 75.491 66.2748 75.946 65.9189C76.4009 65.5631 78.6982 64.6531 78.9144 64.1577C79.0293 63.982 79.1835 63.8354 79.3649 63.7297C82.0631 69.455 84.1397 95.7793 82.4505 100.221Z" fill="#8A88A0" fill-opacity="0.7"/>
</g>
<path d="M82.4504 100.221C80.6846 104.86 63.5765 103.793 60.2477 101.185C59.5135 100.608 58.8333 99.4955 58.2387 98.0901C57.0563 95.0861 56.2617 91.9437 55.8738 88.7387C55.7702 87.9054 55.6982 87.1171 55.6666 86.4099C55.5901 84.8243 55.7027 83.6306 56.0405 83.1982C57.3919 81.482 58.9009 79.8198 58.9009 79.8198C58.9009 79.8198 56.2702 65.7658 58.9009 64.4234C61.0716 63.1278 63.4484 62.2137 65.9279 61.7207C69.7297 61.0496 76.1261 59.1577 78.991 63.0721C79.1374 63.2781 79.2627 63.4985 79.3648 63.7297C82.063 69.455 84.1396 95.7793 82.4504 100.221Z" stroke="#2F2E41" stroke-width="0.5" stroke-linecap="round" stroke-linejoin="round"/>
<path d="M73.5315 61.5135C72.3344 60.5268 70.8935 59.8811 69.3604 59.6441C66.8694 59.2883 64.7297 62.6712 64.7297 62.6712H65.8874C65.8874 62.6712 67.491 59.5541 70.6982 62.3153" fill="#8185E7"/>
<path d="M73.5315 61.5135C72.3344 60.5268 70.8935 59.8811 69.3604 59.6441C66.8694 59.2883 64.7297 62.6712 64.7297 62.6712H65.8874C65.8874 62.6712 67.491 59.5541 70.6982 62.3153" stroke="#2F2E41" stroke-width="0.5" stroke-linecap="round" stroke-linejoin="round"/>
<path d="M61.6982 63.9189C61.6982 63.9189 68.2928 63.3829 70.4324 65.0766C72.572 66.7703 73.6982 80.5631 73.6982 80.5631C73.6982 80.5631 63.8243 77.8198 60.9865 79.2432" stroke="#2F2E41" stroke-width="0.5" stroke-linecap="round" stroke-linejoin="round"/>
<path d="M59.6486 76.1261C59.6486 76.1261 57.8468 69.8198 58.9189 68.1982C59.991 66.5766 66.7793 66.8468 68.027 68.1982C69.2748 69.5495 69.3784 77.1081 69.3784 77.1081C69.3784 77.1081 63.5856 75.8108 61.0045 76.2072" stroke="#2F2E41" stroke-width="0.5" stroke-linecap="round" stroke-linejoin="round"/>
<path d="M56.4414 86.9054C56.7973 87.3559 69.3063 89.5811 71.4729 88.1532" stroke="#2F2E41" stroke-width="0.5" stroke-linecap="round" stroke-linejoin="round"/>
<path d="M56.9774 84.5045C57.8783 83.7928 66.8873 85.5721 68.7387 85.6577C70.59 85.7432 73.8918 83.6982 74.0855 83.3333C74.0855 83.3333 76.5495 96.7883 75.8062 99.3739C75.063 101.959 73.0135 102.401 73.0135 102.401" stroke="#2F2E41" stroke-width="0.5" stroke-linecap="round" stroke-linejoin="round"/>
<path d="M59.2927 98.491C59.2927 98.491 59.8288 101.518 70.8783 102.41" stroke="#2F2E41" stroke-width="0.5" stroke-linecap="round" stroke-linejoin="round"/>
<path d="M77.2027 87.2658C77.6531 87.0856 80.8468 86.7478 82.0135 86.018C82.111 87.5241 82.1065 89.0351 82 90.5405C82 90.5405 78.527 91.8919 77.9009 91.6126C77.2747 91.3333 77.036 89.3829 77.036 89.3829" stroke="#2F2E41" stroke-width="0.5" stroke-linecap="round" stroke-linejoin="round"/>
<path d="M81.5045 90.7478C81.5045 90.7478 81.7973 96.482 81.5045 97.2658C81.2117 98.0495 78.0945 99.2027 77.7387 99.1126C77.3828 99.0225 76.7567 93.5 76.7567 93.5" stroke="#2F2E41" stroke-width="0.5" stroke-linecap="round" stroke-linejoin="round"/>
<path d="M69.955 63.2072C69.955 63.2072 73.1937 63.2072 74.3514 65.3469C75.509 67.4865 76.8108 79.8333 77.0541 80.5631" stroke="#2F2E41" stroke-width="0.5" stroke-linecap="round" stroke-linejoin="round"/>
<path d="M75.8063 61.7117C75.8063 61.7117 83.0135 57.7568 86.7837 58.9775C90.554 60.1982 92.0765 64.009 92.0765 64.009C92.0765 64.009 90.7883 60.4505 87.2027 60.6802C83.6171 60.9099 78.4504 64.473 78.4504 64.473" fill="#8185E7"/>
<path d="M75.8063 61.7117C75.8063 61.7117 83.0135 57.7568 86.7837 58.9775C90.554 60.1982 92.0765 64.009 92.0765 64.009C92.0765 64.009 90.7883 60.4505 87.2027 60.6802C83.6171 60.9099 78.4504 64.473 78.4504 64.473" stroke="#2F2E41" stroke-width="0.5" stroke-linecap="round" stroke-linejoin="round"/>
<path d="M87.2027 60.6622C87.2027 60.6622 91.2567 60.3243 92.5 62.2252C93.7432 64.1261 92.5 69.0676 92.5 69.0676C92.5 69.0676 93.5676 70.3288 91.7252 71.2387C89.8829 72.1486 84.9324 72.6441 83.7567 70.8514C82.5811 69.0586 83.2117 61.4099 87.2027 60.6622Z" fill="#2F2E41"/>
<path d="M92.2116 69.4234C92.2116 69.4234 87.9233 84.9234 89.3287 86.4369C91.1389 86.5377 92.9323 86.8399 94.6756 87.3378C102.725 89.3874 107.288 87.9009 107.288 87.9009L106.432 92.3829C98.3693 92.1712 90.572 93.6351 84.0495 90.9775C84.0495 90.9775 81.3963 79.518 83.9774 69.8919C83.9774 69.8919 84.7251 68.9279 86.9414 68.6396C88.7369 68.3618 90.5746 68.6351 92.2116 69.4234Z" fill="white" stroke="#2F2E41" stroke-width="0.5" stroke-linecap="round" stroke-linejoin="round"/>
<path d="M106.04 92.3964C107.572 93.4009 109.788 91.8243 111.838 92.018C113.887 92.2117 112.896 86.3423 112.896 86.3423C112.896 86.3423 110.333 85.1171 109.581 84.8423C108.829 84.5676 107.707 86.2658 105.338 88.4459" fill="white"/>
<path d="M106.04 92.3964C107.572 93.4009 109.788 91.8243 111.838 92.018C113.887 92.2117 112.896 86.3423 112.896 86.3423C112.896 86.3423 110.333 85.1171 109.581 84.8423C108.829 84.5676 107.707 86.2658 105.338 88.4459" stroke="#2F2E41" stroke-width="0.5" stroke-linecap="round" stroke-linejoin="round"/>
<path d="M76.0901 57.7973C78.355 57.5986 80.6372 57.7705 82.8468 58.3063" stroke="white" stroke-width="0.5" stroke-linecap="round" stroke-linejoin="round"/>
<path d="M83.608 70.5676C83.608 70.5676 82.9143 69.5541 83.608 69.0676C83.608 69.0676 81.59 67.5135 81.8783 65.9144" stroke="white" stroke-width="0.5" stroke-linecap="round" stroke-linejoin="round"/>
<path d="M93.054 67.0901L92.8603 69.0676C92.8603 69.0676 93.8558 69.7027 92.0765 70.5676" stroke="white" stroke-width="0.5" stroke-linecap="round" stroke-linejoin="round"/>
<path d="M93.8964 81.1486C93.8964 81.1486 91.7612 82.7658 90.5405 82.5" stroke="white" stroke-width="0.5" stroke-linecap="round" stroke-linejoin="round"/>
<path d="M85.072 96.7387C85.072 96.7387 90.1801 99.7072 95.5855 98.491" stroke="white" stroke-width="0.5" stroke-linecap="round" stroke-linejoin="round"/>
<path d="M110.198 86.9054C111.161 87.0341 112.113 87.2359 113.045 87.509" stroke="#2F2E41" stroke-width="0.5" stroke-linecap="round" stroke-linejoin="round"/>
<path d="M110.198 88.7748C110.198 88.7748 112.509 88.7748 113.135 88.8423" stroke="#2F2E41" stroke-width="0.5" stroke-linecap="round" stroke-linejoin="round"/>
<path d="M110.198 90.2838C110.198 90.2838 113.104 90.1982 113.045 90.491" stroke="#2F2E41" stroke-width="0.5" stroke-linecap="round" stroke-linejoin="round"/>
<path d="M57.5134 182.514C57.5134 182.514 62.045 182.063 64.4549 183.045" stroke="#2F2E41" stroke-width="0.5" stroke-linecap="round" stroke-linejoin="round"/>
<path d="M58.5765 178.284C58.5765 178.284 61.072 177.707 62.4099 178.284" stroke="#2F2E41" stroke-width="0.5" stroke-linecap="round" stroke-linejoin="round"/>
<path d="M66.1666 178.712C66.1666 178.712 66.7792 179.838 66.6171 180.64" stroke="#2F2E41" stroke-width="0.5" stroke-linecap="round" stroke-linejoin="round"/>
<path d="M71.9188 181.725C70.8314 181.833 69.736 181.833 68.6486 181.725" stroke="#2F2E41" stroke-width="0.5" stroke-linecap="round" stroke-linejoin="round"/>
<path d="M101.82 178.712C101.82 178.712 103.477 180.64 103.477 181.176" stroke="#2F2E41" stroke-width="0.5" stroke-linecap="round" stroke-linejoin="round"/>
<path d="M107.581 181.725C106.789 181.872 105.981 181.902 105.18 181.815" stroke="#2F2E41" stroke-width="0.5" stroke-linecap="round" stroke-linejoin="round"/>
<path d="M92.8828 183.045C92.8828 183.045 97.9594 182.243 100.991 183.045" stroke="#2F2E41" stroke-width="0.5" stroke-linecap="round" stroke-linejoin="round"/>
<path d="M94.1306 178.712C94.1306 178.712 96.6261 178.788 97.6982 178.158" stroke="#2F2E41" stroke-width="0.5" stroke-linecap="round" stroke-linejoin="round"/>
<path d="M83.0585 119.964C83.0585 119.964 80.3153 136.477 76.7522 140.396C76.7522 140.396 72.1216 153.203 70.2792 156.613C68.4369 160.023 66.1621 170.955 66.1621 170.955" stroke="#2F2E41" stroke-width="0.5" stroke-linecap="round" stroke-linejoin="round"/>
<path d="M69.955 138.874C69.955 138.874 71.6486 136.405 73.5586 138.874" stroke="#2F2E41" stroke-width="0.5" stroke-linecap="round" stroke-linejoin="round"/>
<path d="M91.5315 141.441C91.5315 141.441 92.3513 137.09 95.9144 140.653" stroke="#2F2E41" stroke-width="0.5" stroke-linecap="round" stroke-linejoin="round"/>
<path d="M95.9144 100.901C95.9144 100.901 98.0225 109.964 97.6667 114.964C97.6667 114.964 98.8559 133.671 98.5 138.874" stroke="#2F2E41" stroke-width="0.5" stroke-linecap="round" stroke-linejoin="round"/>
<path d="M100.468 56.2027C100.468 56.2027 102.68 57.3153 103.986 56.3243" stroke="#2F2E41" stroke-width="0.5" stroke-linecap="round" stroke-linejoin="round"/>
<path d="M177.329 171.365C177.329 171.365 176.383 161.41 178.306 152.194C180.23 142.977 176.504 141.887 174.964 144.414C173.423 146.941 172.923 155.311 172.923 155.311C172.923 155.311 172.149 146.829 170.815 142.504C168.86 136.167 166.761 131.338 163.973 132.766C160.734 134.414 168.261 145.829 169.743 159.189C169.743 159.189 163.68 152.946 160.775 147.126C157.869 141.306 154.342 144.842 156.932 150.054C159.522 155.266 165.694 157.171 169.095 162.698C169.095 162.698 160.604 157.635 158.887 160.703C157.919 162.432 161.374 162.797 162.914 163.171C170.401 164.973 173.869 172.752 173.869 172.752L177.329 171.365Z" fill="#8185E7" stroke="#2F2E41" stroke-width="0.5" stroke-linecap="round" stroke-linejoin="round"/>
<path opacity="0.2" d="M177.329 171.365C177.329 171.365 176.383 161.41 178.306 152.194C180.23 142.977 176.504 141.887 174.964 144.414C173.423 146.941 172.923 155.311 172.923 155.311C172.923 155.311 172.149 146.829 170.815 142.504C168.86 136.167 166.761 131.338 163.973 132.766C160.734 134.414 168.261 145.829 169.743 159.189C169.743 159.189 163.68 152.946 160.775 147.126C157.869 141.306 154.342 144.842 156.932 150.054C159.522 155.266 165.694 157.171 169.095 162.698C169.095 162.698 160.604 157.635 158.887 160.703C157.919 162.432 161.374 162.797 162.914 163.171C170.401 164.973 173.869 172.752 173.869 172.752L177.329 171.365Z" fill="#8A88A0" fill-opacity="0.7" stroke="#2F2E41" stroke-width="0.5" stroke-miterlimit="10"/>
<path d="M176.977 159.297C176.977 159.297 177.477 150.23 174.171 142.716C170.865 135.203 173.815 134.608 175.586 136.495C177.356 138.383 178.707 148.104 178.707 148.104C178.707 148.104 180.261 139.392 179.554 133.365C178.847 127.338 178.896 123.95 181.378 123.95C184.531 123.95 183.806 138.698 181.243 147.536C181.243 147.536 185.297 141.113 186.712 135.622C188.126 130.131 191.784 132.509 190.513 137.423C189.243 142.338 184.333 145.081 182.432 150.41C182.432 150.41 188.739 144.554 190.779 146.86C191.919 148.162 189.036 149.113 187.788 149.694C181.73 152.595 180.176 159.851 180.176 159.851L176.977 159.297Z" fill="#8185E7" stroke="#2F2E41" stroke-width="0.5" stroke-linecap="round" stroke-linejoin="round"/>
<path d="M175.842 142.342C178.653 148.68 178.815 157.928 178.815 157.928C178.815 157.928 182.509 139.554 181.581 131.802" stroke="#2F2E41" stroke-width="0.5" stroke-linecap="round" stroke-linejoin="round"/>
<path d="M187.991 138.698C187.991 138.698 183.865 147.401 180.09 150.739" stroke="#2F2E41" stroke-width="0.5" stroke-linecap="round" stroke-linejoin="round"/>
<path d="M187.991 148.077C187.991 148.077 181.018 152.581 179.306 155.311" stroke="#2F2E41" stroke-width="0.5" stroke-linecap="round" stroke-linejoin="round"/>
<path d="M171.131 170.401C171.131 170.401 165.806 163.063 164.536 154.955C163.266 146.847 160.459 147.95 159.982 150.486C159.504 153.023 163.626 161.937 163.626 161.937C163.626 161.937 157.608 155.405 154.973 149.973C152.338 144.541 150.441 141.694 148.351 143.036C145.685 144.748 154.275 156.757 161.207 162.806C161.207 162.806 154.338 159.586 150.171 155.739C146.004 151.892 144.221 155.86 147.919 159.311C151.617 162.761 157.257 162.41 161.739 165.869C161.739 165.869 153.252 164.36 152.797 167.392C152.541 169.104 155.468 168.333 156.851 168.162C163.513 167.329 168.739 172.595 168.739 172.595L171.131 170.401Z" fill="#8185E7" stroke="#2F2E41" stroke-width="0.5" stroke-linecap="round" stroke-linejoin="round"/>
<path d="M162.919 155.518C163.982 162.374 168.842 170.239 168.842 170.239C168.842 170.239 155.806 156.779 152.41 149.761" stroke="#2F2E41" stroke-width="0.5" stroke-linecap="round" stroke-linejoin="round"/>
<path d="M150.734 159.009C150.734 159.009 158.905 164.104 163.887 164.865" stroke="#2F2E41" stroke-width="0.5" stroke-linecap="round" stroke-linejoin="round"/>
<path d="M155.802 166.91C155.802 166.91 164.09 166.91 167.013 168.306" stroke="#2F2E41" stroke-width="0.5" stroke-linecap="round" stroke-linejoin="round"/>
<path d="M190.522 138.851C190.522 138.851 197.306 139.387 197.586 144.392C197.586 144.392 190.721 147.55 190.522 138.851Z" fill="#8185E7" stroke="#2F2E41" stroke-width="0.5" stroke-linecap="round" stroke-linejoin="round"/>
<path d="M203.937 140.09C203.937 140.09 207.725 134.968 213.847 137.595C213.847 137.599 210.108 143.793 203.937 140.09Z" fill="#8185E7" stroke="#2F2E41" stroke-width="0.5" stroke-linecap="round" stroke-linejoin="round"/>
<path d="M213.329 123.923C213.329 123.923 214.432 133.784 205.45 131.081C205.45 131.081 208.297 123.82 213.329 123.923Z" fill="#8185E7" stroke="#2F2E41" stroke-width="0.5" stroke-linecap="round" stroke-linejoin="round"/>
<path d="M202.315 118.441C202.315 118.441 209.41 122.266 204.194 128.068C204.194 128.068 199.221 123.923 202.315 118.441Z" fill="#8185E7" stroke="#2F2E41" stroke-width="0.5" stroke-linecap="round" stroke-linejoin="round"/>
<path d="M193.59 127.243C193.59 127.243 201.302 126.464 201.302 133.604C201.302 133.604 193.59 133.91 193.59 127.243Z" fill="#8185E7" stroke="#2F2E41" stroke-width="0.5" stroke-linecap="round" stroke-linejoin="round"/>
<path d="M200.86 154.581C200.86 154.581 197.347 147.203 200.721 139.685C204.095 132.167 205.225 125.842 203.473 121.383" stroke="#2F2E41" stroke-width="0.5" stroke-linecap="round" stroke-linejoin="round"/>
<path d="M196.122 129.162C196.122 129.162 200.743 131 202.315 135.761" stroke="#2F2E41" stroke-width="0.5" stroke-linecap="round" stroke-linejoin="round"/>
<path d="M210.892 127.865C210.892 127.865 208.221 131.505 203.685 131.113" stroke="#2F2E41" stroke-width="0.5" stroke-linecap="round" stroke-linejoin="round"/>
<path d="M210.892 138.644C210.892 138.644 203.491 140.779 200.531 140.081" stroke="#2F2E41" stroke-width="0.5" stroke-linecap="round" stroke-linejoin="round"/>
<path d="M192.734 141.104C192.734 141.104 196.041 144.734 199.369 144.676" stroke="#2F2E41" stroke-width="0.5" stroke-linecap="round" stroke-linejoin="round"/>
<path d="M147.383 164.55C147.383 164.55 141.491 165.991 141.977 170.437C141.955 170.437 148.455 172.239 147.383 164.55Z" fill="#8185E7" stroke="#2F2E41" stroke-width="0.5" stroke-linecap="round" stroke-linejoin="round"/>
<path d="M135.748 167.568C135.748 167.568 131.694 163.599 126.667 166.788C126.667 166.779 130.842 171.698 135.748 167.568Z" fill="#8185E7" stroke="#2F2E41" stroke-width="0.5" stroke-linecap="round" stroke-linejoin="round"/>
<path d="M125.171 154.662C125.171 154.662 125.622 163.495 133.131 159.824C133.131 159.824 129.586 153.851 125.171 154.662Z" fill="#8185E7" stroke="#2F2E41" stroke-width="0.5" stroke-linecap="round" stroke-linejoin="round"/>
<path d="M134.086 148.257C134.086 148.257 128.396 152.64 133.802 157.004C133.802 157.004 137.595 152.644 134.086 148.257Z" fill="#8185E7" stroke="#2F2E41" stroke-width="0.5" stroke-linecap="round" stroke-linejoin="round"/>
<path d="M143.027 154.766C143.027 154.766 136.126 155.18 137.144 161.468C137.144 161.468 143.982 160.635 143.027 154.766Z" fill="#8185E7" stroke="#2F2E41" stroke-width="0.5" stroke-linecap="round" stroke-linejoin="round"/>
<path d="M140.527 179.878C140.527 179.878 142.572 172.878 138.527 166.743C134.482 160.608 132.572 155.194 133.486 151.014" stroke="#2F2E41" stroke-width="0.5" stroke-linecap="round" stroke-linejoin="round"/>
<path d="M141.072 156.815C141.072 156.815 137.261 159.095 136.568 163.514" stroke="#2F2E41" stroke-width="0.5" stroke-linecap="round" stroke-linejoin="round"/>
<path d="M127.883 157.784C127.883 157.784 130.752 160.608 134.68 159.617" stroke="#2F2E41" stroke-width="0.5" stroke-linecap="round" stroke-linejoin="round"/>
<path d="M129.419 167.279C129.419 167.279 136.239 168.099 138.73 167.063" stroke="#2F2E41" stroke-width="0.5" stroke-linecap="round" stroke-linejoin="round"/>
<path d="M145.761 166.851C145.761 166.851 143.365 170.518 140.428 170.941" stroke="#2F2E41" stroke-width="0.5" stroke-linecap="round" stroke-linejoin="round"/>
<path d="M212.306 155.622L211.559 155.595L211.748 153.414C211.788 153.202 211.758 152.982 211.662 152.788C211.505 152.545 211.18 152.495 210.896 152.432C210.068 152.243 209.335 151.764 208.829 151.081C208.468 150.59 208.212 149.986 207.689 149.676C206.959 149.225 206.041 149.55 205.225 149.784C204.41 150.018 203.365 150.086 202.878 149.392C202.595 148.986 202.577 148.401 202.185 148.095C201.793 147.788 201.072 147.986 200.554 148.243C198.559 149.225 196.329 150.495 195.946 152.698C195.811 153.45 193.477 156.59 192.644 157.009C191.189 157.734 188.437 156.347 186.959 155.856C183.789 155.779 180.628 155.478 177.5 154.955C176.599 154.955 175.698 155.856 174.797 156.757C174.347 157.207 174.347 157.658 173.896 158.108C172.545 159.459 170.293 160.36 169.842 162.613C169.842 165.766 166.239 167.568 163.536 168.919C159.482 170.721 155.428 171.171 151.374 172.973C149.122 173.874 146.419 173.874 143.716 173.874C140.563 176.577 138.311 179.73 136.059 183.333C135.608 183.784 135.158 184.685 134.257 184.685C105.428 184.685 76.1486 184.685 47.1802 184.527V194.806H212.495L212.306 155.622Z" fill="white"/>
<path d="M47.1757 184.527C76.1441 184.685 105.423 184.685 134.252 184.685C135.153 184.685 135.604 183.784 136.054 183.333C138.306 179.73 140.559 176.577 143.712 173.874C146.414 173.874 149.117 173.874 151.369 172.973C155.423 171.171 159.477 170.721 163.532 168.919C166.234 167.568 169.838 165.766 169.838 162.613C170.288 160.36 172.541 159.459 173.892 158.108C174.342 157.658 174.342 157.207 174.793 156.757C175.694 155.856 176.595 154.955 177.495 154.955C180.623 155.478 183.784 155.779 186.955 155.856C188.432 156.347 191.185 157.734 192.64 157.009C193.473 156.59 195.793 153.45 195.941 152.698C196.324 150.509 198.554 149.225 200.55 148.243C201.068 147.986 201.725 147.743 202.18 148.095C202.635 148.446 202.59 148.995 202.874 149.392C203.36 150.086 204.401 150.014 205.221 149.784C206.041 149.554 206.955 149.243 207.685 149.676C208.207 149.986 208.464 150.577 208.824 151.081C209.33 151.764 210.063 152.243 210.892 152.432C211.176 152.495 211.5 152.545 211.658 152.788" stroke="#2F2E41" stroke-width="0.5" stroke-linecap="round" stroke-linejoin="round"/>
<path d="M187.991 164.55C189.914 164.694 192.703 163.401 192.734 163.514C192.766 163.626 196.122 164.032 196.122 164.032C196.122 164.032 200.568 165.297 201.302 164.55C202.036 163.802 204.302 164.315 206.108 164.149C207.914 163.982 209.757 165.446 209.757 165.446C209.757 165.446 212.946 168.18 213.36 168.306C213.775 168.432 216.991 169.374 218.239 170.239" stroke="#2F2E41" stroke-width="0.5" stroke-linecap="round" stroke-linejoin="round"/>
<path d="M134.252 184.685H141.91C141.91 184.685 146.865 182.131 149.405 182.41C151.946 182.689 154.113 184.527 154.113 184.527H158.491L163.869 185.203H167.419" stroke="#2F2E41" stroke-width="0.5" stroke-linecap="round" stroke-linejoin="round"/>
<path d="M185.459 173.532C184.392 172.356 179.928 172.108 179.306 170.986C178.685 169.865 174.77 172.432 174.234 172.036C173.698 171.64 170.878 172.351 170.419 173.689C169.959 175.027 170.185 175.27 168.378 175.941" stroke="#2F2E41" stroke-width="0.5" stroke-linecap="round" stroke-linejoin="round"/>
<path d="M214.067 157.707C213.727 157.408 213.291 157.239 212.838 157.23C212.384 157.221 211.943 157.373 211.59 157.658C211.488 157.755 211.38 157.845 211.266 157.928C210.94 158.07 210.583 158.124 210.23 158.086C209.43 158.105 208.657 158.381 208.027 158.874C207.84 159.056 207.62 159.199 207.378 159.297C207.23 159.331 207.08 159.351 206.928 159.356C206.53 159.408 206.153 159.564 205.833 159.806" stroke="#2F2E41" stroke-width="0.5" stroke-linecap="round" stroke-linejoin="round"/>
<path d="M190.342 184.865C192.302 185.73 194.721 184.968 196.198 183.405C197.369 182.158 198.32 180.302 200.031 180.23C200.482 180.23 200.932 180.329 201.383 180.333C202.396 180.333 203.311 179.788 204.252 179.432C205.194 179.077 206.369 178.883 207.131 179.55C207.635 180 207.847 180.716 208.396 181.104C208.946 181.491 209.653 181.432 210.302 181.554C210.95 181.676 211.653 182.203 211.518 182.851" stroke="#2F2E41" stroke-width="0.5" stroke-linecap="round" stroke-linejoin="round"/>
</g>
<defs>
<clipPath id="clip0_616_1917">
<rect width="186.486" height="200" fill="white" transform="translate(32)"/>
</clipPath>
</defs>
</svg>
