<svg width="250" height="200" viewBox="0 0 250 200" fill="none" xmlns="http://www.w3.org/2000/svg">
<rect width="250" height="200" fill="white"/>
<g clip-path="url(#clip0_615_127)">
<path d="M246.462 183.294C246.689 164.045 229.624 151.775 230.084 137.149C230.555 122.142 245.215 108.244 237.178 69.3284C229.141 30.4133 189.887 10.9498 153.938 19.2888C117.989 27.6277 126.038 49.8709 91.9928 49.3102C57.9475 48.7495 31.0263 48.7554 10.6742 96.0095C-8.28163 140.06 3.99165 178.325 5.74582 183.294H246.462Z" fill="#8185E7"/>
<path opacity="0.7" d="M246.462 183.294C246.689 164.045 229.624 151.775 230.084 137.149C230.555 122.142 245.215 108.244 237.178 69.3284C229.141 30.4133 189.887 10.9498 153.938 19.2888C117.989 27.6277 126.038 49.8709 91.9928 49.3102C57.9475 48.7495 31.0263 48.7554 10.6742 96.0095C-8.28163 140.06 3.99165 178.325 5.74582 183.294H246.462Z" fill="white"/>
<path d="M242.243 182.876L166.289 26.9298L137.828 78.5621L101.486 54.786L69.9522 89.0842L54.9701 74.6312L12.7983 170.106L3.78876 182.876H242.243Z" fill="#8185E7"/>
<path opacity="0.5" d="M242.243 182.876L166.289 26.9298L137.828 78.5621L101.486 54.786L69.9522 89.0842L54.9701 74.6312L12.7983 170.106L3.78876 182.876H242.243Z" fill="white"/>
<path d="M162.786 96.5225L164.624 97.9302" stroke="white" stroke-width="0.75" stroke-linecap="round" stroke-linejoin="round"/>
<path d="M140.185 79.266L160.203 94.5481" stroke="white" stroke-width="0.75" stroke-linecap="round" stroke-linejoin="round"/>
<path d="M67.2076 93.5161L53.2935 108.786" stroke="white" stroke-width="0.75" stroke-linecap="round" stroke-linejoin="round"/>
<path d="M172.309 62.433V46.2979L174.278 47.0853L174.439 43.6614L166.289 26.9298L155.979 45.6418L161.683 40.7923L162.864 46.2979L166.014 43.9418L172.309 62.433Z" fill="white"/>
<path d="M111.265 67.6165L112.399 61.926L101.486 54.786L93.0608 63.954L99.3436 61.5084L103.317 67.6165L103.622 63.0354L111.265 67.6165Z" fill="white"/>
<path d="M231.098 113.821H131.235V182.614H231.098V113.821Z" fill="#8185E7" stroke="#2F2E41" stroke-width="0.75" stroke-linecap="round" stroke-linejoin="round"/>
<path d="M192.017 149.211H178.085V182.614H192.017V149.211Z" fill="white" stroke="#2F2E41" stroke-width="0.75" stroke-linecap="round" stroke-linejoin="round"/>
<path d="M190.525 151.596H179.576V182.614H190.525V151.596Z" fill="#2F2E41" stroke="#2F2E41" stroke-width="0.75" stroke-linecap="round" stroke-linejoin="round"/>
<path d="M200.448 144.695H197.488V182.614H200.448V144.695Z" fill="white" stroke="#2F2E41" stroke-width="0.75" stroke-linecap="round" stroke-linejoin="round"/>
<path d="M200.967 169.3H196.969V182.614H200.967V169.3Z" fill="white" stroke="#2F2E41" stroke-width="0.75" stroke-linecap="round" stroke-linejoin="round"/>
<path d="M234.153 114.709H141.36C141.325 114.709 141.29 114.697 141.262 114.674C141.234 114.652 141.215 114.62 141.208 114.585C141.201 114.55 141.207 114.513 141.223 114.481C141.24 114.45 141.268 114.425 141.301 114.411L167.214 103.191C167.682 102.987 168.188 102.881 168.699 102.881H204.463C204.937 102.881 205.407 102.972 205.847 103.149L234.212 114.405C234.252 114.414 234.286 114.438 234.308 114.472C234.33 114.506 234.337 114.547 234.33 114.586C234.322 114.626 234.299 114.661 234.266 114.684C234.233 114.707 234.192 114.716 234.153 114.709Z" fill="#2F2E41" stroke="#2F2E41" stroke-width="0.75" stroke-linecap="round" stroke-linejoin="round"/>
<path d="M203.848 147.618H150.549L154.535 136.088H196.79L203.848 147.618Z" fill="#2F2E41" stroke="#2F2E41" stroke-width="0.75" stroke-linecap="round" stroke-linejoin="round"/>
<path d="M173.371 113.821H127.721V182.614H173.371V113.821Z" fill="white" stroke="#2F2E41" stroke-width="0.75" stroke-linecap="round" stroke-linejoin="round"/>
<path d="M173.371 170.684H127.721V182.614H173.371V170.684Z" fill="#8185E7" stroke="#2F2E41" stroke-width="0.75" stroke-linecap="round" stroke-linejoin="round"/>
<path d="M149.881 102.368L124.958 113.701C124.925 113.715 124.897 113.741 124.88 113.773C124.863 113.805 124.858 113.842 124.866 113.878C124.874 113.914 124.894 113.945 124.923 113.967C124.952 113.99 124.987 114.001 125.024 114H176.074C176.11 114.001 176.146 113.99 176.175 113.967C176.204 113.945 176.224 113.914 176.232 113.878C176.24 113.842 176.235 113.805 176.218 113.773C176.201 113.741 176.173 113.715 176.14 113.701L151.217 102.368C151.008 102.271 150.78 102.221 150.549 102.221C150.318 102.221 150.09 102.271 149.881 102.368Z" fill="#2F2E41" stroke="#2F2E41" stroke-width="0.75" stroke-linecap="round" stroke-linejoin="round"/>
<path d="M185.048 157.86C185.707 157.86 186.241 157.326 186.241 156.667C186.241 156.008 185.707 155.474 185.048 155.474C184.389 155.474 183.854 156.008 183.854 156.667C183.854 157.326 184.389 157.86 185.048 157.86Z" fill="white"/>
<path d="M228.115 152.193H206.038V170.684H228.115V152.193Z" fill="white" stroke="#2F2E41" stroke-width="0.75" stroke-linecap="round" stroke-linejoin="round"/>
<path d="M219.761 153.875H214.391V157.86H219.761V153.875Z" fill="#2F2E41" stroke="#2F2E41" stroke-width="0.75" stroke-linecap="round" stroke-linejoin="round"/>
<path d="M219.761 159.649H214.391V169.002H219.761V159.649Z" fill="#2F2E41" stroke="#2F2E41" stroke-width="0.75" stroke-linecap="round" stroke-linejoin="round"/>
<path d="M212.9 153.875H208.043V157.86H212.9V153.875Z" fill="#2F2E41" stroke="#2F2E41" stroke-width="0.75" stroke-linecap="round" stroke-linejoin="round"/>
<path d="M226.11 153.875H221.253V157.86H226.11V153.875Z" fill="#2F2E41" stroke="#2F2E41" stroke-width="0.75" stroke-linecap="round" stroke-linejoin="round"/>
<path d="M226.11 159.649H221.253V169.002H226.11V159.649Z" fill="#2F2E41" stroke="#2F2E41" stroke-width="0.75" stroke-linecap="round" stroke-linejoin="round"/>
<path d="M212.9 159.649H208.043V169.002H212.9V159.649Z" fill="#2F2E41" stroke="#2F2E41" stroke-width="0.75" stroke-linecap="round" stroke-linejoin="round"/>
<path d="M164.57 152.193H136.527V170.684H164.57V152.193Z" fill="white" stroke="#2F2E41" stroke-width="0.75" stroke-linecap="round" stroke-linejoin="round"/>
<path d="M150.251 153.875H144.881V157.86H150.251V153.875Z" fill="#2F2E41" stroke="#2F2E41" stroke-width="0.75" stroke-linecap="round" stroke-linejoin="round"/>
<path d="M150.251 159.649H144.881V169.002H150.251V159.649Z" fill="#2F2E41" stroke="#2F2E41" stroke-width="0.75" stroke-linecap="round" stroke-linejoin="round"/>
<path d="M143.389 153.875H138.532V157.86H143.389V153.875Z" fill="#2F2E41" stroke="#2F2E41" stroke-width="0.75" stroke-linecap="round" stroke-linejoin="round"/>
<path d="M156.599 153.875H151.742V157.86H156.599V153.875Z" fill="#2F2E41" stroke="#2F2E41" stroke-width="0.75" stroke-linecap="round" stroke-linejoin="round"/>
<path d="M156.599 159.649H151.742V169.002H156.599V159.649Z" fill="#2F2E41" stroke="#2F2E41" stroke-width="0.75" stroke-linecap="round" stroke-linejoin="round"/>
<path d="M162.864 153.875H158.007V157.86H162.864V153.875Z" fill="#2F2E41" stroke="#2F2E41" stroke-width="0.75" stroke-linecap="round" stroke-linejoin="round"/>
<path d="M162.864 159.649H158.007V169.002H162.864V159.649Z" fill="#2F2E41" stroke="#2F2E41" stroke-width="0.75" stroke-linecap="round" stroke-linejoin="round"/>
<path d="M143.389 159.649H138.532V169.002H143.389V159.649Z" fill="#2F2E41" stroke="#2F2E41" stroke-width="0.75" stroke-linecap="round" stroke-linejoin="round"/>
<path d="M164.57 116.702H136.527V135.193H164.57V116.702Z" fill="white" stroke="#2F2E41" stroke-width="0.75" stroke-linecap="round" stroke-linejoin="round"/>
<path d="M150.251 118.384H144.881V122.368H150.251V118.384Z" fill="#2F2E41" stroke="#2F2E41" stroke-width="0.75" stroke-linecap="round" stroke-linejoin="round"/>
<path d="M150.251 124.158H144.881V133.511H150.251V124.158Z" fill="#2F2E41" stroke="#2F2E41" stroke-width="0.75" stroke-linecap="round" stroke-linejoin="round"/>
<path d="M143.389 118.384H138.532V122.368H143.389V118.384Z" fill="#2F2E41" stroke="#2F2E41" stroke-width="0.75" stroke-linecap="round" stroke-linejoin="round"/>
<path d="M156.599 118.384H151.742V122.368H156.599V118.384Z" fill="#2F2E41" stroke="#2F2E41" stroke-width="0.75" stroke-linecap="round" stroke-linejoin="round"/>
<path d="M156.599 124.158H151.742V133.511H156.599V124.158Z" fill="#2F2E41" stroke="#2F2E41" stroke-width="0.75" stroke-linecap="round" stroke-linejoin="round"/>
<path d="M162.864 118.384H158.007V122.368H162.864V118.384Z" fill="#2F2E41" stroke="#2F2E41" stroke-width="0.75" stroke-linecap="round" stroke-linejoin="round"/>
<path d="M162.864 124.158H158.007V133.511H162.864V124.158Z" fill="#2F2E41" stroke="#2F2E41" stroke-width="0.75" stroke-linecap="round" stroke-linejoin="round"/>
<path d="M143.389 124.158H138.532V133.511H143.389V124.158Z" fill="#2F2E41" stroke="#2F2E41" stroke-width="0.75" stroke-linecap="round" stroke-linejoin="round"/>
<path d="M228.115 116.702H206.038V135.193H228.115V116.702Z" fill="white" stroke="#2F2E41" stroke-width="0.75" stroke-linecap="round" stroke-linejoin="round"/>
<path d="M219.761 118.384H214.391V122.368H219.761V118.384Z" fill="#2F2E41" stroke="#2F2E41" stroke-width="0.75" stroke-linecap="round" stroke-linejoin="round"/>
<path d="M219.761 124.158H214.391V133.511H219.761V124.158Z" fill="#2F2E41" stroke="#2F2E41" stroke-width="0.75" stroke-linecap="round" stroke-linejoin="round"/>
<path d="M212.9 118.384H208.043V122.368H212.9V118.384Z" fill="#2F2E41" stroke="#2F2E41" stroke-width="0.75" stroke-linecap="round" stroke-linejoin="round"/>
<path d="M226.11 118.384H221.253V122.368H226.11V118.384Z" fill="#2F2E41" stroke="#2F2E41" stroke-width="0.75" stroke-linecap="round" stroke-linejoin="round"/>
<path d="M226.11 124.158H221.253V133.511H226.11V124.158Z" fill="#2F2E41" stroke="#2F2E41" stroke-width="0.75" stroke-linecap="round" stroke-linejoin="round"/>
<path d="M212.9 124.158H208.043V133.511H212.9V124.158Z" fill="#2F2E41" stroke="#2F2E41" stroke-width="0.75" stroke-linecap="round" stroke-linejoin="round"/>
<path d="M193.21 116.702H177.697V135.193H193.21V116.702Z" fill="white" stroke="#2F2E41" stroke-width="0.75" stroke-linecap="round" stroke-linejoin="round"/>
<path d="M191.42 118.384H186.05V122.368H191.42V118.384Z" fill="#2F2E41" stroke="#2F2E41" stroke-width="0.75" stroke-linecap="round" stroke-linejoin="round"/>
<path d="M191.42 124.158H186.05V133.511H191.42V124.158Z" fill="#2F2E41" stroke="#2F2E41" stroke-width="0.75" stroke-linecap="round" stroke-linejoin="round"/>
<path d="M184.558 118.384H179.702V122.368H184.558V118.384Z" fill="#2F2E41" stroke="#2F2E41" stroke-width="0.75" stroke-linecap="round" stroke-linejoin="round"/>
<path d="M184.558 124.158H179.702V133.511H184.558V124.158Z" fill="#2F2E41" stroke="#2F2E41" stroke-width="0.75" stroke-linecap="round" stroke-linejoin="round"/>
<path d="M222.297 170.684H211.856V173.667H222.297V170.684Z" fill="#8185E7" stroke="#2F2E41" stroke-width="0.75" stroke-linecap="round" stroke-linejoin="round"/>
<path d="M156.265 170.684H145.823V173.667H156.265V170.684Z" fill="#8185E7" stroke="#2F2E41" stroke-width="0.75" stroke-linecap="round" stroke-linejoin="round"/>
<path d="M103.556 122.965H22.6432V182.614H103.556V122.965Z" fill="white" stroke="#2F2E41" stroke-width="0.75" stroke-linecap="round" stroke-linejoin="round"/>
<path d="M110.37 124.647H15.8293L22.8938 127.218H103.3L110.37 124.647Z" fill="#8185E7" stroke="#2F2E41" stroke-width="0.75" stroke-linecap="round" stroke-linejoin="round"/>
<path d="M110.382 124.653H15.8234L22.2852 115.372C22.4734 115.101 22.7241 114.88 23.016 114.728C23.3079 114.575 23.6324 114.495 23.9618 114.495H102.231C102.562 114.495 102.887 114.574 103.18 114.727C103.473 114.88 103.725 115.101 103.914 115.372L110.382 124.653Z" fill="#2F2E41" stroke="#2F2E41" stroke-width="0.75" stroke-linecap="round" stroke-linejoin="round"/>
<path d="M30.7219 107.182H24.0035V116.183H30.7219V107.182Z" fill="white" stroke="#2F2E41" stroke-width="0.75" stroke-linecap="round" stroke-linejoin="round"/>
<path d="M30.7219 107.182H28.9558V116.183H30.7219V107.182Z" fill="white" stroke="#2F2E41" stroke-width="0.75" stroke-linecap="round" stroke-linejoin="round"/>
<path d="M31.8317 104.348H22.8938V108.977H31.8317V104.348Z" fill="white" stroke="#2F2E41" stroke-width="0.75" stroke-linecap="round" stroke-linejoin="round"/>
<path d="M31.8317 104.348H28.741V108.977H31.8317V104.348Z" fill="white" stroke="#2F2E41" stroke-width="0.75" stroke-linecap="round" stroke-linejoin="round"/>
<path d="M43.4486 127.564H32.4105V144.737H43.4486V127.564Z" fill="white" stroke="#2F2E41" stroke-width="0.75" stroke-linecap="round" stroke-linejoin="round"/>
<path d="M42.2554 128.632H33.6038V143.884H42.2554V128.632Z" fill="#2F2E41" stroke="white" stroke-width="0.75" stroke-linecap="round" stroke-linejoin="round"/>
<path d="M42.2554 128.632H33.6038V136.982H42.2554V128.632Z" fill="#2F2E41" stroke="white" stroke-width="0.75" stroke-linecap="round" stroke-linejoin="round"/>
<path d="M39.8687 128.632H35.9904V136.982H39.8687V128.632Z" fill="#2F2E41" stroke="white" stroke-width="0.75" stroke-linecap="round" stroke-linejoin="round"/>
<path d="M45.2386 160.669H30.6205V177.842H45.2386V160.669Z" fill="white" stroke="#2F2E41" stroke-width="0.75" stroke-linecap="round" stroke-linejoin="round"/>
<path d="M43.6575 161.737H32.2017V176.989H43.6575V161.737Z" fill="#2F2E41" stroke="white" stroke-width="0.75" stroke-linecap="round" stroke-linejoin="round"/>
<path d="M43.6575 161.737H32.2017V170.088H43.6575V161.737Z" fill="#2F2E41" stroke="white" stroke-width="0.75" stroke-linecap="round" stroke-linejoin="round"/>
<path d="M40.5012 161.737H35.364V170.088H40.5012V161.737Z" fill="#2F2E41" stroke="white" stroke-width="0.75" stroke-linecap="round" stroke-linejoin="round"/>
<path d="M95.358 160.669H80.7399V177.842H95.358V160.669Z" fill="white" stroke="#2F2E41" stroke-width="0.75" stroke-linecap="round" stroke-linejoin="round"/>
<path d="M93.7768 161.737H82.321V176.989H93.7768V161.737Z" fill="#2F2E41" stroke="white" stroke-width="0.75" stroke-linecap="round" stroke-linejoin="round"/>
<path d="M93.7768 161.737H82.321V170.088H93.7768V161.737Z" fill="#2F2E41" stroke="white" stroke-width="0.75" stroke-linecap="round" stroke-linejoin="round"/>
<path d="M90.6205 161.737H85.4833V170.088H90.6205V161.737Z" fill="#2F2E41" stroke="white" stroke-width="0.75" stroke-linecap="round" stroke-linejoin="round"/>
<path d="M94.1647 127.564H83.1265V144.737H94.1647V127.564Z" fill="white" stroke="#2F2E41" stroke-width="0.75" stroke-linecap="round" stroke-linejoin="round"/>
<path d="M92.9714 128.632H84.3198V143.884H92.9714V128.632Z" fill="#2F2E41" stroke="white" stroke-width="0.75" stroke-linecap="round" stroke-linejoin="round"/>
<path d="M92.9714 128.632H84.3198V136.982H92.9714V128.632Z" fill="#2F2E41" stroke="white" stroke-width="0.75" stroke-linecap="round" stroke-linejoin="round"/>
<path d="M90.5847 128.632H86.7064V136.982H90.5847V128.632Z" fill="#2F2E41" stroke="white" stroke-width="0.75" stroke-linecap="round" stroke-linejoin="round"/>
<path d="M66.42 130.123H58.6694V142.178H66.42V130.123Z" fill="white" stroke="#2F2E41" stroke-width="0.75" stroke-linecap="round" stroke-linejoin="round"/>
<path d="M65.5728 130.874H59.5048V141.325H65.5728V130.874Z" fill="#2F2E41" stroke="white" stroke-width="0.75" stroke-linecap="round" stroke-linejoin="round"/>
<path d="M65.5728 130.874H59.5048V136.732H65.5728V130.874Z" fill="#2F2E41" stroke="white" stroke-width="0.75" stroke-linecap="round" stroke-linejoin="round"/>
<path d="M63.9022 130.874H61.1814V136.732H63.9022V130.874Z" fill="#2F2E41" stroke="white" stroke-width="0.75" stroke-linecap="round" stroke-linejoin="round"/>
<path d="M73.5799 155.772H52.6133V176.947H73.5799V155.772Z" fill="#8185E7" stroke="#2F2E41" stroke-width="0.75" stroke-linecap="round" stroke-linejoin="round"/>
<path d="M71.1933 158.754H55V176.947H71.1933V158.754Z" fill="#2F2E41" stroke="#2F2E41" stroke-width="0.75" stroke-linecap="round" stroke-linejoin="round"/>
<path d="M60.1551 158.754H57.9833V176.947H60.1551V158.754Z" fill="white" stroke="#2F2E41" stroke-width="0.75" stroke-linecap="round" stroke-linejoin="round"/>
<path d="M67.315 158.754H65.1432V176.947H67.315V158.754Z" fill="white" stroke="#2F2E41" stroke-width="0.75" stroke-linecap="round" stroke-linejoin="round"/>
<path d="M55.9785 154.674H53.4606L63.0967 146.324L72.7387 154.674H70.2983V156.064H77.5656L63.4427 143.842C63.347 143.758 63.224 143.712 63.0967 143.712C62.9694 143.712 62.8464 143.758 62.7506 143.842L48.6337 156.064H55.9785V154.674Z" fill="#8185E7" stroke="#2F2E41" stroke-width="0.75" stroke-linecap="round" stroke-linejoin="round"/>
<path d="M73.6814 176.947H52.6133V178.802H73.6814V176.947Z" fill="#8185E7" stroke="#2F2E41" stroke-width="0.75" stroke-linecap="round" stroke-linejoin="round"/>
<path d="M73.6814 178.749H52.6133V180.604H73.6814V178.749Z" fill="#8185E7" stroke="#2F2E41" stroke-width="0.75" stroke-linecap="round" stroke-linejoin="round"/>
<path d="M73.6814 180.55H52.6133V182.405H73.6814V180.55Z" fill="#8185E7" stroke="#2F2E41" stroke-width="0.75" stroke-linecap="round" stroke-linejoin="round"/>
<path d="M55 158.754H52.8938" stroke="#2F2E41" stroke-width="0.75" stroke-linecap="round" stroke-linejoin="round"/>
<path d="M73.4964 158.754H71.3902" stroke="#2F2E41" stroke-width="0.75" stroke-linecap="round" stroke-linejoin="round"/>
<path d="M126.086 171.489C126.086 171.489 131.7 172.044 134.547 175.522C135.569 174.283 136.853 173.287 138.307 172.604C139.76 171.921 141.347 171.569 142.953 171.573C144.272 169.981 145.111 168.048 145.373 165.998C145.635 163.949 145.31 161.867 144.435 159.995C143.559 158.122 142.17 156.537 140.429 155.424C138.688 154.31 136.666 153.714 134.599 153.705C132.532 153.695 130.504 154.273 128.753 155.37C127.001 156.468 125.598 158.04 124.705 159.904C123.813 161.768 123.468 163.847 123.712 165.899C123.955 167.951 124.776 169.892 126.08 171.495L126.086 171.489Z" fill="#8185E7"/>
<path opacity="0.5" d="M126.086 171.489C126.086 171.489 131.7 172.044 134.547 175.522C135.569 174.283 136.853 173.287 138.307 172.604C139.76 171.921 141.347 171.569 142.953 171.573C144.272 169.981 145.111 168.048 145.373 165.998C145.635 163.949 145.31 161.867 144.435 159.995C143.559 158.122 142.17 156.537 140.429 155.424C138.688 154.31 136.666 153.714 134.599 153.705C132.532 153.695 130.504 154.273 128.753 155.37C127.001 156.468 125.598 158.04 124.705 159.904C123.813 161.768 123.468 163.847 123.712 165.899C123.955 167.951 124.776 169.892 126.08 171.495L126.086 171.489Z" fill="white"/>
<path d="M134.362 154.466L134.171 182.614H135.119L134.362 154.466Z" fill="#2F2E41"/>
<path d="M134.642 174.466C134.642 174.466 136.539 171.054 139.952 170.01C139.952 170.01 136.372 170.863 134.553 173.798L134.642 174.466Z" fill="#2F2E41"/>
<path d="M134.642 164.797C134.642 164.797 136.539 161.385 139.952 160.341C139.952 160.341 136.372 161.194 134.553 164.135L134.642 164.797Z" fill="#2F2E41"/>
<path d="M134.642 169.628C134.642 169.628 136.539 166.216 139.952 165.179C139.952 165.179 136.372 166.032 134.553 168.966L134.642 169.628Z" fill="#2F2E41"/>
<path d="M134.362 167.26C134.362 167.26 132.536 163.848 129.242 162.805C129.242 162.805 132.715 163.658 134.457 166.598L134.362 167.26Z" fill="#2F2E41"/>
<path d="M134.362 171.996C134.362 171.996 132.536 168.591 129.242 167.547C129.242 167.547 132.715 168.4 134.457 171.334L134.362 171.996Z" fill="#2F2E41"/>
<path d="M230.084 171.489C230.084 171.489 235.698 172.044 238.55 175.522C239.572 174.283 240.857 173.287 242.31 172.604C243.764 171.921 245.351 171.569 246.957 171.573C248.275 169.981 249.115 168.048 249.377 165.998C249.639 163.949 249.314 161.867 248.438 159.995C247.563 158.122 246.174 156.537 244.432 155.424C242.691 154.31 240.669 153.714 238.602 153.705C236.535 153.695 234.508 154.273 232.757 155.37C231.005 156.468 229.601 158.04 228.709 159.904C227.816 161.768 227.472 163.847 227.715 165.899C227.958 167.951 228.78 169.892 230.084 171.495V171.489Z" fill="#8185E7"/>
<path opacity="0.5" d="M230.084 171.489C230.084 171.489 235.698 172.044 238.55 175.522C239.572 174.283 240.857 173.287 242.31 172.604C243.764 171.921 245.351 171.569 246.957 171.573C248.275 169.981 249.115 168.048 249.377 165.998C249.639 163.949 249.314 161.867 248.438 159.995C247.563 158.122 246.174 156.537 244.432 155.424C242.691 154.31 240.669 153.714 238.602 153.705C236.535 153.695 234.508 154.273 232.757 155.37C231.005 156.468 229.601 158.04 228.709 159.904C227.816 161.768 227.472 163.847 227.715 165.899C227.958 167.951 228.78 169.892 230.084 171.495V171.489Z" fill="white"/>
<path d="M238.359 154.466L238.174 182.614H239.117L238.359 154.466Z" fill="#2F2E41"/>
<path d="M238.664 174.466C238.664 174.466 240.561 171.054 243.974 170.01C243.974 170.01 240.394 170.863 238.568 173.798L238.664 174.466Z" fill="#2F2E41"/>
<path d="M238.664 164.797C238.664 164.797 240.561 161.385 243.974 160.341C243.974 160.341 240.394 161.194 238.568 164.135L238.664 164.797Z" fill="#2F2E41"/>
<path d="M238.664 169.628C238.664 169.628 240.561 166.216 243.974 165.179C243.974 165.179 240.394 166.032 238.568 168.966L238.664 169.628Z" fill="#2F2E41"/>
<path d="M238.365 167.26C238.365 167.26 236.533 163.848 233.24 162.805C233.24 162.805 236.718 163.658 238.455 166.598L238.365 167.26Z" fill="#2F2E41"/>
<path d="M238.365 171.996C238.365 171.996 236.533 168.591 233.24 167.547C233.24 167.547 236.718 168.4 238.455 171.334L238.365 171.996Z" fill="#2F2E41"/>
<path d="M4.54655 171.489C4.54655 171.489 10.1611 172.044 13.0131 175.522C14.0354 174.283 15.3196 173.287 16.7732 172.604C18.2269 171.921 19.8139 171.569 21.4201 171.573C22.7385 169.981 23.5776 168.048 23.8399 165.998C24.1021 163.949 23.7766 161.867 22.9013 159.995C22.0259 158.122 20.6368 156.537 18.8955 155.424C17.1542 154.31 15.1323 153.714 13.0653 153.705C10.9983 153.695 8.97103 154.273 7.21956 155.37C5.46809 156.468 4.06442 158.04 3.17191 159.904C2.2794 161.768 1.93478 163.847 2.17814 165.899C2.4215 167.951 3.24283 169.892 4.54655 171.495V171.489Z" fill="#8185E7"/>
<path opacity="0.5" d="M4.54655 171.489C4.54655 171.489 10.1611 172.044 13.0131 175.522C14.0354 174.283 15.3196 173.287 16.7732 172.604C18.2269 171.921 19.8139 171.569 21.4201 171.573C22.7385 169.981 23.5776 168.048 23.8399 165.998C24.1021 163.949 23.7766 161.867 22.9013 159.995C22.0259 158.122 20.6368 156.537 18.8955 155.424C17.1542 154.31 15.1323 153.714 13.0653 153.705C10.9983 153.695 8.97103 154.273 7.21956 155.37C5.46809 156.468 4.06442 158.04 3.17191 159.904C2.2794 161.768 1.93478 163.847 2.17814 165.899C2.4215 167.951 3.24283 169.892 4.54655 171.495V171.489Z" fill="white"/>
<path d="M12.8222 154.466L12.6373 182.614H13.586L12.8222 154.466Z" fill="#2F2E41"/>
<path d="M13.1265 174.466C13.1265 174.466 15.0239 171.054 18.4368 170.01C18.4368 170.01 14.8568 170.863 13.0311 173.798L13.1265 174.466Z" fill="#2F2E41"/>
<path d="M13.1265 164.797C13.1265 164.797 15.0239 161.385 18.4368 160.341C18.4368 160.341 14.8568 161.194 13.0311 164.135L13.1265 164.797Z" fill="#2F2E41"/>
<path d="M13.1265 169.628C13.1265 169.628 15.0239 166.216 18.4368 165.179C18.4368 165.179 14.8568 166.032 13.0311 168.966L13.1265 169.628Z" fill="#2F2E41"/>
<path d="M12.8282 167.26C12.8282 167.26 10.9964 163.848 7.70288 162.805C7.70288 162.805 11.1814 163.658 12.9177 166.598L12.8282 167.26Z" fill="#2F2E41"/>
<path d="M12.8282 171.996C12.8282 171.996 10.9964 168.591 7.70288 167.547C7.70288 167.547 11.1814 168.4 12.9177 171.334L12.8282 171.996Z" fill="#2F2E41"/>
<path d="M95.9129 163.18C95.9129 163.18 105.722 164.153 110.692 170.231C110.692 170.231 115.943 163.192 125.382 163.335C127.696 160.553 129.172 157.17 129.636 153.582C130.101 149.993 129.535 146.346 128.006 143.066C126.476 139.787 124.046 137.009 120.998 135.058C117.95 133.106 114.409 132.061 110.79 132.044C107.17 132.027 103.62 133.039 100.554 134.962C97.488 136.886 95.0318 139.64 93.4719 142.906C91.912 146.171 91.3126 149.812 91.7438 153.405C92.1749 156.998 93.6188 160.394 95.907 163.198L95.9129 163.18Z" fill="#8185E7"/>
<path opacity="0.3" d="M95.9129 163.18C95.9129 163.18 105.722 164.153 110.692 170.231C110.692 170.231 115.943 163.192 125.382 163.335C127.696 160.553 129.172 157.17 129.636 153.582C130.101 149.993 129.535 146.346 128.006 143.066C126.476 139.787 124.046 137.009 120.998 135.058C117.95 133.106 114.409 132.061 110.79 132.044C107.17 132.027 103.62 133.039 100.554 134.962C97.488 136.886 95.0318 139.64 93.4719 142.906C91.912 146.171 91.3126 149.812 91.7438 153.405C92.1749 156.998 93.6188 160.394 95.907 163.198L95.9129 163.18Z" fill="white"/>
<path d="M110.37 133.457L110.036 182.614H111.695L110.37 133.457Z" fill="#2F2E41"/>
<path d="M110.865 168.382C110.865 168.382 114.177 162.417 120.137 160.598C120.137 160.598 113.843 162.089 110.698 167.219L110.865 168.382Z" fill="#2F2E41"/>
<path d="M110.865 151.495C110.865 151.495 114.177 145.53 120.137 143.741C120.137 143.741 113.843 145.232 110.698 150.362L110.865 151.495Z" fill="#2F2E41"/>
<path d="M110.865 159.947C110.865 159.947 114.177 153.982 120.137 152.193C120.137 152.193 113.843 153.684 110.698 158.814L110.865 159.947Z" fill="#2F2E41"/>
<path d="M110.382 155.802C110.382 155.802 107.184 149.837 101.432 148.047C101.432 148.047 107.506 149.533 110.537 154.662L110.382 155.802Z" fill="#2F2E41"/>
<path d="M110.382 164.075C110.382 164.075 107.184 158.11 101.432 156.321C101.432 156.321 107.506 157.812 110.537 162.942L110.382 164.075Z" fill="#2F2E41"/>
<path d="M246.408 182.214H3.37109V184.6H246.408V182.214Z" fill="#2F2E41" stroke="#2F2E41" stroke-width="0.75" stroke-linecap="round" stroke-linejoin="round"/>
<path d="M118.681 95.0432C116.712 93.9635 115.817 94.8642 115.101 93.9635C114.385 93.0628 117.076 90.7365 111.695 88.4102C111.695 88.4102 111.337 83.3877 103.986 83.2088C96.6348 83.0298 98.6158 88.2312 96.6349 89.4839C94.6539 90.7365 94.1229 88.7681 92.1539 90.0207C90.185 91.2733 91.074 93.7846 89.463 94.1425C87.852 94.5003 85.6981 92.5319 83.7232 93.7846C81.7482 95.0372 81.7422 96.1228 80.8473 96.1228C79.9523 96.1228 78.1623 95.407 77.0823 96.1228C76.0024 96.8386 74.7554 97.7333 74.7554 97.7333H120.101C120.101 97.7333 120.656 96.1228 118.681 95.0432Z" fill="white"/>
<path d="M99.7017 88.0463C98.2697 87.2589 97.6134 87.9151 97.0943 87.2589C96.5752 86.6028 98.5262 84.9088 94.6122 83.2147C94.6122 83.2147 94.3496 79.5582 88.9916 79.427C83.6336 79.2958 85.0776 83.0835 83.6217 83.9961C82.1659 84.9088 81.79 83.4772 80.352 84.3898C78.9141 85.3025 79.5704 87.1337 78.395 87.3723C77.2196 87.6109 75.6503 86.1793 74.2184 87.1158C72.7864 88.0523 72.7864 88.8098 72.1301 88.8098C71.4737 88.8098 70.173 88.2909 69.3854 88.8098C68.5978 89.3288 67.6909 90.0028 67.6909 90.0028H100.74C100.74 90.0028 101.14 88.8277 99.7017 88.0463Z" fill="white"/>
<path d="M111.038 31.3439C108.353 29.8825 107.13 31.0993 106.157 29.8825C105.185 28.6656 108.842 25.4863 101.515 22.313C101.515 22.313 101.026 15.4772 91.0143 15.2326C81.0024 14.9881 83.6933 22.0684 81.0024 23.7804C78.3114 25.4923 77.5895 22.8021 74.8985 24.5081C72.2076 26.214 73.4367 29.6379 71.241 30.127C69.0453 30.6161 66.1098 27.926 63.4248 29.6379C60.7398 31.3498 60.7398 32.8112 59.5167 32.8112C58.2935 32.8112 55.8532 31.833 54.3914 32.8112C52.9296 33.7895 51.2172 35.0063 51.2172 35.0063H112.989C112.989 35.0063 113.723 32.8112 111.038 31.3439Z" fill="#8185E7"/>
<path opacity="0.8" d="M111.038 31.3439C108.353 29.8825 107.13 31.0993 106.157 29.8825C105.185 28.6656 108.842 25.4863 101.515 22.313C101.515 22.313 101.026 15.4772 91.0143 15.2326C81.0024 14.9881 83.6933 22.0684 81.0024 23.7804C78.3114 25.4923 77.5895 22.8021 74.8985 24.5081C72.2076 26.214 73.4367 29.6379 71.241 30.127C69.0453 30.6161 66.1098 27.926 63.4248 29.6379C60.7398 31.3498 60.7398 32.8112 59.5167 32.8112C58.2935 32.8112 55.8532 31.833 54.3914 32.8112C52.9296 33.7895 51.2172 35.0063 51.2172 35.0063H112.989C112.989 35.0063 113.723 32.8112 111.038 31.3439Z" fill="white"/>
</g>
<defs>
<clipPath id="clip0_615_127">
<rect width="250" height="170" fill="white" transform="translate(0 15)"/>
</clipPath>
</defs>
</svg>
