<svg width="250" height="200" viewBox="0 0 250 200" fill="none" xmlns="http://www.w3.org/2000/svg">
<rect width="250" height="200" fill="white"/>
<g clip-path="url(#clip0_615_126)">
<path d="M46.9968 146.545C46.9968 146.545 69.1887 174.602 107.109 175.743C145.029 176.885 178.943 153.286 206.918 134.89C234.894 116.494 244.076 85.7278 230.094 60.3396C216.111 34.9514 190.773 43.6455 160.325 25.7998C129.878 7.95402 124.501 -1.39817 89.1917 0.205946C53.8825 1.81006 24.6865 39.4502 25.9741 81.6301C27.2616 123.81 46.9968 146.545 46.9968 146.545Z" fill="#8185E7"/>
<path opacity="0.7" d="M46.9968 146.545C46.9968 146.545 69.1887 174.602 107.109 175.743C145.029 176.885 178.943 153.286 206.918 134.89C234.894 116.494 244.076 85.7278 230.094 60.3396C216.111 34.9514 190.773 43.6455 160.325 25.7998C129.878 7.95402 124.501 -1.39817 89.1917 0.205946C53.8825 1.81006 24.6865 39.4502 25.9741 81.6301C27.2616 123.81 46.9968 146.545 46.9968 146.545Z" fill="white"/>
<path d="M223.09 4.7818H145.663V42.643H223.09V4.7818Z" stroke="#263238" stroke-width="0.6" stroke-linecap="round" stroke-linejoin="round"/>
<path d="M183.985 42.643V4.86923" stroke="#263238" stroke-width="0.6" stroke-linecap="round" stroke-linejoin="round"/>
<path d="M181.724 19.6764H179.149V29.6147H181.724V19.6764Z" stroke="#263238" stroke-width="0.6" stroke-linecap="round" stroke-linejoin="round"/>
<path d="M189.619 19.6764H187.044V29.6147H189.619V19.6764Z" stroke="#263238" stroke-width="0.6" stroke-linecap="round" stroke-linejoin="round"/>
<path d="M232.112 101.291H124.99V182.154H232.112V101.291Z" stroke="#263238" stroke-width="0.6" stroke-linecap="round" stroke-linejoin="round"/>
<path d="M228.471 106.797H187.734V123.923H228.471V106.797Z" stroke="#263238" stroke-width="0.6" stroke-linecap="round" stroke-linejoin="round"/>
<path d="M213.819 113.219H202.386V116.427H213.819V113.219Z" stroke="#263238" stroke-width="0.6" stroke-linecap="round" stroke-linejoin="round"/>
<path d="M228.471 128.201H187.734V145.327H228.471V128.201Z" stroke="#263238" stroke-width="0.6" stroke-linecap="round" stroke-linejoin="round"/>
<path d="M213.819 134.622H202.386V137.831H213.819V134.622Z" stroke="#263238" stroke-width="0.6" stroke-linecap="round" stroke-linejoin="round"/>
<path d="M228.471 149.604H187.734V166.73H228.471V149.604Z" stroke="#263238" stroke-width="0.6" stroke-linecap="round" stroke-linejoin="round"/>
<path d="M213.819 156.026H202.386V159.234H213.819V156.026Z" stroke="#263238" stroke-width="0.6" stroke-linecap="round" stroke-linejoin="round"/>
<path d="M183.804 106.797H143.067V123.923H183.804V106.797Z" stroke="#263238" stroke-width="0.6" stroke-linecap="round" stroke-linejoin="round"/>
<path d="M169.153 113.219H157.719V116.427H169.153V113.219Z" stroke="#263238" stroke-width="0.6" stroke-linecap="round" stroke-linejoin="round"/>
<path d="M183.804 128.201H143.067V145.327H183.804V128.201Z" stroke="#263238" stroke-width="0.6" stroke-linecap="round" stroke-linejoin="round"/>
<path d="M169.153 134.622H157.719V137.831H169.153V134.622Z" stroke="#263238" stroke-width="0.6" stroke-linecap="round" stroke-linejoin="round"/>
<path d="M183.804 149.604H143.067V166.73H183.804V149.604Z" stroke="#263238" stroke-width="0.6" stroke-linecap="round" stroke-linejoin="round"/>
<path d="M169.153 156.026H157.719V159.234H169.153V156.026Z" stroke="#263238" stroke-width="0.6" stroke-linecap="round" stroke-linejoin="round"/>
<path d="M235.584 97.152H121.56V101.265H235.584V97.152Z" stroke="#263238" stroke-width="0.6" stroke-linecap="round" stroke-linejoin="round"/>
<path d="M140.858 27.7741H67.1697V175.676H140.858V27.7741Z" stroke="#263238" stroke-width="0.6" stroke-linecap="round" stroke-linejoin="round"/>
<path d="M76.4401 64.1083H71.2951V94.571H76.4401V64.1083Z" stroke="#263238" stroke-width="0.6" stroke-linecap="round" stroke-linejoin="round"/>
<path d="M142.98 5.38852H65.0428V180.453H142.98V5.38852Z" stroke="#263238" stroke-width="0.6" stroke-linecap="round" stroke-linejoin="round"/>
<path d="M31.4434 79.7176C31.4434 79.7176 30.64 77.1006 28.2864 76.1597C26.6538 75.5068 24.7688 75.6816 23.0744 75.9746C19.9226 76.5196 17.1673 77.7741 14.175 78.8435C14.175 78.8435 15.4523 78.3757 20.6951 80.9258C22.654 81.9531 24.8275 82.5061 27.04 82.5402C28.8117 82.5042 31.5103 82.0003 31.4434 79.7176Z" fill="#8185E7"/>
<path d="M31.7265 72.0311C31.7265 72.0311 31.7265 69.2959 29.7334 67.7175C28.3583 66.6172 26.5094 66.2419 24.7996 66.0311C21.6219 65.6507 18.6194 66.0311 15.447 66.2162C15.447 66.2162 16.8066 66.134 21.0863 70.0877C22.6652 71.6364 24.5862 72.7935 26.6948 73.4656C28.4201 73.9386 31.1497 74.2419 31.7265 72.0311Z" fill="#8185E7"/>
<path d="M37.1756 82.1957C37.1756 82.1957 35.0332 80.4836 35.028 77.954C35.028 76.1957 35.8726 74.5144 36.7739 73.0491C38.4477 70.3242 40.6313 68.2265 42.7274 65.8512C42.7274 65.8512 41.821 66.8795 42.2639 72.6687C42.4981 74.8652 42.2123 77.0859 41.4296 79.152C40.7137 80.7767 39.2357 83.116 37.1756 82.1957Z" fill="#8185E7"/>
<path d="M44.7204 86.3962C44.7204 86.3962 44.4217 83.6764 46.2036 81.8821C47.4448 80.6327 49.237 80.0466 50.9108 79.6404C54.0009 78.8898 57.0498 78.9464 60.2171 78.7407C60.2171 78.7407 58.8626 78.8178 55.067 83.2394C53.6877 84.9569 51.9236 86.3271 49.9169 87.2394C48.2482 87.9078 45.5547 88.5248 44.7204 86.3962Z" fill="#8185E7"/>
<path d="M44.226 76.6995C44.226 76.6995 41.5067 76.3293 40.2038 74.1597C39.2922 72.6584 39.1737 70.7766 39.1737 69.0594C39.2098 65.8615 40.0029 62.9463 40.5797 59.8049C40.5797 59.8049 40.3222 61.1417 43.6698 65.8923C45.0034 67.6552 45.9016 69.7074 46.2912 71.882C46.5539 73.661 46.4921 76.4013 44.226 76.6995Z" fill="#8185E7"/>
<path d="M52.0439 71.8307C52.0439 71.8307 53.9958 73.7536 56.5142 73.4656C58.2601 73.2651 59.836 72.2214 61.1853 71.1623C63.7037 69.1829 65.532 66.7767 67.659 64.4168C67.659 64.4168 66.7577 65.4451 60.933 65.6713C58.7197 65.6958 56.5429 66.2381 54.5777 67.2548C53.0327 68.1289 50.8851 69.8615 52.0439 71.8307Z" fill="#8185E7"/>
<path d="M49.7775 69.9335C49.7775 69.9335 52.5071 70.2059 54.289 68.391C55.525 67.1417 56.0967 65.3422 56.483 63.6712C57.204 60.5556 57.1164 57.5376 57.2864 54.3653C57.2864 54.3653 57.2246 55.7227 52.8367 59.5581C51.1281 60.9612 49.7733 62.7451 48.8814 64.7664C48.2325 66.427 47.6402 69.1263 49.7775 69.9335Z" fill="#8185E7"/>
<path d="M40.0388 96.4373L35.3316 84.8692L29.8983 71.4913" stroke="#263238" stroke-width="0.6" stroke-linecap="round" stroke-linejoin="round"/>
<path d="M41.1257 94.4476L45.8329 78.3602L50.9057 68.4167" stroke="#263238" stroke-width="0.6" stroke-linecap="round" stroke-linejoin="round"/>
<path d="M42.9385 88.1237L47.6457 85.4091" stroke="#263238" stroke-width="0.6" stroke-linecap="round" stroke-linejoin="round"/>
<path d="M45.8379 78.3602L43.4792 73.116" stroke="#263238" stroke-width="0.6" stroke-linecap="round" stroke-linejoin="round"/>
<path d="M48.7839 73.1417L54.5263 70.5865" stroke="#263238" stroke-width="0.6" stroke-linecap="round" stroke-linejoin="round"/>
<path d="M36.2381 87.0389L38.2312 79.0851" stroke="#263238" stroke-width="0.6" stroke-linecap="round" stroke-linejoin="round"/>
<path d="M33.5961 80.9926L28.9919 78.5402" stroke="#263238" stroke-width="0.6" stroke-linecap="round" stroke-linejoin="round"/>
<path d="M44.7409 102.227H36.2484L34.4252 92.643H46.5589L44.7409 102.227Z" fill="#263238" stroke="#263238" stroke-width="0.6" stroke-linecap="round" stroke-linejoin="round"/>
<path d="M142.753 103.82H35.6305V187.111H142.753V103.82Z" fill="white" stroke="#263238" stroke-width="0.6" stroke-linecap="round" stroke-linejoin="round"/>
<path d="M142.753 103.82H35.6305V109.394H142.753V103.82Z" fill="#263238" stroke="#263238" stroke-width="0.6" stroke-linecap="round" stroke-linejoin="round"/>
<path d="M146.219 102.108H32.1954V106.221H146.219V102.108Z" fill="white" stroke="#263238" stroke-width="0.6" stroke-linecap="round" stroke-linejoin="round"/>
<path d="M106.44 175.532H81.9353V177.43H106.44V175.532Z" fill="white" stroke="#263238" stroke-width="0.6" stroke-linecap="round" stroke-linejoin="round"/>
<path d="M102.639 124.329H84.7832V131.347H102.639V124.329Z" fill="white" stroke="#263238" stroke-width="0.6" stroke-linecap="round" stroke-linejoin="round"/>
<path d="M83.0735 124.561L77.9233 193.116H81.3585L87.2554 124.329L83.0735 124.561Z" fill="white" stroke="#263238" stroke-width="0.6" stroke-linecap="round" stroke-linejoin="round"/>
<path d="M104.709 124.561L109.859 193.116H106.424L100.527 124.329L104.709 124.561Z" fill="white" stroke="#263238" stroke-width="0.6" stroke-linecap="round" stroke-linejoin="round"/>
<path d="M104.977 120.273H82.2082C80.7917 120.273 79.6434 121.419 79.6434 122.833V123.28C79.6434 124.695 80.7917 125.841 82.2082 125.841H104.977C106.393 125.841 107.542 124.695 107.542 123.28V122.833C107.542 121.419 106.393 120.273 104.977 120.273Z" fill="#8185E7" stroke="#263238" stroke-width="0.6" stroke-linecap="round" stroke-linejoin="round"/>
<path d="M65.9236 175.532H41.4194V177.43H65.9236V175.532Z" fill="white" stroke="#263238" stroke-width="0.6" stroke-linecap="round" stroke-linejoin="round"/>
<path d="M62.1227 124.329H44.2673V131.347H62.1227V124.329Z" fill="white" stroke="#263238" stroke-width="0.6" stroke-linecap="round" stroke-linejoin="round"/>
<path d="M42.5627 124.561L37.4074 193.116H40.8425L46.7394 124.329L42.5627 124.561Z" fill="white" stroke="#263238" stroke-width="0.6" stroke-linecap="round" stroke-linejoin="round"/>
<path d="M64.1931 124.561L69.3433 193.116H65.9081L60.0164 124.329L64.1931 124.561Z" fill="white" stroke="#263238" stroke-width="0.6" stroke-linecap="round" stroke-linejoin="round"/>
<path d="M64.4609 120.273H41.6922C40.2758 120.273 39.1275 121.419 39.1275 122.833V123.28C39.1275 124.695 40.2758 125.841 41.6922 125.841H64.4609C65.8774 125.841 67.0257 124.695 67.0257 123.28V122.833C67.0257 121.419 65.8774 120.273 64.4609 120.273Z" fill="#8185E7" stroke="#263238" stroke-width="0.6" stroke-linecap="round" stroke-linejoin="round"/>
<path d="M150.308 199.62C181.217 199.62 206.274 197.933 206.274 195.851C206.274 193.77 181.217 192.083 150.308 192.083C119.399 192.083 94.3418 193.77 94.3418 195.851C94.3418 197.933 119.399 199.62 150.308 199.62Z" fill="#8185E7"/>
<path opacity="0.5" d="M150.308 199.62C181.217 199.62 206.274 197.933 206.274 195.851C206.274 193.77 181.217 192.083 150.308 192.083C119.399 192.083 94.3418 193.77 94.3418 195.851C94.3418 197.933 119.399 199.62 150.308 199.62Z" fill="white"/>
<path d="M151.436 69.8203C151.436 69.8203 148.861 66.5658 150.921 61.9386C152.981 57.3113 159.676 60.0517 158.301 53.5427C156.926 47.0337 154.696 42.2316 150.746 40.1751C146.796 38.1185 137.531 39.3165 133.411 41.7175C129.29 44.1185 128.26 50.4579 129.115 53.1982C129.97 55.9386 131.52 56.9669 128.945 58.3396C126.37 59.7124 114.525 61.5941 111.09 69.6507C107.655 77.7072 116.07 80.7921 113.325 84.5607C110.58 88.3293 108 90.7304 115.21 97.5838C122.42 104.437 135.81 102.386 140.276 96.2162C144.741 90.0466 153.151 79.7638 151.436 69.8203Z" fill="#263238" stroke="#263238" stroke-width="0.6" stroke-linecap="round" stroke-linejoin="round"/>
<path d="M114.85 90.5247C114.767 91.3011 115.066 92.0363 116.06 93.0286" stroke="white" stroke-width="0.6" stroke-linecap="round" stroke-linejoin="round"/>
<path d="M124.022 62.0055C118.784 64.8024 114.206 67.8358 113.243 70.5607C111.255 76.1854 118.048 80.3294 116.889 84.9566C116.616 86.0167 116.245 87.0494 115.782 88.0414" stroke="white" stroke-width="0.6" stroke-linecap="round" stroke-linejoin="round"/>
<path d="M151.184 43.7432C151.184 43.7432 146.209 51.0183 139.421 54.4939C136.449 56.0363 131.443 58.1957 126.592 60.6635" stroke="white" stroke-width="0.6" stroke-linecap="round" stroke-linejoin="round"/>
<path d="M133.663 54.571C133.266 54.6811 132.862 54.7602 132.453 54.8075" stroke="white" stroke-width="0.6" stroke-linecap="round" stroke-linejoin="round"/>
<path d="M145.549 40.6018C145.549 40.6018 143.397 41.1159 142.403 43.9077C141.862 45.4501 140.291 50.5247 136.022 53.4553" stroke="white" stroke-width="0.6" stroke-linecap="round" stroke-linejoin="round"/>
<path d="M137.387 57.0542C137.387 57.0542 136.326 63.481 134.266 65.0234C132.206 66.5658 127.4 65.193 127.4 65.193C127.4 65.193 122.25 63.9951 119.675 69.6506C117.1 75.3062 121.22 96.2162 121.22 96.2162C121.22 96.2162 115.385 102.9 112.635 110.782C109.885 118.663 110.75 147.8 110.75 147.8C110.75 147.8 107.66 157.738 107.66 162.879C107.66 168.021 106.8 187.388 106.8 187.388C106.8 187.388 97.0148 193.388 97.0148 194.756C97.0148 196.124 105.574 194.951 108 192.53C108.69 191.846 110.06 184.987 110.06 184.987C110.06 184.987 117.1 160.309 117.615 154.828C118.13 149.347 118.13 147.969 118.13 147.969C118.13 147.969 127.4 123.805 127.915 118.149L133.581 147.8C133.581 147.8 132.381 156.885 132.551 163.224C132.721 169.563 136.671 193.903 136.841 194.417C137.011 194.931 146.111 198.699 148.171 195.959C148.171 195.959 142.851 191.502 138.731 191.671C138.731 191.671 141.651 167.681 142.851 159.28C144.051 150.879 144.051 133.404 144.396 131.861C144.741 130.319 145.081 104.612 141.651 95.3576L146.456 83.702C146.456 83.702 149.891 75.8203 148.686 72.9051C147.481 69.99 141.306 69.1365 140.621 68.1082C139.936 67.0799 141.991 64.1648 142.506 62.7972C143.021 61.4296 137.387 57.0542 137.387 57.0542Z" fill="white" stroke="#263238" stroke-width="0.6" stroke-linecap="round" stroke-linejoin="round"/>
<path d="M142.835 159.301C144.046 150.905 144.061 133.424 144.38 131.882C144.602 130.895 144.833 120.057 144.082 109.964C131.484 114.077 119.32 110.36 113.696 108.165C113.32 109.013 112.97 109.882 112.666 110.766C109.911 118.648 110.74 147.784 110.74 147.784C110.74 147.784 107.65 157.717 107.65 162.859C107.65 165.363 107.439 171.234 107.222 176.602C108.767 177.193 110.364 177.702 111.945 178.144C114.077 170.432 117.27 158.437 117.61 154.818C118.125 149.332 118.125 147.964 118.125 147.964C118.125 147.964 127.395 123.8 127.941 118.144L133.575 147.795C133.575 147.795 132.365 156.879 132.545 163.219C132.628 166.329 133.611 173.764 134.605 180.602C136.959 180.52 138.854 180.36 140.106 180.232C141.028 172.859 142.181 163.805 142.835 159.301Z" fill="#263238" stroke="#263238" stroke-width="0.6" stroke-linecap="round" stroke-linejoin="round"/>
<path d="M141.651 95.3576L146.456 83.7021C146.456 83.7021 146.533 83.5273 146.652 83.2291C146.492 79.9643 146.301 74.3036 146.703 70.8897C145.611 70.2685 144.463 69.752 143.273 69.3473C143.397 72.0774 143.119 79.2342 137.186 81.301C130.702 83.5581 130.31 70.7406 128.796 65.5016C127.972 65.3473 127.4 65.1879 127.4 65.1879C126.59 65.0373 125.759 65.0373 124.949 65.1879C125.907 67.1314 126.829 70.3293 126.37 75.1211C125.814 80.9052 121.931 82.643 119.274 83.152C119.964 89.8358 121.22 96.2008 121.22 96.2008C121.22 96.2008 115.385 102.885 112.635 110.766C112.594 110.89 112.548 111.023 112.506 111.157C117.1 114.304 128.415 120.077 144.37 114.936C144.03 107.589 143.268 99.6815 141.651 95.3576Z" fill="#8185E7" stroke="#263238" stroke-width="0.6" stroke-linecap="round" stroke-linejoin="round"/>
<path d="M144.751 87.0697C142.898 89.431 140.286 91.0832 137.356 91.7484" stroke="#263238" stroke-width="0.6" stroke-linecap="round" stroke-linejoin="round"/>
<path d="M136.634 76.2676C137.253 78.843 137.064 81.5457 136.094 84.0105" stroke="#263238" stroke-width="0.6" stroke-linecap="round" stroke-linejoin="round"/>
<path d="M131.227 67.8049L135.914 70.864" stroke="#263238" stroke-width="0.6" stroke-linecap="round" stroke-linejoin="round"/>
<path d="M138.076 71.4039L143.489 71.2239" stroke="#263238" stroke-width="0.6" stroke-linecap="round" stroke-linejoin="round"/>
<path d="M148.171 71.7072C148.171 71.7072 151.606 75.1365 153.496 81.8203C155.386 88.5041 160.191 99.9848 160.706 101.358C161.221 102.73 174.097 113.183 174.097 113.183L177.702 113.697C177.702 113.697 180.962 115.409 180.277 115.753C179.592 116.098 178.217 115.409 178.217 115.409C178.217 115.409 180.617 117.81 180.962 118.663C181.053 118.927 181.069 119.211 181.008 119.484C180.947 119.756 180.812 120.006 180.617 120.206C179.029 119.829 177.478 119.312 175.981 118.663C173.066 117.466 171.861 114.036 171.861 114.036C171.861 114.036 163.106 110.268 159.331 106.838C155.556 103.409 153.666 99.301 152.636 97.2445C151.606 95.1879 146.801 82.1596 146.801 82.1596" fill="white"/>
<path d="M148.171 71.7072C148.171 71.7072 151.606 75.1365 153.496 81.8203C155.386 88.5041 160.191 99.9848 160.706 101.358C161.221 102.73 174.097 113.183 174.097 113.183L177.702 113.697C177.702 113.697 180.962 115.409 180.277 115.753C179.592 116.098 178.217 115.409 178.217 115.409C178.217 115.409 180.617 117.81 180.962 118.663C181.053 118.927 181.069 119.211 181.008 119.484C180.947 119.756 180.812 120.006 180.617 120.206C179.029 119.829 177.478 119.312 175.981 118.663C173.066 117.466 171.861 114.036 171.861 114.036C171.861 114.036 163.106 110.268 159.331 106.838C155.556 103.409 153.666 99.301 152.636 97.2445C151.606 95.1879 146.801 82.1596 146.801 82.1596" stroke="#263238" stroke-width="0.6" stroke-linecap="round" stroke-linejoin="round"/>
<path d="M164.383 120.031C164.383 120.031 161.669 134.73 162.627 140.37C163.585 146.011 176.533 146.458 181.631 145.717C186.73 144.977 186.9 143.933 188.017 139.779C189.135 135.625 186.421 119.142 185.442 117.214C184.464 115.286 180.488 113.352 176.018 113.352C171.547 113.352 166.294 115.43 164.383 120.031Z" fill="#8185E7" stroke="#263238" stroke-width="0.6" stroke-linecap="round" stroke-linejoin="round"/>
<path d="M186.956 191.738L184.896 137.846H164.862L162.776 191.738C162.776 191.738 156.535 195.301 157.111 196.191C157.688 197.08 164.383 195.003 165.413 193.666C165.712 193.324 165.934 192.921 166.063 192.485C166.192 192.05 166.225 191.591 166.16 191.142L173.885 150.011H175.781L183.506 191.142C183.439 191.591 183.471 192.049 183.599 192.485C183.727 192.921 183.948 193.324 184.247 193.666C185.277 195.003 191.972 197.08 192.575 196.191C193.178 195.301 186.956 191.738 186.956 191.738Z" fill="#263238" stroke="#263238" stroke-width="0.6" stroke-linecap="round" stroke-linejoin="round"/>
<path d="M174.21 113.054L163.055 115.43L153.836 132.206L157.554 133.692L165.135 125.378L164.842 137.846C164.842 137.846 183.897 139.183 185.211 137.995C186.524 136.807 185.509 125.527 185.509 125.527L194.584 134.73L198.596 132.946C198.596 132.946 187.739 116.324 187.147 116.026C186.555 115.728 178.392 113.8 178.392 113.8L174.21 113.054Z" fill="white" stroke="#263238" stroke-width="0.6" stroke-linecap="round" stroke-linejoin="round"/>
<path d="M175.781 119.409V138.201" stroke="#263238" stroke-width="0.6" stroke-linecap="round" stroke-linejoin="round"/>
<path d="M165.882 114.689C165.882 114.689 166.912 130.571 162.612 136.067L164.188 138.926C164.188 138.926 171.398 127.455 168.854 114.247L165.882 114.689Z" fill="#263238" stroke="#263238" stroke-width="0.6" stroke-linecap="round" stroke-linejoin="round"/>
<path d="M184.525 114.689C184.525 114.689 183.495 130.571 187.796 136.067L186.014 138.412C186.014 138.412 179.03 127.455 181.554 114.247L184.525 114.689Z" fill="#263238" stroke="#263238" stroke-width="0.6" stroke-linecap="round" stroke-linejoin="round"/>
<path d="M172.917 107.198C172.917 107.198 172.804 113.029 173.025 114.237C173.247 115.445 174.787 119.959 175.781 119.409C176.775 118.859 178.536 114.021 178.536 112.807C178.536 111.594 178.866 107.198 178.866 107.198C178.866 107.198 175.451 108.849 172.917 107.198Z" fill="white" stroke="#263238" stroke-width="0.6" stroke-linecap="round" stroke-linejoin="round"/>
<path d="M171.388 97.8974C170.787 96.5688 170.388 95.1583 170.203 93.7123C170.043 91.7329 173.211 90.4733 173.211 90.4733L171.388 97.8974Z" fill="#263238" stroke="#263238" stroke-width="0.6" stroke-linecap="round" stroke-linejoin="round"/>
<path d="M172.073 101.203C172.073 101.203 172.799 97.3987 171.084 97.5427C169.369 97.6867 169.194 100.628 170.121 101.892C171.048 103.157 171.908 102.921 171.908 102.921" fill="white"/>
<path d="M172.073 101.203C172.073 101.203 172.799 97.3987 171.084 97.5427C169.369 97.6867 169.194 100.628 170.121 101.892C171.048 103.157 171.908 102.921 171.908 102.921" stroke="#263238" stroke-width="0.6" stroke-linecap="round" stroke-linejoin="round"/>
<path d="M172.624 92.2985C172.624 92.2985 170.533 99.6712 170.419 104.838C170.306 110.005 173.618 111.769 177.475 111.008C181.332 110.247 182.872 107.373 183.655 104.838C184.438 102.304 185.087 97.1262 185.2 94.828C185.313 92.5298 183.331 90.098 179.473 89.5478C175.616 88.9977 173.19 89.99 172.624 92.2985Z" fill="white" stroke="#263238" stroke-width="0.6" stroke-linecap="round" stroke-linejoin="round"/>
<path d="M173.02 104.509C173.02 104.509 174.164 106.448 177.14 104.854" stroke="#263238" stroke-width="0.6" stroke-linecap="round" stroke-linejoin="round"/>
<path d="M174.895 100.473C174.503 100.987 173.865 101.872 174.102 102.571C174.175 102.763 174.294 102.935 174.449 103.07C174.604 103.206 174.79 103.301 174.991 103.347C175.192 103.393 175.401 103.389 175.6 103.336C175.798 103.282 175.981 103.18 176.131 103.039" stroke="#263238" stroke-width="0.6" stroke-linecap="round" stroke-linejoin="round"/>
<path d="M178.963 101.424C178.845 101.939 178.536 102.273 178.273 102.206C178.011 102.139 177.892 101.692 178.011 101.178C178.129 100.664 178.443 100.334 178.706 100.396C178.969 100.458 179.082 100.926 178.963 101.424Z" fill="#263238"/>
<path d="M173.818 100.262C173.695 100.777 173.386 101.106 173.123 101.044C172.861 100.982 172.747 100.53 172.866 100.016C172.984 99.5016 173.293 99.1674 173.556 99.2342C173.818 99.3011 173.937 99.7638 173.818 100.262Z" fill="#263238"/>
<path d="M178.289 97.481C178.289 97.481 180.766 96.9309 181.039 100.088" stroke="#263238" stroke-width="0.6" stroke-linecap="round" stroke-linejoin="round"/>
<path d="M175.126 97.2033C175.126 97.2033 173.478 95.4192 171.964 97.7483" stroke="#263238" stroke-width="0.6" stroke-linecap="round" stroke-linejoin="round"/>
<path d="M182.888 96.4784C182.888 96.4784 175.945 96.9206 173.52 95.4913C171.094 94.062 169.019 89.7689 173.303 88.0106C177.588 86.2522 183.604 87.5993 186.817 90.7869C190.031 93.9746 188.491 97.2085 187.61 98.5298C186.73 99.8512 184.211 105.281 184.211 105.281H183.001C183.001 105.281 183.99 104.072 182.888 102.422C181.786 100.771 182.888 96.4784 182.888 96.4784Z" fill="#263238" stroke="#263238" stroke-width="0.6" stroke-linecap="round" stroke-linejoin="round"/>
<path d="M183.161 104.221C183.161 104.221 185.365 101.029 186.467 102.35C187.569 103.671 185.586 105.872 184.041 106.088C182.496 106.304 182.059 105.538 182.059 105.538" fill="white"/>
<path d="M183.161 104.221C183.161 104.221 185.365 101.029 186.467 102.35C187.569 103.671 185.586 105.872 184.041 106.088C182.496 106.304 182.059 105.538 182.059 105.538" stroke="#263238" stroke-width="0.6" stroke-linecap="round" stroke-linejoin="round"/>
<path d="M173.02 111.126L170.94 113.352L173.02 120.926L174.802 117.507L173.02 111.126Z" fill="white" stroke="#263238" stroke-width="0.6" stroke-linecap="round" stroke-linejoin="round"/>
<path d="M178.52 111.424L176.738 117.363L178.67 120.627L180.601 113.8L178.52 111.424Z" fill="white" stroke="#263238" stroke-width="0.6" stroke-linecap="round" stroke-linejoin="round"/>
<path d="M164.095 124.216L166.031 120.951C166.031 120.951 169.019 118.561 169.6 119.589C169.775 119.847 169.891 120.139 169.942 120.446C169.992 120.753 169.976 121.068 169.894 121.368C169.894 121.368 170.641 123.892 170.342 124.782C170.043 125.671 165.285 126.838 165.285 126.838C165.285 126.838 157.688 134.283 156.215 135.013C154.742 135.743 152.646 136.941 151.606 134.715C150.566 132.489 152.636 131.599 153.985 130.262C155.335 128.926 164.095 124.216 164.095 124.216Z" fill="white" stroke="#263238" stroke-width="0.6" stroke-linecap="round" stroke-linejoin="round"/>
<path d="M188.1 124.648L186.374 121.265C186.374 121.265 183.552 118.694 182.893 119.723C182.704 119.97 182.569 120.255 182.499 120.558C182.429 120.861 182.425 121.176 182.486 121.481C182.486 121.481 181.59 123.954 181.832 124.864C182.074 125.774 186.745 127.25 186.745 127.25C186.745 127.25 193.858 135.126 195.294 135.959C196.731 136.792 198.735 138.108 199.93 135.959C201.124 133.81 199.085 132.782 197.833 131.368C196.582 129.954 188.1 124.648 188.1 124.648Z" fill="white" stroke="#263238" stroke-width="0.6" stroke-linecap="round" stroke-linejoin="round"/>
<path d="M108.731 190.653L105.255 192.53L102.798 189.959C100.095 191.769 97.0148 193.995 97.0148 194.761C97.0148 196.134 105.574 194.957 108 192.535C108.345 191.952 108.592 191.316 108.731 190.653Z" fill="#263238" stroke="#263238" stroke-width="0.6" stroke-linecap="round" stroke-linejoin="round"/>
<path d="M140.961 194.756L136.583 193.008C136.727 193.841 136.82 194.345 136.841 194.417C137.016 194.931 146.111 198.7 148.171 195.959C146.806 194.853 145.332 193.886 143.773 193.075L140.961 194.756Z" fill="#263238" stroke="#263238" stroke-width="0.6" stroke-linecap="round" stroke-linejoin="round"/>
<path d="M151.019 47.2445C151.019 47.2445 146.61 52.6481 143.809 54.0517C141.007 55.4553 137.392 57.0543 137.392 57.0543C137.392 57.0543 139.596 65.0594 142.907 65.5633C146.219 66.0671 151.024 62.0568 152.43 55.954L151.019 47.2445Z" fill="white" stroke="#263238" stroke-width="0.6" stroke-linecap="round" stroke-linejoin="round"/>
<path d="M145.843 55.9026C145.513 56.6224 145.034 57.1057 144.772 56.9874C144.509 56.8692 144.566 56.1905 144.895 55.445C145.225 54.6995 145.704 54.2419 145.967 54.3602C146.229 54.4784 146.183 55.1828 145.843 55.9026Z" fill="#263238"/>
<path d="M149.711 57.5478C149.381 58.2676 148.902 58.7509 148.645 58.6327C148.387 58.5144 148.434 57.8358 148.763 57.116C149.093 56.3962 149.572 55.9129 149.834 56.0311C150.097 56.1494 150.04 56.8332 149.711 57.5478Z" fill="#263238"/>
<path d="M149.108 54.8641C149.108 54.8641 147.563 57.5941 147.563 59.152C147.563 60.7098 147.172 61.3628 146.652 60.972C146.332 60.7308 146.027 60.4698 145.74 60.1905" stroke="#263238" stroke-width="0.6" stroke-linecap="round" stroke-linejoin="round"/>
<path d="M145.204 52.9155C145.204 52.9155 146.502 51.4861 147.805 53.1725" stroke="#263238" stroke-width="0.6" stroke-linecap="round" stroke-linejoin="round"/>
<path d="M150.148 54.3447C150.148 54.3447 151.58 54.3447 151.58 56.4013" stroke="#263238" stroke-width="0.6" stroke-linecap="round" stroke-linejoin="round"/>
<path d="M142.753 59.9489C142.753 59.9489 143.536 61.4913 144.968 61.7689" stroke="#263238" stroke-width="0.6" stroke-linecap="round" stroke-linejoin="round"/>
<path d="M155.345 110.36H147.264C146.991 110.36 146.729 110.468 146.536 110.661C146.343 110.854 146.234 111.116 146.234 111.388V114.473H147.635V112.417C147.635 112.144 147.743 111.882 147.937 111.689C148.13 111.497 148.392 111.388 148.665 111.388H153.944C154.217 111.388 154.479 111.497 154.672 111.689C154.865 111.882 154.974 112.144 154.974 112.417V114.473H156.369V111.388C156.369 111.116 156.262 110.856 156.07 110.663C155.878 110.47 155.617 110.361 155.345 110.36Z" fill="white" stroke="#263238" stroke-width="0.6" stroke-linecap="round" stroke-linejoin="round"/>
<path d="M161.628 114.268H144.633C143.993 114.268 143.474 114.786 143.474 115.424V125.836C143.474 126.475 143.993 126.993 144.633 126.993H161.628C162.268 126.993 162.787 126.475 162.787 125.836V115.424C162.787 114.786 162.268 114.268 161.628 114.268Z" fill="white" stroke="#263238" stroke-width="0.6" stroke-linecap="round" stroke-linejoin="round"/>
<path d="M159.481 114.268H142.485C141.845 114.268 141.326 114.786 141.326 115.424V125.836C141.326 126.475 141.845 126.993 142.485 126.993H159.481C160.121 126.993 160.639 126.475 160.639 125.836V115.424C160.639 114.786 160.121 114.268 159.481 114.268Z" fill="white" stroke="#263238" stroke-width="0.6" stroke-linecap="round" stroke-linejoin="round"/>
<path d="M125.933 74.3448L125.855 93.116C125.855 93.116 145.771 104.427 148.171 104.766C150.571 105.106 153.321 109.224 154.011 110.083C154.701 110.941 156.071 112.653 155.556 112.823C155.041 112.993 153.321 112.309 153.321 112.309C153.321 112.309 150.921 113.682 149.376 112.993C147.831 112.304 146.626 106.823 146.626 106.823C146.626 106.823 134.096 103.738 129.63 102.37C125.165 101.003 121.735 99.9695 120.875 97.0543C120.015 94.1391 119.33 75.9746 119.16 73.918C118.99 71.8615 118.99 67.409 123.11 66.5504" fill="white"/>
<path d="M125.933 74.3448L125.855 93.116C125.855 93.116 145.771 104.427 148.171 104.766C150.571 105.106 153.321 109.224 154.011 110.083C154.701 110.941 156.071 112.653 155.556 112.823C155.041 112.993 153.321 112.309 153.321 112.309C153.321 112.309 150.921 113.682 149.376 112.993C147.831 112.304 146.626 106.823 146.626 106.823C146.626 106.823 134.096 103.738 129.63 102.37C125.165 101.003 121.735 99.9695 120.875 97.0543C120.015 94.1391 119.33 75.9746 119.16 73.918C118.99 71.8615 118.99 67.409 123.11 66.5504" stroke="#263238" stroke-width="0.6" stroke-linecap="round" stroke-linejoin="round"/>
</g>
<defs>
<clipPath id="clip0_615_126">
<rect width="223" height="200" fill="white" transform="translate(14)"/>
</clipPath>
</defs>
</svg>
