<svg width="250" height="200" viewBox="0 0 250 200" fill="none" xmlns="http://www.w3.org/2000/svg">
<rect width="250" height="200" fill="white"/>
<g clip-path="url(#clip0_615_128)">
<path d="M196.992 14.2253C196.992 14.2253 171.672 -6.40971 138.74 2.7253C105.808 11.8603 92.0183 40.1953 73.1373 59.6603C63.2458 69.8503 48.634 73.6053 36.8835 81.4503C-0.69822 106.535 4.87389 162.95 33.8469 184.2C58.9314 202.62 90.2745 204.545 131.058 190.96C171.842 177.375 201.025 169.215 226.315 130.3C251.605 91.3853 228.184 42.2303 196.992 14.2253Z" fill="#8185E7"/>
<path opacity="0.7" d="M196.992 14.2253C196.992 14.2253 171.672 -6.40971 138.74 2.7253C105.808 11.8603 92.0183 40.1953 73.1373 59.6603C63.2458 69.8503 48.634 73.6053 36.8835 81.4503C-0.69822 106.535 4.87389 162.95 33.8469 184.2C58.9314 202.62 90.2745 204.545 131.058 190.96C171.842 177.375 201.025 169.215 226.315 130.3C251.605 91.3853 228.184 42.2303 196.992 14.2253Z" fill="white"/>
<path d="M21.3755 193.8H239.5" stroke="#263238" stroke-width="0.6" stroke-linecap="round" stroke-linejoin="round"/>
<path d="M13.5079 193.8H17.8774" stroke="#263238" stroke-width="0.6" stroke-linecap="round" stroke-linejoin="round"/>
<path d="M68.0866 21.8003H25.3036V90.8003H68.0866V21.8003Z" stroke="#263238" stroke-width="0.6" stroke-miterlimit="10"/>
<path d="M62.7901 30.3453H30.6001V82.2603H62.7901V30.3453Z" stroke="#263238" stroke-width="0.6" stroke-miterlimit="10"/>
<path d="M224.968 21.8003H182.185V90.8003H224.968V21.8003Z" stroke="#263238" stroke-width="0.6" stroke-miterlimit="10"/>
<path d="M219.671 30.3453H187.481V82.2603H219.671V30.3453Z" stroke="#263238" stroke-width="0.6" stroke-miterlimit="10"/>
<path d="M85.8054 56.4604H81.7265V76.6704H85.8054V56.4604Z" fill="#263238"/>
<mask id="mask0_615_128" style="mask-type:luminance" maskUnits="userSpaceOnUse" x="81" y="56" width="5" height="21">
<path d="M85.8054 56.4604H81.7265V76.6704H85.8054V56.4604Z" fill="white"/>
</mask>
<g mask="url(#mask0_615_128)">
<path d="M86.3619 58.8304H81.5114V59.7204H86.3619V58.8304Z" fill="#8185E7"/>
<path d="M86.362 73.5553H81.5114V74.4453H86.362V73.5553Z" fill="#8185E7"/>
</g>
<path d="M90.3599 56.4604H86.281V76.6703H90.3599V56.4604Z" fill="#263238"/>
<mask id="mask1_615_128" style="mask-type:luminance" maskUnits="userSpaceOnUse" x="86" y="56" width="5" height="21">
<path d="M90.3599 56.4604H86.281V76.6703H90.3599V56.4604Z" fill="white"/>
</mask>
<g mask="url(#mask1_615_128)">
<path d="M90.9159 58.8303H86.0654V59.7203H90.9159V58.8303Z" fill="#8185E7"/>
<path d="M90.916 73.5553H86.0654V74.4453H90.916V73.5553Z" fill="#8185E7"/>
</g>
<path d="M165.103 76.7154V72.6454H144.849V76.7154H165.103Z" fill="#263238"/>
<mask id="mask2_615_128" style="mask-type:luminance" maskUnits="userSpaceOnUse" x="144" y="72" width="22" height="5">
<path d="M165.102 76.7154V72.6453H144.848V76.7154H165.102Z" fill="white"/>
</mask>
<g mask="url(#mask2_615_128)">
<path d="M162.722 77.2653V72.4253H161.83V77.2653H162.722Z" fill="#8185E7"/>
<path d="M147.965 77.2653V72.4253H147.073V77.2653H147.965Z" fill="#8185E7"/>
</g>
<path d="M165.097 72.5904V68.5203H144.843V72.5904H165.097Z" fill="#263238"/>
<mask id="mask3_615_128" style="mask-type:luminance" maskUnits="userSpaceOnUse" x="144" y="68" width="22" height="5">
<path d="M165.098 72.5904V68.5203H144.844V72.5904H165.098Z" fill="white"/>
</mask>
<g mask="url(#mask3_615_128)">
<path d="M162.723 73.1403V68.3003H161.831V73.1403H162.723Z" fill="#8185E7"/>
<path d="M147.97 73.1403V68.3003H147.078V73.1403H147.97Z" fill="#8185E7"/>
</g>
<path d="M94.1312 56.2937L90.2268 57.4714L96.0876 76.8168L99.992 75.6391L94.1312 56.2937Z" fill="#263238"/>
<mask id="mask4_615_128" style="mask-type:luminance" maskUnits="userSpaceOnUse" x="90" y="56" width="10" height="21">
<path d="M94.1314 56.2937L90.227 57.4714L96.0878 76.8168L99.9922 75.6391L94.1314 56.2937Z" fill="white"/>
</mask>
<g mask="url(#mask4_615_128)">
<path d="M95.3534 58.4073L90.7104 59.8078L90.9685 60.6598L95.6115 59.2592L95.3534 58.4073Z" fill="#8185E7"/>
<path d="M99.6193 72.4981L94.9763 73.8986L95.2344 74.7506L99.8774 73.35L99.6193 72.4981Z" fill="#8185E7"/>
</g>
<path d="M123.843 70.1954C123.843 70.1954 120.671 66.4404 121.267 64.9604C121.863 63.4804 122.77 65.2554 122.77 65.2554C122.77 65.2554 120.1 59.2554 122.575 58.9304C125.05 58.6054 126.238 63.5754 126.238 63.5754C126.238 63.5754 127.13 58.4354 128.713 60.1154C130.297 61.7954 128.418 66.1454 128.418 66.1454C128.418 66.1454 131.685 63.5754 130.893 65.7504C130.101 67.9254 126.829 70.4904 126.829 70.4904L123.843 70.1954Z" fill="#8185E7"/>
<path d="M124.249 70.3003C124.249 70.3003 119.99 66.8403 121.673 66.0503C123.357 65.2603 124.344 66.9403 124.344 66.9403C124.344 66.9403 123.342 60.9103 125.236 60.9103C127.13 60.9103 126.739 65.6553 126.739 65.6553C126.739 65.6553 127.827 61.9003 128.819 63.2853C129.811 64.6703 127.431 70.6953 127.431 70.6953" stroke="#263238" stroke-width="0.6" stroke-miterlimit="10"/>
<path d="M129.089 69.3053H121.663L122.405 76.5203H128.348L129.089 69.3053Z" fill="#263238"/>
<path d="M99.4597 40.6703H91.7379V49.0303H99.4597V40.6703Z" fill="#8185E7"/>
<path d="M97.5007 33.3554H93.7024V41.7154H97.5007V33.3554Z" fill="#8185E7"/>
<path d="M85.8054 28.9604H81.7265V49.1704H85.8054V28.9604Z" fill="#263238"/>
<mask id="mask5_615_128" style="mask-type:luminance" maskUnits="userSpaceOnUse" x="81" y="28" width="5" height="22">
<path d="M85.8054 28.9604H81.7265V49.1704H85.8054V28.9604Z" fill="white"/>
</mask>
<g mask="url(#mask5_615_128)">
<path d="M86.3619 31.3304H81.5114V32.2204H86.3619V31.3304Z" fill="#8185E7"/>
<path d="M86.362 46.0553H81.5114V46.9453H86.362V46.0553Z" fill="#8185E7"/>
</g>
<path d="M169.503 29.0916L165.488 28.3765L161.929 48.2721L165.944 48.9872L169.503 29.0916Z" fill="#263238"/>
<mask id="mask6_615_128" style="mask-type:luminance" maskUnits="userSpaceOnUse" x="161" y="28" width="9" height="21">
<path d="M169.503 29.0916L165.488 28.3765L161.929 48.2721L165.944 48.9872L169.503 29.0916Z" fill="white"/>
</mask>
<g mask="url(#mask6_615_128)">
<path d="M169.638 31.5249L164.863 30.6745L164.706 31.5506L169.481 32.4011L169.638 31.5249Z" fill="#8185E7"/>
<path d="M167.041 46.0193L162.266 45.1689L162.109 46.0451L166.884 46.8955L167.041 46.0193Z" fill="#8185E7"/>
</g>
<path d="M90.3599 28.9604H86.281V49.1704H90.3599V28.9604Z" fill="#263238"/>
<mask id="mask7_615_128" style="mask-type:luminance" maskUnits="userSpaceOnUse" x="86" y="28" width="5" height="22">
<path d="M90.3599 28.9604H86.281V49.1704H90.3599V28.9604Z" fill="white"/>
</mask>
<g mask="url(#mask7_615_128)">
<path d="M90.9159 31.3303H86.0654V32.2203H90.9159V31.3303Z" fill="#8185E7"/>
<path d="M90.916 46.0553H86.0654V46.9453H90.916V46.0553Z" fill="#8185E7"/>
</g>
<path d="M115.54 28.9604H111.461V49.1704H115.54V28.9604Z" fill="#263238"/>
<mask id="mask8_615_128" style="mask-type:luminance" maskUnits="userSpaceOnUse" x="111" y="28" width="5" height="22">
<path d="M115.54 28.9604H111.461V49.1704H115.54V28.9604Z" fill="white"/>
</mask>
<g mask="url(#mask8_615_128)">
<path d="M116.091 31.3303H111.241V32.2203H116.091V31.3303Z" fill="#8185E7"/>
<path d="M116.091 46.0553H111.241V46.9453H116.091V46.0553Z" fill="#8185E7"/>
</g>
<path d="M119.659 28.9604H115.58V49.1704H119.659V28.9604Z" fill="#6B6B6B"/>
<mask id="mask9_615_128" style="mask-type:luminance" maskUnits="userSpaceOnUse" x="115" y="28" width="5" height="22">
<path d="M119.659 28.9604H115.58V49.1704H119.659V28.9604Z" fill="white"/>
</mask>
<g mask="url(#mask9_615_128)">
<path d="M120.21 31.3303H115.359V32.2203H120.21V31.3303Z" fill="#8185E7"/>
<path d="M120.21 46.0553H115.359V46.9453H120.21V46.0553Z" fill="#8185E7"/>
</g>
<path d="M123.778 28.9604H119.699V49.1704H123.778V28.9604Z" fill="#263238"/>
<mask id="mask10_615_128" style="mask-type:luminance" maskUnits="userSpaceOnUse" x="119" y="28" width="5" height="22">
<path d="M123.778 28.9604H119.699V49.1704H123.778V28.9604Z" fill="white"/>
</mask>
<g mask="url(#mask10_615_128)">
<path d="M124.329 31.3303H119.478V32.2203H124.329V31.3303Z" fill="#8185E7"/>
<path d="M124.329 46.0553H119.479V46.9453H124.329V46.0553Z" fill="#8185E7"/>
</g>
<path d="M127.897 28.9604H123.818V49.1704H127.897V28.9604Z" fill="#6B6B6B"/>
<mask id="mask11_615_128" style="mask-type:luminance" maskUnits="userSpaceOnUse" x="123" y="28" width="5" height="22">
<path d="M127.897 28.9604H123.818V49.1704H127.897V28.9604Z" fill="white"/>
</mask>
<g mask="url(#mask11_615_128)">
<path d="M128.448 31.3303H123.597V32.2203H128.448V31.3303Z" fill="#8185E7"/>
<path d="M128.448 46.0553H123.598V46.9453H128.448V46.0553Z" fill="#8185E7"/>
</g>
<path d="M132.015 28.9604H127.937V49.1704H132.015V28.9604Z" fill="#263238"/>
<mask id="mask12_615_128" style="mask-type:luminance" maskUnits="userSpaceOnUse" x="127" y="28" width="6" height="22">
<path d="M132.015 28.9604H127.937V49.1704H132.015V28.9604Z" fill="white"/>
</mask>
<g mask="url(#mask12_615_128)">
<path d="M132.566 31.3303H127.716V32.2203H132.566V31.3303Z" fill="#8185E7"/>
<path d="M132.567 46.0553H127.716V46.9453H132.567V46.0553Z" fill="#8185E7"/>
</g>
<path d="M161.855 49.2104V45.1403H141.601V49.2104H161.855Z" fill="#263238"/>
<mask id="mask13_615_128" style="mask-type:luminance" maskUnits="userSpaceOnUse" x="141" y="45" width="21" height="5">
<path d="M161.856 49.2104V45.1404H141.602V49.2104H161.856Z" fill="white"/>
</mask>
<g mask="url(#mask13_615_128)">
<path d="M159.476 49.7653V44.9253H158.584V49.7653H159.476Z" fill="#8185E7"/>
<path d="M144.724 49.7653V44.9253H143.832V49.7653H144.724Z" fill="#8185E7"/>
</g>
<path d="M78.5643 21.6353V78.8903H171.852V21.6353H78.5643ZM139.166 23.8003V49.1353H111.22V23.8003H139.166ZM80.9445 23.8003H108.865V49.1353H80.9445V23.8003ZM80.9445 76.7303V51.3903H108.865V76.7303H80.9445ZM111.24 76.7303V51.3903H139.166V76.7303H111.24ZM169.467 76.7303H141.541V51.3903H169.467V76.7303ZM141.541 49.1353V23.8003H169.467V49.1353H141.541Z" stroke="#263238" stroke-width="0.6" stroke-linecap="round" stroke-linejoin="round"/>
<path d="M102.226 159.44H93.9876V193.8H102.226V159.44Z" fill="white" stroke="#263238" stroke-width="0.6" stroke-linecap="round" stroke-linejoin="round"/>
<path d="M156.419 159.44H148.181V193.8H156.419V159.44Z" fill="white" stroke="#263238" stroke-width="0.6" stroke-linecap="round" stroke-linejoin="round"/>
<path d="M156.423 155.805H93.9876V161.185H156.423V155.805Z" fill="white" stroke="#263238" stroke-width="0.6" stroke-linecap="round" stroke-linejoin="round"/>
<path d="M120.866 149.365C120.099 148.152 119.262 146.983 118.361 145.865C117.108 144.365 113.6 141.49 113.6 141.49L118.11 143.865C118.11 143.865 117.359 141.74 116.607 139.99C115.855 138.24 114.603 133.99 114.603 133.99C114.603 133.99 117.609 139.115 118.361 139.99C119.112 140.865 120.365 142.74 120.365 142.74C120.365 142.74 120.49 137.99 121.117 136.49C121.743 134.99 124.374 131.49 124.374 131.49C124.374 131.49 123.497 136.99 123.497 137.615C123.497 138.24 123.873 142.115 123.873 142.115L125.376 134.24L125.501 139.74L126.629 133.865C126.629 133.865 127.506 138.365 127.756 139.74C127.918 140.774 128.002 141.819 128.007 142.865L129.134 138.74L131.89 133.99C131.89 133.99 131.89 139.365 131.765 139.865C131.64 140.365 131.514 143.615 131.514 143.615L133.143 141.865L131.89 145.74L133.519 145.99L134.27 146.615C134.27 146.615 131.264 147.51 129.941 147.875C128.618 148.24 126.128 149.74 126.128 149.74L120.866 149.365Z" fill="#8185E7"/>
<path d="M121.743 149.365C121.743 149.365 119.614 144.74 117.484 143.615C115.354 142.49 114.352 141.99 114.352 141.99C114.352 141.99 117.484 142.115 119.113 143.24C120.152 144 121.008 144.983 121.618 146.115C121.287 144.553 121.119 142.962 121.117 141.365C121.117 138.74 121.743 133.115 121.743 133.115C121.743 133.115 121.618 140.115 122.244 142.49C122.689 144.081 123.276 145.629 123.998 147.115C123.998 147.115 124.249 144.865 124.625 142.615C125.094 140.419 125.679 138.249 126.378 136.115L125.376 145.115C126.048 143.994 126.634 142.824 127.13 141.615C127.882 139.74 131.64 137.24 131.64 137.24C131.64 137.24 128.758 140.865 128.132 142.865C127.506 144.865 126.879 146.615 126.879 146.615C127.573 145.542 128.416 144.574 129.385 143.74C130.888 142.49 133.644 141.74 133.644 141.74C133.644 141.74 129.886 144.49 129.51 145.365C129.134 146.24 128.508 147.865 128.508 147.865C128.508 147.865 132.016 144.865 135.022 143.99C135.022 143.99 130.387 147.24 129.134 149.49L121.743 149.365Z" stroke="#263238" stroke-width="0.6" stroke-linecap="round" stroke-linejoin="round"/>
<path d="M119.127 148.375C118.921 149.106 118.811 149.861 118.802 150.62C118.802 155.2 121.537 155.58 124.91 155.58C128.282 155.58 131.018 155.325 131.018 150.62C131.008 149.861 130.899 149.106 130.692 148.375H119.127Z" fill="#263238" stroke="#263238" stroke-width="0.6" stroke-linecap="round" stroke-linejoin="round"/>
<path d="M118.802 150.62C118.802 150.72 118.802 150.81 118.802 150.91H130.998C130.998 150.81 130.998 150.72 130.998 150.62C130.998 150.415 130.998 150.205 130.968 149.99H118.832C118.812 150.197 118.802 150.407 118.802 150.62Z" fill="#8185E7"/>
<path d="M130.908 152.065C130.908 151.925 130.948 151.775 130.963 151.62H118.857C118.857 151.775 118.892 151.925 118.917 152.065H130.908Z" fill="#8185E7"/>
<path d="M224.551 159.205L227.373 193.58H226.385L221.304 159.49L224.551 159.205Z" fill="white" stroke="#263238" stroke-width="0.6" stroke-linecap="round" stroke-linejoin="round"/>
<path d="M203.38 159.205L206.201 193.58H205.214L200.133 159.49L203.38 159.205Z" fill="white" stroke="#263238" stroke-width="0.6" stroke-linecap="round" stroke-linejoin="round"/>
<path d="M200.84 159.205L198.014 193.58H199.006L204.087 159.49L200.84 159.205Z" fill="white" stroke="#263238" stroke-width="0.6" stroke-linecap="round" stroke-linejoin="round"/>
<path d="M176.843 159.205L174.022 193.58H175.009L180.09 159.49L176.843 159.205Z" fill="white" stroke="#263238" stroke-width="0.6" stroke-linecap="round" stroke-linejoin="round"/>
<path d="M202.664 104.33H233.987C233.987 104.33 237.745 105.37 236.076 109.75C234.408 114.13 225.017 160.4 225.017 160.4H175.299L172.167 131.635C172.167 131.635 171.536 127.465 174.462 126.84C177.389 126.215 189.295 126.63 191.595 125.38C193.895 124.13 199.071 105.995 199.071 105.995C199.071 105.995 199.527 103.905 202.664 104.33Z" fill="#8185E7" stroke="#263238" stroke-width="0.6" stroke-linecap="round" stroke-linejoin="round"/>
<path d="M200.279 153.85H175.284" stroke="#263238" stroke-width="0.6" stroke-linecap="round" stroke-linejoin="round"/>
<path d="M218.794 68.1653C216.714 66.5897 214.248 65.6003 211.653 65.3003C207.62 64.9553 201.747 69.8003 201.632 72.4253C201.516 75.0503 200.023 74.6103 199.562 76.1053C199.101 77.6003 200.94 77.3653 200.94 78.4003C200.94 79.4353 198.525 80.7003 198.755 81.6203C198.986 82.5403 201.516 83.4603 201.516 84.0303C201.516 84.6003 200.133 85.6403 201.286 86.5603C202.438 87.4803 203.591 86.7903 204.052 87.9403C204.513 89.0903 205.555 90.2403 205.896 89.4403C206.237 88.6403 205.089 83.9403 205.55 80.5903C206.011 77.2403 206.933 75.7653 210.501 74.3853C214.069 73.0053 216.604 71.9703 218.102 70.5903C219.601 69.2103 218.794 68.1653 218.794 68.1653Z" fill="#263238"/>
<mask id="mask14_615_128" style="mask-type:luminance" maskUnits="userSpaceOnUse" x="198" y="65" width="22" height="25">
<path d="M218.794 68.1653C216.714 66.5897 214.248 65.6003 211.653 65.3003C207.62 64.9553 201.747 69.8003 201.632 72.4253C201.516 75.0503 200.023 74.6103 199.562 76.1053C199.101 77.6003 200.94 77.3653 200.94 78.4003C200.94 79.4353 198.525 80.7003 198.755 81.6203C198.986 82.5403 201.516 83.4603 201.516 84.0303C201.516 84.6003 200.133 85.6403 201.286 86.5603C202.438 87.4803 203.591 86.7903 204.052 87.9403C204.513 89.0903 205.555 90.2403 205.896 89.4403C206.237 88.6403 205.089 83.9403 205.55 80.5903C206.011 77.2403 206.933 75.7653 210.501 74.3853C214.069 73.0053 216.604 71.9703 218.102 70.5903C219.601 69.2103 218.794 68.1653 218.794 68.1653Z" fill="white"/>
</mask>
<g mask="url(#mask14_615_128)">
<path d="M213.858 68.6104C213.858 68.6104 210.852 66.4604 208.687 68.3204C206.522 70.1804 206.683 72.4754 205.094 73.1954C203.506 73.9154 201.216 74.3404 202.088 76.3454C202.96 78.3504 204.533 81.3454 202.809 81.9354C201.085 82.5254 199.803 84.0854 200.364 84.6604" stroke="#666666" stroke-width="0.6" stroke-linecap="round" stroke-linejoin="round"/>
</g>
<path d="M218.794 68.1653C216.714 66.5897 214.248 65.6003 211.653 65.3003C207.62 64.9553 201.747 69.8003 201.632 72.4253C201.516 75.0503 200.023 74.6103 199.562 76.1053C199.101 77.6003 200.94 77.3653 200.94 78.4003C200.94 79.4353 198.525 80.7003 198.755 81.6203C198.986 82.5403 201.516 83.4603 201.516 84.0303C201.516 84.6003 200.133 85.6403 201.286 86.5603C202.438 87.4803 203.591 86.7903 204.052 87.9403C204.513 89.0903 205.555 90.2403 205.896 89.4403C206.237 88.6403 205.089 83.9403 205.55 80.5903C206.011 77.2403 206.933 75.7653 210.501 74.3853C214.069 73.0053 216.604 71.9703 218.102 70.5903C219.601 69.2103 218.794 68.1653 218.794 68.1653Z" stroke="#263238" stroke-width="0.6" stroke-linecap="round" stroke-linejoin="round"/>
<path d="M211.438 70.5753C211.438 70.5753 205.681 73.2203 204.874 75.4053C204.067 77.5903 204.643 81.4953 204.413 82.0703C204.182 82.6453 202.338 83.6803 202.569 84.1353C202.936 84.6434 203.361 85.1066 203.837 85.5153C203.837 85.5153 204.067 91.4903 205.565 91.9503C207.064 92.4103 211.077 91.1503 211.077 91.1503L213.498 99.9953L223.399 97.2404L219.716 88.8503C219.716 88.8503 224.226 82.9903 224.667 79.0803C225.108 75.1703 221.215 69.8853 218.333 69.3103C215.452 68.7353 211.884 70.3453 211.884 70.3453L211.438 70.5753Z" fill="#B2B2B2" stroke="#263238" stroke-width="0.6" stroke-linecap="round" stroke-linejoin="round"/>
<path d="M206.527 82.4104C206.812 82.4104 207.043 81.9224 207.043 81.3204C207.043 80.7184 206.812 80.2304 206.527 80.2304C206.242 80.2304 206.011 80.7184 206.011 81.3204C206.011 81.9224 206.242 82.4104 206.527 82.4104Z" fill="#263238"/>
<path d="M205.781 78.1603C205.781 78.1603 207.048 76.6603 208.426 78.3903" stroke="#263238" stroke-width="0.6" stroke-linecap="round" stroke-linejoin="round"/>
<path d="M199.652 127.005C199.652 127.005 189.711 129.15 188.172 129.355C186.634 129.56 184.995 128.95 184.584 128.855C184.174 128.76 180.896 127.115 180.486 127.115C180.075 127.115 178.847 128.14 177.514 128.445C176.181 128.75 174.442 128.14 174.132 128.755C173.821 129.37 175.259 129.57 175.976 129.675C176.692 129.78 178.336 129.775 178.336 129.775C178.336 129.775 175.67 131.31 175.259 131.515C174.848 131.72 172.082 130.9 172.288 131.82C172.493 132.74 176.592 133.255 178.336 133.455C180.08 133.655 184.584 132.13 184.584 132.13C184.584 132.13 190.527 133.455 193.103 133.355C195.679 133.255 199.146 133.05 199.146 133.05L199.652 127.005Z" fill="#B2B2B2" stroke="#263238" stroke-width="0.6" stroke-linecap="round" stroke-linejoin="round"/>
<path d="M176.797 133.14C176.797 133.14 172.698 131.505 173.52 131.505C174.342 131.505 176.387 132.425 176.387 132.425C176.387 132.425 174.848 130.995 175.384 130.995C175.92 130.995 178.867 132.3 178.867 132.3C178.867 132.3 176.918 131.175 178.045 131.38C179.173 131.585 181.553 132.3 181.553 132.3" fill="#B2B2B2"/>
<path d="M176.797 133.14C176.797 133.14 172.698 131.505 173.52 131.505C174.342 131.505 176.387 132.425 176.387 132.425C176.387 132.425 174.848 130.995 175.384 130.995C175.92 130.995 178.867 132.3 178.867 132.3C178.867 132.3 176.918 131.175 178.045 131.38C179.173 131.585 181.553 132.3 181.553 132.3" stroke="#263238" stroke-width="0.6" stroke-linecap="round" stroke-linejoin="round"/>
<path d="M167.171 132.595C167.171 132.595 160.156 132.595 158.603 136.525C157.049 140.455 169.627 185.555 169.627 185.555C169.627 185.555 165.172 190.51 162.085 191.71C158.999 192.91 158.488 193.25 159.685 193.59C160.883 193.93 166.54 194.09 169.456 193.25C172.373 192.41 176.311 190.17 177.855 189.485C179.398 188.8 177.168 187.435 176.141 184.87C175.114 182.305 171.275 166.625 171.105 161.665C170.935 156.705 169.216 143.025 169.216 143.025C169.216 143.025 174.703 146.96 184.985 148.84C195.268 150.72 185.331 138.065 180.701 135.16C176.071 132.255 167.171 132.595 167.171 132.595Z" fill="#263238" stroke="#263238" stroke-width="0.6" stroke-linecap="round" stroke-linejoin="round"/>
<path d="M171.351 187.945L169.347 185.85C168.345 186.92 164.712 190.685 162.076 191.71C158.989 192.905 158.478 193.25 159.676 193.59C160.873 193.93 166.531 194.09 169.447 193.25C172.363 192.41 176.302 190.17 177.845 189.485C179.293 188.845 177.419 187.6 176.342 185.33L171.351 187.945Z" fill="white" stroke="#263238" stroke-width="0.6" stroke-linecap="round" stroke-linejoin="round"/>
<path d="M159.53 192.8C158.884 193.175 158.994 193.375 159.695 193.575C160.898 193.92 166.55 194.075 169.467 193.235C172.383 192.395 176.321 190.155 177.865 189.47C178.571 189.155 178.481 188.695 178.08 188.045C174.668 189.645 167.492 192.955 166.245 193.12C164.726 193.335 160.252 192.89 159.53 192.8Z" fill="#263238" stroke="#263238" stroke-width="0.6" stroke-linecap="round" stroke-linejoin="round"/>
<path d="M222.708 95.8604L211.077 99.1904C211.077 99.1904 210.04 103.445 206.933 105.745C203.827 108.045 199.918 110.245 198.986 114.13C198.054 118.015 198.295 121.715 198.525 125.165C198.756 128.615 195.99 135.85 195.99 135.85C195.99 135.85 178.366 132.06 172.493 132.3C166.621 132.54 162.361 131.725 161.439 137.585C160.517 143.445 164.446 183.975 164.446 183.975C164.446 183.975 158.458 189.475 155.807 191.105C153.156 192.735 150.972 193.745 152.47 194.32C153.968 194.895 161.454 194.09 164.215 193.63C166.976 193.17 171.817 192.94 172.508 191.33C173.2 189.72 170.78 182.255 170.895 181.565C171.01 180.875 171.231 164.705 172.268 158.845C172.957 154.583 173.419 150.287 173.651 145.975C173.651 145.975 199.337 153.1 205.671 153.1C212.004 153.1 216.148 152.18 217.992 141.6C219.836 131.02 218.338 129.53 220.528 125.28C222.718 121.03 224.787 115.74 225.038 109.19C225.288 102.64 222.708 95.8604 222.708 95.8604Z" fill="white" stroke="#263238" stroke-width="0.6" stroke-linecap="round" stroke-linejoin="round"/>
<path d="M202.479 142C198.51 138.795 196.831 136.715 196.145 135.43C196.05 135.7 195.99 135.85 195.99 135.85C195.99 135.85 178.366 132.06 172.493 132.3C166.621 132.54 162.361 131.725 161.439 137.585C160.517 143.445 164.446 183.975 164.446 183.975C164.446 183.975 158.458 189.475 155.807 191.105C153.156 192.735 150.972 193.745 152.47 194.32C153.968 194.895 161.454 194.09 164.215 193.63C166.976 193.17 171.817 192.94 172.508 191.33C173.2 189.72 170.78 182.255 170.895 181.565C171.01 180.875 171.231 164.705 172.268 158.845C172.957 154.583 173.419 150.287 173.651 145.975C173.651 145.975 199.337 153.1 205.671 153.1C210.311 153.1 213.778 152.6 216.023 148.175C211.969 147.215 206.703 145.41 202.479 142Z" fill="#263238" stroke="#263238" stroke-width="0.6" stroke-linecap="round" stroke-linejoin="round"/>
<path d="M164.045 184.33C162.667 185.58 158.032 189.73 155.802 191.095C153.156 192.7 150.967 193.735 152.465 194.31C153.963 194.885 161.449 194.08 164.21 193.62C166.971 193.16 171.812 192.93 172.503 191.32C172.914 190.365 172.223 187.32 171.621 184.88L165.869 186.75L164.045 184.33Z" fill="white" stroke="#263238" stroke-width="0.6" stroke-linecap="round" stroke-linejoin="round"/>
<path d="M152.465 194.3C153.968 194.875 161.449 194.07 164.21 193.61C166.971 193.15 171.812 192.92 172.503 191.31C172.534 191.238 172.557 191.162 172.573 191.085C166.916 192.255 157.145 193.085 152.154 193.465C151.863 193.8 151.908 194.1 152.465 194.3Z" fill="#263238" stroke="#263238" stroke-width="0.6" stroke-linecap="round" stroke-linejoin="round"/>
<path d="M211.077 99.1903C211.077 99.1903 210.04 103.445 206.933 105.745C203.826 108.045 199.918 110.245 198.986 114.13C198.054 118.015 198.294 121.715 198.525 125.165C198.755 128.615 195.989 135.85 195.989 135.85C195.989 135.85 193.865 135.395 190.843 134.805C191.555 139.265 194.797 152.01 208.577 152.98C213.282 152.535 216.444 150.455 217.987 141.6C219.831 131.025 218.333 129.53 220.523 125.28C222.712 121.03 224.782 115.74 225.032 109.19C225.283 102.64 222.727 95.8603 222.727 95.8603L211.077 99.1903Z" fill="white" stroke="#263238" stroke-width="0.6" stroke-linecap="round" stroke-linejoin="round"/>
<path d="M210.04 102.18L223.399 98.6153" stroke="#263238" stroke-width="0.6" stroke-linecap="round" stroke-linejoin="round"/>
<path d="M182.159 116.885C182.159 116.885 181.613 113.42 180.977 113.915C180.34 114.41 181.122 117.485 181.122 117.485C181.479 117.61 181.852 117.682 182.229 117.7" fill="#B2B2B2"/>
<path d="M182.159 116.885C182.159 116.885 181.613 113.42 180.977 113.915C180.34 114.41 181.122 117.485 181.122 117.485C181.479 117.61 181.852 117.682 182.229 117.7" stroke="#263238" stroke-width="0.6" stroke-linecap="round" stroke-linejoin="round"/>
<path d="M222.823 104.71C222.823 104.71 222.131 101.375 217.872 101.95C213.613 102.525 212.114 104.595 210.962 110.225C209.809 115.855 208.081 125.05 208.081 125.05C208.081 125.05 193.339 115.855 191.154 114.36C188.969 112.865 186.198 112.64 184.935 113.555C183.673 114.47 180.21 117.81 180.21 117.81C180.21 117.81 178.481 114.36 178.251 115.51C178.02 116.66 178.827 119.65 180.556 120.34C182.285 121.03 185.386 118.645 185.732 118.53C186.078 118.415 183.658 120.945 184.464 121.06C185.271 121.175 185.968 120.14 187.471 119.22C188.466 118.576 189.362 117.791 190.132 116.89C190.132 116.89 198.309 124.705 200.84 126.66C203.37 128.615 210.27 133.8 211.653 133.8C213.036 133.8 214.875 131.615 215.797 129.66C216.719 127.705 222.362 115.16 223.168 109.09" fill="#B2B2B2"/>
<path d="M222.823 104.71C222.823 104.71 222.131 101.375 217.872 101.95C213.613 102.525 212.114 104.595 210.962 110.225C209.809 115.855 208.081 125.05 208.081 125.05C208.081 125.05 193.339 115.855 191.154 114.36C188.969 112.865 186.198 112.64 184.935 113.555C183.673 114.47 180.21 117.81 180.21 117.81C180.21 117.81 178.481 114.36 178.251 115.51C178.02 116.66 178.827 119.65 180.556 120.34C182.285 121.03 185.386 118.645 185.732 118.53C186.078 118.415 183.658 120.945 184.464 121.06C185.271 121.175 185.968 120.14 187.471 119.22C188.466 118.576 189.362 117.791 190.132 116.89C190.132 116.89 198.309 124.705 200.84 126.66C203.37 128.615 210.27 133.8 211.653 133.8C213.036 133.8 214.875 131.615 215.797 129.66C216.719 127.705 222.362 115.16 223.168 109.09" stroke="#263238" stroke-width="0.6" stroke-linecap="round" stroke-linejoin="round"/>
<path d="M185.732 118.53L186.233 117.6C186.018 117.181 185.834 116.746 185.682 116.3C185.659 116.104 185.681 115.904 185.748 115.718C185.815 115.531 185.925 115.363 186.068 115.225" fill="white"/>
<path d="M185.732 118.53L186.233 117.6C186.018 117.181 185.834 116.746 185.682 116.3C185.659 116.104 185.681 115.904 185.748 115.718C185.815 115.531 185.925 115.363 186.068 115.225" stroke="#263238" stroke-width="0.6" stroke-linecap="round" stroke-linejoin="round"/>
<path d="M181.007 118.715C181.007 118.715 177.264 115.135 176.963 116.275C176.663 117.415 180.326 120.34 180.326 120.34C180.623 120.403 180.933 120.364 181.205 120.229C181.478 120.095 181.697 119.874 181.829 119.6" fill="#B2B2B2"/>
<path d="M181.007 118.715C181.007 118.715 177.264 115.135 176.963 116.275C176.663 117.415 180.326 120.34 180.326 120.34C180.623 120.403 180.933 120.364 181.205 120.229C181.478 120.095 181.697 119.874 181.829 119.6" stroke="#263238" stroke-width="0.6" stroke-linecap="round" stroke-linejoin="round"/>
<path d="M182.53 118.88C182.53 118.88 180.776 114.015 179.999 114.88C179.223 115.745 181.197 120.01 181.197 120.01C181.197 120.01 181.478 121.045 183.552 119.63" fill="#B2B2B2"/>
<path d="M182.53 118.88C182.53 118.88 180.776 114.015 179.999 114.88C179.223 115.745 181.197 120.01 181.197 120.01C181.197 120.01 181.478 121.045 183.552 119.63" stroke="#263238" stroke-width="0.6" stroke-linecap="round" stroke-linejoin="round"/>
<path d="M232.028 126.325C232.028 126.325 224.341 132.75 215.111 133.39C205.881 134.03 201.857 135.725 201.271 140.805C200.684 145.885 199.988 160.245 199.988 160.245L224.852 160.4L230.62 133.135L232.028 126.325Z" fill="#8185E7" stroke="#263238" stroke-width="0.6" stroke-linecap="round" stroke-linejoin="round"/>
<path d="M225.774 133.645C225.774 133.645 223.469 136.715 217.702 137.225C211.934 137.735 207.575 138.505 206.177 140.425" stroke="#263238" stroke-width="0.6" stroke-linecap="round" stroke-linejoin="round"/>
<path d="M234.889 89.1704C233.832 88.8654 235.495 86.9054 236.252 85.0954C237.009 83.2854 234.889 82.2254 233.245 81.3204C231.602 80.4154 233.245 78.6004 233.095 76.1854C232.945 73.7704 231.091 73.8154 230.219 72.4154C229.347 71.0154 230.976 66.3754 225.078 65.7704C219.18 65.1654 216.91 66.0754 214.485 67.2704C213.317 67.8984 212.356 68.8499 211.719 70.0104C211.162 70.5354 210.717 71.1954 210.982 71.8304C211.558 73.2104 212.135 74.1304 211.328 75.6254C210.521 77.1204 210.982 78.4954 211.674 79.0704C212.365 79.6454 212.365 81.1404 211.213 82.2904C210.06 83.4404 210.406 84.3554 211.443 84.9304C212.48 85.5054 213.633 87.0004 212.596 88.3804C211.558 89.7604 211.904 91.7104 213.979 92.1704C214.641 92.2777 215.291 92.4451 215.923 92.6704L216.424 94.8754C216.279 95.8304 216.098 96.7004 216.865 96.8754C217.19 96.9179 217.519 96.8566 217.807 96.7004C218.173 96.6263 218.533 96.5243 218.884 96.3954C219.641 96.0904 219.942 97.8954 220.698 99.3954C221.455 100.895 223.705 100.15 224.937 99.0904C225.06 98.9761 225.208 98.8911 225.368 98.8418C225.529 98.7924 225.698 98.78 225.864 98.8054C226.311 99.1496 226.85 99.3549 227.413 99.3954C228.141 99.7709 228.963 99.9272 229.778 99.8454C232.048 99.5454 231.742 98.6404 232.048 97.2804C232.354 95.9204 233.551 95.9204 235.375 94.4104C237.199 92.9004 235.946 89.4704 234.889 89.1704Z" fill="#263238"/>
<mask id="mask15_615_128" style="mask-type:luminance" maskUnits="userSpaceOnUse" x="210" y="65" width="27" height="36">
<path d="M234.889 89.1704C233.832 88.8654 235.495 86.9054 236.252 85.0954C237.009 83.2854 234.889 82.2254 233.245 81.3204C231.602 80.4154 233.245 78.6004 233.095 76.1854C232.945 73.7704 231.091 73.8154 230.219 72.4154C229.347 71.0154 230.976 66.3754 225.078 65.7704C219.18 65.1654 216.91 66.0754 214.485 67.2704C213.317 67.8984 212.356 68.8499 211.719 70.0104C211.162 70.5354 210.717 71.1954 210.982 71.8304C211.558 73.2104 212.135 74.1304 211.328 75.6254C210.521 77.1204 210.982 78.4954 211.674 79.0704C212.365 79.6454 212.365 81.1404 211.213 82.2904C210.06 83.4404 210.406 84.3554 211.443 84.9304C212.48 85.5054 213.633 87.0004 212.596 88.3804C211.558 89.7604 211.904 91.7104 213.979 92.1704C214.641 92.2777 215.291 92.4451 215.923 92.6704L216.424 94.8754C216.279 95.8304 216.098 96.7004 216.865 96.8754C217.19 96.9179 217.519 96.8566 217.807 96.7004C218.173 96.6263 218.533 96.5243 218.884 96.3954C219.641 96.0904 219.942 97.8954 220.698 99.3954C221.455 100.895 223.705 100.15 224.937 99.0904C225.06 98.9761 225.208 98.8911 225.368 98.8418C225.529 98.7924 225.698 98.78 225.864 98.8054C226.311 99.1496 226.85 99.3549 227.413 99.3954C228.141 99.7709 228.963 99.9272 229.778 99.8454C232.048 99.5454 231.742 98.6404 232.048 97.2804C232.354 95.9204 233.551 95.9204 235.375 94.4104C237.199 92.9004 235.946 89.4704 234.889 89.1704Z" fill="white"/>
</mask>
<g mask="url(#mask15_615_128)">
<path d="M213.999 67.8904C213.999 67.8904 215.291 68.6104 214.72 70.7554C214.149 72.9004 213.137 73.9104 214.144 74.6254C215.151 75.3404 217.732 76.7754 217.15 78.6254C216.569 80.4754 214.71 82.2054 216.289 83.3554C217.867 84.5054 221.169 85.2154 221.029 87.5104C220.889 89.8054 219.876 91.5104 221.169 92.2404C222.462 92.9704 224.476 91.6654 224.762 93.2404C225.048 94.8154 224.186 96.9654 225.193 97.2404C226.2 97.5154 227.748 96.9404 228.199 97.9554C228.472 98.5846 228.571 99.2753 228.485 99.9554" stroke="#666666" stroke-width="0.6" stroke-linecap="round" stroke-linejoin="round"/>
<path d="M216.73 66.0304C216.73 66.0304 219.736 66.8904 219.601 69.3254C219.466 71.7604 218.308 75.3254 219.315 75.9154C220.322 76.5054 223.048 77.3504 222.763 79.2154C222.477 81.0804 221.47 82.6504 222.332 83.3704C223.194 84.0904 225.774 85.3704 225.774 86.5204C225.774 87.6704 224.341 87.6704 225.343 89.2454C226.346 90.8204 229.512 90.6754 229.653 92.8254C229.793 94.9754 228.936 96.1254 229.367 96.5554C229.798 96.9854 230.946 98.2704 231.371 98.4154C231.797 98.5604 231.517 100.565 231.517 100.565" stroke="#666666" stroke-width="0.6" stroke-linecap="round" stroke-linejoin="round"/>
<path d="M221.039 64.0204C221.039 64.0204 225.489 66.4604 225.203 69.3254C224.918 72.1904 224.487 73.6254 225.203 74.3254C225.92 75.0254 227.498 76.0454 227.498 77.4804" stroke="#666666" stroke-width="0.6" stroke-linecap="round" stroke-linejoin="round"/>
<path d="M228.075 81.2204C228.075 81.2204 227.789 83.8004 228.936 84.3704C230.084 84.9404 232.815 87.8104 232.815 89.3704C232.815 90.9304 231.953 92.5254 232.96 93.6704C233.985 94.7107 235.089 95.6702 236.262 96.5404" stroke="#666666" stroke-width="0.6" stroke-linecap="round" stroke-linejoin="round"/>
</g>
<path d="M234.889 89.1704C233.832 88.8654 235.495 86.9054 236.252 85.0954C237.009 83.2854 234.889 82.2254 233.245 81.3204C231.602 80.4154 233.245 78.6004 233.095 76.1854C232.945 73.7704 231.091 73.8154 230.219 72.4154C229.347 71.0154 230.976 66.3754 225.078 65.7704C219.18 65.1654 216.91 66.0754 214.485 67.2704C213.317 67.8984 212.356 68.8499 211.719 70.0104C211.162 70.5354 210.717 71.1954 210.982 71.8304C211.558 73.2104 212.135 74.1304 211.328 75.6254C210.521 77.1204 210.982 78.4954 211.674 79.0704C212.365 79.6454 212.365 81.1404 211.213 82.2904C210.06 83.4404 210.406 84.3554 211.443 84.9304C212.48 85.5054 213.633 87.0004 212.596 88.3804C211.558 89.7604 211.904 91.7104 213.979 92.1704C214.641 92.2777 215.291 92.4451 215.923 92.6704L216.424 94.8754C216.279 95.8304 216.098 96.7004 216.865 96.8754C217.19 96.9179 217.519 96.8566 217.807 96.7004C218.173 96.6263 218.533 96.5243 218.884 96.3954C219.641 96.0904 219.942 97.8954 220.698 99.3954C221.455 100.895 223.705 100.15 224.937 99.0904C225.06 98.9761 225.208 98.8911 225.368 98.8418C225.529 98.7924 225.698 98.78 225.864 98.8054C226.311 99.1496 226.85 99.3549 227.413 99.3954C228.141 99.7709 228.963 99.9272 229.778 99.8454C232.048 99.5454 231.742 98.6404 232.048 97.2804C232.354 95.9204 233.551 95.9204 235.375 94.4104C237.199 92.9004 235.946 89.4704 234.889 89.1704Z" stroke="#263238" stroke-width="0.6" stroke-linecap="round" stroke-linejoin="round"/>
<path d="M25.6298 159.205L22.8036 193.58H23.7908L28.8718 159.49L25.6298 159.205Z" fill="white" stroke="#263238" stroke-width="0.6" stroke-linecap="round" stroke-linejoin="round"/>
<path d="M46.8009 159.205L43.9747 193.58H44.9619L50.0429 159.49L46.8009 159.205Z" fill="white" stroke="#263238" stroke-width="0.6" stroke-linecap="round" stroke-linejoin="round"/>
<path d="M49.336 159.205L52.1622 193.58H51.175L46.094 159.49L49.336 159.205Z" fill="white" stroke="#263238" stroke-width="0.6" stroke-linecap="round" stroke-linejoin="round"/>
<path d="M73.3332 159.205L76.1543 193.58H75.1672L70.0861 159.49L73.3332 159.205Z" fill="white" stroke="#263238" stroke-width="0.6" stroke-linecap="round" stroke-linejoin="round"/>
<path d="M47.512 104.33H16.1789C16.1789 104.33 12.4207 105.37 14.0893 109.75C15.758 114.13 25.1634 160.4 25.1634 160.4H74.8765L78.0133 131.635C78.0133 131.635 78.6397 127.465 75.7133 126.84C72.7869 126.215 60.8811 126.63 58.5861 125.38C56.2911 124.13 51.0898 105.995 51.0898 105.995C51.0898 105.995 50.6488 103.905 47.512 104.33Z" fill="#8185E7" stroke="#263238" stroke-width="0.6" stroke-linecap="round" stroke-linejoin="round"/>
<path d="M49.9023 153.85H74.8967" stroke="#263238" stroke-width="0.6" stroke-linecap="round" stroke-linejoin="round"/>
<path d="M34.098 78.6053C34.098 78.6053 34.554 96.3503 34.7544 97.9453C34.8715 99.2614 34.7054 100.587 34.2672 101.834C33.8291 103.081 33.129 104.22 32.2139 105.175C29.7686 107.805 19.8871 105.83 19.2306 103.39C18.5742 100.95 19.7919 96.8903 19.7919 96.8903C19.7919 96.8903 16.0137 96.0703 17.0659 92.8003C18.1182 89.5303 23.8407 83.6953 26.4764 81.7253C29.1121 79.7553 32.1187 78.1353 34.098 78.6053Z" fill="#8185E7" stroke="#263238" stroke-width="0.6" stroke-linecap="round" stroke-linejoin="round"/>
<path d="M27.2032 82.3353C27.2032 82.3353 21.3304 92.5253 20.4385 95.2003" stroke="#263238" stroke-width="0.6" stroke-linecap="round" stroke-linejoin="round"/>
<path d="M30.1395 81.8253C30.1395 81.8253 23.6253 95.2003 22.4778 100.68" stroke="#263238" stroke-width="0.6" stroke-linecap="round" stroke-linejoin="round"/>
<path d="M30.3948 86.9203C30.3948 86.9203 27.7892 94.3003 27.2029 97.1153" stroke="#263238" stroke-width="0.6" stroke-linecap="round" stroke-linejoin="round"/>
<path d="M42.6618 100.855C42.6618 100.855 47.3921 100.735 49.4566 99.6453C51.521 98.5553 55.7653 99.4003 57.2184 103.76C58.6716 108.12 61.4677 116.11 62.56 119.38C63.6524 122.65 66.198 125.675 66.198 125.675L56.1261 129.545L50.3034 132.09C50.3034 132.09 45.6934 113.69 44.1149 108.965C42.5365 104.24 42.0705 101.46 42.6618 100.855Z" fill="#787878" stroke="#263238" stroke-width="0.6" stroke-linecap="round" stroke-linejoin="round"/>
<path d="M83.9567 163.085L87.8401 171.16L88.8273 170.69L86.2266 163.61L83.9567 163.085Z" fill="#263238" stroke="#263238" stroke-width="0.6" stroke-linecap="round" stroke-linejoin="round"/>
<path d="M85.2592 146.75C85.2592 146.75 90.22 158.475 91.2723 159.575C92.3246 160.675 98.1021 163.425 98.969 163.545C99.8359 163.665 101.84 163.645 101.67 164.13C101.5 164.615 92.8507 169.295 91.3374 168.675C89.8241 168.055 89.3932 166.705 87.7797 165.865C86.1662 165.025 83.9313 163.895 82.9341 161.82C81.937 159.745 83.5956 157.88 83.5956 157.88L79.0607 149.845L85.2592 146.75Z" fill="white" stroke="#263238" stroke-width="0.6" stroke-linecap="round" stroke-linejoin="round"/>
<path d="M98.9843 163.545C98.6853 163.476 98.3934 163.379 98.1124 163.255C96.5239 164.755 93.1867 166.225 89.0226 163.455C86.8525 162.053 84.9221 160.313 83.3052 158.3C82.9504 158.804 82.7313 159.391 82.669 160.004C82.6067 160.617 82.7032 161.235 82.9494 161.8C83.9516 163.875 86.1815 165.005 87.795 165.845C89.4085 166.685 89.8444 168.035 91.3527 168.655C92.861 169.275 101.515 164.595 101.685 164.11C101.856 163.625 99.8462 163.67 98.9843 163.545Z" fill="#263238" stroke="#263238" stroke-width="0.6" stroke-linecap="round" stroke-linejoin="round"/>
<path d="M78.2292 124.725C78.2292 124.725 85.49 141.3 87.1686 144.68L89.5939 149.52L80.3738 154.125C80.3738 154.125 70.3019 134.995 70.3019 132.21C70.3019 129.425 72.181 126.53 73.3937 125.08C74.6063 123.63 78.2292 124.725 78.2292 124.725Z" fill="#263238" stroke="#263238" stroke-width="0.6" stroke-linecap="round" stroke-linejoin="round"/>
<path d="M75.6431 169.86C75.6431 169.86 75.0368 182.57 75.5179 184.025C75.9989 185.48 80.0277 190.44 80.7392 190.925C81.4508 191.41 83.2848 192.255 82.919 192.62C82.5532 192.985 72.7318 193.47 71.6394 192.255C70.5471 191.04 71.0331 187.655 69.9407 186.205C68.8484 184.755 67.0294 184.75 67.0294 182.45C67.0294 180.15 69.3344 179.18 69.3344 179.18L68.7281 169.98L75.6431 169.86Z" fill="white" stroke="#263238" stroke-width="0.6" stroke-linecap="round" stroke-linejoin="round"/>
<path d="M80.7596 190.925C80.4522 190.672 80.1687 190.391 79.9128 190.085C78.5699 190.585 77.1167 190.91 76.0243 190.56C73.3586 189.715 71.2941 188.02 70.6877 184.63C70.3119 182.52 68.7535 181.255 67.6361 180.6C67.2517 181.141 67.0467 181.788 67.0498 182.45C67.0498 184.75 68.8688 184.75 69.9612 186.205C71.0535 187.66 70.5675 191.045 71.6599 192.255C72.7522 193.465 82.5786 192.985 82.9394 192.62C83.3002 192.255 81.4862 191.41 80.7596 190.925Z" fill="#263238" stroke="#263238" stroke-width="0.6" stroke-linecap="round" stroke-linejoin="round"/>
<path d="M67.4107 184.025V192.985H68.5031L69.2297 185.48L67.4107 184.025Z" fill="#263238" stroke="#263238" stroke-width="0.6" stroke-linecap="round" stroke-linejoin="round"/>
<path d="M71.1734 132.09C71.1734 132.09 79.4213 132.935 79.3011 138.505C79.1808 144.075 78.8 170.585 78.8 170.585L67.6558 171.8C67.6558 171.8 65.2255 158.12 65.8318 152.55C66.4381 146.98 67.4102 145.89 67.4102 145.89H49.3359C49.3359 145.89 51.1549 141.775 56.9775 137.415C62.8002 133.055 71.1734 132.09 71.1734 132.09Z" fill="#263238" stroke="#263238" stroke-width="0.6" stroke-linecap="round" stroke-linejoin="round"/>
<path d="M52.9739 103.395C53.0566 104.778 53.224 106.153 53.475 107.515C53.8358 109.33 55.78 110.175 56.3864 112.84C56.9927 115.505 56.0206 116.715 56.1408 119.5C56.2611 122.285 57.9648 126.035 58.2053 127.37C58.4458 128.705 56.9927 129.79 54.9282 131.12C52.8637 132.45 34.9097 139.12 32.4844 136.445C30.0591 133.77 32.1186 130.03 31.6375 127.005C31.1565 123.98 28.7212 111.75 27.6288 107.005C26.5365 102.26 25.9552 99.9403 28.5408 98.9003C30.3598 98.1753 36.8188 100.735 36.8188 100.735C36.8188 100.735 39.1288 100.975 44.0996 100.975" fill="#787878"/>
<path d="M52.9739 103.395C53.0566 104.778 53.224 106.153 53.475 107.515C53.8358 109.33 55.78 110.175 56.3864 112.84C56.9927 115.505 56.0206 116.715 56.1408 119.5C56.2611 122.285 57.9648 126.035 58.2053 127.37C58.4458 128.705 56.9927 129.79 54.9282 131.12C52.8637 132.45 34.9097 139.12 32.4844 136.445C30.0591 133.77 32.1186 130.03 31.6375 127.005C31.1565 123.98 28.7212 111.75 27.6288 107.005C26.5365 102.26 25.9552 99.9403 28.5408 98.9003C30.3598 98.1753 36.8188 100.735 36.8188 100.735C36.8188 100.735 39.1288 100.975 44.0996 100.975" stroke="#263238" stroke-width="0.6" stroke-linecap="round" stroke-linejoin="round"/>
<path d="M34.1881 85.9303V99.3553C34.1881 99.3553 36.7286 101.515 39.9305 104.05C43.1325 106.585 45.4826 107.05 45.9436 104.705C46.4046 102.36 44.3401 99.5403 43.6837 98.8853C43.0273 98.2303 43.1175 92.6903 43.1175 92.6903C43.1175 92.6903 36.2576 85.4603 35.0549 84.7053C33.8523 83.9503 34.1881 85.9303 34.1881 85.9303Z" fill="white" stroke="#263238" stroke-width="0.6" stroke-linecap="round" stroke-linejoin="round"/>
<path d="M48.399 70.4353C48.399 70.4353 53.2897 71.7503 53.4099 75.2253C53.5302 78.7003 48.2086 80.0153 47.6474 78.8003C47.0862 77.5853 46.3295 71.3803 46.4197 70.5353C46.5099 69.6903 48.399 70.4353 48.399 70.4353Z" fill="#8185E7" stroke="#263238" stroke-width="0.6" stroke-linecap="round" stroke-linejoin="round"/>
<path d="M49.1956 72.8803C49.1956 72.8803 51.4555 78.2303 50.4684 82.7353C49.4812 87.2403 47.5019 92.3103 45.9586 93.7353C44.4152 95.1603 42.5712 95.5203 39.3241 92.8903C36.979 90.9903 34.1028 87.2553 33.3963 85.2853C32.6897 83.3153 33.256 79.3703 35.7965 75.5703C38.337 71.7703 47.6472 70.0603 49.1956 72.8803Z" fill="white" stroke="#263238" stroke-width="0.6" stroke-linecap="round" stroke-linejoin="round"/>
<path d="M44.2049 82.6653C44.5259 82.6653 44.7861 82.2243 44.7861 81.6803C44.7861 81.1363 44.5259 80.6953 44.2049 80.6953C43.8838 80.6953 43.6236 81.1363 43.6236 81.6803C43.6236 82.2243 43.8838 82.6653 44.2049 82.6653Z" fill="#263238"/>
<path d="M49.366 81.7703C49.366 82.3153 49.1055 82.7703 48.7848 82.7703C48.4641 82.7703 48.1985 82.3303 48.1985 81.7703C48.1985 81.2103 48.4591 80.7703 48.7848 80.7703C49.1105 80.7703 49.366 81.2253 49.366 81.7703Z" fill="#263238"/>
<path d="M48.4691 79.5303C48.4691 79.5303 47.1212 80.6953 47.4669 82.3103C47.8127 83.9253 48.4691 84.9953 48.1835 85.5353C47.8979 86.0753 46.6802 86.0703 46.6802 86.0703" stroke="#263238" stroke-width="0.6" stroke-linecap="round" stroke-linejoin="round"/>
<path d="M41.915 78.9953C41.915 78.9953 44.0697 77.8303 45.5078 78.3653" stroke="#263238" stroke-width="0.6" stroke-linecap="round" stroke-linejoin="round"/>
<path d="M48.7397 78.5453C48.7397 78.5453 49.6366 77.7403 50.5336 78.9053" stroke="#263238" stroke-width="0.6" stroke-linecap="round" stroke-linejoin="round"/>
<path d="M44.7914 88.0403C44.3227 88.0404 43.8639 87.9055 43.4702 87.6518C43.0764 87.3982 42.7644 87.0365 42.5715 86.6103" stroke="#263238" stroke-width="0.6" stroke-linecap="round" stroke-linejoin="round"/>
<path d="M25.2185 82.4003C25.2185 82.4003 36.7085 80.9003 42.2555 78.0103C47.8026 75.1203 49.8871 73.0803 49.4362 70.7553C48.9852 68.4303 43.4231 64.5753 37.2296 64.6603C34.5929 64.721 32.0336 65.5611 29.8758 67.0742C27.718 68.5874 26.0588 70.7055 25.1083 73.1603C23.6902 77.2053 25.2185 82.4003 25.2185 82.4003Z" fill="#8185E7" stroke="#263238" stroke-width="0.6" stroke-linecap="round" stroke-linejoin="round"/>
<path d="M45.0768 70.1003C42.5417 72.832 39.5616 75.1159 36.2627 76.8553C32.9354 78.506 29.3521 79.5829 25.6646 80.0403" stroke="#263238" stroke-width="0.6" stroke-linecap="round" stroke-linejoin="round"/>
<path d="M25.2891 78.7653C28.3415 77.8295 31.2926 76.5917 34.0983 75.0703" stroke="#263238" stroke-width="0.6" stroke-linecap="round" stroke-linejoin="round"/>
<path d="M36.0123 73.9253C36.0123 73.9253 41.1234 70.3553 43.6739 67.8003" stroke="#263238" stroke-width="0.6" stroke-linecap="round" stroke-linejoin="round"/>
<path d="M36.2124 82.5953C36.2124 82.5953 34.3784 78.5103 32.2588 80.0603C30.1392 81.6103 31.5573 86.1153 32.8251 86.9603C34.0928 87.8053 35.9318 86.5403 35.9318 86.5403" fill="white"/>
<path d="M36.2124 82.5953C36.2124 82.5953 34.3784 78.5103 32.2588 80.0603C30.1392 81.6103 31.5573 86.1153 32.8251 86.9603C34.0928 87.8053 35.9318 86.5403 35.9318 86.5403" stroke="#263238" stroke-width="0.6" stroke-linecap="round" stroke-linejoin="round"/>
<path d="M52.5933 120.71C52.5933 120.71 57.5691 119.86 59.3881 119.62C61.207 119.38 65.9423 121.075 65.6968 121.92C65.4513 122.765 60.3602 123.375 58.6816 123.98C57.0029 124.585 53.2197 123.735 53.2197 123.735L52.5933 120.71Z" fill="white" stroke="#263238" stroke-width="0.6" stroke-linecap="round" stroke-linejoin="round"/>
<path d="M34.554 100.49C34.554 100.49 32.8553 97.8303 28.8516 98.5553C24.8479 99.2803 23.6302 103.395 23.7555 107.515C23.8808 111.635 28.2653 129.67 29.8187 130.76C31.3721 131.85 53.4601 125.3 53.4601 125.3L52.6082 120.7L36.1074 121.68L34.2884 106.8" fill="#787878"/>
<path d="M34.554 100.49C34.554 100.49 32.8553 97.8303 28.8516 98.5553C24.8479 99.2803 23.6302 103.395 23.7555 107.515C23.8808 111.635 28.2653 129.67 29.8187 130.76C31.3721 131.85 53.4601 125.3 53.4601 125.3L52.6082 120.7L36.1074 121.68L34.2884 106.8" stroke="#263238" stroke-width="0.6" stroke-linecap="round" stroke-linejoin="round"/>
<path d="M65.7816 120.625L48.1683 128.945L52.8686 130.935L75.4076 123.085L65.7816 120.625Z" fill="white" stroke="#263238" stroke-width="0.6" stroke-linecap="round" stroke-linejoin="round"/>
<path d="M79.5166 127.3C79.5166 127.3 78.3441 123.08 75.4077 123.08C72.4713 123.08 53.6905 129.175 47.2314 131.75C40.7724 134.325 35.2554 135.85 33.9626 137.845C32.6698 139.84 35.0199 147.45 39.1288 148.62C43.2378 149.79 50.5186 148.27 53.5702 146.62C56.6219 144.97 77.5223 130.22 77.5223 130.22" fill="#263238"/>
<path d="M79.5166 127.3C79.5166 127.3 78.3441 123.08 75.4077 123.08C72.4713 123.08 53.6905 129.175 47.2314 131.75C40.7724 134.325 35.2554 135.85 33.9626 137.845C32.6698 139.84 35.0199 147.45 39.1288 148.62C43.2378 149.79 50.5186 148.27 53.5702 146.62C56.6219 144.97 77.5223 130.22 77.5223 130.22" stroke="#263238" stroke-width="0.6" stroke-linecap="round" stroke-linejoin="round"/>
<path d="M18.1783 126.87C18.1783 126.87 25.6947 132.75 34.9047 133.37C44.1147 133.99 48.1585 135.705 48.7448 140.785C49.3311 145.865 50.0276 160.225 50.0276 160.225L25.1635 160.38L20.2679 136.195L18.1783 126.87Z" fill="#8185E7" stroke="#263238" stroke-width="0.6" stroke-linecap="round" stroke-linejoin="round"/>
<path d="M23.881 133.645C23.881 133.645 26.1861 136.715 31.9586 137.225C37.7312 137.735 42.0806 138.505 43.4837 140.425" stroke="#263238" stroke-width="0.6" stroke-linecap="round" stroke-linejoin="round"/>
</g>
<defs>
<clipPath id="clip0_615_128">
<rect width="230" height="200" fill="white" transform="translate(10)"/>
</clipPath>
</defs>
</svg>
