<svg width="250" height="200" viewBox="0 0 250 200" fill="none" xmlns="http://www.w3.org/2000/svg">
<g clip-path="url(#clip0_615_125)">
<rect width="250" height="200" fill="white"/>
<g clip-path="url(#clip1_615_125)">
<path d="M164.242 15.4622C157.55 7.67976 149.53 1.63747 136.278 0.700911C112.669 -0.966762 100.025 19.1118 82.8947 30.8459C61.5288 45.4804 33.5464 41.9033 13.7218 59.3837C-7.93233 78.4773 -0.507519 96.3746 14.3484 106.514C29.2043 116.653 32.287 132.767 42.807 153.039C53.3271 173.311 78.6905 193.009 99.7243 194.798C113.571 195.976 127.838 189.934 140.451 185.13C160.758 177.426 181.316 173.523 202.231 168.066C219.474 163.565 237.538 156.085 245.132 139.293C255.645 116.024 247.607 83.2085 229.662 68.8943C211.717 54.5801 196.253 52.7855 183.878 40.2538C176.122 32.4653 170.827 23.1178 164.242 15.4622Z" fill="#8185E7"/>
<path opacity="0.7" d="M164.242 15.4622C157.55 7.67976 149.53 1.63747 136.278 0.700911C112.669 -0.966762 100.025 19.1118 82.8947 30.8459C61.5288 45.4804 33.5464 41.9033 13.7218 59.3837C-7.93233 78.4773 -0.507519 96.3746 14.3484 106.514C29.2043 116.653 32.287 132.767 42.807 153.039C53.3271 173.311 78.6905 193.009 99.7243 194.798C113.571 195.976 127.838 189.934 140.451 185.13C160.758 177.426 181.316 173.523 202.231 168.066C219.474 163.565 237.538 156.085 245.132 139.293C255.645 116.024 247.607 83.2085 229.662 68.8943C211.717 54.5801 196.253 52.7855 183.878 40.2538C176.122 32.4653 170.827 23.1178 164.242 15.4622Z" fill="white"/>
<path d="M29.505 130.634L21.6103 124.997C19.5962 123.56 17.71 121.963 15.9712 120.224C14.598 118.886 13.3052 117.474 12.099 115.994L10.8459 114.26L22.3997 109.486C22.3997 109.486 22.9073 123.867 29.505 130.634Z" fill="#2F2E41"/>
<path d="M12.5877 108.502C12.5877 108.502 15.094 121.033 33.0075 133.275C50.9211 145.517 140.652 197.408 145.602 198.9C150.551 200.393 153.02 198.9 155.188 197.408C157.356 195.915 239.63 129.982 239.63 129.982C239.63 129.982 202.513 111.782 174.367 95.9758C146.222 80.1692 125.802 69.1299 119.925 64.0483C114.048 58.9668 107.243 53.9094 107.243 53.9094C107.243 53.9094 59.9185 84.3323 42.901 92.9849C25.8835 101.637 12.5877 108.502 12.5877 108.502Z" fill="#8185E7" stroke="#2F2E41" stroke-width="0.75" stroke-linecap="round" stroke-linejoin="round"/>
<path d="M77.4436 92.2175L110.764 70.429" stroke="white" stroke-width="0.75" stroke-linecap="round" stroke-linejoin="round"/>
<path d="M45.0689 113.39L73.6842 94.6767" stroke="white" stroke-width="0.75" stroke-linecap="round" stroke-linejoin="round"/>
<path d="M70.7519 108.538L119.555 76.6284" stroke="white" stroke-width="0.75" stroke-linecap="round" stroke-linejoin="round"/>
<path d="M53.8534 119.589L65.7456 111.813" stroke="white" stroke-width="0.75" stroke-linecap="round" stroke-linejoin="round"/>
<path d="M62.6441 125.782L128.34 82.8218" stroke="white" stroke-width="0.75" stroke-linecap="round" stroke-linejoin="round"/>
<path d="M79.693 126.574L137.13 89.0211" stroke="white" stroke-width="0.75" stroke-linecap="round" stroke-linejoin="round"/>
<path d="M71.4286 131.982L76.6729 128.55" stroke="white" stroke-width="0.75" stroke-linecap="round" stroke-linejoin="round"/>
<path d="M80.2193 138.175L145.915 95.2145" stroke="white" stroke-width="0.75" stroke-linecap="round" stroke-linejoin="round"/>
<path d="M89.0038 144.375L154.699 101.414" stroke="white" stroke-width="0.75" stroke-linecap="round" stroke-linejoin="round"/>
<path d="M130.777 128.997L163.49 107.607" stroke="white" stroke-width="0.75" stroke-linecap="round" stroke-linejoin="round"/>
<path d="M97.7945 150.568L125.921 132.175" stroke="white" stroke-width="0.75" stroke-linecap="round" stroke-linejoin="round"/>
<path d="M149.211 128.888L172.274 113.801" stroke="white" stroke-width="0.75" stroke-linecap="round" stroke-linejoin="round"/>
<path d="M123.578 145.65L145.451 131.347" stroke="white" stroke-width="0.75" stroke-linecap="round" stroke-linejoin="round"/>
<path d="M106.579 156.761L119.818 148.109" stroke="white" stroke-width="0.75" stroke-linecap="round" stroke-linejoin="round"/>
<path d="M176.328 123.1L181.065 120" stroke="white" stroke-width="0.75" stroke-linecap="round" stroke-linejoin="round"/>
<path d="M115.37 162.961L172.274 125.746" stroke="white" stroke-width="0.75" stroke-linecap="round" stroke-linejoin="round"/>
<path d="M132.362 163.789L189.85 126.193" stroke="white" stroke-width="0.75" stroke-linecap="round" stroke-linejoin="round"/>
<path d="M124.154 169.154L128.904 166.054" stroke="white" stroke-width="0.75" stroke-linecap="round" stroke-linejoin="round"/>
<path d="M144.981 178.604C144.072 179.395 143.351 180.367 142.87 181.454C142.388 182.54 142.157 183.714 142.193 184.894C142.193 189.076 147.143 191.462 149.311 190.864C151.479 190.266 158.283 182.81 158.283 182.81C158.283 182.81 156.404 177.142 152.713 176.846C149.023 176.55 144.981 178.604 144.981 178.604Z" fill="#2F2E41" stroke="#2F2E41" stroke-width="0.75" stroke-linecap="round" stroke-linejoin="round"/>
<path d="M149.649 199.547C149.649 199.547 154.881 197.692 155.495 193.505C156.109 189.317 152.713 183.366 149.931 181.275C148.457 180.108 146.781 179.2 144.981 178.592C144.981 178.592 187.976 150.55 199.11 141.003C210.244 131.456 230.971 116.544 230.971 116.544C230.971 116.544 235.301 114.459 238.703 116.544C242.105 118.628 244.342 120.731 244.58 125.492C244.724 128.193 239.016 132.054 239.016 132.054L161.685 193.819C161.685 193.819 152.469 199.958 149.649 199.547Z" fill="white"/>
<mask id="mask0_615_125" style="mask-type:luminance" maskUnits="userSpaceOnUse" x="144" y="115" width="101" height="85">
<path d="M149.649 199.547C149.649 199.547 154.881 197.692 155.495 193.505C156.109 189.317 152.713 183.366 149.931 181.275C148.457 180.108 146.781 179.2 144.981 178.592C144.981 178.592 187.976 150.55 199.11 141.003C210.244 131.456 230.971 116.544 230.971 116.544C230.971 116.544 235.301 114.459 238.703 116.544C242.105 118.628 244.342 120.731 244.58 125.492C244.724 128.193 239.016 132.054 239.016 132.054L161.685 193.819C161.685 193.819 152.469 199.958 149.649 199.547Z" fill="white"/>
</mask>
<g mask="url(#mask0_615_125)">
<path d="M244.58 125.505C244.548 124.806 244.458 124.111 244.311 123.426C241.855 125.48 237.419 129.1 229.323 135.45C212.619 148.574 199.317 158.121 199.317 158.121C199.317 158.121 213.853 147.68 208.596 150.066C203.34 152.453 191.892 162 181.704 170.054C175.238 175.154 163.816 185.396 155.514 193.517C154.887 197.692 149.668 199.559 149.668 199.559C152.487 199.97 161.704 193.831 161.704 193.831L239.035 132.079C239.035 132.079 244.724 128.205 244.58 125.505Z" fill="#8185E7"/>
<path opacity="0.5" d="M244.58 125.505C244.548 124.806 244.458 124.111 244.311 123.426C241.855 125.48 237.419 129.1 229.323 135.45C212.619 148.574 199.317 158.121 199.317 158.121C199.317 158.121 213.853 147.68 208.596 150.066C203.34 152.453 191.892 162 181.704 170.054C175.238 175.154 163.816 185.396 155.514 193.517C154.887 197.692 149.668 199.559 149.668 199.559C152.487 199.97 161.704 193.831 161.704 193.831L239.035 132.079C239.035 132.079 244.724 128.205 244.58 125.505Z" fill="white"/>
</g>
<path d="M149.649 199.547C149.649 199.547 154.881 197.692 155.495 193.505C156.109 189.317 152.713 183.366 149.931 181.275C148.457 180.108 146.781 179.2 144.981 178.592C144.981 178.592 187.976 150.55 199.11 141.003C210.244 131.456 230.971 116.544 230.971 116.544C230.971 116.544 235.301 114.459 238.703 116.544C242.105 118.628 244.342 120.731 244.58 125.492C244.724 128.193 239.016 132.054 239.016 132.054L161.685 193.819C161.685 193.819 152.469 199.958 149.649 199.547Z" stroke="#2F2E41" stroke-width="0.75" stroke-linecap="round" stroke-linejoin="round"/>
<path d="M183.315 41.7462C183.315 41.7462 186.328 39.5166 187.118 38.0665C187.788 36.858 188.283 35.0876 187.632 33.7523C187.488 33.4342 187.278 33.1487 187.013 32.9143C186.748 32.68 186.434 32.502 186.093 32.392C185.753 32.2821 185.391 32.2425 185.033 32.2759C184.676 32.3094 184.329 32.415 184.016 32.5861C182.168 33.6616 181.917 37.4199 182.356 39.2326C182.393 39.3837 183.283 41.7704 183.315 41.7462Z" fill="#2F2E41"/>
<path d="M155.451 60.3021C155.576 60.4109 157.682 61.9275 157.694 61.8912C157.707 61.855 158.947 58.423 158.759 56.8036C158.615 55.4139 158.026 53.6918 156.723 52.9305C156.423 52.7398 156.084 52.6124 155.728 52.5567C155.373 52.501 155.01 52.5181 154.662 52.6071C154.315 52.6961 153.99 52.8548 153.71 53.073C153.431 53.2912 153.202 53.5638 153.039 53.8731C152.112 55.7583 154.048 59.0212 155.451 60.3021Z" fill="#2F2E41"/>
<path d="M218.195 45.6677C218.195 45.6677 207.112 56.3867 206.974 69.7462C206.836 83.1057 217.701 94.0302 217.701 94.0302C217.701 94.0302 228.784 83.3051 228.916 69.9517C229.048 56.5982 218.195 45.6677 218.195 45.6677Z" fill="#2F2E41"/>
<path d="M202.149 77.6798C202.296 77.5316 202.43 77.3719 202.55 77.2024C203.365 76.0544 204.066 74.3686 203.578 72.9728C203.473 72.641 203.298 72.334 203.063 72.0719C202.827 71.8097 202.537 71.5983 202.212 71.4513C201.886 71.3042 201.532 71.2249 201.173 71.2185C200.813 71.212 200.456 71.2786 200.125 71.4139C198.634 72.0665 197.876 74.3505 197.688 76.2477C197.099 76.1088 196.566 76 196.109 75.9214L195.539 74.6284C195.326 74.1813 195.188 73.7341 195 73.281C194.749 72.6103 194.524 71.9033 194.298 71.2024C195.169 70.8459 197.7 69.7402 198.653 68.7553C199.605 67.7704 200.595 66.1752 200.332 64.7251C200.282 64.3819 200.157 64.0529 199.966 63.7593C199.775 63.4658 199.522 63.2142 199.223 63.0211C198.925 62.8279 198.588 62.6974 198.234 62.6381C197.879 62.5788 197.516 62.5919 197.168 62.6767C195.088 63.2447 193.816 66.7976 193.747 68.6647C193.747 68.7251 193.747 69.1178 193.803 69.5831C193.609 68.8943 193.409 68.2054 193.227 67.4985C192.726 65.4925 192.274 63.432 191.817 61.3656C191.723 60.9366 191.623 60.5136 191.523 60.0846C192.256 59.7825 195.013 58.6163 196.009 57.577C197.005 56.5378 197.951 55.003 197.682 53.5468C197.631 53.2065 197.508 52.8801 197.319 52.5886C197.13 52.2971 196.88 52.0468 196.585 51.8539C196.29 51.6611 195.957 51.5298 195.606 51.4686C195.255 51.4074 194.895 51.4175 194.549 51.4985C192.469 52.0665 191.197 55.6254 191.122 57.4864C191.122 57.5529 191.153 58.0242 191.197 58.5498C190.934 57.432 190.652 56.3263 190.338 55.2326C189.815 53.3537 189.162 51.5107 188.383 49.716C188.64 49.6133 191.899 48.3021 193.008 47.1541C193.991 46.1329 194.95 44.574 194.687 43.1239C194.636 42.7807 194.511 42.4517 194.32 42.1581C194.129 41.8646 193.876 41.613 193.578 41.4199C193.279 41.2267 192.942 41.0962 192.588 41.0369C192.234 40.9776 191.871 40.9907 191.523 41.0755C189.442 41.6435 188.17 45.1964 188.095 47.0634C188.095 47.1903 188.227 48.8761 188.296 49.4804C188.297 49.4582 188.297 49.436 188.296 49.4139C187.484 47.6717 186.516 46.0016 185.401 44.423C184.407 43.0087 183.33 41.651 182.174 40.3565C181.115 39.148 180.069 38.1027 179.135 37.1843C178.628 36.6888 178.152 36.2477 177.707 35.8429H177.751C177.788 35.8429 176.773 33.5045 176.692 33.3595C175.746 31.7341 172.932 29.1299 170.808 29.5468C170.459 29.625 170.13 29.7734 169.844 29.9823C169.557 30.1911 169.32 30.4558 169.147 30.759C168.973 31.0623 168.868 31.3973 168.838 31.7423C168.808 32.0873 168.854 32.4345 168.972 32.7613C169.424 34.1692 171.015 35.1359 172.368 35.6072C173.722 36.0785 176.817 35.9094 177.575 35.855C178.033 36.29 178.515 36.7553 179.035 37.281C179.95 38.2175 180.965 39.281 181.992 40.5075C182.268 40.8338 182.55 41.1964 182.826 41.5468C182.231 41.0574 181.404 40.3988 181.316 40.3384C179.699 39.3172 175.959 38.2598 174.273 39.571C174 39.7959 173.778 40.0737 173.624 40.3865C173.469 40.6992 173.384 41.0399 173.374 41.3863C173.365 41.7328 173.431 42.0773 173.569 42.3974C173.706 42.7176 173.912 43.0063 174.173 43.2447C175.251 44.29 177.124 44.4532 178.559 44.2538C179.994 44.0544 182.738 42.4955 183.321 42.145C183.947 42.9245 184.53 43.7341 185.113 44.6163C186.181 46.1983 187.101 47.8685 187.863 49.6073C187.907 49.7039 187.939 49.8127 187.976 49.9154C187.726 49.6254 186.228 48.1027 186.097 48.0302C184.605 46.8218 181.003 45.3958 179.204 46.5196C178.91 46.7152 178.662 46.9677 178.475 47.261C178.288 47.5543 178.167 47.8819 178.118 48.223C178.07 48.5642 178.096 48.9113 178.194 49.2422C178.293 49.5731 178.462 49.8806 178.69 50.145C179.643 51.2991 181.485 51.6435 182.926 51.6133C184.593 51.577 187.888 50.0302 188.014 49.9698C188.72 51.7247 189.31 53.5208 189.781 55.3474C190.132 56.6949 190.407 58.0785 190.721 59.4683C190.388 59.0997 188.997 57.7039 188.885 57.6133C187.393 56.4048 183.791 54.9789 181.992 56.1027C181.698 56.2977 181.449 56.5499 181.261 56.8432C181.074 57.1365 180.952 57.4643 180.903 57.8057C180.855 58.1471 180.881 58.4945 180.98 58.8256C181.079 59.1566 181.249 59.4641 181.479 59.7281C182.431 60.8822 184.273 61.2326 185.714 61.2024C187.337 61.1662 190.508 59.6979 190.771 59.571C190.902 60.2054 191.034 60.8338 191.159 61.4683C191.573 63.5347 191.974 65.6072 192.412 67.6435C192.575 68.3505 192.757 69.0393 192.939 69.7341C192.419 69.1903 191.447 68.2236 191.353 68.1511C189.868 66.9426 186.266 65.5106 184.461 66.6344C184.167 66.83 183.919 67.0825 183.732 67.3758C183.545 67.6691 183.423 67.9967 183.375 68.3379C183.327 68.679 183.353 69.0261 183.451 69.357C183.55 69.6879 183.719 69.9954 183.947 70.2598C184.893 71.4139 186.742 71.7583 188.183 71.7281C189.624 71.6979 192.325 70.5196 193.076 70.1752C193.39 71.3233 193.703 72.4532 194.11 73.5529C194.286 74.0242 194.436 74.5196 194.63 74.9607C194.731 75.1964 194.825 75.432 194.925 75.6616L194.505 75.6193C194.505 75.6193 194.467 76.2719 194.505 77.3354C192.932 76.2175 190.652 75.2447 189.154 75.8852C188.83 76.0341 188.541 76.2471 188.308 76.5104C188.074 76.7738 187.901 77.0815 187.799 77.4137C187.696 77.7459 187.668 78.0951 187.714 78.4386C187.761 78.7822 187.882 79.1124 188.07 79.4079C188.164 79.5677 188.276 79.7176 188.402 79.855C188.656 81.4759 189.34 83.0059 190.388 84.2961C190.47 84.3927 191.535 85.3656 192.093 85.855C191.554 85.5589 191.015 85.2508 190.457 84.9607C189.649 84.5136 188.816 84.0181 188.001 83.5468L186.717 82.7795C186.291 82.5196 185.909 82.2236 185.501 81.9396C184.906 81.5166 184.317 81.0514 183.728 80.5861C184.242 79.8187 185.727 77.565 185.959 76.2236C186.19 74.8822 186.103 73.0393 185.05 71.994C184.81 71.7365 184.516 71.5306 184.188 71.3897C183.86 71.2487 183.505 71.1759 183.145 71.1759C182.786 71.1759 182.431 71.2487 182.103 71.3897C181.775 71.5306 181.481 71.7365 181.241 71.994C179.825 73.571 180.802 77.2145 181.811 78.8097C181.842 78.858 182.086 79.1722 182.387 79.5468C181.83 79.0755 181.266 78.6042 180.714 78.1088C179.142 76.7009 177.581 75.2266 176.028 73.7462L175.05 72.8338C175.489 72.1933 177.118 69.7523 177.356 68.3625C177.594 66.9728 177.5 65.1782 176.447 64.1329C176.208 63.8746 175.914 63.668 175.586 63.5265C175.258 63.385 174.902 63.3119 174.543 63.3119C174.183 63.3119 173.828 63.385 173.499 63.5265C173.171 63.668 172.878 63.8746 172.638 64.1329C171.228 65.716 172.199 69.3595 173.208 70.9486C173.246 71.003 173.54 71.3776 173.878 71.7946C173.02 71.0091 172.149 70.2296 171.266 69.4864C169.752 68.1965 168.151 67.0055 166.472 65.9215C166.635 65.6979 168.603 62.9003 168.872 61.3293C169.104 59.9577 169.01 58.145 167.964 57.0997C167.726 56.8403 167.434 56.6321 167.107 56.4885C166.78 56.345 166.425 56.2694 166.066 56.2665C165.707 56.2637 165.351 56.3337 165.021 56.472C164.692 56.6103 164.397 56.8139 164.154 57.0695C162.738 58.6526 163.716 62.2961 164.718 63.8852C164.793 64 165.883 65.3474 166.284 65.8187L166.228 65.7764C164.553 64.7547 162.787 63.8772 160.952 63.1541C159.317 62.5021 157.643 61.9433 155.94 61.4804C154.361 61.0332 152.895 60.719 151.591 60.4471C150.883 60.3082 150.232 60.1934 149.624 60.0906H149.662C149.693 60.0906 147.506 58.6586 147.362 58.5861C145.645 57.7341 141.805 57.0634 140.269 58.5317C140.023 58.784 139.833 59.0834 139.714 59.4107C139.595 59.7379 139.548 60.0857 139.577 60.4314C139.606 60.7771 139.71 61.1132 139.882 61.4177C140.054 61.7223 140.291 61.9886 140.576 62.1994C141.761 63.1299 143.64 63.0876 145.044 62.7613C146.447 62.435 148.922 60.6465 149.524 60.1994C150.15 60.3142 150.821 60.4471 151.56 60.6103C152.851 60.9063 154.311 61.2508 155.871 61.7281C156.284 61.855 156.729 62.006 157.162 62.145C156.385 62.0544 155.313 61.9456 155.207 61.9456C153.277 61.9456 149.568 63.0634 148.891 65.0514C148.793 65.3848 148.768 65.7345 148.818 66.0777C148.869 66.421 148.993 66.7502 149.184 67.0441C149.375 67.3379 149.628 67.5899 149.926 67.7837C150.224 67.9776 150.561 68.1089 150.915 68.1692C152.406 68.4713 154.048 67.565 155.144 66.6828C156.241 65.8006 157.65 62.9909 157.907 62.3927C158.86 62.719 159.825 63.0695 160.815 63.4985C162.61 64.2487 164.334 65.1505 165.965 66.1934C166.059 66.2598 166.147 66.3323 166.241 66.3928C165.865 66.284 163.734 65.8308 163.603 65.7885C161.685 65.5952 157.851 66.3021 156.974 68.2054C156.837 68.5261 156.772 68.8709 156.783 69.2173C156.794 69.5638 156.88 69.9042 157.036 70.2165C157.192 70.5287 157.414 70.8059 157.688 71.0299C157.963 71.2539 158.283 71.4197 158.628 71.5166C160.081 71.9758 161.817 71.281 163.014 70.4894C164.38 69.577 166.247 66.5317 166.316 66.4169C167.911 67.5002 169.43 68.683 170.865 69.9577C171.936 70.8943 172.976 71.8912 173.998 72.8943C173.503 72.7613 171.548 72.3444 171.404 72.3263C169.48 72.1269 165.652 72.8338 164.768 74.7432C164.632 75.0639 164.567 75.4086 164.577 75.7551C164.588 76.1015 164.674 76.442 164.83 76.7542C164.986 77.0665 165.209 77.3436 165.483 77.5676C165.757 77.7916 166.077 77.9575 166.422 78.0544C167.876 78.5136 169.612 77.8187 170.808 77.0272C172.137 76.1329 173.941 73.2266 174.091 72.9789C174.561 73.4381 175.031 73.8912 175.495 74.3505C177.024 75.855 178.546 77.3716 180.1 78.8278C180.633 79.3293 181.184 79.8066 181.729 80.284C180.984 80.1088 179.624 79.8187 179.505 79.8066C177.581 79.6073 173.753 80.3142 172.876 82.2236C172.739 82.5438 172.674 82.8882 172.684 83.2343C172.695 83.5805 172.78 83.9207 172.936 84.2329C173.091 84.5451 173.313 84.8223 173.586 85.0466C173.86 85.2708 174.179 85.4372 174.524 85.5347C175.977 85.994 177.719 85.2991 178.91 84.5076C180.1 83.716 181.667 81.2931 182.099 80.6103C183.014 81.4018 183.941 82.1692 184.893 82.8761C185.307 83.1783 185.714 83.4804 186.147 83.7704L187.4 84.5921C188.258 85.1178 189.06 85.6133 189.906 86.0906C190.313 86.3323 190.708 86.5498 191.109 86.7795C190.376 86.4955 189.229 86.0604 189.11 86.0363C187.231 85.5589 183.34 85.6979 182.174 87.4501C181.989 87.7473 181.87 88.0787 181.826 88.423C181.782 88.7673 181.813 89.1166 181.919 89.4483C182.024 89.78 182.2 90.0867 182.436 90.3483C182.673 90.6099 182.963 90.8206 183.289 90.9668C184.649 91.6314 186.479 91.2024 187.776 90.5921C189.204 89.9154 191.378 87.3958 191.642 87.0876C192.625 87.6435 193.59 88.1813 194.499 88.6647C196.936 89.9637 199.06 91.003 200.708 91.7764C206.034 96.3505 213.622 96.9486 213.622 96.9486C213.622 96.9486 214.148 88.1813 208.878 82.3384C207.024 80.3209 204.724 78.7291 202.149 77.6798ZM192.393 86.0967C192.569 85.7402 193.897 82.9728 194.01 81.4018C194.311 81.3535 194.637 81.2931 194.906 81.2326C195.413 84.0119 196.517 86.6585 198.145 89.003C197.168 88.5358 196.124 88.0201 195.013 87.4562C194.16 87.0393 193.289 86.5801 192.393 86.0967Z" fill="#2F2E41"/>
<path d="M241.955 76.5438C241.955 76.5438 232.857 76.6888 227.206 82.1934C221.554 87.6979 221.497 96.4713 221.497 96.4713C221.497 96.4713 230.595 96.3263 236.247 90.8218C241.898 85.3172 241.955 76.5438 241.955 76.5438Z" fill="#2F2E41"/>
<path d="M218.114 81.8731L227.162 74.2477L226.786 73.8308L218.12 81.1299L218.221 70.9789L218.271 71.0091L225.984 60.4532L225.514 60.139L218.233 70.1027L218.477 45.6677L217.907 45.6616L217.738 62.2477L212.118 57.4199L211.736 57.8308L217.732 62.9789L217.607 74.8338L209.091 67.3595L208.709 67.7704L217.6 75.577L217.494 86.3746L211.084 81.3837L210.721 81.8127L217.487 87.0755L217.412 94.0302H217.989L218.114 81.8671V81.8731Z" fill="white"/>
<path d="M209.837 84.7492L209.267 84.6767L208.459 90.8036L204.68 86.6163H204.687L203.822 79.1782L203.258 79.2387L204.029 85.8912L194.643 75.4804L194.211 75.8429L200.576 82.9064L196.479 82.9003V83.4502L201.078 83.4622L205.545 88.4109L199.135 88.3323L199.129 88.8882L206.046 88.9728L210.106 93.4743L205.583 93.6798L205.608 94.2296L210.589 94.006L213.289 97.0091L213.722 96.6465L208.96 91.3656L209.837 84.7492Z" fill="white"/>
<path d="M231.397 87.2326L239.023 85.8429L238.916 85.2991L232.093 86.5378L242.162 76.7372L241.754 76.3505L234.925 83.003L234.624 79.0574L234.054 79.0997L234.386 83.5227L229.599 88.1873L229.204 82.0181L228.634 82.0544L229.06 88.713L224.706 92.9547L224.16 88.6163L223.59 88.6828L224.192 93.4502L221.291 96.2779L221.698 96.6647L226.805 91.6918L233.709 92.0423L233.741 91.4864L227.343 91.1662L231.391 87.2206L231.397 87.2326Z" fill="white"/>
<path d="M55.52 43.4079C55.52 43.4079 53.1892 42.1994 52.4812 41.3112C51.8546 40.5378 51.3283 39.3958 51.6165 38.4109C51.6756 38.1771 51.7851 37.9578 51.9377 37.7674C52.0904 37.5771 52.2829 37.4198 52.5027 37.3058C52.7225 37.1919 52.9648 37.1238 53.2136 37.1059C53.4625 37.0881 53.7125 37.121 53.9474 37.2024C55.3446 37.7341 55.9649 40.2779 55.8772 41.571C55.8709 41.6918 55.5451 43.4199 55.52 43.4079Z" fill="#2F2E41"/>
<path d="M76.7982 53.0211C76.7293 53.1118 75.4699 54.3807 75.4574 54.3625C75.4448 54.3444 74.2043 52.1269 74.1228 50.9909C74.0539 50.0302 74.2544 48.7855 75.0564 48.1148C75.2396 47.9515 75.4565 47.8273 75.6929 47.7503C75.9293 47.6733 76.1798 47.6453 76.4282 47.6681C76.6766 47.6909 76.9172 47.764 77.1343 47.8827C77.3513 48.0013 77.54 48.1627 77.688 48.3565C78.5464 49.5468 77.6128 51.994 76.7982 53.0211Z" fill="#2F2E41"/>
<path d="M32.1115 49.9456C32.1115 49.9456 40.9712 56.0604 42.6566 65.1903C44.3421 74.3202 38.2205 83.003 38.2205 83.003C38.2205 83.003 29.3609 76.8882 27.6754 67.7583C25.99 58.6284 32.1115 49.9456 32.1115 49.9456Z" fill="#2F2E41"/>
<path d="M46.9048 70.0906C46.7847 70.0067 46.6734 69.9116 46.5727 69.8067C45.8772 69.1118 45.1942 68.0363 45.3634 67.0272C45.3944 66.7884 45.4773 66.5587 45.6067 66.3529C45.736 66.1472 45.909 65.9701 46.1142 65.8332C46.3194 65.6964 46.5523 65.6028 46.7975 65.5586C47.0428 65.5145 47.295 65.5208 47.5376 65.577C48.6403 65.861 49.4173 67.3354 49.7807 68.5982C50.1692 68.4411 50.52 68.3082 50.8208 68.1994L51.0652 67.2508C51.1529 66.9245 51.1967 66.5982 51.2657 66.2719C51.3596 65.7825 51.4286 65.2749 51.5038 64.7734C50.8772 64.6224 48.9975 64.1692 48.2331 63.565C47.4687 62.9607 46.5977 62.0121 46.604 60.9909C46.597 60.7507 46.6426 60.5117 46.7379 60.2895C46.8331 60.0674 46.9758 59.8671 47.1568 59.7018C47.3377 59.5364 47.5527 59.4097 47.7878 59.3299C48.023 59.2501 48.2729 59.219 48.5213 59.2387C50.0188 59.3958 51.3095 61.6918 51.5789 62.9547C51.5789 62.997 51.6165 63.2689 51.6479 63.5952C51.7043 63.0997 51.7544 62.6042 51.792 62.1027C51.8985 60.6707 51.9611 59.2145 52.0301 57.7523C52.0301 57.4441 52.0614 57.148 52.0802 56.8399C51.5413 56.713 49.5175 56.2357 48.7093 55.6314C47.901 55.0272 47.0739 54.0846 47.0865 53.0574C47.0795 52.8171 47.1251 52.5781 47.2203 52.356C47.3156 52.1339 47.4583 51.9336 47.6392 51.7683C47.8201 51.6029 48.0352 51.4762 48.2703 51.3964C48.5054 51.3166 48.7553 51.2855 49.0038 51.3051C50.495 51.4622 51.792 53.7583 52.0614 55.0272C52.0614 55.0695 52.1053 55.3958 52.1366 55.7644C52.1867 54.9668 52.2431 54.1752 52.3308 53.3958C52.4653 52.0512 52.6934 50.7168 53.0138 49.4018C52.8258 49.3595 50.4386 48.8278 49.5426 48.1934C48.7469 47.5891 47.9073 46.6405 47.9135 45.6193C47.9064 45.3785 47.9522 45.139 48.0478 44.9164C48.1434 44.6938 48.2867 44.4932 48.4684 44.3278C48.65 44.1623 48.8658 44.0358 49.1017 43.9564C49.3376 43.877 49.5882 43.8465 49.8371 43.8671C51.3283 44.0242 52.619 46.284 52.8885 47.5831C52.8885 47.6737 53.02 48.858 53.0451 49.281C53.0451 49.281 53.0451 49.281 53.0451 49.2326C53.3909 47.948 53.8564 46.6962 54.4361 45.4924C54.9463 44.4135 55.5216 43.3644 56.1591 42.3505C56.7356 41.4079 57.3308 40.574 57.8571 39.8429C58.1454 39.4502 58.421 39.0937 58.6779 38.7674C58.6779 38.7674 59.0664 37.0574 59.1103 36.9547C59.5614 35.7462 61.1779 33.6435 62.6817 33.6918C62.9306 33.7071 63.1734 33.7726 63.3943 33.8842C63.6153 33.9957 63.8095 34.1508 63.9642 34.3394C64.119 34.528 64.231 34.7458 64.2928 34.9788C64.3547 35.2118 64.3651 35.4547 64.3233 35.6919C64.1792 36.7009 63.208 37.5408 62.3308 38.0121C61.4536 38.4834 59.3233 38.713 58.797 38.7613C58.5401 39.1057 58.2644 39.4804 57.9699 39.8973C57.4561 40.6405 56.886 41.4804 56.3283 42.435C56.1779 42.6888 56.0338 42.9668 55.8835 43.2326C56.2343 42.8338 56.7168 42.29 56.7732 42.2417C57.7569 41.3656 60.1942 40.2236 61.5038 40.9366C61.7177 41.06 61.9022 41.2256 62.0452 41.4226C62.1883 41.6195 62.2867 41.8433 62.334 42.0793C62.3813 42.3154 62.3764 42.5584 62.3197 42.7925C62.2631 43.0266 62.1558 43.2466 62.005 43.4381C61.3784 44.2719 60.1253 44.5861 59.1291 44.6163C58.1328 44.6465 56.0589 43.8731 55.6203 43.6979C55.2945 44.3021 54.9937 44.9063 54.6867 45.5891C54.1444 46.791 53.7125 48.0365 53.396 49.3112L53.3584 49.5347C53.4962 49.3051 54.3421 48.1148 54.411 48.0363C55.2882 47.0634 57.5815 45.6677 58.9599 46.2236C59.1841 46.324 59.3841 46.4685 59.5472 46.6476C59.7103 46.8268 59.8329 47.0368 59.9072 47.2642C59.9815 47.4916 60.0058 47.7314 59.9786 47.9684C59.9515 48.2053 59.8734 48.4342 59.7494 48.6405C59.2356 49.5408 58.0138 49.9819 57.0238 50.1208C55.8772 50.2779 53.4398 49.5831 53.3459 49.5589C53.07 50.8369 52.8796 52.1305 52.7757 53.432C52.6942 54.3988 52.6504 55.3777 52.619 56.3565C52.807 56.0665 53.5965 54.9607 53.6591 54.8882C54.5363 53.9094 56.8296 52.5196 58.2143 53.0755C58.4386 53.1759 58.6387 53.3203 58.8017 53.4996C58.9647 53.679 59.087 53.8892 59.1608 54.1168C59.2345 54.3444 59.2581 54.5844 59.23 54.8213C59.2019 55.0582 59.1227 55.2868 58.9975 55.4924C58.4837 56.3867 57.2619 56.8278 56.2719 56.9668C55.1566 57.1239 52.8133 56.4653 52.619 56.4109C52.619 56.858 52.619 57.3051 52.5752 57.7523C52.5752 59.2145 52.5125 60.6767 52.4373 62.1208C52.4373 62.6224 52.3684 63.1118 52.3246 63.6073C52.619 63.1783 53.1642 62.3988 53.2205 62.3505C54.0977 61.3716 56.391 59.9819 57.7757 60.5378C58 60.6381 58.2001 60.7826 58.3631 60.9619C58.5261 61.1412 58.6484 61.3514 58.7222 61.579C58.7959 61.8066 58.8195 62.0466 58.7914 62.2835C58.7633 62.5204 58.6841 62.749 58.5589 62.9547C58.0451 63.8489 56.8233 64.29 55.8333 64.429C54.8434 64.568 52.8571 64.0604 52.2995 63.9094C52.2243 64.7251 52.1303 65.5408 51.9987 66.3263C51.9298 66.6647 51.886 67.0151 51.8045 67.3414C51.7669 67.5166 51.7293 67.6858 51.6855 67.855L51.9674 67.7825C51.9674 67.7825 52.0739 68.2236 52.1679 68.9547C53.1078 68.0181 54.5551 67.0997 55.6579 67.3716C55.8981 67.4378 56.1211 67.5521 56.3124 67.7069C56.5038 67.8618 56.6592 68.0537 56.7685 68.2703C56.8778 68.4869 56.9387 68.7233 56.947 68.964C56.9554 69.2048 56.9111 69.4445 56.817 69.6677C56.7696 69.7844 56.713 69.8975 56.6479 70.006C56.6614 71.1442 56.3747 72.267 55.8145 73.2689C55.7707 73.3414 55.1566 74.1269 54.8308 74.5196C55.1692 74.2598 55.5013 74.0061 55.8459 73.7281C56.3408 73.3354 56.8546 72.9003 57.3559 72.5196L58.114 71.8369C58.3772 71.6133 58.6028 71.3656 58.8471 71.1239C59.2043 70.7674 59.5551 70.3867 59.8997 70C59.4549 69.5348 58.1704 68.1511 57.8571 67.2628C57.5439 66.3746 57.3809 65.0997 57.9699 64.2417C58.1022 64.0376 58.2775 63.8626 58.4845 63.7282C58.6915 63.5937 58.9255 63.5027 59.1713 63.4611C59.4171 63.4195 59.6692 63.4282 59.9113 63.4867C60.1534 63.5452 60.38 63.6522 60.5764 63.8006C61.7293 64.7251 61.4975 67.3293 60.9962 68.5257C60.9962 68.568 60.8459 68.8097 60.6892 69.0937C61.015 68.713 61.3158 68.3263 61.6667 67.9275C62.5689 66.7915 63.4586 65.6073 64.3546 64.423C64.5363 64.1752 64.7306 63.9335 64.9123 63.6858C64.5363 63.2991 63.1328 61.8066 62.8007 60.8822C62.4687 59.9577 62.3246 58.719 62.9135 57.861C63.0451 57.6562 63.2201 57.4805 63.4271 57.3455C63.634 57.2104 63.8682 57.1191 64.1143 57.0775C64.3604 57.0358 64.6129 57.0448 64.8551 57.1038C65.0974 57.1628 65.324 57.2706 65.52 57.4199C66.6792 58.3444 66.4411 60.9426 65.9461 62.145C65.9461 62.1873 65.7644 62.4773 65.5827 62.8036C66.0777 62.1631 66.5789 61.5347 67.099 60.9305C67.9796 59.8795 68.9342 58.8882 69.9561 57.9637C69.8183 57.8248 68.1391 56.1088 67.7694 55.0816C67.4436 54.1692 67.2932 52.9184 67.8822 52.0604C68.0151 51.8571 68.1908 51.6828 68.3978 51.5489C68.6048 51.415 68.8386 51.3243 69.0841 51.2828C69.3296 51.2412 69.5814 51.2497 69.8233 51.3077C70.0653 51.3656 70.2919 51.4718 70.4887 51.6193C71.6416 52.5498 71.4098 55.148 70.9085 56.3505C70.9085 56.435 70.282 57.4804 70.0689 57.8429H70.1065C71.1292 56.9561 72.2322 56.1593 73.4022 55.4622C74.4448 54.8344 75.5244 54.2655 76.6353 53.7583C77.6629 53.281 78.6278 52.9003 79.4925 52.5499C79.9561 52.3746 80.3885 52.2236 80.7895 52.0846C80.7895 52.0846 82.0927 50.8761 82.1867 50.7976C83.2581 50.0242 85.8083 49.136 87.0301 49.9758C87.2298 50.1205 87.3957 50.304 87.5171 50.5146C87.6384 50.7251 87.7124 50.9579 87.7343 51.1979C87.7562 51.4378 87.7254 51.6795 87.644 51.9073C87.5626 52.135 87.4324 52.3436 87.2619 52.5196C86.5601 53.287 85.2694 53.4683 84.2669 53.3958C83.2644 53.3233 81.3596 52.3807 80.896 52.139C80.4825 52.29 80.0376 52.4532 79.5489 52.6465C78.703 52.9909 77.7444 53.3897 76.7356 53.8912L75.9022 54.3202C76.4223 54.1692 77.1554 53.9758 77.2118 53.9698C78.5338 53.7583 81.2218 54.1027 81.9048 55.3897C82.0132 55.6064 82.073 55.8428 82.0803 56.0833C82.0876 56.3238 82.0421 56.5631 81.9469 56.7855C81.8517 57.008 81.7088 57.2085 81.5278 57.3741C81.3467 57.5396 81.1314 57.6664 80.896 57.7462C79.906 58.1209 78.6717 57.7039 77.8195 57.2024C76.9674 56.7009 75.683 54.9486 75.4135 54.568C74.787 54.9003 74.1604 55.2447 73.5338 55.6496C72.393 56.3601 71.3213 57.1691 70.3321 58.0665L70.1629 58.2296C70.4073 58.1148 71.7982 57.571 71.8985 57.5408C73.1892 57.1964 75.896 57.2568 76.7293 58.4653C76.8613 58.6694 76.9471 58.8981 76.9812 59.1364C77.0152 59.3747 76.9968 59.6173 76.927 59.8482C76.8572 60.0792 76.7377 60.2934 76.5762 60.4767C76.4148 60.6601 76.215 60.8086 75.99 60.9124C75.0501 61.3897 73.7782 61.1057 72.8571 60.6949C71.817 60.2175 70.1754 58.3384 70.1128 58.2779C69.1527 59.1962 68.2549 60.173 67.4248 61.2024C66.7982 61.9637 66.2093 62.7613 65.6203 63.565C65.9398 63.4199 67.2306 62.9124 67.3308 62.8882C68.6216 62.5378 71.3283 62.5982 72.1554 63.8067C72.282 64.0097 72.3635 64.2359 72.3947 64.4709C72.4259 64.7059 72.4061 64.9446 72.3366 65.1718C72.2671 65.3991 72.1494 65.6099 71.9909 65.791C71.8324 65.972 71.6367 66.1193 71.416 66.2236C70.4762 66.7009 69.2043 66.4169 68.2832 66.0061C67.2619 65.5468 65.6829 63.7523 65.5514 63.5891C65.2819 63.9517 65.0125 64.3142 64.7494 64.6828C63.8847 65.8912 63.02 67.0997 62.1366 68.2538C61.8233 68.6586 61.51 69.0453 61.1905 69.4622C61.6792 69.2568 62.5752 68.9063 62.6566 68.8882C63.9474 68.5378 66.6541 68.5982 67.4812 69.8067C67.6134 70.0104 67.6995 70.2388 67.734 70.4768C67.7685 70.7148 67.7506 70.9572 67.6815 71.1881C67.6123 71.419 67.4934 71.6333 67.3326 71.8169C67.1718 72.0005 66.9726 72.1494 66.7481 72.2538C65.8083 72.7311 64.5363 72.4471 63.6153 72.0363C62.6942 71.6254 61.3471 70.145 60.9649 69.7221C60.4323 70.3625 59.8935 70.9909 59.3233 71.5831C59.0727 71.8369 58.8346 72.1088 58.584 72.3323L57.8634 73.1118C57.3371 73.571 56.8484 74 56.3471 74.4109L55.6078 75.0151C56.0714 74.7372 56.817 74.3142 56.8609 74.284C58.114 73.7462 60.7707 73.4139 61.7794 74.4834C61.942 74.6663 62.0627 74.8801 62.1339 75.111C62.2051 75.3418 62.2251 75.5846 62.1926 75.8234C62.1601 76.0622 62.0758 76.2917 61.9453 76.497C61.8147 76.7023 61.6408 76.8789 61.4348 77.0151C60.5764 77.6193 59.2794 77.5287 58.302 77.2508C57.2431 76.9487 55.4574 75.4381 55.2381 75.281C54.6115 75.7764 54.0351 76.2477 53.4712 76.6828C51.9611 77.8369 50.6266 78.7855 49.5927 79.4985C46.4599 83.2145 41.3659 84.4653 41.3659 84.4653C41.3659 84.4653 39.9624 78.5257 42.8759 73.9396C43.9065 72.3846 45.2827 71.0699 46.9048 70.0906ZM54.5865 74.7734C53.8898 73.8439 53.327 72.8276 52.9135 71.7523C52.7068 71.7523 52.4937 71.7523 52.287 71.7523C52.2735 73.7098 51.8338 75.6428 50.9962 77.426C51.6228 77.003 52.2494 76.5317 52.9699 76.0242C53.4837 75.6133 54.0288 75.2024 54.5865 74.7734Z" fill="#2F2E41"/>
<path d="M19.5175 73.716C19.5175 73.716 25.7832 72.8097 30.2882 75.9517C34.7932 79.0937 35.9273 85.0937 35.9273 85.0937C35.9273 85.0937 29.6617 86.006 25.1566 82.864C20.6516 79.7221 19.5175 73.716 19.5175 73.716Z" fill="#2F2E41"/>
<path d="M36.4724 74.7251L29.3734 70.5076L29.5802 70.1813L36.3784 74.2175L35.1002 67.281L35.0752 67.3051L28.5401 60.9366L28.822 60.6647L34.9937 66.6828L31.911 49.9819L32.3058 49.9154L34.3922 61.2508L37.6629 57.3233L37.9762 57.565L34.4862 61.7523L35.9774 69.855L40.921 63.7946L41.2343 64.0302L36.0714 70.3565L37.4311 77.7402L41.2281 73.6133L41.5225 73.8671L37.5251 78.2175L38.396 82.9668L38.0075 83.0393L36.4724 74.7251Z" fill="white"/>
<path d="M42.4812 75.7764L42.8634 75.6677L44.1479 79.7704L46.2343 76.4894H46.2281L45.9336 71.2991L46.3283 71.281L46.5915 75.9215L51.7795 67.7523L52.1178 67.9517L48.6028 73.4925L51.4035 73.0332L51.4724 73.4139L48.3271 73.9275L45.8584 77.8127L50.2318 77.0514L50.3008 77.426L45.5764 78.2538L43.3333 81.7825L46.4536 81.4199L46.5038 81.8006L43.0702 82.1994L41.5727 84.5559L41.2343 84.3505L43.8659 80.2115L42.4812 75.7764Z" fill="white"/>
<path d="M28.02 79.8671L22.6316 79.7583L22.6378 79.3776L27.4561 79.4683L19.3985 73.8731L19.6303 73.5589L25.1002 77.3595L24.8371 74.6284L25.2318 74.5921L25.5263 77.6556L29.3609 80.3202L28.8972 76.0544L29.292 76.0121L29.7932 80.6224L33.2769 83.0393L33.1391 80.0121L33.5338 79.994L33.6905 83.3293L36.0088 84.9366L35.7769 85.2508L31.6917 82.4109L27.005 83.4139L26.9173 83.0393L31.2594 82.1088L28.02 79.861V79.8671Z" fill="white"/>
<path d="M134.58 77.1118C134.58 77.1118 132.469 78.5076 132.199 78.6949C131.93 78.8822 131.404 83.5287 131.404 83.7523C131.404 83.9758 135.163 83.6858 135.852 82.9849C136.541 82.284 136.579 80.1027 136.579 80.1027C136.491 79.4941 136.267 78.9112 135.922 78.3947C135.576 77.8782 135.119 77.4404 134.58 77.1118Z" fill="white" stroke="#2F2E41" stroke-width="0.75" stroke-linecap="round" stroke-linejoin="round"/>
<path d="M140.351 55.0755L140 70.3323L134.555 77.1118C134.555 77.1118 136.66 78.6344 136.485 80.3263L142.462 76.7674C142.462 76.7674 142.462 61.5166 142.112 57.6193C141.761 53.7221 140.727 53.7221 140.351 55.0755Z" fill="white" stroke="#2F2E41" stroke-width="0.75" stroke-linecap="round" stroke-linejoin="round"/>
<path d="M131.065 83.8852C131.065 83.8852 132.118 80.6707 132.318 80.1571C132.519 79.6435 137.957 79.6496 137.957 79.6496C138.07 80.0949 138.131 80.5508 138.139 81.0091C138.139 81.6858 136.886 82.3625 136.886 82.3625C136.908 82.7848 136.824 83.2058 136.64 83.5898C136.457 83.9738 136.18 84.3094 135.833 84.568C134.848 85.2985 133.778 85.915 132.644 86.4048L130.533 85.7281L131.065 83.8852Z" fill="white" stroke="#2F2E41" stroke-width="0.75" stroke-linecap="round" stroke-linejoin="round"/>
<path d="M134.123 77.6073C134.123 77.6073 132.932 77.6073 132.732 77.9275C132.531 78.2477 132.863 81.1299 133.264 81.1299C133.665 81.1299 134.455 81.3837 134.586 80.6163C134.718 79.8489 134.987 77.4804 134.123 77.6073Z" fill="white" stroke="#2F2E41" stroke-width="0.75" stroke-linecap="round" stroke-linejoin="round"/>
<path d="M104.048 160.006C104.048 160.006 102.55 163.341 102.964 164.532C103.377 165.722 104.01 166.483 106.83 165.577C109.649 164.671 116.228 159.813 116.228 158.616C116.228 157.42 108.39 159.015 108.39 159.015C108.39 159.015 107.964 160.205 104.048 160.006Z" fill="white" stroke="#2F2E41" stroke-width="0.75" stroke-linecap="round" stroke-linejoin="round"/>
<path d="M86.6479 148.822C86.6479 148.822 86.2469 151.752 86.5163 152.205C86.7619 152.535 87.0869 152.803 87.4634 152.985C87.84 153.167 88.2568 153.258 88.6779 153.251C89.6241 153.184 90.2318 153.184 90.4323 152.465C90.6328 151.746 90.7707 151.033 90.9712 150.447C91.1521 149.992 91.2219 149.503 91.1752 149.018C91.1284 148.533 90.9664 148.065 90.7018 147.65C89.9561 146.411 87.3183 146.786 86.4787 149.076" fill="white"/>
<path d="M86.6479 148.822C86.6479 148.822 86.2469 151.752 86.5163 152.205C86.7619 152.535 87.0869 152.803 87.4634 152.985C87.84 153.167 88.2568 153.258 88.6779 153.251C89.6241 153.184 90.2318 153.184 90.4323 152.465C90.6328 151.746 90.7707 151.033 90.9712 150.447C91.1521 149.992 91.2219 149.503 91.1752 149.018C91.1284 148.533 90.9664 148.065 90.7018 147.65C89.9561 146.411 87.3183 146.786 86.4787 149.076" stroke="#2F2E41" stroke-width="0.75" stroke-linecap="round" stroke-linejoin="round"/>
<path d="M92.9073 110.489C92.9073 110.489 93.114 119.239 93.114 120.236C93.114 121.233 89.4048 128.193 89.4048 129.982C89.4048 131.77 86.4787 149.076 86.4787 149.076C86.7098 149.41 87.0142 149.692 87.3703 149.9C87.7265 150.109 88.1258 150.24 88.5401 150.284C89.2744 150.286 89.9923 150.075 90.6015 149.68C90.6015 149.68 96.2406 131.982 97.8572 130.193C99.4737 128.405 102.393 121.245 102.393 121.245C102.393 121.245 104.273 131.982 104.048 133.372C103.822 134.761 101.986 140.731 102.168 143.716C102.35 146.701 103.816 160.816 103.816 160.816C104.15 161.229 104.598 161.542 105.11 161.719C105.621 161.895 106.174 161.928 106.704 161.813C107.917 161.461 108.947 160.679 109.586 159.625C109.586 159.625 112.061 140.532 112.268 138.544C112.475 136.556 114.743 124.423 114.95 120.248C115.157 116.073 115.157 110.302 115.157 110.302C111.043 111.088 106.792 110.881 102.782 109.698C99.4907 108.708 96.3188 107.382 93.3208 105.74L92.9073 110.489Z" fill="#2F2E41" stroke="#2F2E41" stroke-width="0.75" stroke-linecap="round" stroke-linejoin="round"/>
<path d="M109.586 52.4894C109.892 53.5037 110.135 54.5348 110.313 55.577C110.293 56.0927 110.245 56.607 110.169 57.1178C110.169 57.1178 111.335 57.6798 111.335 58.3807C111.335 59.0816 110.313 60.3444 110.313 60.3444L109.881 63.71C109.731 64.8278 108.86 66.0906 108.001 66.3686C107.191 66.5416 106.358 66.5905 105.533 66.5136L105.094 71.136L96.8045 68.1934L97.3872 63.9638C97.3872 63.9638 95.5075 59.0574 96.3722 56.2538C97.2368 53.4502 100.877 52.7493 103.058 52.0242C105.238 51.2991 109.586 52.4894 109.586 52.4894Z" fill="white" stroke="#2F2E41" stroke-width="0.75" stroke-linecap="round" stroke-linejoin="round"/>
<path d="M96.9424 65.2568C96.9424 65.2568 92.5564 60.3505 92.287 55.7221C92.0175 51.0937 93.7406 48.1511 96.6729 47.1722C99.6053 46.1934 101.178 46.4653 101.178 46.4653C101.178 46.4653 98.9975 46.0483 101.328 45.0635C103.659 44.0786 106.272 45.7644 106.272 45.7644C106.272 45.7644 104.818 44.6465 106.56 44.7855C108.302 44.9245 109.029 45.7644 110.633 49.2749C112.237 52.7855 107.87 54.0363 107.143 54.3202C106.416 54.6042 108.452 55.4441 108.158 56.1329C107.863 56.8218 106.278 57.9456 106.278 57.9456L106.711 61.0332C106.711 61.0332 105.984 62.1511 105.551 61.4502C105.119 60.7493 104.969 59.3474 103.672 60.1873C102.375 61.0272 103.96 63.8127 104.398 63.8127C104.837 63.8127 103.377 65.3535 101.491 65.9154C100.513 66.264 99.4475 66.3126 98.4399 66.0544C98.1461 66.0307 97.8608 65.9473 97.6027 65.8099C97.3447 65.6724 97.1196 65.484 96.9424 65.2568Z" fill="#2F2E41" stroke="#2F2E41" stroke-width="0.75" stroke-linecap="round" stroke-linejoin="round"/>
<path d="M95.0501 68.1934C95.3017 67.7183 95.7091 67.3369 96.2089 67.1085C96.7087 66.8801 97.2728 66.8175 97.8133 66.9305C99.693 67.3535 103.628 68.8943 104.499 70.0181C105.37 71.142 106.378 74.5015 106.378 74.5015L95.6203 69.8731C95.6203 69.8731 94.0288 69.1722 95.0501 68.1934Z" fill="white" stroke="#2F2E41" stroke-width="0.75" stroke-linecap="round" stroke-linejoin="round"/>
<path d="M86.8609 105.97L87.1679 107.45V110.574L86.7043 111.782L85.9399 112.079V111.335L86.3972 114.157L85.4762 114.894C85.4762 114.894 83.4775 111.782 83.0138 110.894C82.5501 110.006 83.0138 105.946 83.0138 105.946C83.0138 105.946 83.7845 106.713 86.8609 105.97Z" fill="white" stroke="#2F2E41" stroke-width="0.75" stroke-linecap="round" stroke-linejoin="round"/>
<path d="M114.355 78.4774C114.355 78.4774 110.232 76.4834 105.902 73.9033C101.573 71.3233 95.3822 68.5317 93.7343 67.5348C92.0865 66.5378 90.7143 65.2024 87.7569 67.142C82.0426 70.8761 85.282 81.6435 85.282 83.0453C85.282 84.4471 82.1867 93.5891 82.3935 95.3777C82.6003 97.1662 83.0201 105.915 83.0201 105.915C83.0201 105.915 83.8409 107.511 86.9361 106.713C86.9361 106.713 88.9975 97.565 89.2043 94.9789C89.5134 92.6287 89.995 90.3026 90.6454 88.0181L92.713 99.3535L90.6454 108.701C90.6454 108.701 92.0927 113.275 96.8358 114.864C101.579 116.453 106.516 117.825 112.293 115.861C114.561 115.082 118.277 112.085 118.277 112.085C118.277 112.085 116.397 91.8006 116.397 90.8036C116.397 89.8067 116.009 82.852 114.355 78.4774Z" fill="white"/>
<mask id="mask1_615_125" style="mask-type:luminance" maskUnits="userSpaceOnUse" x="82" y="66" width="37" height="51">
<path d="M114.355 78.4774C114.355 78.4774 110.232 76.4834 105.902 73.9033C101.573 71.3233 95.3822 68.5317 93.7343 67.5348C92.0865 66.5378 90.7143 65.2024 87.7569 67.142C82.0426 70.8761 85.282 81.6435 85.282 83.0453C85.282 84.4471 82.1867 93.5891 82.3935 95.3777C82.6003 97.1662 83.0201 105.915 83.0201 105.915C83.0201 105.915 83.8409 107.511 86.9361 106.713C86.9361 106.713 88.9975 97.565 89.2043 94.9789C89.5134 92.6287 89.995 90.3026 90.6454 88.0181L92.713 99.3535L90.6454 108.701C90.6454 108.701 92.0927 113.275 96.8358 114.864C101.579 116.453 106.516 117.825 112.293 115.861C114.561 115.082 118.277 112.085 118.277 112.085C118.277 112.085 116.397 91.8006 116.397 90.8036C116.397 89.8067 116.009 82.852 114.355 78.4774Z" fill="white"/>
</mask>
<g mask="url(#mask1_615_125)">
<path d="M112.293 115.861C114.561 115.082 118.277 112.085 118.277 112.085C118.277 112.085 117.475 103.323 116.924 97.0393C116.789 96.9846 116.641 96.9681 116.496 96.9916C116.352 97.0152 116.218 97.0778 116.109 97.1722C114.687 98.3142 115.163 108.387 114.229 107.934C113.296 107.48 108.772 95.1058 105.207 90.0725C101.642 85.0393 106.397 93.0453 105.445 95.7946C104.492 98.5438 94.7932 79.994 89.5363 77.7039C84.2794 75.4139 88.584 81.8248 88.584 81.8248L89.5426 92.7372C89.9812 90.4351 90.6579 88.0181 90.6579 88.0181L92.7256 99.3535L90.6579 108.701C90.6579 108.701 92.1053 113.275 96.8484 114.864C101.591 116.453 106.516 117.825 112.293 115.861Z" fill="#8185E7"/>
<path opacity="0.5" d="M112.293 115.861C114.561 115.082 118.277 112.085 118.277 112.085C118.277 112.085 117.475 103.323 116.924 97.0393C116.789 96.9846 116.641 96.9681 116.496 96.9916C116.352 97.0152 116.218 97.0778 116.109 97.1722C114.687 98.3142 115.163 108.387 114.229 107.934C113.296 107.48 108.772 95.1058 105.207 90.0725C101.642 85.0393 106.397 93.0453 105.445 95.7946C104.492 98.5438 94.7932 79.994 89.5363 77.7039C84.2794 75.4139 88.584 81.8248 88.584 81.8248L89.5426 92.7372C89.9812 90.4351 90.6579 88.0181 90.6579 88.0181L92.7256 99.3535L90.6579 108.701C90.6579 108.701 92.1053 113.275 96.8484 114.864C101.591 116.453 106.516 117.825 112.293 115.861Z" fill="white"/>
</g>
<path d="M114.355 78.4774C114.355 78.4774 110.232 76.4834 105.902 73.9033C101.573 71.3233 95.3822 68.5317 93.7343 67.5348C92.0865 66.5378 90.7143 65.2024 87.7569 67.142C82.0426 70.8761 85.282 81.6435 85.282 83.0453C85.282 84.4471 82.1867 93.5891 82.3935 95.3777C82.6003 97.1662 83.0201 105.915 83.0201 105.915C83.0201 105.915 83.8409 107.511 86.9361 106.713C86.9361 106.713 88.9975 97.565 89.2043 94.9789C89.5134 92.6287 89.995 90.3026 90.6454 88.0181L92.713 99.3535L90.6454 108.701C90.6454 108.701 92.0927 113.275 96.8358 114.864C101.579 116.453 106.516 117.825 112.293 115.861C114.561 115.082 118.277 112.085 118.277 112.085C118.277 112.085 116.397 91.8006 116.397 90.8036C116.397 89.8067 116.009 82.852 114.355 78.4774Z" stroke="#2F2E41" stroke-width="0.75" stroke-linecap="round" stroke-linejoin="round"/>
<path d="M90.6391 88.0181C90.6391 88.0181 88.7594 83.0695 87.2744 79.1118" stroke="#2F2E41" stroke-width="0.75" stroke-linecap="round" stroke-linejoin="round"/>
<path d="M110.025 78.8701C110.025 78.8701 113.12 78.0785 114.355 78.4773C115.589 78.8761 121.779 94.7915 121.779 94.7915L130.031 85.0514C130.031 85.0514 131.284 83.4562 133.741 86.864L123.227 105.952C123.227 105.952 121.974 107.764 119.925 106.151C117.876 104.538 107.55 88.8217 107.55 88.8217" fill="white"/>
<path d="M110.025 78.8701C110.025 78.8701 113.12 78.0785 114.355 78.4773C115.589 78.8761 121.779 94.7915 121.779 94.7915L130.031 85.0514C130.031 85.0514 131.284 83.4562 133.741 86.864L123.227 105.952C123.227 105.952 121.974 107.764 119.925 106.151C117.876 104.538 107.55 88.8217 107.55 88.8217" stroke="#2F2E41" stroke-width="0.75" stroke-linecap="round" stroke-linejoin="round"/>
<path d="M164.63 133.335C164.63 133.335 164.455 140.181 166.04 142.242C167.625 144.302 169.555 143.728 169.555 141.505C169.555 139.281 168.678 134.634 167.444 132.598C166.209 130.562 164.63 133.335 164.63 133.335Z" fill="white" stroke="#2F2E41" stroke-width="0.75" stroke-linecap="round" stroke-linejoin="round"/>
<path d="M144.242 121.172C144.242 121.172 138.797 124.562 138.446 126.254C138.095 127.946 144.768 126.085 146.704 123.71C148.64 121.335 146.704 120.495 144.242 121.172Z" fill="white" stroke="#2F2E41" stroke-width="0.75" stroke-linecap="round" stroke-linejoin="round"/>
<path d="M142.137 86.4048C142.137 86.4048 141.429 98.435 142.312 102.677C143.195 106.918 143.014 122.163 143.014 122.163C143.014 122.163 144.267 122.502 145.294 122.84C146.322 123.178 147.932 121.486 147.932 121.486L150.57 102.508L152.325 95.2205L156.541 111.317L164.63 134.193C164.63 134.193 165.157 134.707 166.911 134.876C167.132 134.917 167.358 134.913 167.577 134.866C167.796 134.818 168.003 134.728 168.184 134.601C168.366 134.473 168.518 134.311 168.632 134.125C168.746 133.938 168.819 133.731 168.847 133.517L166.385 108.604L164.63 87.4199C164.63 87.4199 157.6 87.4199 153.208 86.9124C150.098 86.4396 147.076 85.5275 144.242 84.2054L141.961 83.3837L142.137 86.4048Z" fill="#2F2E41" stroke="#2F2E41" stroke-width="0.75" stroke-linecap="round" stroke-linejoin="round"/>
<path d="M151.096 45.9215L142.137 48.8036C140.551 49.3112 140.376 51.3414 140.376 53.716C140.376 56.0906 141.779 75.9154 141.429 78.29C141.078 80.6647 140.727 87.6133 140.727 87.6133C142.116 88.8809 143.58 90.0692 145.113 91.1722C146.303 91.8522 147.614 92.3132 148.979 92.5317L150.232 88.9728L151.811 93.3776C151.811 93.3776 156.378 94.7311 160.069 94.2236C163.759 93.716 166.748 88.1269 166.748 88.1269L164.787 76.7674C164.787 76.7674 170.426 55.7583 169.004 53.2024C167.581 50.6465 162.149 47.6073 158.459 46.423C156.076 45.7199 153.558 45.5484 151.096 45.9215Z" fill="white"/>
<mask id="mask2_615_125" style="mask-type:luminance" maskUnits="userSpaceOnUse" x="140" y="45" width="30" height="50">
<path d="M151.096 45.9215L142.137 48.8036C140.551 49.3112 140.376 51.3414 140.376 53.716C140.376 56.0906 141.779 75.9154 141.429 78.29C141.078 80.6647 140.727 87.6133 140.727 87.6133C142.116 88.8809 143.58 90.0692 145.113 91.1722C146.303 91.8522 147.614 92.3132 148.979 92.5317L150.232 88.9728L151.811 93.3776C151.811 93.3776 156.378 94.7311 160.069 94.2236C163.759 93.716 166.748 88.1269 166.748 88.1269L164.787 76.7674C164.787 76.7674 170.426 55.7583 169.004 53.2024C167.581 50.6465 162.149 47.6073 158.459 46.423C156.076 45.7199 153.558 45.5484 151.096 45.9215Z" fill="white"/>
</mask>
<g mask="url(#mask2_615_125)">
<path d="M165.501 62.3625C165.501 62.3625 163.835 66.9426 162.412 72.2115C160.99 77.4804 156.241 86.8641 155.764 87.5529C155.288 88.2417 145.789 75.8731 146.504 77.7039C147.088 79.431 147.563 81.1905 147.926 82.9728L141.034 65.5166C141.353 71.2266 141.66 77.0755 141.454 78.2961C141.103 80.6707 140.752 87.6133 140.752 87.6133C142.141 88.8809 143.605 90.0692 145.138 91.1722C146.328 91.8522 147.639 92.3132 149.004 92.5317L150.257 88.9728L151.836 93.3776C151.836 93.3776 156.404 94.7311 160.094 94.2236C163.784 93.716 166.773 88.1269 166.773 88.1269L164.787 76.7674C164.787 76.7674 166.366 70.8641 167.638 64.9366L165.501 62.3625Z" fill="#8185E7"/>
<path opacity="0.5" d="M165.501 62.3625C165.501 62.3625 163.835 66.9426 162.412 72.2115C160.99 77.4804 156.241 86.8641 155.764 87.5529C155.288 88.2417 145.789 75.8731 146.504 77.7039C147.088 79.431 147.563 81.1905 147.926 82.9728L141.034 65.5166C141.353 71.2266 141.66 77.0755 141.454 78.2961C141.103 80.6707 140.752 87.6133 140.752 87.6133C142.141 88.8809 143.605 90.0692 145.138 91.1722C146.328 91.8522 147.639 92.3132 149.004 92.5317L150.257 88.9728L151.836 93.3776C151.836 93.3776 156.404 94.7311 160.094 94.2236C163.784 93.716 166.773 88.1269 166.773 88.1269L164.787 76.7674C164.787 76.7674 166.366 70.8641 167.638 64.9366L165.501 62.3625Z" fill="white"/>
</g>
<path d="M151.096 45.9215L142.137 48.8036C140.551 49.3112 140.376 51.3414 140.376 53.716C140.376 56.0906 141.779 75.9154 141.429 78.29C141.078 80.6647 140.727 87.6133 140.727 87.6133C142.116 88.8809 143.58 90.0692 145.113 91.1722C146.303 91.8522 147.614 92.3132 148.979 92.5317L150.232 88.9728L151.811 93.3776C151.811 93.3776 156.378 94.7311 160.069 94.2236C163.759 93.716 166.748 88.1269 166.748 88.1269L164.787 76.7674C164.787 76.7674 170.426 55.7583 169.004 53.2024C167.581 50.6465 162.149 47.6073 158.459 46.423C156.076 45.7199 153.558 45.5484 151.096 45.9215Z" stroke="#2F2E41" stroke-width="0.75" stroke-linecap="round" stroke-linejoin="round"/>
<path d="M147.932 46.9426L145.295 52.3686L148.108 56.0967L144.768 58.6344L149.342 64.9063" fill="white"/>
<path d="M147.932 46.9426L145.295 52.3686L148.108 56.0967L144.768 58.6344L149.342 64.9063" stroke="#2F2E41" stroke-width="0.75" stroke-linecap="round" stroke-linejoin="round"/>
<path d="M160.589 47.281L162.343 54.9063L158.127 55.9275L160.056 58.6344C160.056 58.6344 157.425 61.5166 154.962 62.864C152.5 64.2115 148.108 66.7613 148.108 66.7613L149.361 85.4018" fill="white"/>
<path d="M160.589 47.281L162.343 54.9063L158.127 55.9275L160.056 58.6344C160.056 58.6344 157.425 61.5166 154.962 62.864C152.5 64.2115 148.108 66.7613 148.108 66.7613L149.361 85.4018" stroke="#2F2E41" stroke-width="0.75" stroke-linecap="round" stroke-linejoin="round"/>
<path d="M150.044 45.9214C150.044 45.9214 149.518 51.855 149.518 55.2447C149.617 57.8687 149.97 60.4781 150.57 63.0393C150.57 63.0393 155.664 56.0906 157.249 53.2085C158.835 50.3263 159.53 47.7704 158.503 46.429C157.475 45.0876 156.566 45.2205 156.566 45.2205C156.566 45.2205 151.629 43.8912 150.044 45.9214Z" fill="white" stroke="#2F2E41" stroke-width="0.75" stroke-linecap="round" stroke-linejoin="round"/>
<path d="M150.746 54.2296L151.097 55.5891L149.868 59.3172L150.57 63.0453L152.851 59.8248L152.5 55.9275L153.734 54.568L152.851 52.0302L150.746 54.2296Z" fill="#2F2E41"/>
<path d="M149.693 54.568L152.5 53.0453L155.313 55.7583" stroke="#2F2E41" stroke-width="0.75" stroke-linecap="round" stroke-linejoin="round"/>
<path d="M166.736 90.4955L165.683 94.0544L166.034 96.7674H166.736L167.086 95.2447L167.262 99.142L169.023 99.3112L170.952 94.7311V90.8338L166.736 90.4955Z" fill="white" stroke="#2F2E41" stroke-width="0.75" stroke-linecap="round" stroke-linejoin="round"/>
<path d="M167.293 54.9063C167.293 54.9063 164.305 59.136 164.129 61.1782C163.954 63.2205 164.662 65.5831 165.013 67.281C165.363 68.9789 165.188 77.1118 165.89 79.9698C166.591 82.8278 166.767 90.4773 166.767 90.4773C166.767 90.4773 168.02 92.1752 170.984 90.8157C170.984 90.8157 172.237 77.7704 171.867 70.9909C171.642 66.8608 170.934 62.7683 169.756 58.7915C169.756 58.7915 170.633 54.2115 168.878 52.5196" fill="white"/>
<path d="M167.293 54.9063C167.293 54.9063 164.305 59.136 164.129 61.1782C163.954 63.2205 164.662 65.5831 165.013 67.281C165.363 68.9789 165.188 77.1118 165.89 79.9698C166.591 82.8278 166.767 90.4773 166.767 90.4773C166.767 90.4773 168.02 92.1752 170.984 90.8157C170.984 90.8157 172.237 77.7704 171.867 70.9909C171.642 66.8608 170.934 62.7683 169.756 58.7915C169.756 58.7915 170.633 54.2115 168.878 52.5196" stroke="#2F2E41" stroke-width="0.75" stroke-linecap="round" stroke-linejoin="round"/>
<path d="M151.629 46.9426C151.629 46.9426 151.454 53.0453 152.506 53.0453C153.559 53.0453 156.197 46.435 156.548 45.2508C156.899 44.0665 151.629 46.9426 151.629 46.9426Z" fill="white" stroke="#2F2E41" stroke-width="0.75" stroke-linecap="round" stroke-linejoin="round"/>
<path d="M148.02 35.0453C148.02 35.0453 147.544 40.9668 148.647 43.3958C149.749 45.8248 150.526 48.8338 152.268 49.0091C154.01 49.1843 157.776 44.4592 157.776 44.4592L158.246 43.2508C159.446 41.547 160.1 39.5401 160.125 37.4804C160.138 34.1148 151.003 31.9879 148.02 35.0453Z" fill="white" stroke="#2F2E41" stroke-width="0.75" stroke-linecap="round" stroke-linejoin="round"/>
<path d="M150.833 40.1148L150.445 43.6435L151.986 44.0121" fill="white"/>
<path d="M150.833 40.1148L150.445 43.6435L151.986 44.0121" stroke="#2F2E41" stroke-width="0.5625" stroke-linecap="round" stroke-linejoin="round"/>
<path d="M149.799 40.1269C149.799 40.5196 149.693 40.8399 149.561 40.8399C149.43 40.8399 149.33 40.5196 149.33 40.1269C149.33 39.7341 149.436 39.4079 149.561 39.4079C149.687 39.4079 149.799 39.7281 149.799 40.1269Z" fill="#2F2E41"/>
<path d="M153.152 41.0272C153.152 41.426 153.051 41.7462 152.92 41.7462C152.788 41.7462 152.688 41.426 152.688 41.0272C152.688 40.6284 152.788 40.3142 152.92 40.3142C153.051 40.3142 153.152 40.6344 153.152 41.0272Z" fill="#2F2E41"/>
<path d="M152.061 39.3716C152.061 39.3716 153.853 38.9184 154.637 40.1994Z" fill="white"/>
<path d="M152.061 39.3716C152.061 39.3716 153.853 38.9184 154.637 40.1994" stroke="#2F2E41" stroke-width="0.5625" stroke-linecap="round" stroke-linejoin="round"/>
<path d="M148.784 38.6224C149.064 38.4982 149.384 38.4836 149.675 38.5816C149.966 38.6796 150.206 38.8827 150.345 39.148" fill="white"/>
<path d="M148.784 38.6224C149.064 38.4982 149.384 38.4836 149.675 38.5816C149.966 38.6796 150.206 38.8827 150.345 39.148" stroke="#2F2E41" stroke-width="0.5625" stroke-linecap="round" stroke-linejoin="round"/>
<path d="M150.501 45.1662C150.745 45.4188 151.069 45.5857 151.422 45.6405C151.775 45.6952 152.137 45.6346 152.45 45.4683" fill="white"/>
<path d="M150.501 45.1662C150.745 45.4188 151.069 45.5857 151.422 45.6405C151.775 45.6952 152.137 45.6346 152.45 45.4683" stroke="#2F2E41" stroke-width="0.5625" stroke-linecap="round" stroke-linejoin="round"/>
<path d="M150.696 28.8036C150.696 28.8036 145.345 29.861 145.971 33.0332C146.598 36.2054 151.949 37.1299 153.528 37.1299C154.693 37.0931 155.852 36.9413 156.986 36.6767C156.986 36.6767 155.414 38.3444 156.36 39.0937C157.306 39.8429 157.776 40.3021 157.776 40.3021C157.776 40.3021 158.878 41.0634 158.878 40.1511C158.936 39.3778 159.094 38.6146 159.348 37.8792L160.764 37.7221C160.764 37.7221 162.644 34.3867 162.018 32.1088C161.391 29.8308 156.83 25.3112 150.696 28.8036Z" fill="#2F2E41" stroke="#2F2E41" stroke-width="0.75" stroke-linecap="round" stroke-linejoin="round"/>
<path d="M157.776 40.3323C157.776 40.3323 158.878 36.2356 160.764 37.7523C162.65 39.2689 159.192 42.3082 158.402 42.1571" fill="white"/>
<path d="M157.776 40.3323C157.776 40.3323 158.878 36.2356 160.764 37.7523C162.65 39.2689 159.192 42.3082 158.402 42.1571" stroke="#2F2E41" stroke-width="0.75" stroke-linecap="round" stroke-linejoin="round"/>
</g>
</g>
<defs>
<clipPath id="clip0_615_125">
<rect width="250" height="200" fill="white"/>
</clipPath>
<clipPath id="clip1_615_125">
<rect width="250" height="200" fill="white"/>
</clipPath>
</defs>
</svg>
