<svg width="250" height="200" viewBox="0 0 250 200" fill="none" xmlns="http://www.w3.org/2000/svg">
<rect width="250" height="200" fill="white"/>
<g clip-path="url(#clip0_615_124)">
<path d="M195.495 51.943C193.808 49.0544 191.962 46.2621 189.964 43.5792C166.481 12.5875 103.583 -4.29287 72.4114 27.7453C64.9839 35.3926 62.3953 44.6096 57.3953 53.3678C46.0225 73.283 24.7866 85.1926 11.4573 103.635C1.13123 117.935 2.50805 136.236 8.26489 151.712C14.525 168.508 25.5435 180.237 43.1642 189.144C62.9187 199.137 84.0459 196.364 105.399 192.887C115 191.321 124.903 189.727 134.722 190.323C147.013 191.072 159.151 194.082 171.357 195.555C184.042 197.077 197.202 197.435 209.42 194.118C248.547 183.497 257.818 133.713 241.727 105.192C236.031 95.0979 226.377 87.3138 217.415 79.4089C207.729 70.8922 201.808 62.5446 195.495 51.943Z" fill="#8185E7"/>
<path opacity="0.8" d="M195.495 51.943C193.808 49.0544 191.962 46.2621 189.964 43.5792C166.481 12.5875 103.583 -4.29287 72.4114 27.7453C64.9839 35.3926 62.3953 44.6096 57.3953 53.3678C46.0225 73.283 24.7866 85.1926 11.4573 103.635C1.13123 117.935 2.50805 136.236 8.26489 151.712C14.525 168.508 25.5435 180.237 43.1642 189.144C62.9187 199.137 84.0459 196.364 105.399 192.887C115 191.321 124.903 189.727 134.722 190.323C147.013 191.072 159.151 194.082 171.357 195.555C184.042 197.077 197.202 197.435 209.42 194.118C248.547 183.497 257.818 133.713 241.727 105.192C236.031 95.0979 226.377 87.3138 217.415 79.4089C207.729 70.8922 201.808 62.5446 195.495 51.943Z" fill="white"/>
<path d="M127.818 190.166C195.102 190.166 249.646 188.58 249.646 186.624C249.646 184.668 195.102 183.082 127.818 183.082C60.5344 183.082 5.9903 184.668 5.9903 186.624C5.9903 188.58 60.5344 190.166 127.818 190.166Z" fill="#263238"/>
<path d="M183.736 149.49H186.808V156.373H179.928V149.49H182.206" stroke="#263238" stroke-width="0.5" stroke-miterlimit="10"/>
<path d="M186.812 160.752H179.928V167.635H186.812V160.752Z" stroke="#263238" stroke-width="0.5" stroke-miterlimit="10"/>
<path d="M186.812 172.014H179.928V178.896H186.812V172.014Z" stroke="#263238" stroke-width="0.5" stroke-miterlimit="10"/>
<path d="M190.668 153.036H209.026" stroke="#263238" stroke-width="0.5" stroke-miterlimit="10"/>
<path d="M190.668 164.712H209.026" stroke="#263238" stroke-width="0.5" stroke-miterlimit="10"/>
<path d="M190.668 176.183H209.026" stroke="#263238" stroke-width="0.5" stroke-miterlimit="10"/>
<path d="M222.271 149.49H215.386V156.373H222.271V149.49Z" stroke="#263238" stroke-width="0.5" stroke-miterlimit="10"/>
<path d="M217.645 167.635H215.386V160.752H222.271V167.635H219.73" stroke="#263238" stroke-width="0.5" stroke-miterlimit="10"/>
<path d="M222.271 172.014H215.386V178.896H222.271V172.014Z" stroke="#263238" stroke-width="0.5" stroke-miterlimit="10"/>
<path d="M226.127 153.036H244.485" stroke="#263238" stroke-width="0.5" stroke-miterlimit="10"/>
<path d="M226.127 164.712H244.485" stroke="#263238" stroke-width="0.5" stroke-miterlimit="10"/>
<path d="M226.127 176.183H244.485" stroke="#263238" stroke-width="0.5" stroke-miterlimit="10"/>
<path d="M246.578 120.805C249.242 114.035 249.164 106.493 246.359 99.7795C243.555 93.0661 238.245 87.709 231.556 84.8444C224.866 81.9799 217.324 81.8333 210.529 84.4357C203.733 87.0382 198.219 92.1849 195.155 98.7843C192.092 105.384 191.72 112.917 194.119 119.785C196.518 126.654 201.5 132.318 208.006 135.576C214.513 138.835 222.033 139.431 228.971 137.238C235.91 135.045 241.721 130.237 245.173 123.832" stroke="#263238" stroke-width="0.5" stroke-miterlimit="10"/>
<path d="M214.919 136.466C216.42 136.794 217.946 136.99 219.481 137.049" stroke="#263238" stroke-width="0.5" stroke-linecap="round" stroke-linejoin="round"/>
<path d="M211.489 135.452C212.246 135.72 213.018 135.963 213.804 136.18" stroke="#263238" stroke-width="0.5" stroke-linecap="round" stroke-linejoin="round"/>
<path d="M195.06 103.321C193.282 109.592 193.878 116.299 196.736 122.159C199.593 128.018 204.51 132.619 210.547 135.081" stroke="#263238" stroke-width="0.5" stroke-linecap="round" stroke-linejoin="round"/>
<path d="M198.623 95.7016C197.665 97.1114 196.846 98.6102 196.175 100.177" stroke="#263238" stroke-width="0.5" stroke-linecap="round" stroke-linejoin="round"/>
<path d="M216.747 98.1407L219.601 98.7324L220.572 99.7386L221.84 99.9359L222.242 101.135L221.948 101.952L221.083 102.347L218.965 102.001L218.909 101.743L219.907 101.043L219.219 99.7668L217.323 99.5092L216.316 98.6439L216.747 98.1407Z" stroke="#263238" stroke-width="0.5" stroke-linecap="round" stroke-linejoin="round"/>
<path d="M239.734 124.46L237.472 124.077L234.742 123.731L232.729 124.174L230.765 124.206L228.788 125.12L227.637 125.442L226.924 125.603L225.717 126.681L224.533 127.486L222.54 126.774L222.589 124.858L221.381 124.649L220.084 124.939L219.807 124.391L219.678 123.184L219.078 122.636L218.2 122.97L218.084 123.675L216.989 123.989L215.757 123.039L215.016 121.574L215.584 119.561L217.492 119.275L218.112 119.614L218.893 119.441L219.734 118.636L220.636 118.708L222.246 120.459L222.685 120.294L222.222 118.825L221.659 118.132L221.518 116.873L223.684 115.303L223.478 112.832L224.328 111.761L224.839 110.083L225.459 109.809L226.731 108.505L226.683 107.974L225.66 108.267L225.35 107.792L224.638 107.949L223.591 108.453L223.925 107.495L226.047 106.343L226.449 105.647L227.657 106.855L228.37 107.309L229.219 106.847L228.663 106.106L227.089 105.438L225.145 104.033L223.277 103.293L221.667 103.377L220.717 102.773L219.622 102.741L219.549 103.031L219.839 104.939L220.242 105.53L220.121 107.732L218.591 106.983V106.034L217.085 105.687L216.341 105.104L216.304 103.413L217.882 101.634L217.669 100.049L216.969 100.274L216.385 99.791L215.982 98.8612L215.515 98.8974L215.487 99.9922L214.803 100.278L213.973 98.0844L213.382 97.8751L212.391 97.6859L211.469 98.4346L213.039 99.3804L213.543 100.423L210.817 99.1913L208.804 97.8027L208.289 96.08L206.485 95.9351L205.378 97.0661C205.105 97.3258 204.819 97.5717 204.521 97.8027C204.037 98.0394 203.536 98.2412 203.023 98.4064V99.5656L201.546 99.9681L201.836 100.652L204.32 100.507L205.853 101.598L206.357 103.864L206.091 106.034L206.695 108.143L205.584 111.721L206.248 116.551L207.436 119.143L208.74 121.03L209.742 120.946L209.187 119.98L208.494 119.316L207.814 117.951L208.37 117.694L209.795 119.823L210.902 121.755L211.276 123.437L212.838 124.645L215.403 125.776L218.977 125.933L220.229 126.677L221.24 127.539L222.564 127.993L224.074 128.066L225.487 127.683C225.487 127.683 225.568 128.348 225.64 128.67C225.713 128.992 225.048 130.3 225.048 130.3L224.638 131.757L225.475 133.069L227.029 133.334L229.501 134.944L230.495 135.13L230.708 136.104L230.926 136.53C235.788 134.596 240.007 131.332 243.1 127.112L243.027 126.633L244.074 123.071L243.1 122.668L239.734 124.46Z" stroke="#263238" stroke-width="0.5" stroke-linecap="round" stroke-linejoin="round"/>
<path d="M240.789 97.3599L239.803 96.2853L238.595 95.0778L237.907 93.1901L239.114 93.1257L239.034 92.4656L238.18 92.5864L238.82 92.1034L239.497 91.4755L239.352 90.8275L238.345 89.9662L237.87 88.6058C233.078 84.8348 227.185 82.7311 221.087 82.6141C214.989 82.4972 209.02 84.3734 204.086 87.9578L205.817 88.6863L205.169 90.0547L203.977 90.582L204.239 92.361L203.76 92.6709L203.273 93.5282L203.595 94.6793L204.726 94.5666L204.517 95.7741L205.62 95.5326L206.969 92.7152L206.932 91.6365L208.716 91.1012L208.998 90.2238L210.837 89.612L210.785 88.4689L212.134 88.0986C212.459 87.808 212.811 87.548 213.184 87.3218C213.578 87.3196 213.971 87.3465 214.36 87.4023L215.503 87.9618L216.864 87.6599L217.874 86.6899L219.392 86.4887C219.638 86.5837 219.903 86.6182 220.165 86.5893C220.596 86.3913 221.001 86.1427 221.373 85.8487L223.51 86.5973L224.416 86.9998L224.634 87.9698L225.636 87.8853L225.829 87.2292L226.759 87.4305L226.808 87.9658L224.98 88.9157L226.397 90.095L229.022 90.8758L230.282 91.9545L231.735 91.7693L231.916 91.0489L232.407 90.8034L230.431 89.8817L229.368 89.9823L230.153 89.5355L229.126 88.6058L230.217 88.2958L231.828 88.7587L232.496 90.2399L233.398 90.9241L234.396 92.6749L236.031 93.3994L236.506 95.5366L238.213 96.1806L238.305 96.9051V97.7946L238.953 98.8733L239.215 99.4287L240.358 99.3764L240.632 98.1689L240.789 97.3599Z" stroke="#263238" stroke-width="0.5" stroke-linecap="round" stroke-linejoin="round"/>
<path d="M240.185 90.6424L240.266 91.0167L240.173 92.1235L240.576 92.9889L241.349 93.0895L241.622 94.3211L240.769 94.1682L241.353 97.7141L240.894 99.3241L241.816 101.023L242.83 101.614L243.607 105.112L245.052 107.648L246.421 109.519L247.999 109.58L248.233 108.167L248.406 107.953C248.295 106.796 248.113 105.647 247.862 104.512C246.701 99.2431 244.034 94.4247 240.185 90.6424Z" stroke="#263238" stroke-width="0.5" stroke-linecap="round" stroke-linejoin="round"/>
<path d="M225.117 93.5604L220.423 92.6306L218.555 93.1136L218.378 94.4459L217.411 93.7777L216.055 94.4177L216.401 96.5871L217.758 97.1707L218.325 95.7499L219.513 96.5066L221.912 97.8107L222.717 99.6018L224.879 101.369L227.5 100.31L227.222 99.3522L226.393 98.3782L225.688 95.8143L226.091 94.5706L225.117 93.5604Z" stroke="#263238" stroke-width="0.5" stroke-linecap="round" stroke-linejoin="round"/>
<path d="M228.937 94.2124L227.907 94.1682L227.222 95.0657L228.092 96.8447L228.933 96.6596L228.937 94.2124Z" stroke="#263238" stroke-width="0.5" stroke-linecap="round" stroke-linejoin="round"/>
<path d="M235.238 94.1038L232.774 93.4276L232.15 92.7474L231.675 93.0573L232.415 94.2527L233.176 95.8546L234.235 96.0277L234.372 95.7258L233.575 94.8806L235.403 95.1543L235.238 94.1038Z" stroke="#263238" stroke-width="0.5" stroke-linecap="round" stroke-linejoin="round"/>
<path d="M221.506 121.703L221.304 122.02L223.378 122.173L224.356 122.906L225.616 122.765L225.914 121.948L224.364 122.02L221.506 121.703Z" stroke="#263238" stroke-width="0.5" stroke-linecap="round" stroke-linejoin="round"/>
<path d="M227.548 121.654L226.272 122.346L226.582 122.821L228.269 122.447L228.478 121.855L227.911 122.053L227.548 121.654Z" stroke="#263238" stroke-width="0.5" stroke-linecap="round" stroke-linejoin="round"/>
<path d="M217.581 67.6199L196.502 83.0313L218.837 12.503L244.666 47.8175L220.572 65.4344" stroke="#263238" stroke-width="0.5" stroke-miterlimit="10"/>
<path d="M222.734 33.2312L231.457 45.157L215.193 57.0465L222.734 33.2312Z" stroke="#263238" stroke-width="0.5" stroke-miterlimit="10"/>
<path d="M222.242 16.8821L220.717 18.001" stroke="#263238" stroke-width="0.5" stroke-miterlimit="10"/>
<path d="M224.138 19.4701L222.609 20.589" stroke="#263238" stroke-width="0.5" stroke-miterlimit="10"/>
<path d="M226.031 22.0581L224.501 23.177" stroke="#263238" stroke-width="0.5" stroke-miterlimit="10"/>
<path d="M227.923 24.6461L226.393 25.765" stroke="#263238" stroke-width="0.5" stroke-miterlimit="10"/>
<path d="M229.815 27.2341L228.285 28.3531" stroke="#263238" stroke-width="0.5" stroke-miterlimit="10"/>
<path d="M231.711 29.8221L230.181 30.941" stroke="#263238" stroke-width="0.5" stroke-miterlimit="10"/>
<path d="M233.603 32.4101L232.073 33.5291" stroke="#263238" stroke-width="0.5" stroke-miterlimit="10"/>
<path d="M235.495 34.9981L233.965 36.1171" stroke="#263238" stroke-width="0.5" stroke-miterlimit="10"/>
<path d="M237.387 37.5862L235.858 38.7051" stroke="#263238" stroke-width="0.5" stroke-miterlimit="10"/>
<path d="M239.279 40.1742L237.75 41.2931" stroke="#263238" stroke-width="0.5" stroke-miterlimit="10"/>
<path d="M241.176 42.7622L239.646 43.8811" stroke="#263238" stroke-width="0.5" stroke-miterlimit="10"/>
<path d="M243.068 45.3502L241.538 46.4651" stroke="#263238" stroke-width="0.5" stroke-miterlimit="10"/>
<path d="M197.226 13.5736L201.643 3.42686L210.58 7.31491L185.077 65.8973L176.143 62.0092L196.099 16.1616" stroke="#263238" stroke-width="0.5" stroke-miterlimit="10"/>
<path d="M209.493 9.81035L207.206 8.81218" stroke="#263238" stroke-width="0.5" stroke-miterlimit="10"/>
<path d="M208.136 12.9256L205.849 11.9315" stroke="#263238" stroke-width="0.5" stroke-miterlimit="10"/>
<path d="M206.779 16.0409L204.493 15.0467" stroke="#263238" stroke-width="0.5" stroke-miterlimit="10"/>
<path d="M205.423 19.1562L203.14 18.162" stroke="#263238" stroke-width="0.5" stroke-miterlimit="10"/>
<path d="M204.066 22.2714L201.783 21.2773" stroke="#263238" stroke-width="0.5" stroke-miterlimit="10"/>
<path d="M202.709 25.3867L200.427 24.3925" stroke="#263238" stroke-width="0.5" stroke-miterlimit="10"/>
<path d="M201.353 28.506L199.07 27.5118" stroke="#263238" stroke-width="0.5" stroke-miterlimit="10"/>
<path d="M200 31.6212L197.713 30.6271" stroke="#263238" stroke-width="0.5" stroke-miterlimit="10"/>
<path d="M198.643 34.7365L196.357 33.7424" stroke="#263238" stroke-width="0.5" stroke-miterlimit="10"/>
<path d="M197.287 37.8518L195 36.8577" stroke="#263238" stroke-width="0.5" stroke-miterlimit="10"/>
<path d="M195.93 40.9671L193.643 39.9729" stroke="#263238" stroke-width="0.5" stroke-miterlimit="10"/>
<path d="M194.573 44.0864L192.287 43.0882" stroke="#263238" stroke-width="0.5" stroke-miterlimit="10"/>
<path d="M193.217 47.2017L190.93 46.2075" stroke="#263238" stroke-width="0.5" stroke-miterlimit="10"/>
<path d="M191.86 50.3169L189.573 49.3228" stroke="#263238" stroke-width="0.5" stroke-miterlimit="10"/>
<path d="M190.503 53.4322L188.217 52.438" stroke="#263238" stroke-width="0.5" stroke-miterlimit="10"/>
<path d="M189.147 56.5474L186.86 55.5533" stroke="#263238" stroke-width="0.5" stroke-miterlimit="10"/>
<path d="M187.79 59.6627L185.507 58.6686" stroke="#263238" stroke-width="0.5" stroke-miterlimit="10"/>
<path d="M186.433 62.782L184.151 61.7879" stroke="#263238" stroke-width="0.5" stroke-miterlimit="10"/>
<path d="M132.448 14.5798H131.26C131.179 14.5798 130.97 14.5798 130.652 14.612C123.043 15.0339 115.411 14.7969 107.842 13.9037C95.6723 12.4628 95.4629 12.6479 94.6859 13.3321L94.541 13.4569C93.7359 14.0969 91.8639 21.8126 91.1996 24.6381L89.1867 21.3497C89.1466 21.2831 89.0817 21.2351 89.0063 21.2162C88.9308 21.1974 88.8509 21.2092 88.7842 21.2491C88.7511 21.2689 88.7223 21.2951 88.6995 21.3262C88.6767 21.3573 88.6603 21.3926 88.6513 21.4301C88.6423 21.4675 88.6409 21.5064 88.6471 21.5445C88.6533 21.5825 88.6671 21.6189 88.6875 21.6516L91.0628 25.5598C91.0898 25.6026 91.1272 25.638 91.1715 25.6627C91.2159 25.6873 91.2657 25.7003 91.3164 25.7006H91.3848C91.4428 25.6911 91.4967 25.6646 91.5397 25.6245C91.5827 25.5844 91.6128 25.5324 91.6264 25.4752C92.669 20.9633 94.38 14.3907 94.9194 13.9198L95.0885 13.7749C95.6481 13.2838 95.8937 13.0826 107.786 14.4913C115.388 15.3905 123.053 15.6275 130.696 15.1997L131.272 15.1715H132.166V16.9264C132.161 16.9681 132.165 17.0104 132.178 17.0505C132.19 17.0906 132.211 17.1275 132.239 17.1589C132.267 17.1903 132.301 17.2155 132.34 17.2327C132.378 17.2499 132.42 17.2588 132.462 17.2588C132.504 17.2588 132.545 17.2499 132.584 17.2327C132.622 17.2155 132.656 17.1903 132.684 17.1589C132.712 17.1275 132.733 17.0906 132.746 17.0505C132.758 17.0104 132.762 16.9681 132.758 16.9264V14.8777C132.758 14.8375 132.75 14.7978 132.734 14.7608C132.718 14.7239 132.695 14.6905 132.666 14.6627C132.637 14.6349 132.603 14.6132 132.565 14.599C132.528 14.5847 132.488 14.5782 132.448 14.5798Z" fill="#263238"/>
<path d="M94.7262 25.7047C94.7992 25.7041 94.8695 25.6767 94.9237 25.6278C94.9779 25.5788 95.0122 25.5116 95.0201 25.439L95.8695 16.7734C95.8716 16.6979 95.8449 16.6244 95.7949 16.5679C95.7449 16.5113 95.6752 16.4758 95.6 16.4687C95.5248 16.4615 95.4497 16.4832 95.3898 16.5293C95.33 16.5754 95.2899 16.6425 95.2777 16.7171L94.4283 25.3786C94.4215 25.4564 94.4456 25.5337 94.4953 25.594C94.545 25.6542 94.6163 25.6925 94.694 25.7006L94.7262 25.7047Z" fill="#263238"/>
<path d="M99.384 18.327C99.3099 18.3098 99.2319 18.322 99.1666 18.361C99.1013 18.4 99.0537 18.4629 99.0338 18.5363L98.6835 19.933C98.634 19.8821 98.5688 19.8494 98.4983 19.8404L97.1054 19.7438L98.3695 17.7756C98.4122 17.71 98.4271 17.63 98.4109 17.5534C98.3946 17.4768 98.3486 17.4098 98.283 17.3671C98.2173 17.3244 98.1373 17.3095 98.0607 17.3257C97.9841 17.342 97.917 17.388 97.8743 17.4536L96.3445 19.8323C96.3191 19.8764 96.3057 19.9264 96.3057 19.9772C96.3057 20.0281 96.3191 20.0781 96.3445 20.1221C96.3665 20.1678 96.4 20.207 96.4416 20.2359C96.4832 20.2648 96.5316 20.2825 96.5821 20.2871L98.45 20.4562H98.4782C98.5088 20.4623 98.5402 20.4623 98.5708 20.4562L98.0233 22.6578C98.0175 22.7246 98.0347 22.7913 98.072 22.8469C98.1094 22.9026 98.1646 22.9438 98.2286 22.9637H98.3011C98.3671 22.9637 98.4312 22.9415 98.4831 22.9006C98.5349 22.8597 98.5715 22.8025 98.5869 22.7383L99.6054 18.6611C99.6177 18.5877 99.6016 18.5125 99.5605 18.4505C99.5194 18.3885 99.4563 18.3444 99.384 18.327Z" fill="#263238"/>
<path d="M90.012 18.2667C90.0625 18.287 90.1177 18.2925 90.1712 18.2825C90.2247 18.2725 90.2742 18.2475 90.314 18.2103L91.9243 16.7774L92.0249 18.2948C92.03 18.3696 92.063 18.4397 92.1175 18.4912C92.172 18.5426 92.2439 18.5717 92.3188 18.5725H92.3389C92.4176 18.5664 92.4907 18.5296 92.5427 18.4702C92.5946 18.4108 92.6212 18.3334 92.6167 18.2546L92.4637 16.1214C92.4613 16.0661 92.4429 16.0127 92.4108 15.9677C92.3786 15.9227 92.3341 15.888 92.2826 15.8678C92.2312 15.8463 92.1749 15.8398 92.12 15.8491C92.0651 15.8583 92.014 15.883 91.9726 15.9201L90.3623 17.3731L90.2133 15.9684C90.2013 15.8933 90.161 15.8256 90.1007 15.7792C90.0404 15.7329 89.9646 15.7113 89.8889 15.7191C89.8132 15.7268 89.7433 15.7632 89.6936 15.8208C89.6439 15.8784 89.6181 15.9528 89.6215 16.0288L89.8349 18.0131C89.8379 18.0676 89.8561 18.1203 89.8874 18.1651C89.9187 18.2098 89.9618 18.245 90.012 18.2667Z" fill="#263238"/>
<path d="M104.875 18.8583C104.915 18.7923 104.927 18.7135 104.91 18.6384C104.893 18.5634 104.847 18.4979 104.783 18.4558C104.662 18.3834 104.738 17.7917 104.783 17.4415C104.867 16.7976 104.964 16.0691 104.67 15.5257C104.626 15.4284 104.554 15.3461 104.464 15.2889C104.374 15.2317 104.269 15.2021 104.163 15.2037C103.716 15.2037 103.208 15.9161 102.794 16.6607V15.1715C102.799 15.1298 102.795 15.0875 102.782 15.0474C102.769 15.0073 102.748 14.9703 102.72 14.9389C102.692 14.9075 102.658 14.8824 102.62 14.8652C102.581 14.848 102.54 14.8391 102.498 14.8391C102.456 14.8391 102.414 14.848 102.376 14.8652C102.338 14.8824 102.303 14.9075 102.275 14.9389C102.247 14.9703 102.226 15.0073 102.214 15.0474C102.201 15.0875 102.197 15.1298 102.202 15.1715V17.9286C102.203 17.9958 102.227 18.0607 102.27 18.1125C102.313 18.1644 102.372 18.2003 102.438 18.2143C102.504 18.2283 102.572 18.2196 102.633 18.1896C102.693 18.1597 102.741 18.1102 102.77 18.0493C103.253 16.9626 103.877 15.9564 104.15 15.8115C104.352 16.1858 104.267 16.8137 104.195 17.3651C104.106 18.0413 104.022 18.6812 104.464 18.975C104.511 19.0049 104.566 19.0203 104.621 19.0193C104.674 19.0173 104.726 19.0014 104.77 18.9731C104.815 18.9448 104.851 18.9052 104.875 18.8583Z" fill="#263238"/>
<path d="M105.604 21.7563C105.612 21.8288 105.647 21.8957 105.702 21.9442C105.756 21.9927 105.827 22.0195 105.9 22.0195C105.973 22.0195 106.043 21.9927 106.098 21.9442C106.152 21.8957 106.187 21.8288 106.196 21.7563V21.1163H107.033C107.111 21.1163 107.186 21.0854 107.241 21.0303C107.296 20.9752 107.327 20.9004 107.327 20.8225C107.327 20.7442 107.296 20.669 107.241 20.6133C107.186 20.5576 107.111 20.5257 107.033 20.5247H106.196V19.8324C106.2 19.7906 106.196 19.7483 106.184 19.7082C106.171 19.6681 106.15 19.6312 106.122 19.5998C106.094 19.5684 106.06 19.5433 106.022 19.5261C105.983 19.5089 105.942 19.5 105.9 19.5C105.858 19.5 105.816 19.5089 105.778 19.5261C105.739 19.5433 105.705 19.5684 105.677 19.5998C105.649 19.6312 105.628 19.6681 105.616 19.7082C105.603 19.7483 105.599 19.7906 105.604 19.8324V20.5247H104.766C104.688 20.5257 104.613 20.5576 104.558 20.6133C104.503 20.669 104.473 20.7442 104.473 20.8225C104.473 20.9004 104.503 20.9752 104.559 21.0303C104.614 21.0854 104.688 21.1163 104.766 21.1163H105.604V21.7563Z" fill="#263238"/>
<path d="M115.869 18.9912C115.64 19.1141 115.459 19.3111 115.356 19.5501C115.253 19.7892 115.234 20.0561 115.302 20.3073C115.431 20.8348 115.702 21.3167 116.087 21.6999C116.526 22.2111 116.562 22.3198 116.365 22.5331C116.051 22.8792 115.016 22.3399 114.267 21.7804C114.588 21.2266 114.729 20.5865 114.67 19.9491C114.617 19.3011 114.4 18.9228 114.03 18.8302C113.414 18.6692 112.75 19.4379 112.645 19.5989L113.136 19.925C113.249 19.7559 113.7 19.3574 113.881 19.4017C113.933 19.4017 114.046 19.5587 114.082 19.9974C114.117 20.4036 114.053 20.8121 113.896 21.1884C113.739 21.5646 113.493 21.8975 113.18 22.1588C113.063 22.2648 112.922 22.3405 112.769 22.3791C112.616 22.4177 112.456 22.418 112.303 22.3801C111.787 22.1829 111.872 20.903 111.993 20.3113C112.012 20.2401 112.003 20.1643 111.969 20.0991C111.935 20.0338 111.877 19.9838 111.808 19.959C111.738 19.9341 111.662 19.9363 111.594 19.9651C111.526 19.9938 111.472 20.047 111.441 20.1141C111.123 20.7018 110.266 21.9052 109.67 21.869C109.605 21.8638 109.542 21.8386 109.492 21.7968C109.442 21.7551 109.405 21.6987 109.388 21.6355C109.163 21.1163 109.388 19.9692 109.791 19.45C109.827 19.4033 109.869 19.3613 109.915 19.3252C109.986 19.4706 110.031 19.6273 110.048 19.7881L110.636 19.7237C110.612 19.5265 110.507 18.8624 110.076 18.7336C109.827 18.6611 109.577 18.7779 109.336 19.0757C108.824 19.6955 108.486 21.0881 108.828 21.869C108.889 22.0319 108.995 22.174 109.135 22.2782C109.274 22.3824 109.44 22.4443 109.613 22.4566C110.25 22.5049 110.853 21.9374 111.292 21.386C111.312 22.0179 111.481 22.7062 112.077 22.9356C112.206 22.9838 112.342 23.0097 112.48 23.012C112.855 22.9919 113.214 22.8507 113.502 22.6096C113.648 22.4998 113.783 22.3757 113.905 22.2393C114.392 22.6096 115.306 23.2093 116.051 23.2093C116.187 23.2152 116.324 23.1912 116.45 23.1391C116.577 23.087 116.69 23.0079 116.783 22.9074C117.359 22.2755 116.892 21.7281 116.514 21.2974C116.203 20.993 115.979 20.6108 115.865 20.1906C115.822 20.0632 115.824 19.9247 115.871 19.7985C115.918 19.6723 116.007 19.5663 116.123 19.4983C116.263 19.4323 116.419 19.4068 116.572 19.4246C116.726 19.4424 116.872 19.5027 116.993 19.5989C117.197 19.7785 117.363 19.9976 117.48 20.2429L118.055 20.098C117.921 19.7429 117.7 19.4274 117.411 19.1803C117.202 19.0003 116.943 18.8862 116.669 18.8525C116.395 18.8189 116.116 18.8671 115.869 18.9912Z" fill="#263238"/>
<path d="M121.369 19.8726C120.909 20.1917 120.431 20.4821 119.936 20.742C119.283 21.0962 118.889 21.3135 118.849 21.6758C118.842 21.7721 118.859 21.8687 118.899 21.9567C118.939 22.0446 119.001 22.121 119.078 22.1789C119.513 22.5532 120.66 22.6256 121.469 22.6256C121.836 22.6256 122.134 22.6256 122.275 22.6256L122.242 22.034C121.324 22.0863 119.899 22.034 119.481 21.7401C119.716 21.5655 119.967 21.4119 120.229 21.2813C120.746 21.0111 121.245 20.7087 121.723 20.3757C122.504 19.8162 122.886 19.3011 122.882 18.806C122.857 18.5761 122.777 18.3557 122.649 18.1631C122.52 17.9706 122.348 17.8115 122.146 17.6992C122.057 17.6337 121.953 17.5905 121.844 17.573C121.735 17.5555 121.623 17.5642 121.518 17.5985C120.861 17.8159 120.431 19.0233 120.35 19.2648L120.914 19.45C121.067 18.9831 121.425 18.2425 121.719 18.162C121.735 18.1532 121.753 18.1486 121.771 18.1486C121.79 18.1486 121.808 18.1532 121.824 18.162C122.146 18.3914 122.307 18.5967 122.307 18.7859C122.307 18.975 122.122 19.3413 121.369 19.8726Z" fill="#263238"/>
<path d="M128.184 22.042C128.147 22.0911 128.1 22.1316 128.046 22.1609C127.992 22.1901 127.932 22.2074 127.87 22.2116C127.809 22.2158 127.747 22.2068 127.69 22.1852C127.632 22.1636 127.58 22.1299 127.536 22.0863C127.379 21.9454 127.436 21.6556 127.536 21.1928C127.695 20.682 127.724 20.1398 127.621 19.615C127.601 19.5158 127.552 19.4247 127.48 19.3531C127.409 19.2816 127.317 19.2327 127.218 19.2125C126.739 19.1401 126.01 19.9853 125.306 20.9714L125.515 19.1723L124.928 19.1039L124.577 22.1467C124.569 22.2137 124.583 22.2816 124.619 22.3391C124.654 22.3966 124.708 22.4401 124.772 22.4623C124.836 22.4845 124.905 22.4841 124.969 22.461C125.032 22.438 125.086 22.3938 125.121 22.3358C125.874 21.1284 126.731 20.0417 127.073 19.8324C127.132 20.2466 127.098 20.6687 126.973 21.068C126.848 21.6073 126.719 22.1628 127.15 22.5451C127.335 22.7167 127.577 22.8141 127.83 22.8188C127.983 22.8159 128.134 22.781 128.272 22.7166C128.411 22.6521 128.534 22.5595 128.635 22.4445L128.184 22.042Z" fill="#263238"/>
<path d="M130.236 16.8191L129.247 23.5408L129.833 23.6269L130.822 16.9052L130.236 16.8191Z" fill="#263238"/>
<path d="M95.9702 35.2598C95.9149 35.2775 95.8563 35.2821 95.7989 35.273C95.7416 35.2639 95.6872 35.2414 95.6401 35.2075C95.467 35.0867 95.5676 34.0604 95.6401 33.509C95.7649 32.229 95.9058 30.7761 94.9557 30.5144C94.8277 30.4812 94.6936 30.4792 94.5647 30.5087C94.4358 30.5381 94.3159 30.598 94.215 30.6835C93.6312 31.1262 93.1481 32.3417 92.806 33.5009C92.806 32.4142 92.7778 31.1826 92.7657 30.3172H92.1739L92.2101 33.1346C92.2101 34.5635 92.2343 35.3322 92.2705 35.7428C92.2705 35.8434 92.2423 35.9038 92.2423 35.9239H92.2907C92.3309 36.2097 92.3994 36.2217 92.5201 36.2217H92.5403C92.616 36.2171 92.6875 36.1852 92.7415 36.1319C92.7955 36.0786 92.8284 36.0076 92.8341 35.9319C92.8663 35.5898 93.6876 31.7984 94.5934 31.1665C94.6207 31.1428 94.6529 31.1256 94.6877 31.1158C94.7225 31.1061 94.759 31.1041 94.7947 31.1101C95.2697 31.2429 95.1409 32.5349 95.0483 33.4768C94.9396 34.5957 94.8551 35.4892 95.3704 35.7549C95.4933 35.8305 95.6317 35.8774 95.7753 35.892C95.919 35.9066 96.064 35.8887 96.1997 35.8394C96.5372 35.6762 96.7974 35.3872 96.9243 35.0344L96.3647 34.8331C96.2881 35.0177 96.1482 35.1689 95.9702 35.2598Z" fill="#263238"/>
<path d="M103.08 33.6015C103.088 33.546 103.08 33.4893 103.057 33.4381C103.034 33.3868 102.997 33.343 102.951 33.3117L99.8389 31.1906L99.5048 31.6817L102.105 33.4526L99.1626 34.3341L99.3316 34.9016L102.87 33.831C102.922 33.8141 102.969 33.7842 103.005 33.7439C103.042 33.7037 103.068 33.6546 103.08 33.6015Z" fill="#263238"/>
<path d="M103.605 34.634L100.136 35.9075L100.34 36.4629L103.809 35.1895L103.605 34.634Z" fill="#263238"/>
<path d="M108.989 34.966C108.885 34.8332 109.054 34.1087 109.159 33.674C109.35 33.0697 109.423 32.4344 109.376 31.8024C109.364 31.6608 109.308 31.5265 109.216 31.4188C109.123 31.3111 108.999 31.2354 108.861 31.2027C108.027 31.0296 106.743 32.6879 106.123 33.5774V31.9996H105.531V34.5192C105.262 35.0344 105.217 35.3644 105.374 35.5818C105.42 35.6443 105.481 35.6943 105.552 35.7274C105.622 35.7604 105.699 35.7754 105.777 35.771C105.824 35.7771 105.871 35.7771 105.918 35.771C105.98 35.7534 106.035 35.7161 106.074 35.6645C106.114 35.6129 106.135 35.55 106.135 35.4852V34.6802C106.224 34.5232 106.345 34.326 106.51 34.0845C107.685 32.3619 108.571 31.734 108.752 31.7863C108.783 31.8271 108.801 31.8761 108.804 31.9272C108.83 32.472 108.759 33.017 108.595 33.5371C108.41 34.3099 108.265 34.9217 108.506 35.288C108.551 35.3576 108.61 35.4167 108.679 35.4612C108.749 35.5057 108.827 35.5345 108.909 35.5456C109.899 35.7307 110.415 34.648 110.435 34.6037L109.895 34.3542C109.895 34.3542 109.545 35.0585 108.989 34.966Z" fill="#263238"/>
<path d="M112.758 34.1086C112.565 34.0585 112.364 34.0565 112.171 34.1029C111.978 34.1492 111.799 34.2424 111.651 34.3743C111.317 34.6507 111.077 35.0231 110.962 35.4409C110.688 36.3988 111.051 37.3165 111.767 37.5258C111.866 37.551 111.967 37.5645 112.069 37.566C112.705 37.566 113.325 37.0106 113.563 36.1815C113.849 35.2316 113.486 34.3179 112.758 34.1086ZM113.003 36.0325C112.83 36.6524 112.343 37.079 111.944 36.9663C111.546 36.8536 111.357 36.2338 111.542 35.614C111.62 35.3119 111.789 35.0409 112.025 34.8372C112.151 34.7314 112.308 34.6693 112.472 34.6601C112.515 34.6544 112.558 34.6544 112.601 34.6601C112.995 34.7929 113.18 35.4127 113.003 36.0325Z" fill="#263238"/>
<path d="M115.95 33.1347C116.223 33.1347 116.445 32.8337 116.445 32.4625C116.445 32.0913 116.223 31.7903 115.95 31.7903C115.677 31.7903 115.455 32.0913 115.455 32.4625C115.455 32.8337 115.677 33.1347 115.95 33.1347Z" fill="#263238"/>
<path d="M116.019 34.9016C116.292 34.9016 116.514 34.6007 116.514 34.2294C116.514 33.8582 116.292 33.5573 116.019 33.5573C115.745 33.5573 115.523 33.8582 115.523 34.2294C115.523 34.6007 115.745 34.9016 116.019 34.9016Z" fill="#263238"/>
<path d="M121.804 28.0512L121.401 27.6044C121.349 27.6487 116.107 32.2975 119.771 39.9126L120.302 39.655C116.856 32.4585 121.598 28.2283 121.804 28.0512Z" fill="#263238"/>
<path d="M128.176 28.015C128.217 28.0633 132.17 33.026 128.152 39.6872L128.655 39.9931C132.89 32.9616 128.675 27.6769 128.631 27.6246L128.176 28.015Z" fill="#263238"/>
<path d="M122.991 33.2152C123.156 32.865 123.325 32.5188 123.494 32.221C123.551 32.1225 123.617 32.0295 123.692 31.9433C123.861 32.0399 124.094 32.7885 124.219 33.5291L124.799 33.4285C124.714 32.8449 124.444 31.4683 123.8 31.3476C123.498 31.2872 123.221 31.4804 122.995 31.9111C122.963 31.9674 122.935 32.0318 122.902 32.0882C122.823 31.871 122.684 31.681 122.5 31.5408C122.392 31.4447 122.261 31.3785 122.12 31.3488C121.979 31.3192 121.832 31.3271 121.695 31.3717C120.926 31.6414 120.555 33.1145 120.487 33.3842L121.067 33.517C121.2 32.9374 121.554 32.0278 121.892 31.9071C121.928 31.9071 122.005 31.8708 122.15 31.9876C122.27 32.1297 122.357 32.2973 122.404 32.4779C122.451 32.6584 122.456 32.8472 122.419 33.03L122.347 33.1789C121.828 34.2858 121.232 35.5415 120.62 35.4248C120.506 35.4168 120.394 35.3855 120.292 35.3329C120.191 35.2803 120.101 35.2075 120.028 35.1189C119.979 35.0291 119.966 34.9241 119.992 34.8251L119.436 34.6239C119.392 34.756 119.377 34.8958 119.39 35.0344C119.403 35.173 119.445 35.3073 119.513 35.4288C119.624 35.5967 119.771 35.7374 119.944 35.8405C120.117 35.9437 120.311 36.0065 120.511 36.0245C120.576 36.039 120.642 36.0457 120.708 36.0447C121.308 36.0447 121.775 35.5254 122.19 34.8372C122.142 35.3081 122.17 35.6824 122.423 35.9038C122.642 36.089 122.922 36.1878 123.208 36.1815C123.331 36.1822 123.452 36.1673 123.571 36.1372C123.814 36.0916 124.044 35.993 124.244 35.8483C124.445 35.7035 124.611 35.5163 124.73 35.3L124.187 35.0666C124.102 35.1946 123.992 35.3044 123.864 35.3894C123.736 35.4744 123.593 35.533 123.442 35.5617C123.331 35.5959 123.213 35.6028 123.099 35.5818C122.985 35.5608 122.877 35.5124 122.786 35.4409C122.665 35.3363 122.786 34.5957 122.85 34.2013C122.911 33.8873 122.963 33.5452 122.991 33.2152Z" fill="#263238"/>
<path d="M127.472 35.4812C127.39 35.4531 127.301 35.4547 127.22 35.4856C127.139 35.5165 127.071 35.5747 127.029 35.6502C126.806 35.9117 126.565 36.1577 126.308 36.3868L126.18 36.5116C126.122 36.0434 126.04 35.5785 125.934 35.1189L125.354 35.2518C125.496 35.8493 125.587 36.458 125.624 37.071C125.358 37.3648 125.278 37.5459 125.354 37.7351C125.383 37.8047 125.434 37.8635 125.498 37.9032C125.562 37.9429 125.637 37.9615 125.713 37.9565C125.779 37.9593 125.845 37.9457 125.904 37.9169C125.964 37.8881 126.016 37.845 126.055 37.7915C126.144 37.6501 126.194 37.4876 126.2 37.3206C126.361 37.1555 126.562 36.9664 126.719 36.8174C126.876 36.6685 127.041 36.5075 127.178 36.3667C127.178 36.7691 127.158 37.2964 127.118 37.7794L127.709 37.8277C127.895 35.6381 127.661 35.5496 127.472 35.4812Z" fill="#263238"/>
<path d="M135 27.5521C135.205 20.7782 138.885 14.3827 138.921 14.3223L138.41 14.0244C138.374 14.0888 134.618 20.6051 134.408 27.536C134.191 34.5273 138.229 38.1577 138.398 38.3066L138.8 37.8639C138.752 37.8277 134.791 34.2697 135 27.5521Z" fill="#263238"/>
<path d="M164.952 14.2539C164.992 14.3223 169.042 21.0036 167.468 26.6868C166.465 30.1775 164.459 33.297 161.699 35.6582L162.057 36.1292C164.935 33.7026 167.018 30.4677 168.035 26.8437C169.678 20.9151 165.62 14.2297 165.455 13.9641L164.952 14.2539Z" fill="#263238"/>
<path d="M140.857 27.54C140.415 27.6527 140.012 28.345 139.686 29.15L139.738 28.345L139.147 28.3088L138.937 31.6334C138.931 31.7071 138.954 31.7803 139 31.8379C139.047 31.8955 139.113 31.9332 139.187 31.9433H139.231C139.298 31.9432 139.363 31.9206 139.416 31.8789C139.468 31.8373 139.505 31.7791 139.521 31.7138C139.899 30.1039 140.56 28.3209 140.966 28.1277C141.188 28.4295 141.232 30.1119 141.059 31.8306L141.651 31.8909C141.759 30.7921 141.948 28.188 141.328 27.6527C141.266 27.5959 141.19 27.5557 141.107 27.536C141.025 27.5163 140.939 27.5177 140.857 27.54Z" fill="#263238"/>
<path d="M146.026 27.9104H146.095V27.3187H146.014C144.907 27.3388 144.581 27.214 144.493 27.1577C144.595 26.9947 144.714 26.8423 144.847 26.7029C145.249 26.2239 145.898 25.4954 145.334 24.8112C145.259 24.6971 145.152 24.6067 145.028 24.5504C144.903 24.4942 144.765 24.4743 144.63 24.4932C144.046 24.5898 143.688 25.4954 143.623 25.6725L144.179 25.8778C144.312 25.5196 144.581 25.101 144.726 25.0728C144.766 25.0728 144.831 25.1251 144.875 25.1815C145.084 25.435 144.875 25.749 144.4 26.3084C144.136 26.5354 143.956 26.8444 143.889 27.1859C143.889 27.2553 143.903 27.3239 143.931 27.3876C143.959 27.4512 143.999 27.5086 144.05 27.5562C144.295 27.7977 144.855 27.9104 145.793 27.9104H146.026Z" fill="#263238"/>
<path d="M140.27 20.7621C140.346 20.77 140.422 20.7473 140.482 20.699C140.542 20.6508 140.58 20.5808 140.588 20.5045C140.696 19.6513 141.216 17.4174 142.287 17.3691C142.354 17.3623 142.423 17.3714 142.487 17.3959C142.55 17.4204 142.607 17.4595 142.653 17.51C143.253 18.1218 143.112 20.251 143.055 21.0519C143.055 21.2371 143.035 21.3779 143.035 21.4544H143.627C143.627 21.382 143.627 21.2532 143.647 21.0841C143.716 20.0497 143.857 17.8924 143.072 17.0914C142.968 16.9834 142.843 16.8991 142.704 16.8442C142.565 16.7893 142.416 16.7652 142.266 16.7734C141.497 16.8097 140.978 17.4416 140.632 18.1741L140.664 16.2945H140.072L140 20.4683C140 20.5422 140.027 20.6135 140.077 20.668C140.127 20.7224 140.196 20.756 140.27 20.7621Z" fill="#263238"/>
<path d="M148.845 19.8323H149.436V18.5725H149.988V17.9809H149.436V17.2121H148.845V17.9809H148.076V18.5725H148.845V19.8323Z" fill="#263238"/>
<path d="M151.969 20.6212C152.044 20.6172 152.115 20.5845 152.168 20.53C152.22 20.4754 152.249 20.403 152.25 20.3274V20.0054C152.31 19.2137 152.656 18.4708 153.225 17.9165C154.215 16.9264 154.597 16.862 154.738 16.9063C154.879 16.9505 155 17.2363 155.056 17.675C155.183 18.6253 155.252 19.5822 155.266 20.5407H155.857C155.845 19.5566 155.774 18.5741 155.644 17.5985C155.552 16.8902 155.318 16.4796 154.928 16.3468C154.424 16.1778 153.788 16.5199 152.806 17.502C152.596 17.7103 152.41 17.9411 152.25 18.1902V16.6487H151.659V20.0014C151.651 20.1194 151.651 20.2376 151.659 20.3556C151.667 20.431 151.703 20.5005 151.761 20.5499C151.819 20.5992 151.893 20.6248 151.969 20.6212Z" fill="#263238"/>
<path d="M158.623 18.6852H156.783V19.2769H158.623V18.6852Z" fill="#263238"/>
<path d="M161.18 17.3731L161.228 20.3314H161.82L161.747 15.8719C161.746 15.8036 161.722 15.7377 161.678 15.6856C161.634 15.6334 161.573 15.5982 161.506 15.5861C161.439 15.5747 161.37 15.5864 161.311 15.6193C161.251 15.6522 161.205 15.7044 161.18 15.7672C161.18 15.7672 160.894 16.4796 160.68 17.0471C160.492 17.4315 160.231 17.7759 159.911 18.0614L160.314 18.5041C160.665 18.1795 160.958 17.7969 161.18 17.3731Z" fill="#263238"/>
<path d="M145.564 16.7654C146.185 16.7534 146.804 16.6928 147.415 16.5843L147.343 16.0007C146.53 16.1706 145.696 16.2087 144.871 16.1134C145.156 15.8068 145.503 15.5652 145.89 15.405C146.473 15.1112 147.198 14.7449 146.969 13.8836C146.739 13.0222 146.232 12.9377 146.018 12.9176C145.795 12.9008 145.571 12.9517 145.376 13.0636C145.182 13.1756 145.025 13.3435 144.927 13.5455L145.455 13.8071C145.5 13.7142 145.572 13.6364 145.66 13.5829C145.749 13.5294 145.851 13.5024 145.954 13.5052C146.22 13.5334 146.357 13.8473 146.393 14.0365C146.485 14.3827 146.312 14.5276 145.62 14.8777C145.149 15.0744 144.729 15.3759 144.392 15.7592C144.31 15.8415 144.256 15.9484 144.239 16.0637C144.223 16.1791 144.244 16.2968 144.299 16.3991C144.448 16.6728 144.927 16.7654 145.564 16.7654Z" fill="#263238"/>
<path d="M168.426 11.7383C168.157 11.6672 167.872 11.6929 167.621 11.8107L167.903 11.0339L170.29 10.5711L170.177 9.99149L167.625 10.4865C167.574 10.4957 167.527 10.5181 167.489 10.5513C167.45 10.5845 167.42 10.6275 167.403 10.6757L166.763 12.4426C166.742 12.5058 166.742 12.5741 166.763 12.6373C166.784 12.7005 166.825 12.7551 166.88 12.7928C166.936 12.8287 167.003 12.8446 167.069 12.838C167.136 12.8315 167.198 12.8028 167.246 12.7566C167.448 12.5674 167.951 12.2092 168.249 12.3018C168.446 12.3621 168.547 12.656 168.595 12.8894C168.768 13.7306 168.378 14.4511 167.911 14.6362C167.544 14.7811 167.174 14.5879 166.872 14.0888L166.365 14.3947C166.486 14.6427 166.671 14.8545 166.899 15.0092C167.128 15.1638 167.394 15.2559 167.669 15.2762C167.827 15.2766 167.983 15.2451 168.128 15.1836C168.833 14.9059 169.416 13.9278 169.175 12.7687C169.158 12.5442 169.08 12.3288 168.947 12.1467C168.815 11.9647 168.634 11.8232 168.426 11.7383Z" fill="#263238"/>
<path d="M163.365 23.1449H138.442V23.7365H163.365V23.1449Z" fill="#263238"/>
<path d="M148.49 29.5726H144.605V30.1643H148.49V29.5726Z" fill="#263238"/>
<path d="M151.465 27.9425C151.425 27.7413 151.328 27.2019 150.914 27.1617C150.439 27.1094 150.064 27.8177 149.827 28.4215L150.374 28.6388C150.489 28.352 150.64 28.0813 150.825 27.8338C150.848 27.9092 150.867 27.9858 150.882 28.0633C151.091 29.2224 150.129 29.9187 149.553 30.3333L149.388 30.4541C149.319 30.4997 149.266 30.5656 149.235 30.6427C149.205 30.7197 149.199 30.8043 149.219 30.8847C149.271 31.0578 149.372 31.42 152.085 31.6535L152.138 31.0658C151.417 31.0104 150.701 30.9014 149.996 30.7398C150.624 30.2689 151.727 29.4036 151.465 27.9425Z" fill="#263238"/>
<path d="M156.123 31.086C156.01 31.1464 155.95 31.1584 155.942 31.1705C155.829 30.9894 155.942 30.1401 156.014 29.633C156.096 29.135 156.144 28.6321 156.159 28.1277C156.159 27.7252 155.982 27.5883 155.829 27.5521C155.676 27.5159 155.314 27.4233 154.13 29.3915L154.533 27.3791L153.953 27.2623L153.148 31.1464C153.134 31.216 153.146 31.2884 153.18 31.3504C153.215 31.4124 153.271 31.4599 153.337 31.4844C153.405 31.5074 153.478 31.5058 153.544 31.4801C153.61 31.4543 153.666 31.406 153.7 31.3436C154.236 30.2914 154.856 29.2834 155.552 28.3289C155.531 28.7032 155.475 29.1339 155.419 29.5364C155.274 30.5909 155.169 31.3556 155.592 31.6454C155.684 31.7061 155.792 31.7383 155.902 31.738C156.077 31.7295 156.247 31.6769 156.397 31.5851C157.089 31.2415 157.712 30.7751 158.237 30.2086L157.778 29.8061C157.305 30.3257 156.745 30.7588 156.123 31.086Z" fill="#263238"/>
<path d="M160.922 29.2264L160.986 28.6388L160.012 28.5301L160.169 27.9345L159.597 27.7855L159.42 28.4657L158.575 28.3691L158.51 28.9568L159.267 29.0413L158.925 30.3293L159.501 30.4822L159.859 29.1097L160.922 29.2264Z" fill="#263238"/>
<path d="M163.293 31.1946C163.674 31.119 164.025 30.9347 164.304 30.664C164.582 30.3933 164.776 30.0478 164.863 29.6692C164.93 29.4789 164.941 29.2738 164.896 29.0772C164.851 28.8807 164.752 28.7008 164.609 28.5583C164.239 28.2202 163.595 28.2162 163.043 28.2927C163.328 27.8349 163.451 27.2951 163.394 26.7592C163.394 26.6022 163.329 26.1273 162.951 26.0589C162.572 25.9904 162.146 26.4614 161.63 27.4595L162.158 27.7252C162.33 27.3703 162.544 27.0366 162.794 26.731C162.794 26.7552 162.794 26.7833 162.794 26.8196C162.826 27.153 162.768 27.4889 162.626 27.7925C162.485 28.096 162.265 28.3563 161.989 28.5463C161.928 28.5853 161.883 28.645 161.862 28.7144C161.841 28.7839 161.846 28.8585 161.876 28.9246C161.907 28.9903 161.961 29.0423 162.028 29.0706C162.095 29.0988 162.17 29.1013 162.238 29.0775C162.729 28.9165 163.849 28.675 164.195 28.997C164.235 29.0333 164.36 29.146 164.267 29.5364C164.207 29.8077 164.068 30.0552 163.867 30.2477C163.666 30.4403 163.414 30.5695 163.14 30.6191C162.391 30.7962 161.582 30.5547 161.3 30.2166L160.845 30.5949C161.081 30.8263 161.363 31.0059 161.672 31.1223C161.981 31.2388 162.311 31.2894 162.641 31.2711C162.86 31.2717 163.079 31.246 163.293 31.1946Z" fill="#263238"/>
<path d="M54.0741 61.3733V28.345" stroke="#263238" stroke-width="0.5" stroke-linecap="round" stroke-linejoin="round"/>
<path d="M54.0781 41.8485L64.6176 32.712" stroke="#263238" stroke-width="0.5" stroke-linecap="round" stroke-linejoin="round"/>
<path d="M56.8196 24.952C57.1317 26.1099 57.3114 27.2995 57.355 28.498C57.3906 29.8263 57.1124 31.1444 56.5431 32.3451C55.9737 33.5458 55.1292 34.5954 54.078 35.4087C54.078 35.4087 51.3848 32.712 51.26 27.9143C51.1352 23.1167 54.4243 18.8946 54.4243 18.8946C55.13 20.2141 55.7317 21.5868 56.2238 22.9999" stroke="#263238" stroke-width="0.5" stroke-linecap="round" stroke-linejoin="round"/>
<path d="M60.0523 36.2459C60.0523 36.2459 59.4645 32.7321 62.1578 30.611C64.851 28.4899 71.417 29.5565 71.417 29.5565C71.417 29.5565 69.537 33.4285 67.0773 35.6421C64.6175 37.8558 61.103 37.6304 60.0523 36.2459Z" stroke="#263238" stroke-width="0.5" stroke-linecap="round" stroke-linejoin="round"/>
<path d="M53.9614 51.6854L46.8156 45.153" stroke="#263238" stroke-width="0.5" stroke-linecap="round" stroke-linejoin="round"/>
<path d="M49.9758 48.3769C49.9758 48.3769 51.3848 45.4468 49.9758 43.2975C48.5668 41.1482 41.5459 41.1442 41.5459 41.1442C41.5459 41.1442 41.6626 46.8153 44.2391 48.4776C46.8156 50.1398 49.9758 48.3769 49.9758 48.3769Z" stroke="#263238" stroke-width="0.5" stroke-linecap="round" stroke-linejoin="round"/>
<path d="M54.1948 43.7201L48.7279 36.8215" stroke="#263238" stroke-width="0.5" stroke-linecap="round" stroke-linejoin="round"/>
<path d="M51.0708 39.4658C51.0708 39.4658 52.1135 37.0509 51.0708 35.296C50.0281 33.5411 44.8228 33.5291 44.8228 33.5291C44.8228 33.5291 44.9114 38.1818 46.8357 39.5463C48.76 40.9107 51.0708 39.4658 51.0708 39.4658Z" stroke="#263238" stroke-width="0.5" stroke-linecap="round" stroke-linejoin="round"/>
<path d="M63.7359 44.9678C62.8422 43.2009 61.57 41.2891 60.0483 40.7055C57.0129 39.5342 54.5853 42.4603 54.5853 42.4603C54.5853 42.4603 54.2431 46.2276 56.3285 48.2924C58.4138 50.3572 65.1449 48.3488 65.1449 48.3488C65.1449 48.3488 64.8993 47.576 64.4525 46.5174" stroke="#263238" stroke-width="0.5" stroke-linecap="round" stroke-linejoin="round"/>
<path d="M54.5853 42.4603L59.9355 45.5957" stroke="#263238" stroke-width="0.5" stroke-linecap="round" stroke-linejoin="round"/>
<path d="M42.7455 61.643H65.8091" stroke="#263238" stroke-width="0.5" stroke-linecap="round" stroke-linejoin="round"/>
<path d="M34.0814 33.534C37.3658 32.3453 39.0645 28.7198 37.8755 25.4362C36.6866 22.1525 33.0603 20.4542 29.776 21.6429C26.4916 22.8315 24.793 26.457 25.9819 29.7407C27.1708 33.0243 30.7971 34.7226 34.0814 33.534Z" stroke="#263238" stroke-width="0.5" stroke-linecap="round" stroke-linejoin="round"/>
<path d="M31.6587 15.3124V19.0797" stroke="#263238" stroke-width="0.5" stroke-linecap="round" stroke-linejoin="round"/>
<path d="M31.6587 35.9279V39.6992" stroke="#263238" stroke-width="0.5" stroke-linecap="round" stroke-linejoin="round"/>
<path d="M19.4646 27.5038H23.2327" stroke="#263238" stroke-width="0.5" stroke-linecap="round" stroke-linejoin="round"/>
<path d="M40.0846 27.5038H43.8567" stroke="#263238" stroke-width="0.5" stroke-linecap="round" stroke-linejoin="round"/>
<path d="M23.0355 36.1251L25.7006 33.4606" stroke="#263238" stroke-width="0.5" stroke-linecap="round" stroke-linejoin="round"/>
<path d="M37.6168 21.547L40.2819 18.8825" stroke="#263238" stroke-width="0.5" stroke-linecap="round" stroke-linejoin="round"/>
<path d="M40.2819 36.1251L37.6168 33.4606" stroke="#263238" stroke-width="0.5" stroke-linecap="round" stroke-linejoin="round"/>
<path d="M25.7006 21.547L23.0355 18.8825" stroke="#263238" stroke-width="0.5" stroke-linecap="round" stroke-linejoin="round"/>
<path d="M20.934 73.3353L15.7005 61.4337L26.9002 68.1512L89.058 139.71C89.3296 140.022 89.5369 140.385 89.6682 140.778C89.7994 141.171 89.8519 141.586 89.8228 141.999C89.7936 142.412 89.6833 142.815 89.4982 143.185C89.3131 143.556 89.0568 143.886 88.744 144.157L87.5362 145.208C87.2233 145.48 86.8598 145.687 86.4667 145.818C86.0736 145.949 85.6584 146.002 85.2449 145.973C84.8315 145.944 84.4278 145.833 84.057 145.648C83.6862 145.463 83.3555 145.207 83.0837 144.894L20.934 73.3353Z" stroke="#263238" stroke-width="0.5" stroke-miterlimit="10"/>
<path d="M26.876 68.1311L15.7085 61.4377L20.9179 73.3071L26.876 68.1311Z" stroke="#263238" stroke-width="0.5" stroke-miterlimit="10"/>
<path d="M22.3269 65.4062L15.7085 61.4377L18.7963 68.4692L22.3269 65.4062Z" fill="#263238" stroke="#263238" stroke-width="0.5" stroke-miterlimit="10"/>
<path d="M87.5362 145.208L88.7439 144.157C89.0568 143.886 89.3131 143.556 89.4982 143.185C89.6833 142.815 89.7936 142.412 89.8227 141.999C89.8519 141.586 89.7993 141.171 89.6681 140.778C89.5369 140.385 89.3296 140.022 89.0579 139.71L82.9307 132.67L76.9565 137.854L83.0716 144.894C83.3435 145.209 83.6749 145.466 84.0468 145.653C84.4187 145.839 84.8237 145.95 85.2386 145.979C85.6535 146.008 86.0701 145.955 86.4644 145.823C86.8587 145.69 87.2229 145.481 87.5362 145.208Z" stroke="#263238" stroke-width="0.5" stroke-miterlimit="10"/>
<path d="M82.9409 132.67L76.968 137.855L78.5359 139.66L84.5088 134.475L82.9409 132.67Z" stroke="#263238" stroke-width="0.5" stroke-miterlimit="10"/>
<path d="M81.4411 130.938L75.4682 136.124L77.036 137.929L83.009 132.744L81.4411 130.938Z" stroke="#263238" stroke-width="0.5" stroke-miterlimit="10"/>
<path d="M79.1063 131.515L25.9904 70.3569" stroke="#263238" stroke-width="0.5" stroke-miterlimit="10"/>
<path d="M68.7077 124.56L39.9315 91.4272" stroke="#263238" stroke-width="0.5" stroke-miterlimit="10"/>
<path d="M37.1739 88.2516L24.4606 73.6211" stroke="#263238" stroke-width="0.5" stroke-miterlimit="10"/>
<path d="M56.88 150.976L52.653 168.605C52.653 168.605 54.1103 170.645 54.6941 171.229C55.2778 171.812 56.5862 171.808 57.025 171.808C57.4638 171.808 73.9332 172.102 73.9332 172.102L77.1699 150.553" stroke="#263238" stroke-width="0.5" stroke-linecap="round" stroke-linejoin="round"/>
<path d="M60.4107 147.647L59.0661 147.623" stroke="#263238" stroke-width="0.5" stroke-linecap="round" stroke-linejoin="round"/>
<path d="M53.5267 168.894L71.3085 168.838L75.0967 147.917L62.0572 147.679" stroke="#263238" stroke-width="0.5" stroke-linecap="round" stroke-linejoin="round"/>
<path d="M54.5491 169.043L56.0064 170.645L73.0556 171.08L76.1393 152.388L74.8027 150.537" stroke="#263238" stroke-width="0.5" stroke-linecap="round" stroke-linejoin="round"/>
<path d="M57.5282 169.969H59.9839C59.9839 169.969 59.5813 171.921 59.368 173.773C59.1546 175.624 59.062 177.987 59.062 177.987L57.6208 175.314L55.8736 177.576L57.5282 169.969Z" fill="#263238"/>
<path d="M7.27863 80.1052L0.547546 90.6464L2.00487 91.0126L8.73193 81.0148L19.4566 87.193L20.9139 85.74L9.09424 79.5578" stroke="#263238" stroke-width="0.5" stroke-linecap="round" stroke-linejoin="round"/>
<path d="M8.73196 81.0148L11.6386 98.4667L20.5516 103.554L19.2754 88.1026" stroke="#263238" stroke-width="0.5" stroke-linecap="round" stroke-linejoin="round"/>
<path d="M20.5515 103.554L22.0048 100.829L20.9139 85.74" stroke="#263238" stroke-width="0.5" stroke-linecap="round" stroke-linejoin="round"/>
<path d="M11.6385 98.4667L5.64013 106.645L2.54834 92.4656" stroke="#263238" stroke-width="0.5" stroke-linecap="round" stroke-linejoin="round"/>
<path d="M0.547546 90.6464L4.00165 106.464L5.64014 106.645" stroke="#263238" stroke-width="0.5" stroke-linecap="round" stroke-linejoin="round"/>
<path d="M9.09424 87.0119L4.368 93.5564" stroke="#263238" stroke-width="0.5" stroke-linecap="round" stroke-linejoin="round"/>
<path d="M9.45652 90.103L4.73027 96.6475" stroke="#263238" stroke-width="0.5" stroke-linecap="round" stroke-linejoin="round"/>
<path d="M9.82292 93.1941L5.09265 99.7386" stroke="#263238" stroke-width="0.5" stroke-linecap="round" stroke-linejoin="round"/>
<path d="M10.1852 96.2852L5.45895 102.83" stroke="#263238" stroke-width="0.5" stroke-linecap="round" stroke-linejoin="round"/>
<path d="M11.095 87.193L17.4598 90.8315" stroke="#263238" stroke-width="0.5" stroke-linecap="round" stroke-linejoin="round"/>
<path d="M11.095 90.103L17.4598 93.7375" stroke="#263238" stroke-width="0.5" stroke-linecap="round" stroke-linejoin="round"/>
<path d="M12.0049 93.1941L18.3696 96.8286" stroke="#263238" stroke-width="0.5" stroke-linecap="round" stroke-linejoin="round"/>
<path d="M12.186 96.2852L18.5507 99.9197" stroke="#263238" stroke-width="0.5" stroke-linecap="round" stroke-linejoin="round"/>
<path d="M14.7698 121.631C16.1234 120.278 16.1234 118.084 14.7698 116.731C13.4162 115.377 11.2215 115.377 9.86786 116.731C8.51423 118.084 8.51423 120.278 9.86786 121.631C11.2215 122.985 13.4162 122.985 14.7698 121.631Z" stroke="#263238" stroke-width="0.5" stroke-miterlimit="10"/>
<path d="M25.6244 119.815C25.9739 117.933 24.7315 116.124 22.8493 115.775C20.9672 115.426 19.1581 116.668 18.8086 118.549C18.459 120.431 19.7015 122.24 21.5836 122.589C23.4658 122.939 25.2749 121.697 25.6244 119.815Z" stroke="#263238" stroke-width="0.5" stroke-miterlimit="10"/>
<path d="M35.4876 119.967C35.9273 118.105 34.7734 116.238 32.9103 115.799C31.0472 115.359 29.1803 116.513 28.7406 118.375C28.3009 120.238 29.4547 122.104 31.3179 122.544C33.181 122.984 35.0479 121.83 35.4876 119.967Z" fill="#263238" stroke="#263238" stroke-width="0.5" stroke-miterlimit="10"/>
<path d="M44.4624 121.629C45.816 120.276 45.816 118.081 44.4624 116.728C43.1087 115.375 40.9141 115.375 39.5604 116.728C38.2068 118.081 38.2068 120.276 39.5604 121.629C40.9141 122.982 43.1087 122.982 44.4624 121.629Z" stroke="#263238" stroke-width="0.5" stroke-miterlimit="10"/>
<path d="M14.7688 132.023C16.1224 130.669 16.1224 128.475 14.7688 127.122C13.4152 125.769 11.2205 125.769 9.86689 127.122C8.51326 128.475 8.51325 130.669 9.86688 132.023C11.2205 133.376 13.4152 133.376 14.7688 132.023Z" stroke="#263238" stroke-width="0.5" stroke-miterlimit="10"/>
<path d="M25.6269 130.205C25.9764 128.323 24.7339 126.514 22.8518 126.165C20.9696 125.815 19.1605 127.058 18.811 128.939C18.4615 130.821 19.7039 132.63 21.5861 132.979C23.4682 133.329 25.2773 132.087 25.6269 130.205Z" fill="#263238" stroke="#263238" stroke-width="0.5" stroke-miterlimit="10"/>
<path d="M35.4874 130.36C35.9271 128.497 34.7732 126.631 32.9101 126.191C31.047 125.752 29.1801 126.905 28.7404 128.768C28.3007 130.631 29.4545 132.497 31.3177 132.937C33.1808 133.376 35.0477 132.223 35.4874 130.36Z" stroke="#263238" stroke-width="0.5" stroke-miterlimit="10"/>
<path d="M44.4653 132.024C45.8189 130.671 45.8189 128.477 44.4653 127.123C43.1117 125.77 40.917 125.77 39.5634 127.123C38.2098 128.477 38.2098 130.671 39.5634 132.024C40.917 133.378 43.1117 133.378 44.4653 132.024Z" stroke="#263238" stroke-width="0.5" stroke-miterlimit="10"/>
<path d="M15.6937 140.751C16.1335 138.888 14.9796 137.022 13.1164 136.582C11.2533 136.142 9.38647 137.296 8.94673 139.159C8.50699 141.021 9.66088 142.888 11.524 143.328C13.3871 143.767 15.254 142.614 15.6937 140.751Z" stroke="#263238" stroke-width="0.5" stroke-miterlimit="10"/>
<path d="M23.9282 142.973C25.5941 142.03 26.1798 139.916 25.2366 138.25C24.2933 136.585 22.1783 135.999 20.5125 136.942C18.8467 137.885 18.2609 140 19.2041 141.665C20.1474 143.331 22.2624 143.916 23.9282 142.973Z" stroke="#263238" stroke-width="0.5" stroke-miterlimit="10"/>
<path d="M34.5688 142.412C35.9224 141.058 35.9224 138.864 34.5688 137.511C33.2151 136.158 31.0205 136.158 29.6668 137.511C28.3132 138.864 28.3132 141.058 29.6668 142.412C31.0205 143.765 33.2151 143.765 34.5688 142.412Z" stroke="#263238" stroke-width="0.5" stroke-miterlimit="10"/>
<path d="M45.3851 140.752C45.8248 138.889 44.671 137.023 42.8078 136.583C40.9447 136.143 39.0779 137.297 38.6381 139.16C38.1984 141.022 39.3523 142.889 41.2154 143.329C43.0785 143.768 44.9454 142.615 45.3851 140.752Z" fill="#263238" stroke="#263238" stroke-width="0.5" stroke-miterlimit="10"/>
<path d="M15.6935 151.144C16.1333 149.281 14.9794 147.414 13.1162 146.975C11.2531 146.535 9.38627 147.689 8.94653 149.551C8.50679 151.414 9.66069 153.281 11.5238 153.72C13.3869 154.16 15.2538 153.006 15.6935 151.144Z" stroke="#263238" stroke-width="0.5" stroke-miterlimit="10"/>
<path d="M23.9292 153.369C25.595 152.426 26.1808 150.311 25.2376 148.646C24.2943 146.98 22.1793 146.395 20.5135 147.338C18.8476 148.281 18.2619 150.395 19.2051 152.061C20.1484 153.726 22.2634 154.312 23.9292 153.369Z" stroke="#263238" stroke-width="0.5" stroke-miterlimit="10"/>
<path d="M34.5677 152.803C35.9213 151.45 35.9213 149.256 34.5677 147.902C33.2141 146.549 31.0194 146.549 29.6658 147.902C28.3121 149.256 28.3122 151.45 29.6658 152.803C31.0194 154.156 33.2141 154.156 34.5677 152.803Z" fill="#263238" stroke="#263238" stroke-width="0.5" stroke-miterlimit="10"/>
<path d="M45.3889 151.144C45.8287 149.282 44.6748 147.415 42.8117 146.976C40.9485 146.536 39.0817 147.69 38.642 149.552C38.2022 151.415 39.3561 153.282 41.2192 153.721C43.0824 154.161 44.9492 153.007 45.3889 151.144Z" stroke="#263238" stroke-width="0.5" stroke-miterlimit="10"/>
<path d="M137.818 50.3894C137.818 50.3894 134.324 46.3282 129.505 45.3824C124.686 44.4365 118.595 49.4073 117.649 51.3835C116.703 53.3597 114.956 69.3748 114.956 69.3748H142.448C142.448 69.3748 139.803 55.4889 139.332 54.0802C138.861 52.6715 137.818 50.3894 137.818 50.3894Z" fill="#263238" stroke="#263238" stroke-width="0.5" stroke-miterlimit="10"/>
<path d="M121.119 69.6163C121.119 69.6163 120.197 92.6347 119.485 95.8143C118.772 98.994 115.294 106.629 113.929 111.177C113.211 113.476 112.672 115.827 112.319 118.209H142.109C142.109 118.209 137.347 98.8894 136.924 96.1162C136.502 93.3431 136.924 71.0371 136.924 71.0371V69.25L121.119 69.6163Z" fill="white" stroke="#263238" stroke-width="0.5" stroke-miterlimit="10"/>
<path d="M139.332 106.887H115.439C114.847 108.444 114.316 109.926 113.941 111.177C113.219 113.476 112.676 115.826 112.319 118.209H142.109C142.109 118.209 140.68 112.53 139.332 106.887Z" fill="#263238" stroke="#263238" stroke-width="0.5" stroke-miterlimit="10"/>
<path d="M135.688 67.9822C135.688 67.9822 134.976 98.3863 135.189 100.733C135.403 103.079 143.788 127.446 144.002 128.505C144.215 129.563 145.423 132.485 145.423 132.485H151.176C151.176 132.485 152.029 123.888 150.181 116.997C148.333 110.107 144.428 103.429 143.575 101.51C142.721 99.5897 145.209 83.3372 145.209 83.3372C145.209 83.3372 154.871 94.9168 155.439 95.4119C156.006 95.9069 168.019 97.4002 167.593 96.6918C167.166 95.9834 161.196 88.167 158.426 84.6171C155.656 81.0671 151.107 73.4641 149.187 71.4034C147.266 69.3426 143.361 67.4268 141.441 67.7085C139.521 67.9902 138.317 68.2076 138.317 68.2076L135.688 67.9822Z" fill="#8185E7"/>
<path d="M141.795 76.0119C141.795 76.0119 142.721 80.4151 144.356 82.1176" stroke="#263238" stroke-width="0.5" stroke-miterlimit="10"/>
<path d="M141.727 79.9884C141.727 79.9884 143.076 82.6167 144.428 83.5384" stroke="#263238" stroke-width="0.5" stroke-miterlimit="10"/>
<path d="M138.889 81.9083C138.889 81.9083 141.518 84.605 143.792 85.5307" stroke="#263238" stroke-width="0.5" stroke-miterlimit="10"/>
<path d="M158.567 91.5681C158.567 91.5681 161.763 91.0006 163.043 91.9223" stroke="#263238" stroke-width="0.5" stroke-miterlimit="10"/>
<path d="M159.915 90.582C158.829 90.5049 157.756 90.8625 156.932 91.5761" stroke="#263238" stroke-width="0.5" stroke-miterlimit="10"/>
<path d="M121.9 70.8962C121.9 70.8962 122.258 82.9025 121.759 89.7207C121.26 96.5388 120.765 96.9655 120.411 100.093C120.056 103.22 116.147 112.316 113.527 116.148C110.906 119.98 109.05 125.667 108.337 128.509C107.975 129.813 107.714 131.144 107.556 132.489H102.786C102.786 132.489 101.224 129.149 104.352 118.495C107.48 107.841 112.025 103.574 112.379 100.234C112.733 96.893 110.886 83.7397 110.886 83.7397L102.693 93.6168L93.599 95.2509C93.599 95.2509 95.4187 90.8235 97.194 87.2011C98.9694 83.5787 102.673 78.7005 103.994 75.557C105.918 70.9767 110.318 67.8816 112.025 67.6683C113.732 67.4549 117.637 67.3141 117.637 67.3141L120.978 66.7466L121.9 70.8962Z" fill="#8185E7"/>
<path d="M110.886 83.7517L109.465 73.5929" stroke="#263238" stroke-width="0.5" stroke-miterlimit="10"/>
<path d="M106.981 75.227L109.964 81.9083" stroke="#263238" stroke-width="0.5" stroke-miterlimit="10"/>
<path d="M106.981 79.8476L108.756 82.19" stroke="#263238" stroke-width="0.5" stroke-miterlimit="10"/>
<path d="M98.6071 90.2076C98.6071 90.2076 101.449 89.781 103.366 90.916" stroke="#263238" stroke-width="0.5" stroke-miterlimit="10"/>
<path d="M97.4677 89.6401C97.4677 89.6401 99.7423 89.0686 100.596 89.2135" stroke="#263238" stroke-width="0.5" stroke-miterlimit="10"/>
<path d="M128.772 82.83C132.127 82.83 134.847 78.9161 134.847 74.088C134.847 69.2599 132.127 65.3459 128.772 65.3459C125.417 65.3459 122.697 69.2599 122.697 74.088C122.697 78.9161 125.417 82.83 128.772 82.83Z" fill="white" stroke="#263238" stroke-width="0.5" stroke-miterlimit="10"/>
<path d="M113.261 67.5636C113.261 67.5636 117.367 73.1179 121.312 76.0722C125.258 79.0265 128.861 75.6335 128.861 75.6335L121.751 66.8874L113.261 67.5636Z" fill="#263238" stroke="#263238" stroke-width="0.5" stroke-miterlimit="10"/>
<path d="M127.061 54.3579C127.061 54.3579 119.742 57.763 119.642 59.1878C119.541 60.6126 120.644 68.8113 121.147 70.216C121.651 71.6207 126.908 76.9818 127.911 77.0825C128.913 77.1831 130.117 76.9818 130.519 76.5793C130.922 76.1769 136.087 70.7191 136.188 69.9141C136.288 69.1091 136.59 58.6887 136.59 58.6887L128.164 54.2613L127.762 47.5437L126.957 47.745L127.061 54.3579Z" fill="white" stroke="#263238" stroke-width="0.5" stroke-miterlimit="10"/>
<path d="M126.731 69.6002C126.731 69.6002 126.53 70.2079 126.868 70.4816C127.206 70.7553 128.221 71.3591 128.881 71.021C129.541 70.6829 130.028 70.216 129.964 69.737" stroke="#263238" stroke-width="0.5" stroke-miterlimit="10"/>
<path d="M126.123 72.3049C126.806 72.8057 127.646 73.0455 128.49 72.9811C129.348 72.8769 130.164 72.5509 130.857 72.0353" stroke="#263238" stroke-width="0.5" stroke-miterlimit="10"/>
<path d="M122.742 66.0865C122.742 66.0865 124.3 67.4388 125.99 66.5574" stroke="#263238" stroke-width="0.5" stroke-miterlimit="10"/>
<path d="M130.789 66.4929C130.789 66.4929 132.802 67.3704 134.102 66.1549" stroke="#263238" stroke-width="0.5" stroke-miterlimit="10"/>
<path d="M125.604 63.2449C125.604 63.2449 123.237 62.2306 121.546 63.7198" stroke="#263238" stroke-width="0.5" stroke-miterlimit="10"/>
<path d="M130.435 63.112C130.435 63.112 133.209 62.0978 134.493 63.5829" stroke="#263238" stroke-width="0.5" stroke-miterlimit="10"/>
<path d="M123.547 86.376L127.238 92.6186L128.072 92.7031L124.295 85.9896C124.267 85.9335 124.227 85.8845 124.177 85.846C124.128 85.8075 124.07 85.7806 124.009 85.7671C123.948 85.7536 123.884 85.7539 123.823 85.768C123.762 85.7822 123.705 85.8097 123.655 85.8487C123.579 85.9107 123.527 85.997 123.507 86.093C123.488 86.189 123.501 86.289 123.547 86.376Z" fill="white" stroke="#263238" stroke-width="0.5" stroke-miterlimit="10"/>
<path d="M122.339 93.0492C122.339 93.0492 123.426 91.717 124.638 91.721C125.998 91.7456 127.354 91.8938 128.688 92.1637C129.143 92.3328 130.012 94.462 130.149 94.6471C130.286 94.8323 131.212 95.4923 131.248 96.2571C131.278 96.694 131.212 97.1321 131.055 97.541C131.055 97.541 130.942 99.0825 130.761 99.3442L130.584 99.6098C130.584 99.6098 130.181 100.33 129.98 100.342C129.779 100.354 121.614 100.431 121.614 100.431C121.614 100.431 120.994 95.605 122.339 93.0492Z" fill="white" stroke="#263238" stroke-width="0.5" stroke-miterlimit="10"/>
<path d="M126.538 93.9307C126.538 93.9307 127.935 93.7979 128.325 93.9709C128.716 94.144 130.149 94.6471 130.149 94.6471" stroke="#263238" stroke-width="0.5" stroke-miterlimit="10"/>
<path d="M127.693 96.6837L131.055 97.541" stroke="#263238" stroke-width="0.5" stroke-miterlimit="10"/>
<path d="M127.411 98.8048L130.584 99.6098" stroke="#263238" stroke-width="0.5" stroke-miterlimit="10"/>
<path d="M99.2311 91.3869C99.2311 91.3869 102.069 90.6101 103.76 91.23C105.451 91.8498 111.598 92.9526 115.801 93.9629C120.004 94.9731 122.339 93.0693 122.339 93.0693C121.65 94.425 121.328 95.9376 121.405 97.4565C121.53 100.008 121.614 100.451 121.614 100.451C121.614 100.451 112.87 100.684 110.258 100.813C107.645 100.942 93.4984 100.926 93.0355 99.2878C92.5725 97.6497 93.4823 95.3072 94.3116 93.991" fill="#8185E7"/>
<path d="M163.804 93.5041C163.804 93.5041 163.164 92.7353 160.229 92.7997C157.295 92.8641 150.592 96.4221 148.68 97.0097C146.767 97.5974 142.677 97.2673 142.677 97.2673L146.381 100.777H167.375C167.375 100.777 169.545 99.7547 169.163 97.7785C168.78 95.8023 164.694 93.822 164.694 93.822" fill="#8185E7"/>
<path d="M133.744 100.584C133.744 100.584 137.508 97.9677 138.402 97.5209C139.295 97.0741 142.295 97.2029 142.677 97.2673C143.06 97.3317 145.741 98.99 146.252 99.5656C146.601 99.9677 146.921 100.394 147.21 100.841L133.744 100.584Z" fill="white" stroke="#263238" stroke-width="0.5" stroke-miterlimit="10"/>
<path d="M135.978 100.395C135.978 100.395 139.042 98.4788 140.189 98.0321" stroke="#263238" stroke-width="0.5" stroke-miterlimit="10"/>
<path d="M138.913 100.584C138.913 100.584 141.783 98.7324 142.488 98.2253" stroke="#263238" stroke-width="0.5" stroke-miterlimit="10"/>
<path d="M142.041 100.713C142.81 100.222 143.618 99.7957 144.457 99.4367" stroke="#263238" stroke-width="0.5" stroke-miterlimit="10"/>
<path d="M103.563 135.045H105.35V184.149C105.35 184.24 105.332 184.331 105.297 184.415C105.262 184.5 105.211 184.576 105.146 184.641C105.082 184.706 105.005 184.757 104.92 184.792C104.836 184.827 104.745 184.845 104.654 184.845H104.251C104.066 184.845 103.889 184.772 103.759 184.641C103.628 184.511 103.555 184.333 103.555 184.149V135.045H103.563Z" fill="white" stroke="#263238" stroke-width="0.5" stroke-miterlimit="10"/>
<path d="M149.996 135.045H151.771V184.149C151.771 184.333 151.698 184.511 151.567 184.641C151.437 184.772 151.26 184.845 151.075 184.845H150.672C150.488 184.845 150.31 184.772 150.18 184.641C150.049 184.511 149.976 184.333 149.976 184.149V135.045H149.996Z" fill="white" stroke="#263238" stroke-width="0.5" stroke-miterlimit="10"/>
<path d="M153.112 129.885H102.339C101.641 129.885 101.075 130.451 101.075 131.149V134.84C101.075 135.538 101.641 136.104 102.339 136.104H153.112C153.81 136.104 154.376 135.538 154.376 134.84V131.149C154.376 130.451 153.81 129.885 153.112 129.885Z" fill="#8C8C8C" stroke="#263238" stroke-width="0.5" stroke-miterlimit="10"/>
<path d="M128.019 106.883C128.019 106.883 120.471 108.839 114.92 112.747C109.368 116.655 106.924 121.095 107.81 126.605C108.663 131.898 115.217 134.119 117.585 133.709C119.952 133.298 124.11 133.709 127.504 130.533C130.898 127.357 137.069 112.127 137.069 112.127C137.069 112.127 132.766 105.957 128.019 106.883Z" fill="#263238" stroke="#263238" stroke-width="0.5" stroke-miterlimit="10"/>
<path d="M120.628 157.576C120.628 157.576 121.031 171.559 120.938 172.468C120.845 173.378 116.308 179.476 115.177 181.142C114.046 182.808 113.329 185.167 114.046 187.002C114.762 188.838 117.544 188.954 119.279 188.029C121.014 187.103 125.04 177.544 125.246 176.103C125.451 174.662 125.761 170.871 125.761 170.871L128.434 158.635L120.628 157.576Z" fill="white" stroke="#263238" stroke-width="0.5" stroke-miterlimit="10"/>
<path d="M125.407 174.827C124.316 177.355 122.186 181.122 122.186 181.122C121.461 180.437 120.626 179.88 119.714 179.476C118.978 179.12 118.168 178.944 117.351 178.961L117.927 177.282C116.804 178.892 115.68 180.41 115.189 181.122C114.058 182.768 113.341 185.147 114.058 186.982C114.775 188.818 117.556 188.934 119.291 188.009C121.027 187.083 125.052 177.524 125.258 176.083C125.302 175.761 125.354 175.318 125.407 174.827Z" fill="#8185E7"/>
<path d="M130.399 120.455C130.399 120.455 125.165 120.052 123.305 122.306C121.445 124.56 120.423 131.354 120.322 135.778C120.221 140.201 120.527 155.826 120.527 155.826L128.446 157.061C128.446 157.061 134.513 135.778 135.028 131.869C135.543 127.961 133.998 120.366 130.399 120.455Z" fill="#263238" stroke="#263238" stroke-width="0.5" stroke-miterlimit="10"/>
<path d="M119.746 154.538L119.911 158.502C119.911 158.502 122.359 160.366 124.098 160.639C127.544 161.175 129.372 159.219 129.372 159.219L129.936 155.918C129.952 155.819 129.945 155.718 129.915 155.622C129.884 155.526 129.831 155.44 129.761 155.369C129.69 155.298 129.603 155.245 129.507 155.214C129.411 155.184 129.31 155.177 129.211 155.194C127.701 155.474 126.159 155.527 124.634 155.351C123.242 155.096 121.9 154.624 120.656 153.95C120.558 153.901 120.449 153.878 120.34 153.884C120.231 153.89 120.125 153.924 120.033 153.983C119.941 154.043 119.866 154.125 119.816 154.222C119.766 154.32 119.742 154.428 119.746 154.538Z" fill="#B0B0B0" stroke="#263238" stroke-width="0.5" stroke-miterlimit="10"/>
<path d="M140.068 138.14C140.068 138.14 150.66 153.463 151.381 155.314C152.101 157.166 153.744 163.332 154.775 166.52C155.805 169.707 158.684 171.35 159.915 171.454C161.147 171.559 162.899 168.166 162.693 165.699C162.488 163.231 160.841 159.323 159.299 156.751C157.758 154.179 156.932 152.127 156.212 151.116C155.491 150.106 153.438 146.798 151.896 144.435C150.354 142.072 146.538 133.105 146.538 133.105L140.068 138.14Z" fill="white" stroke="#263238" stroke-width="0.5" stroke-miterlimit="10"/>
<path d="M155.596 160.969C153.438 160.969 152.512 158.192 152.512 158.192L152.367 158.385C153.14 160.994 154.094 164.423 154.783 166.52C155.809 169.707 158.692 171.35 159.923 171.454C161.155 171.559 162.907 168.166 162.701 165.699C162.496 163.231 160.849 159.323 159.308 156.751C157.766 154.179 156.94 152.127 156.22 151.116C156.22 151.116 159.102 156.156 159.102 158.007C159.102 159.858 157.758 160.969 155.596 160.969Z" fill="#8185E7"/>
<path d="M126.904 114.389C126.904 114.389 130.93 125.188 133.692 129.813C135.163 132.326 136.812 134.731 138.627 137.009L146.538 131.664C146.538 131.664 141.707 112.952 138.003 109.044C134.3 105.136 130.29 105.752 128.027 106.883L125.25 108.839" fill="#263238"/>
<path d="M126.904 114.389C126.904 114.389 130.93 125.188 133.692 129.813C135.163 132.326 136.812 134.731 138.627 137.009L146.538 131.664C146.538 131.664 141.707 112.952 138.003 109.044C134.3 105.136 130.29 105.752 128.027 106.883L125.25 108.839" stroke="#263238" stroke-width="0.5" stroke-miterlimit="10"/>
<path d="M137.528 137.536L140.346 141.046C140.553 141.304 140.851 141.474 141.178 141.52C141.506 141.566 141.839 141.486 142.11 141.296L148.502 138.007C148.728 137.845 148.896 137.615 148.982 137.351C149.067 137.087 149.066 136.802 148.978 136.538L147.681 132.316C147.643 132.201 147.582 132.094 147.501 132.004C147.42 131.913 147.322 131.84 147.211 131.79C147.101 131.739 146.981 131.712 146.86 131.71C146.738 131.707 146.618 131.73 146.506 131.777C144.565 132.582 139.928 134.594 137.681 136.281C137.588 136.353 137.51 136.442 137.452 136.545C137.394 136.647 137.357 136.76 137.343 136.877C137.328 136.993 137.337 137.112 137.369 137.225C137.401 137.338 137.455 137.444 137.528 137.536Z" fill="#B0B0B0" stroke="#263238" stroke-width="0.5" stroke-miterlimit="10"/>
<path d="M167.375 103.421H87.9509V113.858H167.375V103.421Z" fill="#8C8C8C" stroke="#263238" stroke-width="0.5" stroke-miterlimit="10"/>
<path d="M86.5016 102.311H88.8808V183.907C88.8808 184.154 88.7828 184.39 88.6084 184.565C88.434 184.739 88.1975 184.837 87.9508 184.837H87.4275C87.1809 184.837 86.9443 184.739 86.7699 184.565C86.5955 184.39 86.4975 184.154 86.4975 183.907V102.311H86.5016Z" fill="white" stroke="#263238" stroke-width="0.5" stroke-miterlimit="10"/>
<path d="M166.465 102.311H168.845V183.907C168.845 184.154 168.747 184.39 168.572 184.565C168.398 184.739 168.161 184.837 167.915 184.837H167.391C167.145 184.837 166.908 184.739 166.734 184.565C166.559 184.39 166.461 184.154 166.461 183.907V102.311H166.465Z" fill="white" stroke="#263238" stroke-width="0.5" stroke-miterlimit="10"/>
<path d="M171.699 100.367H83.9332V104.158H171.699V100.367Z" fill="white" stroke="#263238" stroke-width="0.5" stroke-miterlimit="10"/>
</g>
<defs>
<clipPath id="clip0_615_124">
<rect width="250" height="194" fill="white" transform="translate(0 3)"/>
</clipPath>
</defs>
</svg>
